<?xml version="1.0" encoding="UTF-8"?>
<svg id="Livello_1" data-name="Livello 1" xmlns="http://www.w3.org/2000/svg" viewBox="0 0 45 45">
  <defs>
    <style>
      .cls-1 {
        fill: #d2d627;
      }

      .cls-2 {
        fill: #5c5aa0;
      }
    </style>
  </defs>
  <rect class="cls-1" width="45" height="45"/>
  <path class="cls-2" d="M21.2652994204,34.7984472297c-.3657297111-.0000000997-.6629920506-.114112415-.891216457-.3429075071-.2287949677-.2282245311-.3429071211-.5254869327-.3429070214-.8912166438l.0000010091-3.7035125663-1.2346943758-.0000003364c-.3657297111-.0000000997-.6629920506-.114112415-.891216457-.3429075071-.2287949677-.2282245311-.3429071211-.5254869327-.3429070214-.8912166438l.0000009967-3.6578676726-1.2346943758-.0000003364c-.3657297111-.0000000997-.6629920506-.114112415-.891216457-.3429075071-.2287949677-.2282245311-.3429071211-.5254869327-.3429070214-.8912166438l.0000010091-3.7035125663-1.1890494821-.000000324c-.3657297111-.0000000997-.6629920506-.114112415-.891216457-.3429075071-.2287949677-.2282245311-.3429071211-.5254869327-.3429070214-.8912166438l.0000010091-3.7035125663-1.2346943758-.0000003364c-.3657297111-.0000000997-.6629920506-.114112415-.891216457-.3429075071-.2287949677-.2282245311-.3429071211-.5254869327-.3429070214-.8912166438l.0000009967-3.6578676726,4.937636381.0000013454-.000001333,4.8919914872,1.1884789209.0000003238c.3657297111.0000000997.6629920506.114112415.8917870181.3429075073.2282244064.2287950921.3429071209.5260574939.3429070213.891787205l-.000001009,3.7029420052,1.2341238147.0000003363c.3657297111.0000000997.6629920504.1146829762.8917870181.3429075073.2282244064.2287950921.3429071209.5260574939.3429070213.891787205l-.000001009,3.7029420052,4.937636381.0000013454.000001009-3.7029420052c.0000000997-.3657297111.114112415-.6629920506.3429075073-.8917870181.2282245309-.2282244065.5254869327-.3429071211.8912166438-.3429070214l1.2346943758.0000003364.000001009-3.7029420052c.0000000997-.3657297111.114112415-.6629920506.3429075073-.8917870181s.5254869327-.3429071211.8912166438-.3429070214l1.1890494821.000000324.000001333-4.8919914872,4.937636381.0000013454-.0000009967,3.6578676726c-.0000000997.3657297111-.114112415.6629920506-.3429075071.891216457-.2287950922.2287949676-.5260574939.3429071209-.891787205.3429070213l-1.2341238147-.0000003363-.0000010091,3.7035125663c-.0000000997.3657297111-.114112415.6629920506-.3429075071.891216457-.2287950922.2287949676-.5260574939.3429071209-.891787205.3429070213l-1.1884789209-.0000003238-.0000010091,3.7035125663c-.0000000997.3657297111-.114112415.6629920506-.3429075071.891216457-.2287950922.2287949676-.5260574939.3429071209-.891787205.3429070213l-1.2341238147-.0000003363-.0000009967,3.6578676726c-.0000000997.3657297111-.114112415.6629920506-.3429075071.891216457-.2287950922.2287949676-.5260574939.3429071209-.891787205.3429070213l-1.2341238147-.0000003363-.0000010091,3.7035125663c-.0000000997.3657297111-.114112415.6629920506-.3429075071.891216457-.2287950922.2287949676-.5260574939.3429071209-.891787205.3429070213l-2.4688181905-.0000006727Z"/>
</svg>