<?xml version="1.0" encoding="UTF-8" standalone="no"?>
<svg viewBox="0 0 45 45" width="45px" height="45px">
  <path
     d="m 20.241117,45.000004 c -0.669103,0 -1.212944,-0.208769 -1.63048,-0.627349 -0.418581,-0.417537 -0.627349,-0.961378 -0.627349,-1.630481 l 2e-6,-6.775573 -2.258872,-10e-7 c -0.669103,0 -1.212944,-0.208769 -1.63048,-0.627349 -0.41858,-0.417537 -0.627349,-0.961378 -0.627348,-1.63048 l 10e-7,-6.692067 h -2.258872 c -0.669102,-1e-6 -1.212944,-0.208769 -1.63048,-0.62735 -0.41858,-0.417536 -0.627348,-0.961378 -0.627348,-1.63048 l 2e-6,-6.775574 H 6.774527 c -0.669102,0 -1.212943,-0.208769 -1.63048,-0.627349 C 4.725467,16.938414 4.516699,16.394573 4.516699,15.72547 l 2e-6,-6.775573 -2.258872,-10e-7 c -0.669103,0 -1.212944,-0.208769 -1.63048,-0.627349 C 0.208768,7.90501 0,7.361169 0,6.692067 L 2e-6,0 l 9.033403,3e-6 -3e-6,8.949895 h 2.174322 c 0.669102,1e-6 1.212943,0.208769 1.631524,0.627349 0.417536,0.418581 0.627348,0.962422 0.627348,1.631525 l -2e-6,6.77453 h 2.257829 c 0.669102,0 1.212943,0.209813 1.631523,0.627349 0.417537,0.418581 0.627349,0.962422 0.627349,1.631524 l -2e-6,6.77453 9.033402,3e-6 2e-6,-6.77453 c 0,-0.669102 0.208769,-1.212944 0.627349,-1.631524 0.417537,-0.417536 0.961378,-0.627348 1.63048,-0.627348 l 2.258873,1e-6 2e-6,-6.77453 c 0,-0.669103 0.208768,-1.212944 0.627349,-1.631524 0.41858,-0.418581 0.961378,-0.627349 1.63048,-0.627348 h 2.175365 L 35.966598,1e-5 45,1.2e-5 l -10e-7,6.692067 c -1e-6,0.669102 -0.208769,1.212943 -0.627349,1.63048 -0.418581,0.41858 -0.962422,0.627348 -1.631525,0.627348 l -2.257828,-10e-7 -2e-6,6.775574 c 0,0.669102 -0.208769,1.212944 -0.627349,1.63048 -0.418581,0.41858 -0.962422,0.627349 -1.631524,0.627348 H 36.0501 l -2e-6,6.775574 c 0,0.669102 -0.208768,1.212943 -0.627349,1.630479 -0.41858,0.418581 -0.962421,0.627349 -1.631524,0.627349 l -2.257828,-1e-6 -2e-6,6.692067 c 0,0.669102 -0.208769,1.212943 -0.627349,1.63048 -0.418581,0.41858 -0.962422,0.627348 -1.631524,0.627348 l -2.257829,-10e-7 -2e-6,6.775574 c 0,0.669102 -0.208769,1.212943 -0.627349,1.63048 -0.418581,0.41858 -0.962422,0.627348 -1.631524,0.627348 z"
     style="stroke-width:1.8295" />
</svg>
