<?xml version="1.0" encoding="UTF-8"?>
<svg id="Livello_1" data-name="Livello 1" xmlns="http://www.w3.org/2000/svg" viewBox="0 0 255.412109375 54.7763671875">
  <defs>
    <style>
      .cls-1 {
        fill: #d2d627;
      }
    </style>
  </defs>
  <path class="cls-1" d="M0,27.3876953125c0-.6259765625.1953125-1.134765625.5869140625-1.525390625.390625-.3916015625.8994140625-.5869140625,1.525390625-.5869140625h6.3388671875v-2.11328125c0-.6259765625.1953125-1.134765625.5869140625-1.525390625.390625-.3916015625.8994140625-.5869140625,1.525390625-.5869140625h6.2607421875v-2.11328125c0-.6259765625.1953125-1.134765625.5869140625-1.525390625.390625-.3916015625.8994140625-.5869140625,1.525390625-.5869140625h6.3388671875v-2.03515625c0-.6259765625.1953125-1.134765625.5869140625-1.525390625.390625-.3916015625.8994140625-.5869140625,1.525390625-.5869140625h6.3388671875v-2.11328125c0-.6259765625.1953125-1.134765625.5869140625-1.525390625.390625-.3916015625.8994140625-.5869140625,1.525390625-.5869140625h6.2607421875v8.451171875h-8.373046875v2.0341796875c0,.6259765625-.1953125,1.134765625-.5869140625,1.5263671875-.3916015625.390625-.900390625.5869140625-1.5263671875.5869140625h-6.337890625v2.1123046875c0,.6259765625-.1962890625,1.134765625-.5869140625,1.5263671875-.3916015625.390625-.900390625.5869140625-1.5263671875.5869140625h-6.337890625v8.451171875h6.337890625c.6259765625,0,1.134765625.1953125,1.5263671875.5869140625.390625.390625.5869140625.8994140625.5869140625,1.525390625v2.11328125h6.337890625c.6259765625,0,1.134765625.1953125,1.5263671875.5869140625s.5869140625.8994140625.5869140625,1.525390625v2.03515625h8.373046875v8.451171875h-6.2607421875c-.6259765625,0-1.134765625-.1953125-1.525390625-.5869140625-.3916015625-.3916015625-.5869140625-.900390625-.5869140625-1.5263671875v-2.1123046875h-6.3388671875c-.6259765625,0-1.134765625-.1953125-1.525390625-.5869140625-.3916015625-.3916015625-.5869140625-.900390625-.5869140625-1.5263671875v-2.0341796875h-6.3388671875c-.6259765625,0-1.134765625-.1953125-1.525390625-.5869140625-.3916015625-.3916015625-.5869140625-.900390625-.5869140625-1.5263671875v-2.1123046875h-6.2607421875c-.6259765625,0-1.134765625-.1953125-1.525390625-.5869140625-.3916015625-.3916015625-.5869140625-.900390625-.5869140625-1.5263671875v-2.1123046875H2.1123046875c-.6259765625,0-1.134765625-.1953125-1.525390625-.5869140625-.3916015625-.3916015625-.5869140625-.900390625-.5869140625-1.5263671875v-4.2255859375Z"/>
  <path class="cls-1" d="M74.025390625,4.2255859375v-2.11328125c0-.6259765625.1953125-1.134765625.5869140625-1.525390625.390625-.3916015625.8994140625-.5869140625,1.525390625-.5869140625h21.0498046875c.6259765625,0,1.134765625.1953125,1.5263671875.5869140625.390625.390625.5869140625.8994140625.5869140625,1.525390625v2.11328125h2.1123046875c.6259765625,0,1.134765625.1953125,1.5263671875.5869140625.3916015625.390625.5869140625.8994140625.5869140625,1.525390625v2.11328125h2.1123046875c.6259765625,0,1.134765625.1953125,1.5263671875.5869140625.3916015625.390625.5869140625.8994140625.5869140625,1.525390625v8.373046875c0,.6259765625-.1953125,1.134765625-.5869140625,1.5263671875-.3916015625.390625-.900390625.5869140625-1.5263671875.5869140625h-2.1123046875v2.1123046875c0,.6259765625-.1953125,1.134765625-.5869140625,1.5263671875-.3916015625.390625-.900390625.5869140625-1.5263671875.5869140625h-2.1123046875v4.2255859375h6.337890625c.6259765625,0,1.134765625.1953125,1.5263671875.5869140625.3916015625.390625.5869140625.8994140625.5869140625,1.525390625v2.11328125h2.1123046875c.6259765625,0,1.134765625.1953125,1.5263671875.5869140625.3916015625.390625.5869140625.8994140625.5869140625,1.525390625v8.373046875c0,.6259765625-.1953125,1.134765625-.5869140625,1.5263671875s-.900390625.5869140625-1.5263671875.5869140625h-2.1123046875v2.1123046875c0,.6259765625-.1953125,1.134765625-.5869140625,1.5263671875s-.900390625.5869140625-1.5263671875.5869140625h-2.1123046875v2.1123046875c0,.626953125-.1953125,1.134765625-.5869140625,1.5263671875s-.900390625.5869140625-1.5263671875.5869140625h-25.275390625c-.6259765625,0-1.134765625-.1953125-1.525390625-.5869140625-.3916015625-.3916015625-.5869140625-.8994140625-.5869140625-1.5263671875v-2.1123046875h-2.11328125c-.6259765625,0-1.134765625-.1953125-1.525390625-.5869140625-.3916015625-.3916015625-.5869140625-.900390625-.5869140625-1.5263671875v-12.5986328125c0-.6259765625.1953125-1.134765625.5869140625-1.525390625.390625-.3916015625.8994140625-.5869140625,1.525390625-.5869140625h2.11328125v-8.451171875h-2.11328125c-.6259765625,0-1.134765625-.1962890625-1.525390625-.5869140625-.3916015625-.3916015625-.5869140625-.900390625-.5869140625-1.5263671875V6.337890625c0-.6259765625.1953125-1.134765625.5869140625-1.525390625.390625-.3916015625.8994140625-.5869140625,1.525390625-.5869140625h2.11328125ZM78.2509765625,8.451171875v16.82421875h16.82421875v-2.11328125c0-.6259765625.1953125-1.134765625.5869140625-1.525390625.390625-.3916015625.8994140625-.5869140625,1.525390625-.5869140625h2.11328125v-8.373046875h-2.11328125c-.6259765625,0-1.134765625-.1962890625-1.525390625-.5869140625-.3916015625-.3916015625-.5869140625-.900390625-.5869140625-1.5263671875v-2.1123046875h-16.82421875ZM78.2509765625,33.7265625v12.5986328125h21.0498046875v-2.11328125c0-.6259765625.1953125-1.134765625.5869140625-1.525390625.390625-.3916015625.8994140625-.5869140625,1.525390625-.5869140625h2.11328125v-4.1474609375h-2.11328125c-.6259765625,0-1.134765625-.1953125-1.525390625-.5869140625-.3916015625-.3916015625-.5869140625-.900390625-.5869140625-1.5263671875v-2.1123046875h-21.0498046875Z"/>
  <path class="cls-1" d="M120.4287109375,35.8388671875c0-.6259765625.1953125-1.134765625.5869140625-1.525390625.390625-.3916015625.8994140625-.5869140625,1.525390625-.5869140625h2.11328125v-6.3388671875c0-.6259765625.1953125-1.134765625.5869140625-1.525390625.390625-.3916015625.8994140625-.5869140625,1.525390625-.5869140625h2.11328125v-10.486328125c0-.6259765625.1953125-1.134765625.5869140625-1.525390625.390625-.3916015625.8994140625-.5869140625,1.525390625-.5869140625h2.11328125v-6.3388671875c0-.6259765625.1953125-1.134765625.5869140625-1.525390625.390625-.3916015625.8994140625-.5869140625,1.525390625-.5869140625h2.11328125v-2.11328125c0-.6259765625.1953125-1.134765625.5869140625-1.525390625.390625-.3916015625.8994140625-.5869140625,1.525390625-.5869140625h4.2255859375c.6259765625,0,1.134765625.1953125,1.5263671875.5869140625.3916015625.390625.5869140625.8994140625.5869140625,1.525390625v2.11328125h2.0341796875c.6259765625,0,1.134765625.1953125,1.5263671875.5869140625.3916015625.390625.5869140625.8994140625.5869140625,1.525390625v6.3388671875h2.1123046875c.6259765625,0,1.134765625.1953125,1.5263671875.5869140625.3916015625.390625.5869140625.8994140625.5869140625,1.525390625v10.486328125h2.1123046875c.6259765625,0,1.134765625.1953125,1.5263671875.5869140625.3916015625.390625.5869140625.8994140625.5869140625,1.525390625v6.3388671875h2.1123046875c.626953125,0,1.134765625.1953125,1.5263671875.5869140625.3916015625.390625.5869140625.8994140625.5869140625,1.525390625v6.2607421875h2.11328125c.6259765625,0,1.1337890625.1953125,1.525390625.5869140625.3916015625.390625.5869140625.8994140625.5869140625,1.525390625v10.564453125h-8.451171875v-8.451171875h-2.11328125c-.6259765625,0-1.1337890625-.1953125-1.525390625-.5869140625s-.5869140625-.900390625-.5869140625-1.5263671875v-6.259765625h-4.2255859375v2.1123046875c0,.6259765625-.1953125,1.134765625-.5869140625,1.5263671875s-.900390625.5869140625-1.5263671875.5869140625h-12.5986328125c-.6259765625,0-1.134765625-.1953125-1.525390625-.5869140625-.3916015625-.3916015625-.5869140625-.900390625-.5869140625-1.5263671875v-2.1123046875h-4.2255859375v6.259765625c0,.6259765625-.1962890625,1.134765625-.5869140625,1.5263671875-.3916015625.3916015625-.900390625.5869140625-1.5263671875.5869140625h-2.1123046875v8.451171875h-8.451171875v-10.564453125c0-.6259765625.1953125-1.134765625.5869140625-1.525390625.390625-.3916015625.8994140625-.5869140625,1.525390625-.5869140625h2.11328125v-6.2607421875ZM133.10546875,25.275390625v8.451171875h16.82421875v-8.451171875h-2.11328125c-.6259765625,0-1.134765625-.1962890625-1.525390625-.5869140625-.3916015625-.3916015625-.5869140625-.900390625-.5869140625-1.5263671875v-10.4853515625h-8.373046875v10.4853515625c0,.6259765625-.1962890625,1.134765625-.5869140625,1.5263671875-.3916015625.390625-.900390625.5869140625-1.5263671875.5869140625h-2.1123046875Z"/>
  <path class="cls-1" d="M171.056640625,14.7890625c0-.6259765625.1953125-1.134765625.5869140625-1.525390625.390625-.3916015625.8994140625-.5869140625,1.525390625-.5869140625h2.0341796875v-6.3388671875c0-.6259765625.1962890625-1.134765625.5869140625-1.525390625.3916015625-.3916015625.900390625-.5869140625,1.5263671875-.5869140625h2.11328125v-2.11328125c0-.6259765625.1953125-1.134765625.5859375-1.525390625.3916015625-.3916015625.900390625-.5869140625,1.5263671875-.5869140625h21.1279296875c.6259765625,0,1.134765625.1953125,1.5263671875.5869140625.3916015625.390625.5869140625.8994140625.5869140625,1.525390625v2.11328125h2.1123046875c.6259765625,0,1.134765625.1953125,1.5263671875.5869140625.3916015625.390625.5869140625.8994140625.5869140625,1.525390625v6.3388671875h2.1123046875c.6259765625,0,1.134765625.1953125,1.5263671875.5869140625.3916015625.390625.5869140625.8994140625.5869140625,1.525390625v6.2607421875h-8.451171875v-4.2255859375h-2.11328125c-.6259765625,0-1.134765625-.1962890625-1.525390625-.5869140625-.3916015625-.3916015625-.5869140625-.900390625-.5869140625-1.5263671875v-6.259765625h-16.90234375v6.259765625c0,.6259765625-.1962890625,1.134765625-.5869140625,1.5263671875-.3916015625.390625-.900390625.5869140625-1.5263671875.5869140625h-2.1123046875v21.0498046875h2.1123046875c.6259765625,0,1.134765625.1953125,1.5263671875.5869140625.390625.390625.5869140625.8994140625.5869140625,1.525390625v6.3388671875h16.90234375v-6.2607421875c0-.6259765625.1953125-1.1337890625.5869140625-1.525390625.390625-.3916015625.8994140625-.5869140625,1.525390625-.5869140625h2.11328125v-4.2255859375h8.451171875v6.259765625c0,.6259765625-.1953125,1.134765625-.5869140625,1.5263671875s-.900390625.5869140625-1.5263671875.5869140625h-2.1123046875v6.337890625c0,.6259765625-.1953125,1.134765625-.5869140625,1.5263671875s-.900390625.5869140625-1.5263671875.5869140625h-2.1123046875v2.1123046875c0,.626953125-.1953125,1.134765625-.5869140625,1.5263671875s-.900390625.5869140625-1.5263671875.5869140625h-21.0498046875c-.6259765625,0-1.134765625-.1953125-1.525390625-.5869140625-.3916015625-.3916015625-.5869140625-.8994140625-.5869140625-1.5263671875v-2.1123046875h-2.19140625c-.6259765625,0-1.134765625-.1953125-1.5263671875-.5869140625-.390625-.3916015625-.5869140625-.900390625-.5869140625-1.5263671875v-6.337890625h-2.0341796875c-.6259765625,0-1.134765625-.1953125-1.525390625-.5869140625-.3916015625-.3916015625-.5869140625-.900390625-.5869140625-1.5263671875V14.7890625Z"/>
  <path class="cls-1" d="M217.4599609375,0h8.451171875v21.0498046875h4.2255859375v-2.11328125c0-.6259765625.1953125-1.134765625.5869140625-1.525390625.390625-.3916015625.8994140625-.5869140625,1.525390625-.5869140625h2.03515625v-2.03515625c0-.6259765625.1953125-1.134765625.5869140625-1.525390625.390625-.3916015625.8994140625-.5869140625,1.525390625-.5869140625h2.11328125v-2.11328125c0-.6259765625.1953125-1.134765625.5869140625-1.525390625.390625-.3916015625.8994140625-.5869140625,1.525390625-.5869140625h2.11328125v-2.11328125c0-.6259765625.1953125-1.134765625.5869140625-1.525390625.390625-.3916015625.8994140625-.5869140625,1.525390625-.5869140625h2.11328125V0h8.451171875v6.337890625c0,.6259765625-.1953125,1.134765625-.5869140625,1.5263671875-.3916015625.390625-.900390625.5869140625-1.5263671875.5869140625h-2.1123046875v2.1123046875c0,.6259765625-.1953125,1.134765625-.5869140625,1.5263671875-.3916015625.390625-.900390625.5869140625-1.5263671875.5869140625h-2.1123046875v2.1123046875c0,.6259765625-.1962890625,1.134765625-.5869140625,1.5263671875-.3916015625.390625-.900390625.5869140625-1.5263671875.5869140625h-2.1123046875v2.0341796875c0,.6259765625-.1962890625,1.134765625-.5869140625,1.5263671875-.3916015625.390625-.900390625.5869140625-1.5263671875.5869140625h-2.1123046875v2.1123046875c0,.6259765625-.1962890625,1.134765625-.5869140625,1.5263671875-.3916015625.390625-.900390625.5869140625-1.5263671875.5869140625h-2.0341796875v4.2255859375h2.0341796875c.6259765625,0,1.134765625.1953125,1.5263671875.5869140625.390625.390625.5869140625.8994140625.5869140625,1.525390625v2.11328125h2.1123046875c.6259765625,0,1.134765625.1953125,1.5263671875.5869140625.390625.390625.5869140625.8994140625.5869140625,1.525390625v2.03515625h2.1123046875c.6259765625,0,1.134765625.1953125,1.5263671875.5869140625.390625.390625.5869140625.8994140625.5869140625,1.525390625v2.11328125h2.1123046875c.6259765625,0,1.134765625.1953125,1.5263671875.5869140625.3916015625.390625.5869140625.8994140625.5869140625,1.525390625v2.11328125h2.1123046875c.6259765625,0,1.134765625.1953125,1.5263671875.5869140625s.5869140625.8994140625.5869140625,1.525390625v6.3388671875h-8.451171875v-4.2255859375h-2.11328125c-.6259765625,0-1.134765625-.1953125-1.525390625-.5869140625-.3916015625-.3916015625-.5869140625-.900390625-.5869140625-1.5263671875v-2.1123046875h-2.11328125c-.6259765625,0-1.134765625-.1953125-1.525390625-.5869140625-.3916015625-.3916015625-.5869140625-.900390625-.5869140625-1.5263671875v-2.1123046875h-2.11328125c-.6259765625,0-1.134765625-.1953125-1.525390625-.5869140625-.3916015625-.3916015625-.5869140625-.900390625-.5869140625-1.5263671875v-2.0341796875h-2.03515625c-.6259765625,0-1.134765625-.1953125-1.525390625-.5869140625-.3916015625-.3916015625-.5869140625-.900390625-.5869140625-1.5263671875v-2.1123046875h-4.2255859375v21.0498046875h-8.451171875v-18.9375c0-.6259765625.1953125-1.134765625.5869140625-1.525390625.390625-.3916015625.8994140625-.5869140625,1.525390625-.5869140625h2.11328125v-8.451171875h-2.11328125c-.6259765625,0-1.134765625-.1962890625-1.525390625-.5869140625-.3916015625-.3916015625-.5869140625-.900390625-.5869140625-1.5263671875V0Z"/>
</svg>