<?xml version="1.0" encoding="UTF-8"?>
<svg id="Livello_1" data-name="Livello 1" xmlns="http://www.w3.org/2000/svg" viewBox="0 0 342.8437137813 67.9703659936">
  <defs>
    <style>
      .cls-1 {
        fill: #d2d627;
      }

      .cls-2 {
        fill: #5c5aa0;
      }
    </style>
  </defs>
  <rect class="cls-1" width="342.8437137813" height="67.9703659936" rx="18.1186041007" ry="18.1186041007"/>
  <g>
    <path class="cls-2" d="M89.7796060908,23.4871519122h3.2394467828v17.7566153865h9.6883522432v3.2394467828h-10.4980310846c-.2399048419,0-.4351932345-.0753359717-.5851337607-.2252764979s-.2245450807-.3444975016-.2245450807-.5844023435v-.8096788414h-.8104102586c-.2399048419,0-.4344618173-.0753359717-.5844023435-.2252764979s-.2252764979-.3452289188-.2252764979-.5851337607v-18.5662942279Z"/>
    <path class="cls-2" d="M101.5071494902,30.745736214c0-.2399048419.0753359717-.4344618173.2252764979-.5844023435s.3444975016-.2252764979.5844023435-.2252764979h.8104102586v-2.399048419c0-.2406362591.0746045545-.4351932345.2245450807-.5851337607s.3452289188-.2252764979.5851337607-.2252764979h.8096788414v-.8096788414c0-.2399048419.0753359717-.4351932345.2252764979-.5851337607s.3444975016-.2245450807.5844023435-.2245450807h.8104102586v-.8096788414c0-.2399048419.0746045545-.4351932345.2245450807-.5851337607s.3452289188-.2252764979.5851337607-.2252764979h6.4481740432c.2399048419,0,.4351932345.0753359717.5851337607.2252764979s.2252764979.3452289188.2252764979.5851337607v.8096788414h.7796907362c.2399048419,0,.4344618173.0746045545.5851337607.2245450807.1499405262.1499405262.2245450807.3452289188.2245450807.5851337607v.8096788414h.8096788414c.2399048419,0,.4351932345.0753359717.5851337607.2252764979s.2245450807.3444975016.2245450807.5851337607v2.399048419h.8104102586c.2399048419,0,.4344618173.0753359717.5844023435.2252764979s.2252764979.3444975016.2252764979.5844023435v6.4788935656c0,.2399048419-.0753359717.4351932345-.2252764979.5851337607s-.3444975016.2245450807-.5844023435.2245450807h-.8104102586v2.3997798362c0,.2399048419-.0746045545.4351932345-.2245450807.5851337607s-.3452289188.2245450807-.5851337607.2245450807h-.8096788414v.8096788414c0,.2399048419-.0746045545.4351932345-.2245450807.5851337607-.1506719434.1499405262-.3452289188.2252764979-.5851337607.2252764979h-.7796907362v.8096788414c0,.2399048419-.0753359717.4344618173-.2252764979.5844023435s-.3452289188.2252764979-.5851337607.2252764979h-6.4481740432c-.2399048419,0-.4351932345-.0753359717-.5851337607-.2252764979s-.2245450807-.3444975016-.2245450807-.5844023435v-.8096788414h-.8104102586c-.2399048419,0-.4344618173-.0753359717-.5844023435-.2252764979s-.2252764979-.3452289188-.2252764979-.5851337607v-.8096788414h-.8096788414c-.2399048419,0-.4351932345-.0746045545-.5851337607-.2245450807s-.2245450807-.3452289188-.2245450807-.5851337607v-2.3997798362h-.8104102586c-.2399048419,0-.4344618173-.0746045545-.5844023435-.2245450807s-.2252764979-.3452289188-.2252764979-.5851337607v-6.4788935656ZM106.366685373,28.346687795v2.3690603137c0,.2399048419-.0753359717.4351932345-.2252764979.5851337607s-.3452289188.2252764979-.5851337607.2252764979h-.8096788414v4.9187806761h.8096788414c.2399048419,0,.4351932345.0746045545.5851337607.2245450807s.2252764979.3452289188.2252764979.5851337607v2.3697917309h.8096788414c.2399048419,0,.4344618173.0746045545.5844023435.2245450807s.2252764979.3452289188.2252764979.5851337607v.8096788414h4.8288163604v-.8096788414c0-.2399048419.0753359717-.4351932345.2252764979-.5851337607s.3444975016-.2245450807.5844023435-.2245450807h.8104102586v-2.3697917309c0-.2399048419.0746045545-.4351932345.2245450807-.5851337607s.3452289188-.2245450807.5851337607-.2245450807h.8096788414v-4.9187806761h-.8096788414c-.2399048419,0-.4351932345-.0753359717-.5851337607-.2252764979s-.2245450807-.3452289188-.2245450807-.5851337607v-2.3690603137h-.8104102586c-.2399048419,0-.4344618173-.0753359717-.5844023435-.2252764979s-.2252764979-.3444975016-.2252764979-.5844023435v-.8104102586h-4.8288163604v.8104102586c0,.2399048419-.0753359717.4344618173-.2252764979.5844023435s-.3444975016.2252764979-.5844023435.2252764979h-.8096788414Z"/>
    <path class="cls-2" d="M121.2437112395,37.2246297796c0-.2399048419.0746045545-.4351932345.2245450807-.5851337607s.3452289188-.2245450807.5851337607-.2245450807h.8096788414v-2.4297679414c0-.2399048419.0753359717-.4344618173.2252764979-.5844023435s.3444975016-.2252764979.5844023435-.2252764979h.8104102586v-4.019137519c0-.2399048419.0746045545-.4351932345.2245450807-.5851337607s.3452289188-.2245450807.5851337607-.2245450807h.8096788414v-2.4297679414c0-.2399048419.0746045545-.4351932345.2245450807-.5851337607.1506719434-.1499405262.3452289188-.2245450807.5851337607-.2245450807h.8096788414v-.8096788414c0-.2399048419.0753359717-.4351932345.2252764979-.5851337607s.3452289188-.2252764979.5851337607-.2252764979h1.6193576828c.2399048419,0,.4351932345.0753359717.5851337607.2252764979s.2245450807.3452289188.2245450807.5851337607v.8096788414h.7796907362c.2399048419,0,.4351932345.0746045545.5851337607.2245450807s.2252764979.3452289188.2252764979.5851337607v2.4297679414h.8096788414c.2399048419,0,.4344618173.0746045545.5851337607.2245450807.1499405262.1499405262.2245450807.3452289188.2245450807.5851337607v4.019137519h.8096788414c.2399048419,0,.4351932345.0753359717.5851337607.2252764979s.2245450807.3444975016.2245450807.5844023435v2.4297679414h.8104102586c.2399048419,0,.4344618173.0746045545.5844023435.2245450807s.2252764979.3452289188.2252764979.5851337607v2.3997798362h.8096788414c.2399048419,0,.4351932345.0746045545.5851337607.2245450807s.2245450807.3452289188.2245450807.5851337607v4.0491256242h-3.2394467828v-3.2394467828h-.8096788414c-.2399048419,0-.4344618173-.0746045545-.5844023435-.2245450807s-.2252764979-.3452289188-.2252764979-.5851337607v-2.3997798362h-1.6193576828v.8104102586c0,.2399048419-.0753359717.4344618173-.2252764979.5844023435s-.3452289188.2252764979-.5851337607.2252764979h-4.8288163604c-.2399048419,0-.4344618173-.0753359717-.5851337607-.2252764979-.1499405262-.1499405262-.2245450807-.3444975016-.2245450807-.5844023435v-.8104102586h-1.6193576828v2.3997798362c0,.2399048419-.0753359717.4351932345-.2252764979.5851337607s-.3452289188.2245450807-.5851337607.2245450807h-.8096788414v3.2394467828h-3.2394467828v-4.0491256242c0-.2399048419.0753359717-.4351932345.2252764979-.5851337607s.3444975016-.2245450807.5844023435-.2245450807h.8104102586v-2.3997798362ZM126.1025157052,33.1755041554v3.2394467828h6.4489054604v-3.2394467828h-.8104102586c-.2399048419,0-.4344618173-.0753359717-.5844023435-.2252764979s-.2252764979-.3444975016-.2252764979-.5844023435v-4.019137519h-3.2094586776v4.019137519c0,.2399048419-.0746045545.4344618173-.2245450807.5844023435s-.3452289188.2252764979-.5851337607.2252764979h-.8096788414Z"/>
    <path class="cls-2" d="M142.5689111492,25.1072410122v-.8096788414c0-.2399048419.0746045545-.4351932345.2245450807-.5851337607s.3452289188-.2252764979.5851337607-.2252764979h8.0982512485c.2399048419,0,.4351932345.0753359717.5851337607.2252764979s.2245450807.3452289188.2245450807.5851337607v.8096788414h.7796907362c.2399048419,0,.4351932345.0746045545.5851337607.2245450807s.2252764979.3452289188.2252764979.5851337607v.8096788414h.8096788414c.2399048419,0,.4344618173.0753359717.5851337607.2252764979.1499405262.1499405262.2245450807.3444975016.2245450807.5851337607v.8096788414h.8096788414c.2399048419,0,.4351932345.0746045545.5851337607.2245450807s.2245450807.3452289188.2245450807.5851337607v9.6576327208c0,.2406362591-.0746045545.4351932345-.2245450807.5851337607s-.3452289188.2252764979-.5851337607.2252764979h-.8096788414v.8096788414c0,.2399048419-.0746045545.4351932345-.2245450807.5851337607-.1506719434.1499405262-.3452289188.2245450807-.5851337607.2245450807h-.8096788414v.8096788414c0,.2399048419-.0753359717.4351932345-.2252764979.5851337607s-.3452289188.2252764979-.5851337607.2252764979h-.7796907362v.8096788414c0,.2399048419-.0746045545.4344618173-.2245450807.5844023435s-.3452289188.2252764979-.5851337607.2252764979h-8.0982512485c-.2399048419,0-.4351932345-.0753359717-.5851337607-.2252764979s-.2245450807-.3444975016-.2245450807-.5844023435v-.8096788414h-.7804221534c-.2399048419,0-.4344618173-.0753359717-.5844023435-.2252764979s-.2252764979-.3452289188-.2252764979-.5851337607v-16.1365262864c0-.2399048419.0753359717-.4351932345.2252764979-.5851337607s.3444975016-.2245450807.5844023435-.2245450807h.7804221534ZM144.188268832,26.726598695v14.5171686036h6.4788935657v-.8096788414c0-.2399048419.0746045545-.4351932345.2245450807-.5851337607s.3452289188-.2245450807.5851337607-.2245450807h.8096788414v-.8104102586c0-.2399048419.0753359717-.4344618173.2252764979-.5844023435s.3444975016-.2252764979.5844023435-.2252764979h.8104102586v-8.038275038h-.8104102586c-.2399048419,0-.4344618173-.0746045545-.5844023435-.2245450807s-.2252764979-.3452289188-.2252764979-.5851337607v-.8096788414h-.8096788414c-.2399048419,0-.4351932345-.0753359717-.5851337607-.2252764979s-.2245450807-.3444975016-.2245450807-.5844023435v-.8104102586h-6.4788935657Z"/>
    <path class="cls-2" d="M170.0124159445,37.2246297796c0-.2399048419.0746045545-.4351932345.2245450807-.5851337607s.3452289188-.2245450807.5851337607-.2245450807h.8096788414v-2.4297679414c0-.2399048419.0753359717-.4344618173.2252764979-.5844023435s.3444975016-.2252764979.5844023435-.2252764979h.8104102586v-4.019137519c0-.2399048419.0746045545-.4351932345.2245450807-.5851337607s.3452289188-.2245450807.5851337607-.2245450807h.8096788414v-2.4297679414c0-.2399048419.0746045545-.4351932345.2245450807-.5851337607.1506719434-.1499405262.3452289188-.2245450807.5851337607-.2245450807h.8096788414v-.8096788414c0-.2399048419.0753359717-.4351932345.2252764979-.5851337607s.3452289188-.2252764979.5851337607-.2252764979h1.6193576828c.2399048419,0,.4351932345.0753359717.5851337607.2252764979s.2245450807.3452289188.2245450807.5851337607v.8096788414h.7796907362c.2399048419,0,.4351932345.0746045545.5851337607.2245450807s.2252764979.3452289188.2252764979.5851337607v2.4297679414h.8096788414c.2399048419,0,.4344618173.0746045545.5851337607.2245450807.1499405262.1499405262.2245450807.3452289188.2245450807.5851337607v4.019137519h.8096788414c.2399048419,0,.4351932345.0753359717.5851337607.2252764979s.2245450807.3444975016.2245450807.5844023435v2.4297679414h.8104102586c.2399048419,0,.4344618173.0746045545.5844023435.2245450807s.2252764979.3452289188.2252764979.5851337607v2.3997798362h.8096788414c.2399048419,0,.4351932345.0746045545.5851337607.2245450807s.2245450807.3452289188.2245450807.5851337607v4.0491256242h-3.2394467828v-3.2394467828h-.8096788414c-.2399048419,0-.4344618173-.0746045545-.5844023435-.2245450807s-.2252764979-.3452289188-.2252764979-.5851337607v-2.3997798362h-1.6193576828v.8104102586c0,.2399048419-.0753359717.4344618173-.2252764979.5844023435s-.3452289188.2252764979-.5851337607.2252764979h-4.8288163604c-.2399048419,0-.4344618173-.0753359717-.5851337607-.2252764979-.1499405262-.1499405262-.2245450807-.3444975016-.2245450807-.5844023435v-.8104102586h-1.6193576828v2.3997798362c0,.2399048419-.0753359717.4351932345-.2252764979.5851337607s-.3452289188.2245450807-.5851337607.2245450807h-.8096788414v3.2394467828h-3.2394467828v-4.0491256242c0-.2399048419.0753359717-.4351932345.2252764979-.5851337607s.3444975016-.2245450807.5844023435-.2245450807h.8104102586v-2.3997798362ZM174.8712204101,33.1755041554v3.2394467828h6.4489054604v-3.2394467828h-.8104102586c-.2399048419,0-.4344618173-.0753359717-.5844023435-.2252764979s-.2252764979-.3444975016-.2252764979-.5844023435v-4.019137519h-3.2094586776v4.019137519c0,.2399048419-.0746045545.4344618173-.2245450807.5844023435s-.3452289188.2252764979-.5851337607.2252764979h-.8096788414Z"/>
    <path class="cls-2" d="M200.6953675226,25.9169198536c0-.2399048419.0746045545-.4351932345.2245450807-.5851337607s.3452289188-.2245450807.5851337607-.2245450807h.8096788414v-.8096788414c0-.2399048419.0753359717-.4351932345.2252764979-.5851337607s.3444975016-.2252764979.5844023435-.2252764979h9.658364138c.2399048419,0,.4344618173.0753359717.5851337607.2252764979.1499405262.1499405262.2245450807.3452289188.2245450807.5851337607v.8096788414h.7796907362c.2399048419,0,.4351932345.0746045545.5851337607.2245450807s.2245450807.3452289188.2245450807.5851337607v.8096788414h.8104102586c.2399048419,0,.4344618173.0753359717.5844023435.2252764979s.2252764979.3444975016.2252764979.5851337607v4.019137519h-3.2094586776v-3.2094586776h-.7796907362c-.2399048419,0-.4351932345-.0753359717-.5851337607-.2252764979s-.2245450807-.3444975016-.2245450807-.5844023435v-.8104102586h-8.0682631432v.8104102586c0,.2399048419-.0753359717.4344618173-.2252764979.5844023435s-.3452289188.2252764979-.5851337607.2252764979h-.8096788414v11.2777218208h.8096788414c.2399048419,0,.4351932345.0746045545.5851337607.2245450807s.2252764979.3452289188.2252764979.5851337607v.8096788414h4.8288163604v-.8096788414c0-.2399048419.0746045545-.4351932345.2245450807-.5851337607s.3452289188-.2245450807.5851337607-.2245450807h.8096788414v-.7796907362c0-.2406362591.0753359717-.4351932345.2252764979-.5851337607s.3444975016-.2252764979.5844023435-.2252764979h2.3997798362v-1.6193576828h-4.8588044656v-3.2394467828h5.6384952018c.2399048419,0,.4351932345.0753359717.5851337607.2252764979s.2245450807.3444975016.2245450807.5844023435v.8096788414h.8104102586c.2399048419,0,.4344618173.0753359717.5844023435.2252764979s.2252764979.3452289188.2252764979.5851337607v3.2087272604c0,.2406362591-.0753359717.4351932345-.2252764979.5851337607s-.3444975016.2252764979-.5844023435.2252764979h-.7804221534v1.6193576828h.7804221534c.2399048419,0,.4344618173.0753359717.5844023435.2252764979s.2252764979.3444975016.2252764979.5844023435v2.4297679414h-3.2094586776v-3.2094586776h-1.5893695776v.8096788414c0,.2399048419-.0753359717.4351932345-.2252764979.5851337607s-.3452289188.2252764979-.5851337607.2252764979h-.8096788414v.7796907362c0,.2399048419-.0746045545.4344618173-.2245450807.5844023435s-.3452289188.2252764979-.5851337607.2252764979h-6.4489054604c-.2399048419,0-.4344618173-.0753359717-.5844023435-.2252764979s-.2252764979-.3444975016-.2252764979-.5844023435v-.8096788414h-.8096788414c-.2399048419,0-.4351932345-.0753359717-.5851337607-.2252764979s-.2245450807-.3452289188-.2245450807-.5851337607v-.7796907362h-.8104102586c-.2399048419,0-.4344618173-.0746045545-.5844023435-.2245450807s-.2252764979-.3452289188-.2252764979-.5851337607v-12.9270676089c0-.2406362591.0753359717-.4351932345.2252764979-.5851337607s.3444975016-.2252764979.5844023435-.2252764979h.8104102586v-.8096788414Z"/>
    <path class="cls-2" d="M220.3712216443,25.1072410122v-.8096788414c0-.2399048419.0746045545-.4351932345.2245450807-.5851337607s.3452289188-.2252764979.5851337607-.2252764979h8.0682631432c.2399048419,0,.4351932345.0753359717.5851337607.2252764979s.2245450807.3452289188.2245450807.5851337607v.8096788414h.8096788414c.2399048419,0,.4351932345.0746045545.5851337607.2245450807s.2252764979.3452289188.2252764979.5851337607v.8096788414h.8096788414c.2399048419,0,.4344618173.0753359717.5851337607.2252764979.1499405262.1499405262.2245450807.3444975016.2245450807.5851337607v4.8288163604c0,.2399048419-.0746045545.4344618173-.2245450807.5844023435-.1506719434.1499405262-.3452289188.2252764979-.5851337607.2252764979h-.8096788414v.8096788414c0,.2399048419-.0753359717.4351932345-.2252764979.5851337607s-.3452289188.2245450807-.5851337607.2245450807h-.8096788414v.8104102586c0,.2399048419-.0746045545.4344618173-.2245450807.5844023435s-.3452289188.2252764979-.5851337607.2252764979h-7.2585843018v8.0682631432h-3.2394467828v-7.2585843018c0-.2399048419.0753359717-.4351932345.2252764979-.5851337607s.3444975016-.2245450807.5844023435-.2245450807h.8104102586v-3.2394467828h-.8104102586c-.2399048419,0-.4344618173-.0753359717-.5844023435-.2252764979s-.2252764979-.3444975016-.2252764979-.5844023435v-6.4489054604c0-.2399048419.0753359717-.4351932345.2252764979-.5851337607s.3444975016-.2245450807.5844023435-.2245450807h.8104102586ZM221.9905793271,26.726598695v6.4489054604h6.4489054604v-.8096788414c0-.2399048419.0746045545-.4351932345.2245450807-.5851337607s.3452289188-.2245450807.5851337607-.2245450807h.8096788414v-3.2094586776h-.8096788414c-.2399048419,0-.4351932345-.0753359717-.5851337607-.2252764979s-.2245450807-.3444975016-.2245450807-.5844023435v-.8104102586h-6.4489054604Z"/>
    <path class="cls-2" d="M233.658146516,23.4871519122h3.2394467828v1.6200891h.8096788414c.2399048419,0,.4351932345.0746045545.5851337607.2245450807s.2252764979.3452289188.2252764979.5851337607v.8096788414h.8096788414c.2399048419,0,.4344618173.0753359717.5844023435.2252764979s.2252764979.3444975016.2252764979.5851337607v2.399048419h.8096788414c.2399048419,0,.4351932345.0753359717.5851337607.2252764979s.2245450807.3444975016.2245450807.5844023435v.8104102586h3.2094586776v-.8104102586c0-.2399048419.0753359717-.4344618173.2252764979-.5844023435s.3444975016-.2252764979.5844023435-.2252764979h.8104102586v-2.399048419c0-.2406362591.0746045545-.4351932345.2245450807-.5851337607s.3452289188-.2252764979.5851337607-.2252764979h.8096788414v-.8096788414c0-.2399048419.0753359717-.4351932345.2252764979-.5851337607s.3444975016-.2245450807.5844023435-.2245450807h.8096788414v-1.6200891h3.2394467828v2.4297679414c0,.2399048419-.0746045545.4351932345-.2245450807.5851337607s-.3452289188.2245450807-.5851337607.2245450807h-.8096788414v.8104102586c0,.2399048419-.0753359717.4344618173-.2252764979.5844023435s-.3444975016.2252764979-.5844023435.2252764979h-.8104102586v2.399048419c0,.2399048419-.0746045545.4351932345-.2245450807.5851337607s-.3452289188.2252764979-.5851337607.2252764979h-.8096788414v.8096788414c0,.2399048419-.0746045545.4344618173-.2245450807.5844023435-.1506719434.1499405262-.3452289188.2252764979-.5851337607.2252764979h-.8096788414v1.6193576828h.8096788414c.2399048419,0,.4344618173.0753359717.5851337607.2252764979.1499405262.1499405262.2245450807.3452289188.2245450807.5851337607v.8096788414h.8096788414c.2399048419,0,.4351932345.0746045545.5851337607.2245450807s.2245450807.3452289188.2245450807.5851337607v2.3997798362h.8104102586c.2399048419,0,.4344618173.0746045545.5844023435.2245450807s.2252764979.3452289188.2252764979.5851337607v.8096788414h.8096788414c.2399048419,0,.4351932345.0753359717.5851337607.2252764979s.2245450807.3444975016.2245450807.5844023435v2.4297679414h-3.2394467828v-1.6193576828h-.8096788414c-.2399048419,0-.4344618173-.0753359717-.5844023435-.2252764979s-.2252764979-.3452289188-.2252764979-.5851337607v-.8096788414h-.8096788414c-.2399048419,0-.4351932345-.0746045545-.5851337607-.2245450807s-.2245450807-.3452289188-.2245450807-.5851337607v-2.3997798362h-.8104102586c-.2399048419,0-.4344618173-.0746045545-.5844023435-.2245450807s-.2252764979-.3452289188-.2252764979-.5851337607v-.8096788414h-3.2094586776v.8096788414c0,.2399048419-.0746045545.4351932345-.2245450807.5851337607s-.3452289188.2245450807-.5851337607.2245450807h-.8096788414v2.3997798362c0,.2399048419-.0753359717.4351932345-.2252764979.5851337607s-.3444975016.2245450807-.5844023435.2245450807h-.8096788414v.8096788414c0,.2399048419-.0753359717.4351932345-.2252764979.5851337607s-.3452289188.2252764979-.5851337607.2252764979h-.8096788414v1.6193576828h-3.2394467828v-2.4297679414c0-.2399048419.0753359717-.4344618173.2252764979-.5844023435s.3444975016-.2252764979.5844023435-.2252764979h.8104102586v-.8096788414c0-.2399048419.0746045545-.4351932345.2245450807-.5851337607s.3452289188-.2245450807.5851337607-.2245450807h.8096788414v-2.3997798362c0-.2399048419.0753359717-.4351932345.2252764979-.5851337607s.3444975016-.2245450807.5844023435-.2245450807h.8104102586v-.8096788414c0-.2399048419.0746045545-.4351932345.2245450807-.5851337607s.3452289188-.2252764979.5851337607-.2252764979h.8096788414v-1.6193576828h-.8096788414c-.2399048419,0-.4351932345-.0753359717-.5851337607-.2252764979s-.2245450807-.3444975016-.2245450807-.5844023435v-.8096788414h-.8104102586c-.2399048419,0-.4344618173-.0753359717-.5844023435-.2252764979s-.2252764979-.3452289188-.2252764979-.5851337607v-2.399048419h-.8096788414c-.2399048419,0-.4351932345-.0753359717-.5851337607-.2252764979s-.2245450807-.3444975016-.2245450807-.5844023435v-.8104102586h-.8104102586c-.2399048419,0-.4344618173-.0746045545-.5844023435-.2245450807s-.2252764979-.3452289188-.2252764979-.5851337607v-2.4297679414Z"/>
  </g>
</svg>