<?xml version="1.0" encoding="UTF-8"?>
<svg id="Livello_1" data-name="Livello 1" xmlns="http://www.w3.org/2000/svg" viewBox="0 0 342.8437137813 67.9703659936">
  <rect class="fill-primary" width="342.8437137813" height="67.9703659936" rx="18.1186041007" ry="18.1186041007"/>
  <g>
    <path class="fill-secondary" d="M55.136761787,23.4871519122h3.2394467828v17.7566153865h9.6883522432v3.2394467828h-10.4980310846c-.2399048419,0-.4351932345-.0753359717-.5851337607-.2252764979s-.2245450807-.3444975016-.2245450807-.5844023435v-.8096788414h-.8104102586c-.2399048419,0-.4344618173-.0753359717-.5844023435-.2252764979s-.2252764979-.3452289188-.2252764979-.5851337607v-18.5662942279Z"/>
    <path class="fill-secondary" d="M66.8643051863,30.745736214c0-.2399048419.0753359717-.4344618173.2252764979-.5844023435s.3444975016-.2252764979.5844023435-.2252764979h.8104102586v-2.399048419c0-.2406362591.0746045545-.4351932345.2245450807-.5851337607s.3452289188-.2252764979.5851337607-.2252764979h.8096788414v-.8096788414c0-.2399048419.0753359717-.4351932345.2252764979-.5851337607s.3444975016-.2245450807.5844023435-.2245450807h.8104102586v-.8096788414c0-.2399048419.0746045545-.4351932345.2245450807-.5851337607s.3452289188-.2252764979.5851337607-.2252764979h6.4481740432c.2399048419,0,.4351932345.0753359717.5851337607.2252764979s.2252764979.3452289188.2252764979.5851337607v.8096788414h.7796907362c.2399048419,0,.4344618173.0746045545.5851337607.2245450807.1499405262.1499405262.2245450807.3452289188.2245450807.5851337607v.8096788414h.8096788414c.2399048419,0,.4351932345.0753359717.5851337607.2252764979s.2245450807.3444975016.2245450807.5851337607v2.399048419h.8104102586c.2399048419,0,.4344618173.0753359717.5844023435.2252764979s.2252764979.3444975016.2252764979.5844023435v6.4788935656c0,.2399048419-.0753359717.4351932345-.2252764979.5851337607s-.3444975016.2245450807-.5844023435.2245450807h-.8104102586v2.3997798362c0,.2399048419-.0746045545.4351932345-.2245450807.5851337607s-.3452289188.2245450807-.5851337607.2245450807h-.8096788414v.8096788414c0,.2399048419-.0746045545.4351932345-.2245450807.5851337607-.1506719434.1499405262-.3452289188.2252764979-.5851337607.2252764979h-.7796907362v.8096788414c0,.2399048419-.0753359717.4344618173-.2252764979.5844023435s-.3452289188.2252764979-.5851337607.2252764979h-6.4481740432c-.2399048419,0-.4351932345-.0753359717-.5851337607-.2252764979s-.2245450807-.3444975016-.2245450807-.5844023435v-.8096788414h-.8104102586c-.2399048419,0-.4344618173-.0753359717-.5844023435-.2252764979s-.2252764979-.3452289188-.2252764979-.5851337607v-.8096788414h-.8096788414c-.2399048419,0-.4351932345-.0746045545-.5851337607-.2245450807s-.2245450807-.3452289188-.2245450807-.5851337607v-2.3997798362h-.8104102586c-.2399048419,0-.4344618173-.0746045545-.5844023435-.2245450807s-.2252764979-.3452289188-.2252764979-.5851337607v-6.4788935656ZM71.7238410692,28.346687795v2.3690603137c0,.2399048419-.0753359717.4351932345-.2252764979.5851337607s-.3452289188.2252764979-.5851337607.2252764979h-.8096788414v4.9187806761h.8096788414c.2399048419,0,.4351932345.0746045545.5851337607.2245450807s.2252764979.3452289188.2252764979.5851337607v2.3697917309h.8096788414c.2399048419,0,.4344618173.0746045545.5844023435.2245450807s.2252764979.3452289188.2252764979.5851337607v.8096788414h4.8288163604v-.8096788414c0-.2399048419.0753359717-.4351932345.2252764979-.5851337607s.3444975016-.2245450807.5844023435-.2245450807h.8104102586v-2.3697917309c0-.2399048419.0746045545-.4351932345.2245450807-.5851337607s.3452289188-.2245450807.5851337607-.2245450807h.8096788414v-4.9187806761h-.8096788414c-.2399048419,0-.4351932345-.0753359717-.5851337607-.2252764979s-.2245450807-.3452289188-.2245450807-.5851337607v-2.3690603137h-.8104102586c-.2399048419,0-.4344618173-.0753359717-.5844023435-.2252764979s-.2252764979-.3444975016-.2252764979-.5844023435v-.8104102586h-4.8288163604v.8104102586c0,.2399048419-.0753359717.4344618173-.2252764979.5844023435s-.3444975016.2252764979-.5844023435.2252764979h-.8096788414Z"/>
    <path class="fill-secondary" d="M88.1902365132,25.9169198536c0-.2399048419.0746045545-.4351932345.2245450807-.5851337607s.3452289188-.2245450807.5851337607-.2245450807h.8096788414v-.8096788414c0-.2399048419.0753359717-.4351932345.2252764979-.5851337607s.3444975016-.2252764979.5844023435-.2252764979h9.658364138c.2399048419,0,.4344618173.0753359717.5851337607.2252764979.1499405262.1499405262.2245450807.3452289188.2245450807.5851337607v.8096788414h.7796907362c.2399048419,0,.4351932345.0746045545.5851337607.2245450807s.2245450807.3452289188.2245450807.5851337607v.8096788414h.8104102586c.2399048419,0,.4344618173.0753359717.5844023435.2252764979s.2252764979.3444975016.2252764979.5851337607v4.019137519h-3.2094586776v-3.2094586776h-.7796907362c-.2399048419,0-.4351932345-.0753359717-.5851337607-.2252764979s-.2245450807-.3444975016-.2245450807-.5844023435v-.8104102586h-8.0682631432v.8104102586c0,.2399048419-.0753359717.4344618173-.2252764979.5844023435s-.3452289188.2252764979-.5851337607.2252764979h-.8096788414v11.2777218208h.8096788414c.2399048419,0,.4351932345.0746045545.5851337607.2245450807s.2252764979.3452289188.2252764979.5851337607v.8096788414h4.8288163604v-.8096788414c0-.2399048419.0746045545-.4351932345.2245450807-.5851337607s.3452289188-.2245450807.5851337607-.2245450807h.8096788414v-.7796907362c0-.2406362591.0753359717-.4351932345.2252764979-.5851337607s.3444975016-.2252764979.5844023435-.2252764979h2.3997798362v-1.6193576828h-4.8588044656v-3.2394467828h5.6384952018c.2399048419,0,.4351932345.0753359717.5851337607.2252764979s.2245450807.3444975016.2245450807.5844023435v.8096788414h.8104102586c.2399048419,0,.4344618173.0753359717.5844023435.2252764979s.2252764979.3452289188.2252764979.5851337607v3.2087272604c0,.2406362591-.0753359717.4351932345-.2252764979.5851337607s-.3444975016.2252764979-.5844023435.2252764979h-.7804221534v1.6193576828h.7804221534c.2399048419,0,.4344618173.0753359717.5844023435.2252764979s.2252764979.3444975016.2252764979.5844023435v2.4297679414h-3.2094586776v-3.2094586776h-1.5893695776v.8096788414c0,.2399048419-.0753359717.4351932345-.2252764979.5851337607s-.3452289188.2252764979-.5851337607.2252764979h-.8096788414v.7796907362c0,.2399048419-.0746045545.4344618173-.2245450807.5844023435s-.3452289188.2252764979-.5851337607.2252764979h-6.4489054604c-.2399048419,0-.4344618173-.0753359717-.5844023435-.2252764979s-.2252764979-.3444975016-.2252764979-.5844023435v-.8096788414h-.8096788414c-.2399048419,0-.4351932345-.0753359717-.5851337607-.2252764979s-.2245450807-.3452289188-.2245450807-.5851337607v-.7796907362h-.8104102586c-.2399048419,0-.4344618173-.0746045545-.5844023435-.2245450807s-.2252764979-.3452289188-.2252764979-.5851337607v-12.9270676089c0-.2406362591.0753359717-.4351932345.2252764979-.5851337607s.3444975016-.2252764979.5844023435-.2252764979h.8104102586v-.8096788414Z"/>
    <path class="fill-secondary" d="M106.2460015349,23.4871519122h3.2394467828v20.9960621693h-3.2394467828v-20.9960621693Z"/>
    <path class="fill-secondary" d="M111.4339437409,23.4871519122h3.2394467828v1.6200891h.7796907362c.2399048419,0,.4351932345.0746045545.5851337607.2245450807s.2245450807.3452289188.2245450807.5851337607v2.4297679414h.8104102586c.2399048419,0,.4344618173.0746045545.5844023435.2245450807s.2252764979.3452289188.2252764979.5851337607v.7796907362h.8096788414c.2399048419,0,.4351932345.0753359717.5851337607.2252764979s.2245450807.3444975016.2245450807.5844023435v2.4297679414h.8104102586c.2399048419,0,.4344618173.0753359717.5844023435.2252764979s.2252764979.3444975016.2252764979.5844023435v.8096788414h.8096788414c.2399048419,0,.4351932345.0753359717.5851337607.2252764979s.2245450807.3452289188.2245450807.5851337607v2.4290365242h1.5901009948v-14.5471567089h3.2387153656v14.5171686036h.0299881052v.8096788414c0,.2406362591-.0746045545.4351932345-.2245450807.5851337607s-.3452289188.2252764979-.5851337607.2252764979h-.8096788414v1.6193576828h.7796907362c.2399048419,0,.4351932345.0753359717.5851337607.2252764979s.2245450807.3444975016.2245450807.5844023435v2.4297679414h-3.2387153656v-1.6193576828h-.7804221534c-.2399048419,0-.4344618173-.0753359717-.5844023435-.2252764979s-.2252764979-.3452289188-.2252764979-.5851337607v-.8096788414h-.8096788414c-.2399048419,0-.4351932345-.0746045545-.5851337607-.2245450807s-.2245450807-.3452289188-.2245450807-.5851337607v-.7796907362h-.8096788414c-.2399048419,0-.4351932345-.0753359717-.5851337607-.2252764979s-.2252764979-.3444975016-.2252764979-.5844023435v-2.4297679414h-.8096788414c-.2399048419,0-.4344618173-.0753359717-.5851337607-.2252764979-.1499405262-.1499405262-.2245450807-.3444975016-.2245450807-.5844023435v-.8104102586h-.8096788414c-.2399048419,0-.4351932345-.0746045545-.5851337607-.2245450807s-.2252764979-.3452289188-.2252764979-.5851337607v-2.4290365242h-1.5893695776v12.9270676089h-3.2394467828v-15.326847445c0-.2399048419.0753359717-.4351932345.2252764979-.5851337607s.3444975016-.2245450807.5844023435-.2245450807h.8104102586v-1.6200891h-.8104102586c-.2399048419,0-.4344618173-.0746045545-.5844023435-.2245450807s-.2252764979-.3452289188-.2252764979-.5851337607v-2.4297679414Z"/>
    <path class="fill-secondary" d="M138.8781799534,23.4871519122h5.639226619c.2399048419,0,.4344618173.0753359717.5844023435.2252764979s.2252764979.3452289188.2252764979.5851337607v.8096788414h3.2394467828v-.8096788414c0-.2399048419.0746045545-.4351932345.2245450807-.5851337607s.3452289188-.2252764979.5851337607-.2252764979h5.6085070966v3.2394467828h-6.418185938v17.7566153865h-3.2394467828v-17.7566153865h-6.4489054604v-3.2394467828Z"/>
    <path class="fill-secondary" d="M153.7844625079,30.745736214c0-.2399048419.0753359717-.4344618173.2252764979-.5844023435s.3444975016-.2252764979.5844023435-.2252764979h.8104102586v-2.399048419c0-.2406362591.0746045545-.4351932345.2245450807-.5851337607s.3452289188-.2252764979.5851337607-.2252764979h.8096788414v-.8096788414c0-.2399048419.0753359717-.4351932345.2252764979-.5851337607s.3444975016-.2245450807.5844023435-.2245450807h.8104102586v-.8096788414c0-.2399048419.0746045545-.4351932345.2245450807-.5851337607s.3452289188-.2252764979.5851337607-.2252764979h6.4481740432c.2399048419,0,.4351932345.0753359717.5851337607.2252764979s.2252764979.3452289188.2252764979.5851337607v.8096788414h.7796907362c.2399048419,0,.4344618173.0746045545.5851337607.2245450807.1499405262.1499405262.2245450807.3452289188.2245450807.5851337607v.8096788414h.8096788414c.2399048419,0,.4351932345.0753359717.5851337607.2252764979s.2245450807.3444975016.2245450807.5851337607v2.399048419h.8104102586c.2399048419,0,.4344618173.0753359717.5844023435.2252764979s.2252764979.3444975016.2252764979.5844023435v6.4788935656c0,.2399048419-.0753359717.4351932345-.2252764979.5851337607s-.3444975016.2245450807-.5844023435.2245450807h-.8104102586v2.3997798362c0,.2399048419-.0746045545.4351932345-.2245450807.5851337607s-.3452289188.2245450807-.5851337607.2245450807h-.8096788414v.8096788414c0,.2399048419-.0746045545.4351932345-.2245450807.5851337607-.1506719434.1499405262-.3452289188.2252764979-.5851337607.2252764979h-.7796907362v.8096788414c0,.2399048419-.0753359717.4344618173-.2252764979.5844023435s-.3452289188.2252764979-.5851337607.2252764979h-6.4481740432c-.2399048419,0-.4351932345-.0753359717-.5851337607-.2252764979s-.2245450807-.3444975016-.2245450807-.5844023435v-.8096788414h-.8104102586c-.2399048419,0-.4344618173-.0753359717-.5844023435-.2252764979s-.2252764979-.3452289188-.2252764979-.5851337607v-.8096788414h-.8096788414c-.2399048419,0-.4351932345-.0746045545-.5851337607-.2245450807s-.2245450807-.3452289188-.2245450807-.5851337607v-2.3997798362h-.8104102586c-.2399048419,0-.4344618173-.0746045545-.5844023435-.2245450807s-.2252764979-.3452289188-.2252764979-.5851337607v-6.4788935656ZM158.6439983908,28.346687795v2.3690603137c0,.2399048419-.0753359717.4351932345-.2252764979.5851337607s-.3452289188.2252764979-.5851337607.2252764979h-.8096788414v4.9187806761h.8096788414c.2399048419,0,.4351932345.0746045545.5851337607.2245450807s.2252764979.3452289188.2252764979.5851337607v2.3697917309h.8096788414c.2399048419,0,.4344618173.0746045545.5844023435.2245450807s.2252764979.3452289188.2252764979.5851337607v.8096788414h4.8288163604v-.8096788414c0-.2399048419.0753359717-.4351932345.2252764979-.5851337607s.3444975016-.2245450807.5844023435-.2245450807h.8104102586v-2.3697917309c0-.2399048419.0746045545-.4351932345.2245450807-.5851337607s.3452289188-.2245450807.5851337607-.2245450807h.8096788414v-4.9187806761h-.8096788414c-.2399048419,0-.4351932345-.0753359717-.5851337607-.2252764979s-.2245450807-.3452289188-.2245450807-.5851337607v-2.3690603137h-.8104102586c-.2399048419,0-.4344618173-.0753359717-.5844023435-.2252764979s-.2252764979-.3444975016-.2252764979-.5844023435v-.8104102586h-4.8288163604v.8104102586c0,.2399048419-.0753359717.4344618173-.2252764979.5844023435s-.3444975016.2252764979-.5844023435.2252764979h-.8096788414Z"/>
    <path class="fill-secondary" d="M182.818068298,27.5370089536c0-.2406362591.0753359717-.4351932345.2252764979-.5851337607s.3444975016-.2252764979.5844023435-.2252764979h.8104102586v-.8096788414c0-.2399048419.0746045545-.4351932345.2245450807-.5851337607s.3452289188-.2245450807.5851337607-.2245450807h.7796907362v-.8096788414c0-.2399048419.0753359717-.4351932345.2252764979-.5851337607s.3444975016-.2252764979.5844023435-.2252764979h8.0982512485c.2399048419,0,.4351932345.0753359717.5851337607.2252764979s.2252764979.3452289188.2252764979.5851337607v.8096788414h.7796907362c.2399048419,0,.4344618173.0746045545.5851337607.2245450807.1499405262.1499405262.2245450807.3452289188.2245450807.5851337607v.8096788414h.8096788414c.2399048419,0,.4351932345.0753359717.5851337607.2252764979s.2245450807.3444975016.2245450807.5851337607v2.4290365242h-3.2387153656v-1.6193576828h-.7804221534c-.2399048419,0-.4344618173-.0753359717-.5844023435-.2252764979s-.2252764979-.3444975016-.2252764979-.5844023435v-.8104102586h-6.4788935657v.8104102586c0,.2399048419-.0746045545.4344618173-.2245450807.5844023435s-.3452289188.2252764979-.5851337607.2252764979h-.8096788414v1.5893695776h.8096788414c.2399048419,0,.4351932345.0753359717.5851337607.2252764979s.2245450807.3444975016.2245450807.5844023435v.8104102586h7.2885724071c.2399048419,0,.4351932345.0746045545.5851337607.2245450807s.2252764979.3452289188.2252764979.5851337607v.8096788414h.7796907362c.2399048419,0,.4344618173.0753359717.5851337607.2252764979.1499405262.1499405262.2245450807.3444975016.2245450807.5844023435v.8096788414h.8096788414c.2399048419,0,.4351932345.0753359717.5851337607.2252764979s.2245450807.3452289188.2245450807.5851337607v4.8288163604c0,.2399048419-.0746045545.4351932345-.2245450807.5851337607s-.3452289188.2245450807-.5851337607.2245450807h-.8096788414v.8096788414c0,.2399048419-.0746045545.4351932345-.2245450807.5851337607-.1506719434.1499405262-.3452289188.2252764979-.5851337607.2252764979h-.7796907362v.8096788414c0,.2399048419-.0753359717.4344618173-.2252764979.5844023435s-.3452289188.2252764979-.5851337607.2252764979h-8.0982512485c-.2399048419,0-.4344618173-.0753359717-.5844023435-.2252764979s-.2252764979-.3444975016-.2252764979-.5844023435v-.8096788414h-.7796907362c-.2399048419,0-.4351932345-.0753359717-.5851337607-.2252764979s-.2245450807-.3452289188-.2245450807-.5851337607v-.8096788414h-.8104102586c-.2399048419,0-.4344618173-.0746045545-.5844023435-.2245450807s-.2252764979-.3452289188-.2252764979-.5851337607v-2.3997798362h3.2094586776v1.5901009948h.8096788414c.2399048419,0,.4351932345.0746045545.5851337607.2245450807s.2245450807.3452289188.2245450807.5851337607v.8096788414h6.4788935657v-.8096788414c0-.2399048419.0753359717-.4351932345.2252764979-.5851337607s.3444975016-.2245450807.5844023435-.2245450807h.8104102586v-3.2094586776h-.7804221534c-.2399048419,0-.4344618173-.0753359717-.5844023435-.2252764979s-.2252764979-.3444975016-.2252764979-.5844023435v-.8104102586h-7.3185605123c-.2399048419,0-.4344618173-.0746045545-.5844023435-.2245450807s-.2252764979-.3452289188-.2252764979-.5851337607v-.8096788414h-.7796907362c-.2399048419,0-.4351932345-.0753359717-.5851337607-.2252764979s-.2245450807-.3444975016-.2245450807-.5844023435v-.8096788414h-.8104102586c-.2399048419,0-.4344618173-.0753359717-.5844023435-.2252764979s-.2252764979-.3452289188-.2252764979-.5851337607v-3.2087272604Z"/>
    <path class="fill-secondary" d="M199.3151832645,23.4871519122h5.639226619c.2399048419,0,.4344618173.0753359717.5844023435.2252764979s.2252764979.3452289188.2252764979.5851337607v.8096788414h3.2394467828v-.8096788414c0-.2399048419.0746045545-.4351932345.2245450807-.5851337607s.3452289188-.2252764979.5851337607-.2252764979h5.6085070966v3.2394467828h-6.418185938v17.7566153865h-3.2394467828v-17.7566153865h-6.4489054604v-3.2394467828Z"/>
    <path class="fill-secondary" d="M218.9910373862,25.1072410122v-.8096788414c0-.2399048419.0746045545-.4351932345.2245450807-.5851337607s.3452289188-.2252764979.5851337607-.2252764979h9.6576327208c.2399048419,0,.4351932345.0753359717.5851337607.2252764979s.2252764979.3452289188.2252764979.5851337607v.8096788414h.8096788414c.2399048419,0,.4344618173.0746045545.5851337607.2245450807.1499405262.1499405262.2245450807.3452289188.2245450807.5851337607v.8096788414h.8096788414c.2399048419,0,.4351932345.0753359717.5851337607.2252764979s.2245450807.3444975016.2245450807.5851337607v4.8288163604c0,.2399048419-.0746045545.4344618173-.2245450807.5844023435s-.3452289188.2252764979-.5851337607.2252764979h-.8096788414v.8096788414c0,.2399048419-.0746045545.4351932345-.2245450807.5851337607-.1506719434.1499405262-.3452289188.2245450807-.5851337607.2245450807h-.8096788414v1.6200891h.8096788414c.2399048419,0,.4344618173.0746045545.5851337607.2245450807.1499405262.1499405262.2245450807.3452289188.2245450807.5851337607v.8096788414h.8096788414c.2399048419,0,.4351932345.0753359717.5851337607.2252764979s.2245450807.3444975016.2245450807.5851337607v5.6384952018h-3.2387153656v-4.8588044656h-.8104102586c-.2399048419,0-.4344618173-.0753359717-.5844023435-.2252764979s-.2252764979-.3444975016-.2252764979-.5851337607v-.7796907362h-.8096788414c-.2399048419,0-.4351932345-.0746045545-.5851337607-.2245450807s-.2245450807-.3452289188-.2245450807-.5851337607v-.8096788414h-6.4189173552v8.0682631432h-3.2394467828v-7.2585843018c0-.2399048419.0753359717-.4351932345.2252764979-.5851337607s.3444975016-.2245450807.5844023435-.2245450807h.8104102586v-3.2394467828h-.8104102586c-.2399048419,0-.4344618173-.0753359717-.5844023435-.2252764979s-.2252764979-.3444975016-.2252764979-.5844023435v-6.4489054604c0-.2399048419.0753359717-.4351932345.2252764979-.5851337607s.3444975016-.2245450807.5844023435-.2245450807h.8104102586ZM220.610395069,26.726598695v6.4489054604h8.038275038v-.8096788414c0-.2399048419.0753359717-.4351932345.2252764979-.5851337607s.3444975016-.2245450807.5844023435-.2245450807h.8104102586v-3.2094586776h-.8104102586c-.2399048419,0-.4344618173-.0753359717-.5844023435-.2252764979s-.2252764979-.3444975016-.2252764979-.5844023435v-.8104102586h-8.038275038Z"/>
    <path class="fill-secondary" d="M237.0775219302,37.2246297796c0-.2399048419.0746045545-.4351932345.2245450807-.5851337607s.3452289188-.2245450807.5851337607-.2245450807h.8096788414v-2.4297679414c0-.2399048419.0753359717-.4344618173.2252764979-.5844023435s.3444975016-.2252764979.5844023435-.2252764979h.8104102586v-4.019137519c0-.2399048419.0746045545-.4351932345.2245450807-.5851337607s.3452289188-.2245450807.5851337607-.2245450807h.8096788414v-2.4297679414c0-.2399048419.0746045545-.4351932345.2245450807-.5851337607.1506719434-.1499405262.3452289188-.2245450807.5851337607-.2245450807h.8096788414v-.8096788414c0-.2399048419.0753359717-.4351932345.2252764979-.5851337607s.3452289188-.2252764979.5851337607-.2252764979h1.6193576828c.2399048419,0,.4351932345.0753359717.5851337607.2252764979s.2245450807.3452289188.2245450807.5851337607v.8096788414h.7796907362c.2399048419,0,.4351932345.0746045545.5851337607.2245450807s.2252764979.3452289188.2252764979.5851337607v2.4297679414h.8096788414c.2399048419,0,.4344618173.0746045545.5851337607.2245450807.1499405262.1499405262.2245450807.3452289188.2245450807.5851337607v4.019137519h.8096788414c.2399048419,0,.4351932345.0753359717.5851337607.2252764979s.2245450807.3444975016.2245450807.5844023435v2.4297679414h.8104102586c.2399048419,0,.4344618173.0746045545.5844023435.2245450807s.2252764979.3452289188.2252764979.5851337607v2.3997798362h.8096788414c.2399048419,0,.4351932345.0746045545.5851337607.2245450807s.2245450807.3452289188.2245450807.5851337607v4.0491256242h-3.2394467828v-3.2394467828h-.8096788414c-.2399048419,0-.4344618173-.0746045545-.5844023435-.2245450807s-.2252764979-.3452289188-.2252764979-.5851337607v-2.3997798362h-1.6193576828v.8104102586c0,.2399048419-.0753359717.4344618173-.2252764979.5844023435s-.3452289188.2252764979-.5851337607.2252764979h-4.8288163604c-.2399048419,0-.4344618173-.0753359717-.5851337607-.2252764979-.1499405262-.1499405262-.2245450807-.3444975016-.2245450807-.5844023435v-.8104102586h-1.6193576828v2.3997798362c0,.2399048419-.0753359717.4351932345-.2252764979.5851337607s-.3452289188.2245450807-.5851337607.2245450807h-.8096788414v3.2394467828h-3.2394467828v-4.0491256242c0-.2399048419.0753359717-.4351932345.2252764979-.5851337607s.3444975016-.2245450807.5844023435-.2245450807h.8104102586v-2.3997798362ZM241.9363263959,33.1755041554v3.2394467828h6.4489054604v-3.2394467828h-.8104102586c-.2399048419,0-.4344618173-.0753359717-.5844023435-.2252764979s-.2252764979-.3444975016-.2252764979-.5844023435v-4.019137519h-3.2094586776v4.019137519c0,.2399048419-.0746045545.4344618173-.2245450807.5844023435s-.3452289188.2252764979-.5851337607.2252764979h-.8096788414Z"/>
    <path class="fill-secondary" d="M251.8938401691,23.4871519122h3.2394467828v4.8595358828h.7796907362c.2399048419,0,.4351932345.0746045545.5851337607.2245450807s.2245450807.3452289188.2245450807.5851337607v2.3997798362h.8104102586c.2399048419,0,.4344618173.0746045545.5844023435.2245450807s.2252764979.3452289188.2252764979.5851337607v4.0491256242h.8096788414c.2399048419,0,.4351932345.0746045545.5851337607.2245450807s.2245450807.3452289188.2245450807.5851337607v2.3997798362h3.2394467828v-2.3997798362c0-.2399048419.0753359717-.4351932345.2252764979-.5851337607s.3444975016-.2245450807.5844023435-.2245450807h.7804221534v-4.0491256242c0-.2399048419.0746045545-.4351932345.2245450807-.5851337607s.3452289188-.2245450807.5851337607-.2245450807h.8096788414v-2.3997798362c0-.2399048419.0753359717-.4351932345.2252764979-.5851337607s.3444975016-.2245450807.5844023435-.2245450807h.8096788414v-4.8595358828h3.2394467828v4.0498570414c0,.2399048419-.0746045545.4344618173-.2245450807.5844023435s-.3452289188.2252764979-.5851337607.2252764979h-.8096788414v2.399048419c0,.2399048419-.0753359717.4351932345-.2252764979.5851337607s-.3444975016.2252764979-.5844023435.2252764979h-.8104102586v4.0491256242c0,.2399048419-.0746045545.4344618173-.2245450807.5844023435s-.3452289188.2252764979-.5851337607.2252764979h-.8096788414v2.399048419c0,.2406362591-.0746045545.4351932345-.2245450807.5851337607-.1506719434.1499405262-.3452289188.2252764979-.5851337607.2252764979h-.7796907362v2.4290365242c0,.2399048419-.0753359717.4351932345-.2252764979.5851337607s-.3452289188.2252764979-.5851337607.2252764979h-.8096788414v1.6193576828h-3.2394467828v-1.6193576828h-.8096788414c-.2399048419,0-.4344618173-.0753359717-.5851337607-.2252764979-.1499405262-.1499405262-.2245450807-.3452289188-.2245450807-.5851337607v-2.4290365242h-.8096788414c-.2399048419,0-.4351932345-.0753359717-.5851337607-.2252764979s-.2252764979-.3444975016-.2252764979-.5851337607v-2.399048419h-.8096788414c-.2399048419,0-.4344618173-.0753359717-.5844023435-.2252764979s-.2252764979-.3444975016-.2252764979-.5844023435v-4.0491256242h-.7796907362c-.2399048419,0-.4351932345-.0753359717-.5851337607-.2252764979s-.2245450807-.3452289188-.2245450807-.5851337607v-2.399048419h-.8104102586c-.2399048419,0-.4344618173-.0753359717-.5844023435-.2252764979s-.2252764979-.3444975016-.2252764979-.5844023435v-4.0498570414Z"/>
    <path class="fill-secondary" d="M269.9210799199,37.2246297796c0-.2399048419.0746045545-.4351932345.2245450807-.5851337607s.3452289188-.2245450807.5851337607-.2245450807h.8096788414v-2.4297679414c0-.2399048419.0753359717-.4344618173.2252764979-.5844023435s.3444975016-.2252764979.5844023435-.2252764979h.8104102586v-4.019137519c0-.2399048419.0746045545-.4351932345.2245450807-.5851337607s.3452289188-.2245450807.5851337607-.2245450807h.8096788414v-2.4297679414c0-.2399048419.0746045545-.4351932345.2245450807-.5851337607.1506719434-.1499405262.3452289188-.2245450807.5851337607-.2245450807h.8096788414v-.8096788414c0-.2399048419.0753359717-.4351932345.2252764979-.5851337607s.3452289188-.2252764979.5851337607-.2252764979h1.6193576828c.2399048419,0,.4351932345.0753359717.5851337607.2252764979s.2245450807.3452289188.2245450807.5851337607v.8096788414h.7796907362c.2399048419,0,.4351932345.0746045545.5851337607.2245450807s.2252764979.3452289188.2252764979.5851337607v2.4297679414h.8096788414c.2399048419,0,.4344618173.0746045545.5851337607.2245450807.1499405262.1499405262.2245450807.3452289188.2245450807.5851337607v4.019137519h.8096788414c.2399048419,0,.4351932345.0753359717.5851337607.2252764979s.2245450807.3444975016.2245450807.5844023435v2.4297679414h.8104102586c.2399048419,0,.4344618173.0746045545.5844023435.2245450807s.2252764979.3452289188.2252764979.5851337607v2.3997798362h.8096788414c.2399048419,0,.4351932345.0746045545.5851337607.2245450807s.2245450807.3452289188.2245450807.5851337607v4.0491256242h-3.2394467828v-3.2394467828h-.8096788414c-.2399048419,0-.4344618173-.0746045545-.5844023435-.2245450807s-.2252764979-.3452289188-.2252764979-.5851337607v-2.3997798362h-1.6193576828v.8104102586c0,.2399048419-.0753359717.4344618173-.2252764979.5844023435s-.3452289188.2252764979-.5851337607.2252764979h-4.8288163604c-.2399048419,0-.4344618173-.0753359717-.5851337607-.2252764979-.1499405262-.1499405262-.2245450807-.3444975016-.2245450807-.5844023435v-.8104102586h-1.6193576828v2.3997798362c0,.2399048419-.0753359717.4351932345-.2252764979.5851337607s-.3452289188.2245450807-.5851337607.2245450807h-.8096788414v3.2394467828h-3.2394467828v-4.0491256242c0-.2399048419.0753359717-.4351932345.2252764979-.5851337607s.3444975016-.2245450807.5844023435-.2245450807h.8104102586v-2.3997798362ZM274.7798843855,33.1755041554v3.2394467828h6.4489054604v-3.2394467828h-.8104102586c-.2399048419,0-.4344618173-.0753359717-.5844023435-.2252764979s-.2252764979-.3444975016-.2252764979-.5844023435v-4.019137519h-3.2094586776v4.019137519c0,.2399048419-.0746045545.4344618173-.2245450807.5844023435s-.3452289188.2252764979-.5851337607.2252764979h-.8096788414Z"/>
  </g>
</svg>