<?xml version="1.0" encoding="UTF-8"?>
<svg id="Livello_1" data-name="Livello 1" xmlns="http://www.w3.org/2000/svg" viewBox="0 0 245.37 42.92">
  <defs>
    <style>
      .stroke-button-secondary {
        stroke: var(--palette-secondary);
        stroke-miterlimit: 10;
      }
    </style>
  </defs>
  <rect class="fill-primary" width="245.37" height="42.92" rx="12.18" ry="12.18"/>
  <path class="fill-secondary stroke-button-secondary" d="M16.63,8.64c-4.18,0-7.57,3.4-7.57,7.57v10.49c0,4.18,3.4,7.57,7.57,7.57h10.49c4.18,0,7.57-3.4,7.57-7.57v-10.49c0-4.18-3.4-7.57-7.57-7.57h-10.49ZM16.63,9.81h10.49c3.55,0,6.41,2.86,6.41,6.41v10.49c0,3.55-2.86,6.41-6.41,6.41h-10.49c-3.55,0-6.41-2.86-6.41-6.41v-10.49c0-3.55,2.86-6.41,6.41-6.41ZM28.86,13.3c-.64,0-1.17.52-1.17,1.17s.52,1.17,1.17,1.17,1.17-.52,1.17-1.17-.52-1.17-1.17-1.17ZM21.87,15.05c-3.53,0-6.41,2.88-6.41,6.41s2.88,6.41,6.41,6.41,6.41-2.88,6.41-6.41-2.88-6.41-6.41-6.41ZM21.87,16.21c2.9,0,5.24,2.34,5.24,5.24s-2.34,5.24-5.24,5.24-5.24-2.34-5.24-5.24,2.34-5.24,5.24-5.24Z"/>
  <g>
    <path class="fill-secondary" d="M44.08,9.39h6.42c.27,0,.49.09.67.26s.26.39.26.67v.92h3.69v-.92c0-.27.09-.49.26-.67.17-.17.39-.26.67-.26h6.38v3.69h-7.3v20.2h-3.69V13.07h-7.34v-3.69Z"/>
    <path class="fill-secondary" d="M66.09,11.23v-.92c0-.27.09-.49.26-.67.17-.17.39-.26.67-.26h10.99c.27,0,.49.09.67.26s.26.39.26.67v.92h.92c.27,0,.49.09.67.26s.26.39.26.67v.92h.92c.27,0,.49.09.67.26s.26.39.26.67v5.49c0,.27-.09.49-.26.67-.17.17-.39.26-.67.26h-.92v.92c0,.27-.09.49-.26.67-.17.17-.39.26-.67.26h-.92v1.84h.92c.27,0,.49.09.67.26s.26.39.26.67v.92h.92c.27,0,.49.09.67.26.17.17.26.39.26.67v6.42h-3.69v-5.53h-.92c-.27,0-.49-.09-.67-.26-.17-.17-.26-.39-.26-.67v-.89h-.92c-.27,0-.49-.09-.67-.26-.17-.17-.26-.39-.26-.67v-.92h-7.3v9.18h-3.69v-8.26c0-.27.09-.49.26-.67.17-.17.39-.26.67-.26h.92v-3.69h-.92c-.27,0-.49-.09-.67-.26s-.26-.39-.26-.67v-7.34c0-.27.09-.49.26-.67.17-.17.39-.26.67-.26h.92ZM67.93,13.07v7.34h9.15v-.92c0-.27.09-.49.26-.67.17-.17.39-.26.67-.26h.92v-3.65h-.92c-.27,0-.49-.09-.67-.26s-.26-.39-.26-.67v-.92h-9.15Z"/>
    <path class="fill-secondary" d="M86.29,25.02c0-.27.09-.49.26-.67.17-.17.39-.26.67-.26h.92v-2.76c0-.27.09-.49.26-.67.17-.17.39-.26.67-.26h.92v-4.57c0-.27.09-.49.26-.67.17-.17.39-.26.67-.26h.92v-2.76c0-.27.09-.49.26-.67.17-.17.39-.26.67-.26h.92v-.92c0-.27.09-.49.26-.67.17-.17.39-.26.67-.26h1.84c.27,0,.49.09.67.26.17.17.26.39.26.67v.92h.89c.27,0,.49.09.67.26.17.17.26.39.26.67v2.76h.92c.27,0,.49.09.67.26.17.17.26.39.26.67v4.57h.92c.27,0,.49.09.67.26.17.17.26.39.26.67v2.76h.92c.27,0,.49.09.67.26.17.17.26.39.26.67v2.73h.92c.27,0,.49.09.67.26.17.17.26.39.26.67v4.61h-3.69v-3.69h-.92c-.27,0-.49-.09-.67-.26s-.26-.39-.26-.67v-2.73h-1.84v.92c0,.27-.09.49-.26.67s-.39.26-.67.26h-5.49c-.27,0-.49-.09-.67-.26-.17-.17-.26-.39-.26-.67v-.92h-1.84v2.73c0,.27-.09.49-.26.67-.17.17-.39.26-.67.26h-.92v3.69h-3.69v-4.61c0-.27.09-.49.26-.67.17-.17.39-.26.67-.26h.92v-2.73ZM91.82,20.41v3.69h7.34v-3.69h-.92c-.27,0-.49-.09-.67-.26s-.26-.39-.26-.67v-4.57h-3.65v4.57c0,.27-.09.49-.26.67-.17.17-.39.26-.67.26h-.92Z"/>
    <path class="fill-secondary" d="M108.37,15.84c0-.27.09-.49.26-.67.17-.17.39-.26.67-.26h.89v-2.76c0-.27.09-.49.26-.67s.39-.26.67-.26h.92v-.92c0-.27.09-.49.26-.67s.39-.26.67-.26h9.21c.27,0,.49.09.67.26.17.17.26.39.26.67v.92h.92c.27,0,.49.09.67.26.17.17.26.39.26.67v2.76h.92c.27,0,.49.09.67.26.17.17.26.39.26.67v2.73h-3.69v-1.84h-.92c-.27,0-.49-.09-.67-.26s-.26-.39-.26-.67v-2.73h-7.37v2.73c0,.27-.09.49-.26.67-.17.17-.39.26-.67.26h-.92v9.18h.92c.27,0,.49.09.67.26s.26.39.26.67v2.76h7.37v-2.73c0-.27.09-.49.26-.67.17-.17.39-.26.67-.26h.92v-1.84h3.69v2.73c0,.27-.09.49-.26.67s-.39.26-.67.26h-.92v2.76c0,.27-.09.49-.26.67s-.39.26-.67.26h-.92v.92c0,.27-.09.49-.26.67s-.39.26-.67.26h-9.18c-.27,0-.49-.09-.67-.26-.17-.17-.26-.39-.26-.67v-.92h-.96c-.27,0-.49-.09-.67-.26-.17-.17-.26-.39-.26-.67v-2.76h-.89c-.27,0-.49-.09-.67-.26-.17-.17-.26-.39-.26-.67v-10.99Z"/>
    <path class="fill-secondary" d="M130.45,11.23v-.92c0-.27.09-.49.26-.67.17-.17.39-.26.67-.26h13.79v3.69h-12.87v5.49h11.02v3.69h-11.02v7.34h12.87v3.69h-13.79c-.27,0-.49-.09-.67-.26-.17-.17-.26-.39-.26-.67v-.92h-.92c-.27,0-.49-.09-.67-.26-.17-.17-.26-.39-.26-.67v-7.34c0-.27.09-.49.26-.67.17-.17.39-.26.67-.26h.92v-3.69h-.92c-.27,0-.49-.09-.67-.26s-.26-.39-.26-.67v-5.49c0-.27.09-.49.26-.67.17-.17.39-.26.67-.26h.92Z"/>
    <path class="fill-secondary" d="M157.24,9.39h3.69v20.2h11.02v3.69h-11.94c-.27,0-.49-.09-.67-.26-.17-.17-.26-.39-.26-.67v-.92h-.92c-.27,0-.49-.09-.67-.26-.17-.17-.26-.39-.26-.67V9.39Z"/>
    <path class="fill-secondary" d="M173.8,9.39h3.69v23.89h-3.69V9.39Z"/>
    <path class="fill-secondary" d="M179.32,9.39h3.69v1.84h.89c.27,0,.49.09.67.26s.26.39.26.67v2.76h.92c.27,0,.49.09.67.26s.26.39.26.67v.89h.92c.27,0,.49.09.67.26s.26.39.26.67v2.76h.92c.27,0,.49.09.67.26s.26.39.26.67v.92h.92c.27,0,.49.09.67.26s.26.39.26.67v2.76h1.81V9.39h3.69v16.52h.03v.92c0,.27-.09.49-.26.67s-.39.26-.67.26h-.92v1.84h.89c.27,0,.49.09.67.26.17.17.26.39.26.67v2.76h-3.69v-1.84h-.89c-.27,0-.49-.09-.67-.26-.17-.17-.26-.39-.26-.67v-.92h-.92c-.27,0-.49-.09-.67-.26-.17-.17-.26-.39-.26-.67v-.89h-.92c-.27,0-.49-.09-.67-.26-.17-.17-.26-.39-.26-.67v-2.76h-.92c-.27,0-.49-.09-.67-.26-.17-.17-.26-.39-.26-.67v-.92h-.92c-.27,0-.49-.09-.67-.26s-.26-.39-.26-.67v-2.76h-1.81v14.71h-3.69V15.84c0-.27.09-.49.26-.67.17-.17.39-.26.67-.26h.92v-1.84h-.92c-.27,0-.49-.09-.67-.26s-.26-.39-.26-.67v-2.76Z"/>
    <path class="fill-secondary" d="M201.4,11.23v-.92c0-.27.09-.49.26-.67.17-.17.39-.26.67-.26h13.79v3.69h-12.87v5.49h11.02v3.69h-11.02v7.34h12.87v3.69h-13.79c-.27,0-.49-.09-.67-.26-.17-.17-.26-.39-.26-.67v-.92h-.92c-.27,0-.49-.09-.67-.26-.17-.17-.26-.39-.26-.67v-7.34c0-.27.09-.49.26-.67.17-.17.39-.26.67-.26h.92v-3.69h-.92c-.27,0-.49-.09-.67-.26s-.26-.39-.26-.67v-5.49c0-.27.09-.49.26-.67.17-.17.39-.26.67-.26h.92Z"/>
    <path class="fill-secondary" d="M219.8,11.23v-.92c0-.27.09-.49.26-.67.17-.17.39-.26.67-.26h10.99c.27,0,.49.09.67.26s.26.39.26.67v.92h.92c.27,0,.49.09.67.26s.26.39.26.67v.92h.92c.27,0,.49.09.67.26s.26.39.26.67v5.49c0,.27-.09.49-.26.67-.17.17-.39.26-.67.26h-.92v.92c0,.27-.09.49-.26.67-.17.17-.39.26-.67.26h-.92v1.84h.92c.27,0,.49.09.67.26s.26.39.26.67v.92h.92c.27,0,.49.09.67.26.17.17.26.39.26.67v6.42h-3.69v-5.53h-.92c-.27,0-.49-.09-.67-.26-.17-.17-.26-.39-.26-.67v-.89h-.92c-.27,0-.49-.09-.67-.26-.17-.17-.26-.39-.26-.67v-.92h-7.3v9.18h-3.69v-8.26c0-.27.09-.49.26-.67.17-.17.39-.26.67-.26h.92v-3.69h-.92c-.27,0-.49-.09-.67-.26s-.26-.39-.26-.67v-7.34c0-.27.09-.49.26-.67.17-.17.39-.26.67-.26h.92ZM221.64,13.07v7.34h9.15v-.92c0-.27.09-.49.26-.67.17-.17.39-.26.67-.26h.92v-3.65h-.92c-.27,0-.49-.09-.67-.26s-.26-.39-.26-.67v-.92h-9.15Z"/>
  </g>
</svg>