<?xml version="1.0" encoding="UTF-8"?>
<svg id="Livello_1" data-name="Livello 1" xmlns="http://www.w3.org/2000/svg" viewBox="0 0 9.3403603467 117.25390625">
  <g>
    <path d="M.6264931592,116.7177734375h-.2724609375c-.0810546875,0-.146484375-.025390625-.197265625-.076171875-.05078125-.0498046875-.076171875-.1162109375-.076171875-.197265625v-2.728515625c0-.0810546875.025390625-.146484375.076171875-.197265625s.1162109375-.076171875.197265625-.076171875h.2724609375v3.275390625ZM.6264931592,113.4423828125v-.2626953125c0-.0810546875.025390625-.146484375.076171875-.197265625s.1162109375-.0751953125.197265625-.0751953125h.2724609375v.2626953125c0,.080078125-.025390625.146484375-.076171875.197265625-.0498046875.0498046875-.1162109375.0751953125-.1962890625.0751953125h-.2734375ZM6.6108681592,116.7177734375v.2626953125c0,.0810546875-.025390625.146484375-.076171875.197265625-.0498046875.05078125-.1162109375.076171875-.1962890625.076171875H.8999306592c-.0810546875,0-.146484375-.025390625-.197265625-.076171875s-.076171875-.1162109375-.076171875-.197265625v-.2626953125h5.984375ZM1.1723915967,112.9072265625v-.2734375c0-.0810546875.025390625-.146484375.076171875-.197265625.0498046875-.05078125.1162109375-.0751953125.197265625-.0751953125h.2724609375v.2724609375c0,.0810546875-.025390625.146484375-.076171875.197265625-.0498046875.05078125-.1162109375.076171875-.1962890625.076171875h-.2734375ZM1.7182900342,112.361328125v-.2734375c0-.0810546875.025390625-.146484375.076171875-.197265625.0498046875-.0498046875.1162109375-.0751953125.197265625-.0751953125h3.2548828125c.080078125,0,.146484375.025390625.1962890625.0751953125.05078125.05078125.076171875.1162109375.076171875.197265625v.2734375H1.7182900342ZM6.0649697217,112.9072265625h-.2724609375c-.0810546875,0-.1474609375-.025390625-.197265625-.076171875-.05078125-.05078125-.076171875-.1162109375-.076171875-.197265625v-.2724609375h.2734375c.080078125,0,.146484375.0244140625.1962890625.0751953125.05078125.05078125.076171875.1162109375.076171875.197265625v.2734375ZM6.6108681592,113.4423828125h-.2724609375c-.0810546875,0-.1474609375-.025390625-.197265625-.0751953125-.05078125-.05078125-.076171875-.1171875-.076171875-.197265625v-.2626953125h.2734375c.080078125,0,.146484375.0244140625.1962890625.0751953125.05078125.05078125.076171875.1162109375.076171875.197265625v.2626953125ZM6.6108681592,116.7177734375v-3.275390625h.2734375c.080078125,0,.146484375.025390625.1962890625.076171875.05078125.05078125.076171875.1162109375.076171875.197265625v2.728515625c0,.0810546875-.025390625.1474609375-.076171875.197265625-.0498046875.05078125-.1162109375.076171875-.1962890625.076171875h-.2734375Z"/>
    <path d="M1.9917275342,110.1875c-.0810546875,0-.1474609375-.025390625-.197265625-.076171875-.05078125-.0498046875-.076171875-.1162109375-.076171875-.197265625v-1.63671875c0-.0810546875.025390625-.146484375.076171875-.197265625.0498046875-.05078125.1162109375-.076171875.197265625-.076171875h.2626953125v2.18359375h-.2626953125ZM2.8003212842,107.7314453125c0,.080078125-.025390625.146484375-.076171875.1962890625-.05078125.05078125-.1162109375.076171875-.197265625.076171875h-.2724609375v-.2724609375c0-.0810546875.025390625-.146484375.0751953125-.197265625.05078125-.05078125.1162109375-.076171875.197265625-.076171875h.2734375v.2734375ZM2.5268837842,110.1875c.0810546875,0,.146484375.025390625.197265625.076171875.05078125.0498046875.076171875.1162109375.076171875.1962890625v.263671875h-.2734375c-.0810546875,0-.146484375-.025390625-.197265625-.076171875-.0498046875-.05078125-.0751953125-.1162109375-.0751953125-.197265625v-.2626953125h.2724609375ZM2.8003212842,107.185546875c0-.0810546875.025390625-.146484375.0751953125-.197265625.05078125-.05078125.1162109375-.076171875.197265625-.076171875h1.091796875c.0810546875,0,.146484375.025390625.197265625.076171875s.076171875.1162109375.076171875.197265625v.2724609375h-1.6376953125v-.2724609375ZM3.0727822217,111.26953125c-.0810546875,0-.146484375-.025390625-.197265625-.076171875-.0498046875-.05078125-.0751953125-.1162109375-.0751953125-.197265625v-.2724609375h1.6376953125v.2724609375c0,.0810546875-.025390625.146484375-.076171875.197265625s-.1162109375.076171875-.197265625.076171875h-1.091796875ZM4.7104775342,107.4580078125c.0810546875,0,.146484375.025390625.197265625.076171875s.0751953125.1162109375.0751953125.197265625v2.9921875h-.544921875v-3.265625h.2724609375ZM5.2563759717,111.26953125c-.0810546875,0-.146484375-.025390625-.197265625-.076171875s-.076171875-.1162109375-.076171875-.197265625v-.2724609375h1.08203125v.2724609375c0,.0810546875-.025390625.146484375-.076171875.197265625-.0498046875.05078125-.1162109375.076171875-.1962890625.076171875h-.5361328125ZM5.7925087842,106.912109375c.080078125,0,.146484375.025390625.1962890625.076171875.05078125.05078125.076171875.1162109375.076171875.197265625v.2724609375h-.5458984375v-.5458984375h.2734375ZM6.3384072217,107.4580078125c.080078125,0,.146484375.025390625.1962890625.076171875.05078125.05078125.076171875.1162109375.076171875.197265625v.2724609375h-.2724609375c-.0810546875,0-.1474609375-.025390625-.197265625-.076171875-.05078125-.0498046875-.076171875-.1162109375-.076171875-.1962890625v-.2734375h.2734375ZM6.6108681592,110.4501953125c0,.0810546875-.025390625.146484375-.076171875.197265625-.0498046875.05078125-.1162109375.076171875-.1962890625.076171875h-.2734375v-.263671875c0-.080078125.025390625-.146484375.076171875-.1962890625.0498046875-.05078125.1162109375-.076171875.197265625-.076171875h.2724609375v.2626953125ZM7.1567665967,109.9140625c0,.0810546875-.025390625.1474609375-.076171875.197265625-.0498046875.05078125-.1162109375.076171875-.1962890625.076171875h-.2734375v-2.18359375h.2734375c.080078125,0,.146484375.025390625.1962890625.076171875.05078125.05078125.076171875.1162109375.076171875.197265625v1.63671875Z"/>
    <path d="M1.9917275342,105.2861328125c-.0810546875,0-.1474609375-.025390625-.197265625-.076171875-.05078125-.0498046875-.076171875-.1162109375-.076171875-.197265625v-1.63671875c0-.0810546875.025390625-.146484375.076171875-.197265625.0498046875-.05078125.1162109375-.076171875.197265625-.076171875h.2626953125v2.18359375h-.2626953125ZM2.8003212842,102.830078125c0,.080078125-.025390625.146484375-.076171875.1962890625-.05078125.05078125-.1162109375.076171875-.197265625.076171875h-.2724609375v-.2724609375c0-.0810546875.025390625-.146484375.0751953125-.197265625.05078125-.05078125.1162109375-.076171875.197265625-.076171875h.2734375v.2734375ZM2.5268837842,105.2861328125c.0810546875,0,.146484375.025390625.197265625.076171875.05078125.0498046875.076171875.1162109375.076171875.1962890625v.2734375h-.2734375c-.0810546875,0-.146484375-.025390625-.197265625-.076171875-.0498046875-.0498046875-.0751953125-.1162109375-.0751953125-.197265625v-.2724609375h.2724609375ZM2.8003212842,102.2939453125c0-.0810546875.025390625-.146484375.0751953125-.197265625.05078125-.05078125.1162109375-.0751953125.197265625-.0751953125h.2734375v.53515625h-.5458984375v-.2626953125ZM3.3462197217,106.0947265625c0,.080078125-.025390625.1455078125-.076171875.1962890625s-.1162109375.076171875-.197265625.076171875c-.0869140625,0-.1552734375-.025390625-.2021484375-.076171875s-.0703125-.1162109375-.0703125-.1962890625v-.2626953125h.5458984375v.2626953125ZM3.8921181592,105.55859375c0,.0810546875-.025390625.1474609375-.076171875.197265625-.05078125.05078125-.1162109375.076171875-.197265625.076171875h-.2724609375v-.2734375c0-.080078125.0244140625-.146484375.0751953125-.1962890625.05078125-.05078125.1162109375-.076171875.197265625-.076171875h.2734375v.2724609375ZM4.4380165967,105.0126953125c0,.0810546875-.025390625.1474609375-.076171875.197265625-.05078125.05078125-.1162109375.076171875-.197265625.076171875h-.2724609375v-.818359375c0-.0810546875.0244140625-.1474609375.0751953125-.197265625.05078125-.05078125.1162109375-.076171875.197265625-.076171875h.2734375v.818359375ZM4.9829384717,103.921875c0,.080078125-.0244140625.146484375-.0751953125.1962890625-.05078125.05078125-.1162109375.076171875-.197265625.076171875h-.2724609375v-.818359375c0-.0810546875.0244140625-.146484375.0751953125-.197265625s.1162109375-.076171875.197265625-.076171875h.2724609375v.8193359375ZM5.5190712842,102.830078125c0,.080078125-.025390625.146484375-.076171875.1962890625-.0498046875.05078125-.1162109375.076171875-.1962890625.076171875h-.263671875v-.2724609375c0-.0810546875.025390625-.146484375.076171875-.197265625s.1162109375-.076171875.197265625-.076171875h.2626953125v.2734375ZM5.5190712842,102.2939453125c0-.0810546875.025390625-.146484375.076171875-.197265625.0498046875-.05078125.1162109375-.0751953125.197265625-.0751953125.0869140625,0,.154296875.0244140625.2021484375.0751953125.046875.05078125.0703125.1162109375.0703125.197265625v.2626953125h-.5458984375v-.2626953125ZM6.0649697217,106.0947265625c0,.080078125-.025390625.1455078125-.076171875.1962890625-.0498046875.05078125-.1162109375.076171875-.1962890625.076171875h-.2734375v-.53515625h.5458984375v.2626953125ZM6.3384072217,102.556640625c.080078125,0,.146484375.025390625.1962890625.076171875.05078125.05078125.076171875.1162109375.076171875.197265625v.2724609375h-.2724609375c-.0810546875,0-.1474609375-.025390625-.197265625-.076171875-.05078125-.0498046875-.076171875-.1162109375-.076171875-.1962890625v-.2734375h.2734375ZM6.6108681592,105.55859375c0,.0810546875-.025390625.1474609375-.076171875.197265625-.0498046875.05078125-.1162109375.076171875-.1962890625.076171875h-.2734375v-.2734375c0-.080078125.025390625-.146484375.076171875-.1962890625.0498046875-.05078125.1162109375-.076171875.197265625-.076171875h.2724609375v.2724609375ZM7.1567665967,105.0126953125c0,.0810546875-.025390625.1474609375-.076171875.197265625-.0498046875.05078125-.1162109375.076171875-.1962890625.076171875h-.2734375v-2.18359375h.2734375c.080078125,0,.146484375.025390625.1962890625.076171875.05078125.05078125.076171875.1162109375.076171875.197265625v1.63671875Z"/>
    <path d="M.0805947217,101.4755859375v-.5458984375h1.091796875v.5458984375H.0805947217ZM2.2544228467,101.4755859375v-.5458984375h4.90234375v.5458984375H2.2544228467Z"/>
    <path d="M1.9917275342,96.5830078125c-.0810546875,0-.1474609375-.025390625-.197265625-.076171875-.05078125-.05078125-.076171875-.1162109375-.076171875-.197265625v-.8291015625h.5458984375v1.1025390625h-.2724609375ZM1.9917275342,98.74609375c-.0810546875,0-.1474609375-.025390625-.197265625-.076171875-.05078125-.05078125-.076171875-.1162109375-.076171875-.197265625v-1.0810546875c0-.0810546875.025390625-.146484375.076171875-.197265625.0498046875-.05078125.1162109375-.076171875.197265625-.076171875h.2724609375v1.6279296875h-.2724609375ZM2.8100869092,96.845703125c0,.080078125-.025390625.146484375-.076171875.1962890625-.0498046875.05078125-.1162109375.076171875-.1962890625.076171875h-.2734375v-.53515625h.5458984375v.2626953125ZM2.5376259717,98.74609375c.080078125,0,.146484375.025390625.1962890625.0751953125.05078125.05078125.076171875.1162109375.076171875.197265625v.2734375h-.2724609375c-.0810546875,0-.1474609375-.025390625-.197265625-.076171875-.05078125-.05078125-.076171875-.1162109375-.076171875-.197265625v-.2724609375h.2734375ZM2.8100869092,96.2998046875c0-.0810546875.025390625-.146484375.076171875-.197265625.0498046875-.05078125.1162109375-.076171875.1962890625-.076171875h1.08203125c.0810546875,0,.146484375.025390625.197265625.076171875s.076171875.1162109375.076171875.197265625v.283203125h-1.6279296875v-.283203125ZM3.0825478467,99.84765625c-.080078125,0-.146484375-.025390625-.1962890625-.076171875-.05078125-.0498046875-.076171875-.1162109375-.076171875-.197265625v-.2822265625h1.6279296875v.2822265625c0,.0810546875-.025390625.1474609375-.076171875.197265625-.05078125.05078125-.1162109375.076171875-.197265625.076171875h-1.08203125ZM4.7202431592,96.5830078125c.0810546875,0,.146484375.0244140625.197265625.0751953125s.076171875.1162109375.076171875.197265625v.2626953125h-.283203125c-.0810546875,0-.146484375-.025390625-.197265625-.076171875-.05078125-.0498046875-.0751953125-.1162109375-.0751953125-.1962890625v-.2626953125h.2822265625ZM4.9936806592,99.0185546875c0,.0810546875-.025390625.146484375-.076171875.197265625s-.1162109375.076171875-.197265625.076171875h-.2822265625v-.2734375c0-.0810546875.0244140625-.146484375.0751953125-.197265625.05078125-.0498046875.1162109375-.0751953125.197265625-.0751953125h.283203125v.2724609375ZM5.2563759717,97.1181640625c.0810546875,0,.146484375.025390625.197265625.076171875s.0751953125.1162109375.0751953125.197265625v1.3544921875h-.53515625v-1.6279296875h.2626953125ZM5.8022744092,98.74609375c.0810546875,0,.146484375.025390625.197265625.0751953125.05078125.05078125.0751953125.1162109375.0751953125.197265625v.2734375h-.2724609375c-.0810546875,0-.146484375-.025390625-.197265625-.076171875s-.076171875-.1162109375-.076171875-.197265625v-.2724609375h.2734375ZM6.6108681592,99.5849609375c0,.1748046875-.087890625.2626953125-.2626953125.2626953125-.0810546875,0-.146484375-.0234375-.197265625-.0712890625-.05078125-.046875-.076171875-.1103515625-.076171875-.19140625v-.29296875h.5361328125v.29296875ZM6.6108681592,96.85546875c0-.0810546875.025390625-.146484375.076171875-.197265625.0498046875-.05078125.1162109375-.0751953125.197265625-.0751953125h.2724609375v2.708984375h-.5458984375v-2.4365234375ZM7.7026650342,96.3095703125c0,.0810546875-.025390625.146484375-.076171875.197265625-.0498046875.05078125-.1162109375.076171875-.197265625.076171875h-.2724609375v-.283203125c0-.0810546875.025390625-.146484375.076171875-.197265625.0498046875-.05078125.1162109375-.076171875.1962890625-.076171875h.2734375v.283203125ZM7.4292275342,99.2919921875c.0810546875,0,.1474609375.0244140625.197265625.0751953125.05078125.05078125.076171875.1162109375.076171875.197265625v.283203125h-.2734375c-.080078125,0-.146484375-.025390625-.1962890625-.076171875-.05078125-.0498046875-.076171875-.1162109375-.076171875-.197265625v-.2822265625h.2724609375ZM7.7026650342,95.75390625c0-.0810546875.025390625-.146484375.076171875-.197265625.0498046875-.05078125.1162109375-.076171875.1962890625-.076171875.087890625,0,.1572265625.025390625.2080078125.076171875.0498046875.05078125.0751953125.1162109375.0751953125.197265625v.2724609375h-.5556640625v-.2724609375ZM8.2583290967,100.1103515625c0,.0810546875-.025390625.146484375-.0751953125.197265625-.05078125.05078125-.1162109375.076171875-.197265625.076171875-.087890625,0-.1572265625-.025390625-.20703125-.076171875-.05078125-.05078125-.076171875-.1162109375-.076171875-.197265625v-.2626953125h.5556640625v.2626953125ZM8.5210244092,96.0263671875c.0810546875,0,.1474609375.025390625.197265625.076171875.05078125.05078125.076171875.1162109375.076171875.197265625v.283203125h-.2626953125c-.0810546875,0-.146484375-.025390625-.197265625-.076171875s-.076171875-.1162109375-.076171875-.197265625v-.283203125h.2626953125ZM8.7944619092,99.57421875c0,.0810546875-.025390625.1474609375-.076171875.197265625-.0498046875.05078125-.1162109375.076171875-.197265625.076171875h-.2626953125v-.283203125c0-.0810546875.025390625-.146484375.076171875-.197265625s.1162109375-.0751953125.197265625-.0751953125h.2626953125v.2822265625ZM9.3403603467,99.0185546875c0,.0810546875-.025390625.146484375-.076171875.197265625s-.1162109375.076171875-.197265625.076171875h-.2724609375v-2.708984375h.2724609375c.0810546875,0,.146484375.0244140625.197265625.0751953125s.076171875.1162109375.076171875.197265625v2.1630859375Z"/>
    <path d="M1.9917275342,93.2978515625c-.0810546875,0-.1474609375-.025390625-.197265625-.076171875-.05078125-.05078125-.076171875-.1162109375-.076171875-.197265625v-1.0810546875c0-.0810546875.025390625-.146484375.076171875-.197265625.0498046875-.05078125.1162109375-.076171875.197265625-.076171875h.2626953125v1.6279296875h-.2626953125ZM2.8003212842,94.662109375c0,.0810546875-.025390625.146484375-.076171875.197265625s-.1162109375.076171875-.197265625.076171875h-.80859375v-.5458984375h1.08203125v.2724609375ZM2.8003212842,91.3974609375c0,.080078125-.025390625.146484375-.076171875.1962890625-.05078125.05078125-.1162109375.076171875-.197265625.076171875h-.2724609375v-.2724609375c0-.0810546875.025390625-.146484375.0751953125-.197265625.05078125-.05078125.1162109375-.076171875.197265625-.076171875h.2734375v.2734375ZM2.5268837842,93.2978515625c.0810546875,0,.146484375.025390625.197265625.0751953125.05078125.05078125.076171875.1162109375.076171875.197265625v.2734375h-.2734375c-.0810546875,0-.146484375-.025390625-.197265625-.076171875-.0498046875-.05078125-.0751953125-.1162109375-.0751953125-.197265625v-.2724609375h.2724609375ZM2.8003212842,90.8515625c0-.0810546875.025390625-.146484375.0751953125-.197265625.05078125-.05078125.1162109375-.076171875.197265625-.076171875h4.083984375v.5458984375H2.8003212842v-.2724609375ZM3.0727822217,93.84375c.0810546875,0,.146484375.0244140625.197265625.0751953125s.076171875.1162109375.076171875.197265625v.2734375h-.5458984375v-.5458984375h.2724609375ZM3.6186806592,94.935546875c-.0810546875,0-.146484375-.025390625-.197265625-.076171875s-.0751953125-.1162109375-.0751953125-.197265625v-.2724609375h3.810546875v.5458984375h-3.5380859375Z"/>
    <path d="M1.9917275342,88.951171875c-.0810546875,0-.1474609375-.025390625-.197265625-.076171875-.05078125-.0498046875-.076171875-.1162109375-.076171875-.197265625v-1.63671875c0-.0810546875.025390625-.146484375.076171875-.197265625.0498046875-.05078125.1162109375-.076171875.197265625-.076171875h.2626953125v2.18359375h-.2626953125ZM2.8003212842,86.4951171875c0,.080078125-.025390625.146484375-.076171875.1962890625-.05078125.05078125-.1162109375.076171875-.197265625.076171875h-.2724609375v-.2724609375c0-.0810546875.025390625-.146484375.0751953125-.197265625.05078125-.05078125.1162109375-.076171875.197265625-.076171875h.2734375v.2734375ZM2.5268837842,88.951171875c.0810546875,0,.146484375.025390625.197265625.076171875.05078125.0498046875.076171875.1162109375.076171875.1962890625v.263671875h-.2734375c-.0810546875,0-.146484375-.025390625-.197265625-.076171875-.0498046875-.05078125-.0751953125-.1162109375-.0751953125-.197265625v-.2626953125h.2724609375ZM2.8003212842,85.94921875c0-.0810546875.025390625-.146484375.0751953125-.197265625.05078125-.05078125.1162109375-.076171875.197265625-.076171875h1.091796875c.0810546875,0,.146484375.025390625.197265625.076171875s.076171875.1162109375.076171875.197265625v.2724609375h-1.6376953125v-.2724609375ZM3.0727822217,90.033203125c-.0810546875,0-.146484375-.025390625-.197265625-.076171875-.0498046875-.05078125-.0751953125-.1162109375-.0751953125-.197265625v-.2724609375h1.6376953125v.2724609375c0,.0810546875-.025390625.146484375-.076171875.197265625s-.1162109375.076171875-.197265625.076171875h-1.091796875ZM4.7104775342,86.2216796875c.0810546875,0,.146484375.025390625.197265625.076171875s.0751953125.1162109375.0751953125.197265625v2.9921875h-.544921875v-3.265625h.2724609375ZM5.2563759717,90.033203125c-.0810546875,0-.146484375-.025390625-.197265625-.076171875s-.076171875-.1162109375-.076171875-.197265625v-.2724609375h1.08203125v.2724609375c0,.0810546875-.025390625.146484375-.076171875.197265625-.0498046875.05078125-.1162109375.076171875-.1962890625.076171875h-.5361328125ZM5.7925087842,85.67578125c.080078125,0,.146484375.025390625.1962890625.076171875.05078125.05078125.076171875.1162109375.076171875.197265625v.2724609375h-.5458984375v-.5458984375h.2734375ZM6.3384072217,86.2216796875c.080078125,0,.146484375.025390625.1962890625.076171875.05078125.05078125.076171875.1162109375.076171875.197265625v.2724609375h-.2724609375c-.0810546875,0-.1474609375-.025390625-.197265625-.076171875-.05078125-.0498046875-.076171875-.1162109375-.076171875-.1962890625v-.2734375h.2734375ZM6.6108681592,89.2138671875c0,.0810546875-.025390625.146484375-.076171875.197265625-.0498046875.05078125-.1162109375.076171875-.1962890625.076171875h-.2734375v-.263671875c0-.080078125.025390625-.146484375.076171875-.1962890625.0498046875-.05078125.1162109375-.076171875.197265625-.076171875h.2724609375v.2626953125ZM7.1567665967,88.677734375c0,.0810546875-.025390625.1474609375-.076171875.197265625-.0498046875.05078125-.1162109375.076171875-.1962890625.076171875h-.2734375v-2.18359375h.2734375c.080078125,0,.146484375.025390625.1962890625.076171875.05078125.05078125.076171875.1162109375.076171875.197265625v1.63671875Z"/>
    <path d="M.0805947217,81.330078125v-.5458984375h1.900390625c.0810546875,0,.146484375.0244140625.197265625.0751953125s.076171875.1162109375.076171875.197265625v.2734375H.0805947217ZM1.9917275342,84.048828125c-.0810546875,0-.1474609375-.025390625-.197265625-.076171875-.05078125-.0498046875-.076171875-.1162109375-.076171875-.197265625v-1.63671875c0-.0810546875.025390625-.146484375.076171875-.197265625.0498046875-.05078125.1162109375-.076171875.197265625-.076171875h.2626953125v2.18359375h-.2626953125ZM2.8003212842,81.5927734375c0,.080078125-.025390625.146484375-.076171875.1962890625-.05078125.05078125-.1162109375.076171875-.197265625.076171875h-.2724609375v-.53515625h.5458984375v.2626953125ZM2.5268837842,84.048828125c.0810546875,0,.146484375.025390625.197265625.076171875.05078125.0498046875.076171875.1162109375.076171875.1962890625v.2734375h-.2734375c-.0810546875,0-.146484375-.025390625-.197265625-.076171875-.0498046875-.0498046875-.0751953125-.1162109375-.0751953125-.197265625v-.2724609375h.2724609375ZM2.8003212842,81.056640625c0-.0810546875.025390625-.146484375.0751953125-.197265625.05078125-.05078125.1162109375-.0751953125.197265625-.0751953125h2.7197265625c.080078125,0,.146484375.0244140625.1962890625.0751953125.05078125.05078125.076171875.1162109375.076171875.197265625v.2734375h-3.2646484375v-.2734375ZM3.0727822217,85.130859375c-.0810546875,0-.146484375-.025390625-.197265625-.076171875-.0498046875-.05078125-.0751953125-.1162109375-.0751953125-.197265625v-.2626953125h3.2646484375v.2626953125c0,.0810546875-.025390625.146484375-.076171875.197265625-.0498046875.05078125-.1162109375.076171875-.1962890625.076171875h-2.7197265625ZM6.3384072217,81.865234375c-.0810546875,0-.1474609375-.025390625-.197265625-.076171875-.05078125-.0498046875-.076171875-.1162109375-.076171875-.1962890625v-.2626953125h.5458984375v.53515625h-.2724609375ZM6.6108681592,84.3212890625c0,.0810546875-.025390625.1474609375-.076171875.197265625-.0498046875.05078125-.1162109375.076171875-.1962890625.076171875h-.2734375v-.2734375c0-.080078125.025390625-.146484375.076171875-.1962890625.0498046875-.05078125.1162109375-.076171875.197265625-.076171875h.2724609375v.2724609375ZM6.6108681592,81.056640625c0-.0810546875.025390625-.146484375.076171875-.197265625.0498046875-.05078125.1162109375-.0751953125.197265625-.0751953125h.2724609375v.5458984375h-.5458984375v-.2734375ZM7.1567665967,83.775390625c0,.0810546875-.025390625.1474609375-.076171875.197265625-.0498046875.05078125-.1162109375.076171875-.1962890625.076171875h-.2734375v-2.18359375h.2734375c.080078125,0,.146484375.025390625.1962890625.076171875.05078125.05078125.076171875.1162109375.076171875.197265625v1.63671875Z"/>
    <path d="M.0805947217,77.2060546875v-.5361328125h2.7197265625v.2626953125c0,.0810546875-.025390625.146484375-.076171875.197265625s-.1162109375.076171875-.197265625.076171875H.0805947217ZM2.2544228467,75.578125h-.2626953125c-.0810546875,0-.1474609375-.025390625-.197265625-.076171875-.05078125-.0498046875-.076171875-.1162109375-.076171875-.1962890625v-1.091796875c0-.0810546875.025390625-.146484375.076171875-.197265625.0498046875-.05078125.1162109375-.076171875.197265625-.076171875h.2626953125v1.6376953125ZM2.2544228467,73.9404296875v-.2724609375c0-.0810546875.025390625-.146484375.0751953125-.197265625.05078125-.05078125.1162109375-.076171875.197265625-.076171875h.2734375v.2734375c0,.080078125-.025390625.146484375-.076171875.1962890625-.05078125.05078125-.1162109375.076171875-.197265625.076171875h-.2724609375ZM2.8003212842,76.1240234375h-.2734375c-.0810546875,0-.146484375-.025390625-.197265625-.076171875-.0498046875-.0498046875-.0751953125-.1162109375-.0751953125-.197265625v-.2724609375h.2724609375c.0810546875,0,.146484375.025390625.197265625.076171875.05078125.0498046875.076171875.1162109375.076171875.1962890625v.2734375ZM2.8003212842,73.39453125v-.2626953125c0-.0810546875.025390625-.146484375.0751953125-.197265625.05078125-.05078125.1162109375-.0751953125.197265625-.0751953125h2.7197265625c.080078125,0,.146484375.0244140625.1962890625.0751953125.05078125.05078125.076171875.1162109375.076171875.197265625v.2626953125h-3.2646484375ZM3.3462197217,76.669921875h-.5458984375v-.5458984375h.2724609375c.0810546875,0,.146484375.025390625.197265625.076171875.05078125.0498046875.076171875.1162109375.076171875.1962890625v.2734375ZM3.3462197217,76.669921875h2.71875v.2626953125c0,.0810546875-.025390625.146484375-.076171875.197265625-.0498046875.05078125-.1162109375.076171875-.1962890625.076171875h-2.173828125c-.0810546875,0-.146484375-.025390625-.197265625-.076171875s-.0751953125-.1162109375-.0751953125-.197265625v-.2626953125ZM6.0649697217,73.39453125h.2734375c.080078125,0,.146484375.025390625.1962890625.076171875.05078125.05078125.076171875.1162109375.076171875.197265625v.2724609375h-.2724609375c-.0810546875,0-.1474609375-.025390625-.197265625-.076171875-.05078125-.0498046875-.076171875-.1162109375-.076171875-.1962890625v-.2734375ZM6.6108681592,76.1240234375v.5458984375h-.5458984375v-.2734375c0-.080078125.025390625-.146484375.076171875-.1962890625.0498046875-.05078125.1162109375-.076171875.197265625-.076171875h.2724609375ZM6.6108681592,76.1240234375v-2.18359375h.2734375c.080078125,0,.146484375.025390625.1962890625.076171875.05078125.05078125.076171875.1162109375.076171875.197265625v1.63671875c0,.0810546875-.025390625.1474609375-.076171875.197265625-.0498046875.05078125-.1162109375.076171875-.1962890625.076171875h-.2734375ZM6.6108681592,76.669921875h.5458984375v.5361328125h-.2724609375c-.0810546875,0-.1474609375-.025390625-.197265625-.076171875-.05078125-.05078125-.076171875-.1162109375-.076171875-.197265625v-.2626953125Z"/>
    <path d="M1.7280556592,67.9560546875v-.5458984375h1.3447265625c.0810546875,0,.146484375.025390625.197265625.076171875s.076171875.1162109375.076171875.197265625v.2724609375h-1.6181640625ZM3.3462197217,72.0400390625c0,.0810546875-.025390625.146484375-.076171875.197265625s-.1162109375.076171875-.197265625.076171875h-1.3447265625v-.556640625h1.6181640625v.283203125ZM3.6186806592,68.4921875c-.0810546875,0-.146484375-.025390625-.197265625-.076171875s-.0751953125-.1162109375-.0751953125-.197265625v-.2626953125h.818359375c.0810546875,0,.146484375.025390625.197265625.076171875s.076171875.1162109375.076171875.197265625v.2626953125h-.8193359375ZM3.3462197217,71.494140625c0-.0810546875.0244140625-.146484375.0751953125-.197265625s.1162109375-.0751953125.197265625-.0751953125h.8193359375v.2626953125c0,.0810546875-.025390625.146484375-.076171875.197265625-.05078125.0498046875-.1162109375.0751953125-.197265625.0751953125h-.818359375v-.2626953125ZM4.7104775342,69.0380859375c-.0810546875,0-.146484375-.025390625-.197265625-.076171875s-.0751953125-.1162109375-.0751953125-.197265625v-.2724609375h1.3642578125c.0810546875,0,.146484375.025390625.197265625.0751953125.05078125.05078125.0751953125.1162109375.0751953125.197265625v.2734375h-1.3642578125ZM4.4380165967,70.9482421875c0-.0810546875.0244140625-.146484375.0751953125-.197265625.05078125-.0498046875.1162109375-.0751953125.197265625-.0751953125h1.3642578125v.2724609375c0,.0810546875-.0244140625.146484375-.0751953125.197265625s-.1162109375.076171875-.197265625.076171875h-1.3642578125v-.2734375ZM6.3481728467,69.59375c-.0810546875,0-.146484375-.025390625-.197265625-.076171875-.05078125-.0498046875-.076171875-.1162109375-.076171875-.1962890625v-.283203125h.8095703125c.080078125,0,.146484375.025390625.1962890625.0751953125.05078125.05078125.076171875.1162109375.076171875.197265625v.283203125h-.80859375ZM6.0747353467,70.4130859375c0-.0810546875.025390625-.1474609375.076171875-.197265625.05078125-.05078125.1162109375-.076171875.197265625-.076171875h.80859375v.2626953125c0,.0810546875-.025390625.146484375-.076171875.197265625-.0498046875.05078125-.1162109375.076171875-.1962890625.076171875h-.8095703125v-.2626953125ZM7.9858681592,69.59375c.0810546875,0,.146484375.025390625.197265625.076171875.0498046875.0498046875.0751953125.1162109375.0751953125.197265625v.2724609375h-1.1015625v-.5458984375h.8291015625ZM8.5210244092,70.1396484375c.0810546875,0,.1474609375.025390625.197265625.076171875.05078125.0498046875.076171875.1162109375.076171875.197265625v.2626953125h-.2626953125c-.0810546875,0-.146484375-.025390625-.197265625-.076171875s-.076171875-.1162109375-.076171875-.197265625v-.2626953125h.2626953125ZM8.7944619092,72.0400390625c0,.0810546875-.025390625.146484375-.076171875.197265625-.0498046875.05078125-.1162109375.076171875-.197265625.076171875h-.2626953125v-.556640625h.5361328125v.283203125ZM9.3403603467,71.484375c0,.0810546875-.025390625.146484375-.076171875.197265625-.05078125.0498046875-.1162109375.0751953125-.197265625.0751953125h-.2724609375v-1.0810546875h.2724609375c.0810546875,0,.146484375.025390625.197265625.0751953125.05078125.05078125.076171875.1162109375.076171875.197265625v.5361328125Z"/>
    <path d="M.6264931592,61.11328125h-.2724609375c-.0810546875,0-.146484375-.025390625-.197265625-.076171875-.05078125-.0498046875-.076171875-.1162109375-.076171875-.1962890625v-1.900390625h.5458984375v2.1728515625ZM.0805947217,63.8330078125v-1.900390625c0-.0810546875.025390625-.1474609375.076171875-.197265625.05078125-.05078125.1162109375-.076171875.197265625-.076171875h.2724609375v2.173828125H.0805947217ZM.6264931592,61.6591796875v-.5458984375h6.5302734375v.5458984375H.6264931592Z"/>
    <path d="M.6264931592,57.8486328125h-.2724609375c-.0810546875,0-.146484375-.025390625-.197265625-.076171875s-.076171875-.1162109375-.076171875-.197265625v-3.2548828125c0-.0810546875.025390625-.146484375.076171875-.197265625s.1162109375-.0751953125.197265625-.0751953125h.2724609375v3.80078125ZM.6264931592,54.0478515625v-.2734375c0-.0810546875.025390625-.146484375.076171875-.197265625s.1162109375-.0751953125.197265625-.0751953125h.2724609375v.2724609375c0,.0810546875-.025390625.146484375-.076171875.197265625-.0498046875.05078125-.1162109375.076171875-.1962890625.076171875h-.2734375ZM3.8921181592,57.8486328125v.2724609375c0,.0810546875-.025390625.146484375-.076171875.197265625s-.1162109375.076171875-.197265625.076171875H.8999306592c-.0810546875,0-.146484375-.025390625-.197265625-.076171875s-.076171875-.1162109375-.076171875-.197265625v-.2724609375h3.265625ZM1.1723915967,53.501953125v-.2734375c0-.0810546875.025390625-.146484375.076171875-.197265625.0498046875-.0498046875.1162109375-.0751953125.197265625-.0751953125h1.626953125c.0810546875,0,.146484375.025390625.197265625.0751953125.05078125.05078125.076171875.1162109375.076171875.197265625v.2734375H1.1723915967ZM3.3462197217,53.501953125h.2724609375c.0810546875,0,.146484375.0244140625.197265625.0751953125s.076171875.1162109375.076171875.197265625v.2734375h-.2734375c-.0810546875,0-.146484375-.025390625-.197265625-.076171875s-.0751953125-.1162109375-.0751953125-.197265625v-.2724609375ZM4.4380165967,57.8486328125h-.5458984375v-3.80078125h.5458984375v3.80078125ZM4.4380165967,54.0478515625v-.2734375c0-.0810546875.0244140625-.146484375.0751953125-.197265625s.1162109375-.0751953125.197265625-.0751953125h.2724609375v.2724609375c0,.0810546875-.0244140625.146484375-.0751953125.197265625s-.1162109375.076171875-.197265625.076171875h-.2724609375ZM7.1567665967,58.39453125h-2.4462890625c-.0810546875,0-.146484375-.025390625-.197265625-.076171875s-.0751953125-.1162109375-.0751953125-.197265625v-.2724609375h2.71875v.5458984375ZM4.9829384717,53.501953125v-.2734375c0-.0810546875.025390625-.146484375.076171875-.197265625.05078125-.0498046875.1162109375-.0751953125.197265625-.0751953125h1.900390625v.5458984375h-2.173828125Z"/>
    <path d="M.3540322217,49.6904296875c-.0810546875,0-.146484375-.025390625-.197265625-.076171875-.05078125-.0498046875-.076171875-.1162109375-.076171875-.1962890625,0-.087890625.025390625-.1552734375.076171875-.2021484375.05078125-.0478515625.1162109375-.0712890625.197265625-.0712890625h.2724609375v.5458984375h-.2724609375ZM.6264931592,48.8818359375c0-.0810546875.025390625-.146484375.076171875-.197265625s.1162109375-.0751953125.197265625-.0751953125h.818359375v.2626953125c0,.080078125-.025390625.146484375-.076171875.1962890625-.0498046875.05078125-.1162109375.076171875-.1962890625.076171875h-.8193359375v-.2626953125ZM.8999306592,50.236328125c-.0810546875,0-.146484375-.025390625-.197265625-.076171875-.05078125-.0498046875-.076171875-.1162109375-.076171875-.1962890625v-.2734375h.8193359375c.080078125,0,.146484375.025390625.1962890625.076171875.05078125.0498046875.076171875.1162109375.076171875.197265625v.2724609375h-.818359375ZM1.7182900342,48.3359375c0-.0810546875.025390625-.146484375.076171875-.197265625.0498046875-.05078125.1162109375-.0751953125.197265625-.0751953125h1.3544921875v.2724609375c0,.0810546875-.025390625.146484375-.076171875.197265625s-.1162109375.076171875-.197265625.076171875h-1.3544921875v-.2734375ZM1.9917275342,50.7822265625c-.0810546875,0-.1474609375-.025390625-.197265625-.076171875-.05078125-.0498046875-.076171875-.1162109375-.076171875-.1962890625v-.2734375h1.3544921875c.0810546875,0,.146484375.025390625.197265625.076171875.05078125.0498046875.076171875.1162109375.076171875.197265625v.2724609375h-1.3544921875ZM3.3462197217,47.7900390625c0-.0810546875.0244140625-.146484375.0751953125-.197265625s.1162109375-.0751953125.197265625-.0751953125h.8193359375v.5458984375h-1.091796875v-.2734375ZM3.6186806592,51.328125c-.0810546875,0-.146484375-.025390625-.197265625-.076171875-.05078125-.0498046875-.0751953125-.1162109375-.0751953125-.197265625v-.2724609375h1.091796875v.5458984375h-.8193359375ZM4.4380165967,47.517578125v-.2734375c0-.0810546875.0244140625-.146484375.0751953125-.197265625.05078125-.0498046875.1162109375-.0751953125.197265625-.0751953125h1.3544921875v.2724609375c0,.0810546875-.025390625.146484375-.076171875.197265625-.0498046875.05078125-.1162109375.076171875-.1962890625.076171875h-1.3544921875ZM4.4380165967,50.7822265625v-2.71875h.2724609375c.0810546875,0,.146484375.0244140625.197265625.0751953125s.0751953125.1162109375.0751953125.197265625v2.173828125c0,.080078125-.0244140625.146484375-.0751953125.1962890625-.05078125.05078125-.1162109375.076171875-.197265625.076171875h-.2724609375ZM4.7104775342,51.8740234375c-.0810546875,0-.146484375-.025390625-.197265625-.076171875-.05078125-.0498046875-.0751953125-.1162109375-.0751953125-.197265625v-.2724609375h1.3544921875c.080078125,0,.146484375.025390625.1962890625.076171875.05078125.0498046875.076171875.1162109375.076171875.1962890625v.2734375h-1.3544921875ZM6.0649697217,46.6982421875c0-.0810546875.025390625-.146484375.076171875-.197265625.0498046875-.0498046875.1162109375-.0751953125.197265625-.0751953125h.818359375v.5458984375h-1.091796875v-.2734375ZM6.3384072217,52.41015625c-.0810546875,0-.1474609375-.025390625-.197265625-.076171875-.05078125-.05078125-.076171875-.1162109375-.076171875-.197265625v-.2626953125h1.091796875v.5361328125h-.818359375Z"/>
    <path d="M.3540322217,44.798828125c-.0810546875,0-.146484375-.025390625-.197265625-.076171875-.05078125-.0498046875-.076171875-.1162109375-.076171875-.197265625v-2.71875c0-.0810546875.025390625-.146484375.076171875-.197265625s.1162109375-.0751953125.197265625-.0751953125h.2724609375v3.2646484375h-.2724609375ZM.6264931592,41.2607421875c0-.0810546875.025390625-.146484375.076171875-.197265625s.1162109375-.0751953125.197265625-.0751953125h.818359375v.2724609375c0,.0810546875-.025390625.146484375-.076171875.197265625-.0498046875.05078125-.1162109375.076171875-.1962890625.076171875h-.8193359375v-.2734375ZM1.4458290967,44.798828125c.080078125,0,.146484375.025390625.1962890625.076171875.05078125.0498046875.076171875.1162109375.076171875.1962890625v.2734375h-.818359375c-.0810546875,0-.146484375-.025390625-.197265625-.076171875-.05078125-.0498046875-.076171875-.1162109375-.076171875-.197265625v-.2724609375h.8193359375ZM1.7182900342,40.71484375c0-.0810546875.025390625-.146484375.076171875-.197265625.0498046875-.0498046875.1162109375-.0751953125.197265625-.0751953125h.80859375v.5458984375h-1.08203125v-.2734375ZM1.9917275342,45.880859375c-.0810546875,0-.1474609375-.025390625-.197265625-.076171875-.05078125-.05078125-.076171875-.1162109375-.076171875-.197265625v-.2626953125h3.80078125v.2626953125c0,.0810546875-.025390625.146484375-.076171875.197265625-.0498046875.05078125-.1162109375.076171875-.1962890625.076171875H1.9917275342ZM4.4380165967,40.98828125v-.5458984375h.80859375c.080078125,0,.146484375.025390625.1962890625.0751953125.05078125.05078125.076171875.1162109375.076171875.197265625v.2734375h-1.0810546875ZM5.7925087842,41.5341796875c-.0810546875,0-.1474609375-.025390625-.197265625-.076171875-.05078125-.05078125-.076171875-.1162109375-.076171875-.197265625v-.2724609375h.8193359375c.080078125,0,.146484375.0244140625.1962890625.0751953125.05078125.05078125.076171875.1162109375.076171875.197265625v.2734375h-.818359375ZM5.5190712842,45.0712890625c0-.080078125.025390625-.146484375.076171875-.1962890625.0498046875-.05078125.1162109375-.076171875.197265625-.076171875h.818359375v.2724609375c0,.0810546875-.025390625.1474609375-.076171875.197265625-.0498046875.05078125-.1162109375.076171875-.1962890625.076171875h-.8193359375v-.2734375ZM7.1567665967,44.525390625c0,.0810546875-.025390625.1474609375-.076171875.197265625-.0498046875.05078125-.1162109375.076171875-.1962890625.076171875h-.2734375v-3.2646484375h.2734375c.080078125,0,.146484375.0244140625.1962890625.0751953125.05078125.05078125.076171875.1162109375.076171875.197265625v2.71875Z"/>
    <path d="M.6264931592,39.3505859375h-.2724609375c-.0810546875,0-.146484375-.025390625-.197265625-.076171875s-.076171875-.1162109375-.076171875-.197265625v-4.083984375h.5458984375v4.357421875ZM3.3462197217,39.3505859375v.2724609375c0,.0810546875-.025390625.146484375-.076171875.197265625s-.1162109375.076171875-.197265625.076171875H.8999306592c-.0810546875,0-.146484375-.025390625-.197265625-.076171875s-.076171875-.1162109375-.076171875-.197265625v-.2724609375h2.7197265625ZM3.8921181592,39.3505859375h-.5458984375v-3.8115234375h.5458984375v3.8115234375ZM6.6108681592,39.3505859375v.2724609375c0,.0810546875-.025390625.146484375-.076171875.197265625-.0498046875.05078125-.1162109375.076171875-.1962890625.076171875h-2.173828125c-.0810546875,0-.146484375-.025390625-.197265625-.076171875s-.0751953125-.1162109375-.0751953125-.197265625v-.2724609375h2.71875ZM6.6108681592,39.3505859375v-4.357421875h.5458984375v4.083984375c0,.0810546875-.025390625.146484375-.076171875.197265625-.0498046875.05078125-.1162109375.076171875-.1962890625.076171875h-.2734375Z"/>
    <path d="M.0805947217,22.318359375v-.5458984375h6.5302734375v.2724609375c0,.0810546875-.025390625.146484375-.076171875.197265625-.0498046875.05078125-.1162109375.076171875-.1962890625.076171875H.0805947217ZM6.6108681592,21.7724609375v-3.8115234375h.5458984375v3.5380859375c0,.0810546875-.025390625.146484375-.076171875.197265625-.0498046875.05078125-.1162109375.076171875-.1962890625.076171875h-.2734375Z"/>
    <path d="M.0805947217,17.416015625v-.5458984375h7.076171875v.5458984375H.0805947217Z"/>
    <path d="M.0805947217,11.9775390625v-.5458984375h5.166015625c.080078125,0,.146484375.0244140625.1962890625.0751953125.05078125.05078125.076171875.1162109375.076171875.197265625v.2734375H.0805947217ZM.0805947217,16.32421875v-.5458984375h.5458984375v.2724609375c0,.0810546875-.025390625.146484375-.0751953125.197265625-.05078125.05078125-.1171875.076171875-.197265625.076171875H.0805947217ZM1.7182900342,15.7783203125H.6264931592v-.263671875c0-.080078125.025390625-.146484375.076171875-.1962890625.05078125-.05078125.1162109375-.076171875.197265625-.076171875h.818359375v.5361328125ZM1.7182900342,15.2421875v-.2734375c0-.080078125.025390625-.146484375.076171875-.1962890625.0498046875-.05078125.1162109375-.076171875.197265625-.076171875h.2626953125v.2724609375c0,.0810546875-.025390625.1474609375-.076171875.197265625-.05078125.05078125-.1162109375.076171875-.197265625.076171875h-.2626953125ZM7.1567665967,16.32421875H1.9917275342c-.0810546875,0-.1474609375-.025390625-.197265625-.076171875-.05078125-.05078125-.076171875-.1162109375-.076171875-.197265625v-.2724609375h5.4384765625v.5458984375ZM2.2544228467,14.6962890625v-.2724609375c0-.0810546875.025390625-.1474609375.0751953125-.197265625.05078125-.05078125.1162109375-.076171875.197265625-.076171875h.8193359375v.2734375c0,.080078125-.025390625.146484375-.076171875.1962890625-.05078125.05078125-.1162109375.076171875-.197265625.076171875h-.818359375ZM3.8921181592,13.6044921875v.2734375c0,.080078125-.025390625.146484375-.076171875.1962890625-.05078125.05078125-.1162109375.076171875-.197265625.076171875h-.2724609375v-.2724609375c0-.0810546875.0244140625-.1474609375.0751953125-.197265625.05078125-.05078125.1162109375-.076171875.197265625-.076171875h.2734375ZM4.4380165967,13.05859375v.2734375c0,.080078125-.025390625.146484375-.076171875.1962890625-.05078125.05078125-.1162109375.076171875-.197265625.076171875h-.2724609375v-.2724609375c0-.0810546875.0244140625-.146484375.0751953125-.197265625s.1162109375-.076171875.197265625-.076171875h.2734375ZM5.5190712842,12.5126953125v.2734375c0,.080078125-.025390625.146484375-.076171875.1962890625-.0498046875.05078125-.1162109375.076171875-.1962890625.076171875h-.80859375v-.2724609375c0-.0810546875.0244140625-.146484375.0751953125-.197265625s.1162109375-.076171875.197265625-.076171875h.80859375ZM5.5190712842,11.9775390625h1.091796875v.2626953125c0,.080078125-.025390625.146484375-.076171875.197265625-.0498046875.0498046875-.1162109375.0751953125-.1962890625.0751953125h-.8193359375v-.53515625ZM7.1567665967,11.431640625v.5458984375h-.5458984375v-.2734375c0-.0810546875.025390625-.146484375.076171875-.197265625.0498046875-.05078125.1162109375-.0751953125.197265625-.0751953125h.2724609375Z"/>
    <path d="M.6264931592,10.33984375h-.2724609375c-.0810546875,0-.146484375-.025390625-.197265625-.076171875s-.076171875-.1162109375-.076171875-.197265625v-4.0830078125h.5458984375v4.3564453125ZM3.3462197217,10.33984375v.2724609375c0,.0810546875-.025390625.146484375-.076171875.197265625s-.1162109375.076171875-.197265625.076171875H.8999306592c-.0810546875,0-.146484375-.025390625-.197265625-.076171875s-.076171875-.1162109375-.076171875-.197265625v-.2724609375h2.7197265625ZM3.8921181592,10.33984375h-.5458984375v-3.810546875h.5458984375v3.810546875ZM6.6108681592,10.33984375v.2724609375c0,.0810546875-.025390625.146484375-.076171875.197265625-.0498046875.05078125-.1162109375.076171875-.1962890625.076171875h-2.173828125c-.0810546875,0-.146484375-.025390625-.197265625-.076171875s-.0751953125-.1162109375-.0751953125-.197265625v-.2724609375h2.71875ZM6.6108681592,10.33984375v-4.3564453125h.5458984375v4.0830078125c0,.0810546875-.025390625.146484375-.076171875.197265625-.0498046875.05078125-.1162109375.076171875-.1962890625.076171875h-.2734375Z"/>
    <path d="M.6264931592,4.892578125h-.2724609375c-.0810546875,0-.146484375-.025390625-.197265625-.076171875s-.076171875-.1162109375-.076171875-.197265625V1.3642578125c0-.0810546875.025390625-.146484375.076171875-.197265625s.1162109375-.0751953125.197265625-.0751953125h.2724609375v3.80078125ZM.6264931592,1.091796875v-.2734375c0-.0810546875.025390625-.146484375.076171875-.197265625s.1162109375-.0751953125.197265625-.0751953125h.2724609375v.2724609375c0,.0810546875-.025390625.146484375-.076171875.197265625-.0498046875.05078125-.1162109375.076171875-.1962890625.076171875h-.2734375ZM3.8921181592,4.892578125v.2724609375c0,.0810546875-.025390625.146484375-.076171875.197265625s-.1162109375.076171875-.197265625.076171875H.8999306592c-.0810546875,0-.146484375-.025390625-.197265625-.076171875s-.076171875-.1162109375-.076171875-.197265625v-.2724609375h3.265625ZM1.1723915967.5458984375v-.2734375c0-.0810546875.025390625-.146484375.076171875-.197265625.0498046875-.0498046875.1162109375-.0751953125.197265625-.0751953125h1.626953125c.0810546875,0,.146484375.025390625.197265625.0751953125.05078125.05078125.076171875.1162109375.076171875.197265625v.2734375H1.1723915967ZM3.3462197217.5458984375h.2724609375c.0810546875,0,.146484375.0244140625.197265625.0751953125s.076171875.1162109375.076171875.197265625v.2734375h-.2734375c-.0810546875,0-.146484375-.025390625-.197265625-.076171875s-.0751953125-.1162109375-.0751953125-.197265625v-.2724609375ZM4.4380165967,4.892578125h-.5458984375V1.091796875h.5458984375v3.80078125ZM4.4380165967,1.091796875v-.2734375c0-.0810546875.0244140625-.146484375.0751953125-.197265625s.1162109375-.0751953125.197265625-.0751953125h.2724609375v.2724609375c0,.0810546875-.0244140625.146484375-.0751953125.197265625s-.1162109375.076171875-.197265625.076171875h-.2724609375ZM7.1567665967,5.4384765625h-2.4462890625c-.0810546875,0-.146484375-.025390625-.197265625-.076171875s-.0751953125-.1162109375-.0751953125-.197265625v-.2724609375h2.71875v.5458984375ZM4.9829384717.5458984375v-.2734375c0-.0810546875.025390625-.146484375.076171875-.197265625.05078125-.0498046875.1162109375-.0751953125.197265625-.0751953125h1.900390625v.5458984375h-2.173828125Z"/>
  </g>
  <path d="M3.5939625141,25.3531956621c.2133431816.000000325.3867316552.0666658876.5201114103.2000457883s.2000428025.3067667349.2000427438.5200033813l-.0000005974,2.1693652797-1.440255308-.0000021939.0000007956-2.8894133523.7201009556.0000010969ZM7.1946804927,28.2426144992l-.0000003966,1.4401452456-2.8805106159-.0000043878.0000003966-1.4401452456,2.8805106159.0000043878ZM2.8738605646,28.96265599c-.0000000588.2135017888-.0666629971.3866756514-.2000432348.5200551457-.1333798285.1333794943-.3067679297.2000412554-.5201115204.2000409304l-2.1537058094-.0000032807.0000003966-1.4401452456,2.8738603664.0000043777-.0000001983.7200480726ZM2.873860168,30.4030696513c.0000000588-.2135050622.0666629972-.3868916933.2000432349-.5202711876.1332722167-.1333794945.306660727-.2000445289.5200579191-.2000442038l.7201543524.000001097-.0000007923,2.8772397175-1.440255308-.0000021939.0000005939-2.1569232292Z"/>
</svg>