<?xml version="1.0" encoding="UTF-8"?>
<svg id="Livello_1" data-name="Livello 1" xmlns="http://www.w3.org/2000/svg" viewBox="0 0 303.44 14.82" width="303.44px" height="14.82">
  <path d="M.34,1.9h4.76v.68h.67v.68h.68v.68h.68v4.75h-.68v.68h-.68v.68h-.67v.68H.34V1.9ZM1.69,3.26v6.12h2.73v-.68h.68v-.68h.68v-3.39h-.68v-.68h-.68v-.68H1.69Z"/>
  <path d="M8.5,9.38h-.68v-4.08h.68v-.68h.67v-.67h2.73v.67h.68v.68h.68v2.73h-4.08v.67h.67v.68h1.36v-.68h2.05v.68h-.68v.68h-.68v.68h-2.73v-.68h-.67v-.68ZM11.9,6.66v-.69h-.68v-.68h-1.36v.68h-.67v.69h2.72Z"/>
  <path d="M14.63,9.38h-.67v-1.36h1.35v.68h.68v.68h2.05v-.68h-.68v-.67h-1.36v-.68h-1.36v-.68h-.68v-1.36h.68v-.68h.68v-.67h2.73v.67h.68v.68h.67v1.35h-1.35v-.68h-.68v-.68h-2.05v.69h.68v.68h1.36v.68h1.36v.68h.67v1.35h-.67v.68h-.68v.68h-2.73v-.68h-.68v-.68Z"/>
  <path d="M20.08,1.9h1.36v1.36h-1.36v-1.36ZM20.08,3.93h1.36v6.81h-1.36V3.93Z"/>
  <path d="M23.5,7.34h-.69v-2.03h.69v-.68h.68v-.68h4.08v1.36h-1.35v.67h.67v1.36h-.69v.69h-.67v.67h-.68v.68h-.67v.67h2.69v.68h.72v.68h-.01v.68h.01v.67h-.69v.67h-.69s-3.39.01-3.39.01h0s-.69-.01-.69-.01v-.67h-.68v-2.03h.69v-1.35h.68v-.68h.68v-.67h-.68v-.69ZM23.5,11.42v.67h3.39v-.67h-3.39ZM24.18,5.98v.69h.69v.67h.64v-.67h.69v-.69h-.69v-.67h-.64v.67h-.69ZM25.55,8.02h-.01s.01.01.01.01h0Z"/>
  <path d="M30.33,5.98v4.76h-1.36V3.94h1.36v.67h.68v-.67h2.03v.67h.68v.68h.68v5.45h-1.36v-4.76h-.68v-.68h-1.35v.68h-.68Z"/>
  <path d="M35.77,9.38h-.68v-4.08h.68v-.68h.67v-.67h2.73v.67h.68v.68h.68v2.73h-4.08v.67h.67v.68h1.36v-.68h2.05v.68h-.68v.68h-.68v.68h-2.73v-.68h-.67v-.68ZM39.17,6.66v-.69h-.68v-.68h-1.36v.68h-.67v.69h2.72Z"/>
  <path d="M41.89,9.38h-.67v-4.08h.67v-.68h.68v-.67h2.73v.67h.67V1.9h1.36v8.85h-1.36v-.68h-.67v.68h-2.73v-.68h-.68v-.68ZM45.97,5.98h-.67v-.68h-2.05v.68h-.68v2.72h.68v.68h2.05v-.68h.67v-2.72Z"/>
  <path d="M53.85,8.71v1.36h-.68v1.36h-1.36v-1.36h.68v-1.36h.68v-1.36h.68v-2.05h.68v-1.36h.68v-1.38h.68v-1.35h1.36v1.35h-.68v1.38h-.68v1.36h-.68v2.05h-.68v1.36h-.68Z"/>
  <path d="M61.74,1.9h1.36v2.05h.67v1.35h.68v2.05h.68v1.35h1.36v-1.35h.67v-2.05h.68v-1.35h.68V1.9h1.36v2.05h-.68v1.35h-.68v2.05h-.68v1.35h-.67v1.36h-.68v.68h-1.36v-.68h-.68v-1.36h-.68v-1.35h-.68v-2.05h-.67v-1.35h-.68V1.9Z"/>
  <path d="M71.26,9.38h-.68v-4.08h.68v-.68h.67v-.67h2.73v.67h.68v.68h.68v2.73h-4.08v.67h.67v.68h1.36v-.68h2.05v.68h-.68v.68h-.68v.68h-2.73v-.68h-.67v-.68ZM74.66,6.66v-.69h-.68v-.68h-1.36v.68h-.67v.69h2.72Z"/>
  <path d="M76.71,1.9h1.36v7.48h.68v1.36h-1.36v-.68h-.68V1.9Z"/>
  <path d="M80.12,9.38h-.68v-4.08h.68v-.68h.68v-.67h2.73v.67h.68v.68h.68v4.08h-.68v.68h-.68v.68h-2.73v-.68h-.68v-.68ZM80.8,8.69h.68v.68h1.36v-.68h.68v-2.73h-.68v-.68h-1.36v.68h-.68v2.73Z"/>
  <path d="M86.26,5.29h-.68v-1.35h1.36v1.35h.67v1.36h.68v1.36h1.36v-1.36h.68v-1.36h.68v-1.35h1.35v1.35h-.67v1.36h-.68v1.36h-.68v1.35h-.68v1.36h-1.36v-1.36h-.68v-1.35h-.68v-1.36h-.67v-1.36Z"/>
  <path d="M93.74,9.38h-.68v-4.08h.68v-.68h.67v-.67h2.73v.67h.68v.68h.68v2.73h-4.08v.67h.67v.68h1.36v-.68h2.05v.68h-.68v.68h-.68v.68h-2.73v-.68h-.67v-.68ZM97.14,6.66v-.69h-.68v-.68h-1.36v.68h-.67v.69h2.72Z"/>
  <path d="M102.6,4.61h.67v1.35h-1.34v-.68h-.69v.68h-.68v4.78h-1.36V3.94h1.36v.67h.68v-.67h1.36v.67Z"/>
  <path d="M104.63,9.38h-.67v-1.36h1.35v.68h.68v.68h2.05v-.68h-.68v-.67h-1.36v-.68h-1.36v-.68h-.68v-1.36h.68v-.68h.68v-.67h2.73v.67h.68v.68h.67v1.35h-1.35v-.68h-.68v-.68h-2.05v.69h.68v.68h1.36v.68h1.36v.68h.67v1.35h-.67v.68h-.68v.68h-2.73v-.68h-.68v-.68Z"/>
  <path d="M110.76,9.38h-.68v-4.08h.68v-.68h.67v-.67h2.73v.67h.68v.68h.68v2.73h-4.08v.67h.67v.68h1.36v-.68h2.05v.68h-.68v.68h-.68v.68h-2.73v-.68h-.67v-.68ZM114.16,6.66v-.69h-.68v-.68h-1.36v.68h-.67v.69h2.72Z"/>
  <path d="M120.68,5.29h-.68v-2.03h.68v-.68h.67v-.68h4.09v.68h.67v.68h.68v1.36h-1.36v-.68h-.67v-.68h-2.73v.68h-.68v.67h.68v.68h3.41v.68h.67v.68h.68v2.72h-.68v.68h-.67v.68h-4.09v-.68h-.67v-.68h-.68v-1.35h1.35v.67h.68v.68h2.73v-.68h.68v-1.35h-.67v-.68h-3.42v-.68h-.67v-.68Z"/>
  <path d="M128.84,5.98h-1.36v-1.36h.68v-.67h.68v-1.36h1.36v1.36h-.68v.67h2.73v1.36h-2.05v3.4h.68v-.68h1.36v1.36h-.68v.68h-2.05v-.68h-.68v-4.08Z"/>
  <path d="M133.62,9.38h-.68V3.93h1.36v4.76h.68v.68h1.36v-.68h.68V3.93h1.34v6.81h-1.36v-.68h-.66v.68h-2.05v-.68h-.68v-.68Z"/>
  <path d="M139.72,9.38h-.67v-4.08h.67v-.68h.68v-.67h2.73v.67h.67V1.9h1.36v8.85h-1.36v-.68h-.67v.68h-2.73v-.68h-.68v-.68ZM143.8,5.98h-.67v-.68h-2.05v.68h-.68v2.72h.68v.68h2.05v-.68h.67v-2.72Z"/>
  <path d="M145.85,1.9h1.36v1.36h-1.36v-1.36ZM145.85,3.93h1.36v6.81h-1.36V3.93Z"/>
  <path d="M148.58,9.38h-.68v-4.08h.68v-.68h.68v-.67h2.73v.67h.68v.68h.68v4.08h-.68v.68h-.68v.68h-2.73v-.68h-.68v-.68ZM149.26,8.69h.68v.68h1.36v-.68h.68v-2.73h-.68v-.68h-1.36v.68h-.68v2.73Z"/>
  <path d="M158.51,10.06h-.68v-2.03h.68v-.68h.67v-.68h1.36v-.68h.68v-.68h-2.03v.68h-1.36v-1.36h.68v-.67h3.4v.67h.68v4.76h.68v1.36h-1.36v-.68h-1.36v.68h-2.03v-.68ZM160.54,7.34v.68h-.68v.68h-.68v.67h1.36v-.68h.68v-1.35h-.68Z"/>
  <path d="M165.32,5.98v4.76h-1.36V3.94h1.36v.67h.68v-.67h2.03v.67h.68v.68h.68v5.45h-1.36v-4.76h-.68v-.68h-1.35v.68h-.68Z"/>
  <path d="M170.75,9.38h-.67v-4.08h.67v-.68h.68v-.67h2.73v.67h.67V1.9h1.37v8.85h-1.37v-.68h-.67v.68h-2.73v-.68h-.68v-.68ZM174.84,5.98h-.67v-.68h-2.05v.68h-.68v2.72h.68v.68h2.05v-.68h.67v-2.72Z"/>
  <path d="M182.04,10.06h-.68v-.67h-.68V3.26h.68v-.68h.68v-.68h4.75v.68h.67v.68h.68v2.03h-1.35v-1.35h-.67v-.68h-3.4v.68h-.68v4.75h.68v.68h2.04v-.68h.68v-.67h.67v-.68h-1.36v-1.36h3.4v4.76h-1.35v-1.35h-.67v.68h-.68v.67h-3.4v-.68Z"/>
  <path d="M188.82,1.9h1.37v1.36h-1.37v-1.36ZM188.82,3.93h1.37v6.81h-1.37V3.93Z"/>
  <path d="M191.55,9.38h-.68v-4.08h.68v-.68h.68v-.67h2.73v.67h.68v.68h.68v4.08h-.68v.68h-.68v.68h-2.73v-.68h-.68v-.68ZM192.23,8.69h.68v.68h1.37v-.68h.68v-2.73h-.68v-.68h-1.37v.68h-.68v2.73Z"/>
  <path d="M197.69,5.29h-.68v-1.35h1.37v1.35h.67v1.36h.68v1.36h1.37v-1.36h.68v-1.36h.68v-1.35h1.35v1.35h-.67v1.36h-.68v1.36h-.68v1.35h-.68v1.36h-1.37v-1.36h-.68v-1.35h-.68v-1.36h-.67v-1.36Z"/>
  <path d="M205.17,10.06h-.68v-2.03h.68v-.68h.67v-.68h1.36v-.68h.68v-.68h-2.03v.68h-1.37v-1.36h.68v-.67h3.4v.67h.68v4.76h.68v1.36h-1.36v-.68h-1.37v.68h-2.03v-.68ZM207.21,7.34v.68h-.68v.68h-.68v.67h1.36v-.68h.68v-1.35h-.68Z"/>
  <path d="M211.98,5.98v4.76h-1.37V3.94h1.37v.67h.68v-.67h2.04v.67h.68v.68h.68v5.45h-1.36v-4.76h-.68v-.68h-1.35v.68h-.68Z"/>
  <path d="M218.11,5.98v4.76h-1.37V3.94h1.37v.67h.68v-.67h2.04v.67h.68v.68h.68v5.45h-1.36v-4.76h-.68v-.68h-1.35v.68h-.68Z"/>
  <path d="M222.88,1.9h1.37v1.36h-1.37v-1.36ZM222.88,3.93h1.37v6.81h-1.37V3.93Z"/>
  <path d="M228.71,1.9h1.37v.68h.68v1.36h.68v1.35h.68v1.36h1.36v-1.36h.68v-1.35h.68v-1.36h.68v-.68h1.37v8.85h-1.37v-5.45h-.68v1.36h-.68v1.36h-.68v1.34h-1.36v-1.34h-.68v-1.36h-.68v-1.36h-.68v5.45h-1.37V1.9Z"/>
  <path d="M238.27,10.06h-.68v-2.03h.68v-.68h.67v-.68h1.36v-.68h.68v-.68h-2.03v.68h-1.37v-1.36h.68v-.67h3.4v.67h.68v4.76h.68v1.36h-1.36v-.68h-1.37v.68h-2.03v-.68ZM240.3,7.34v.68h-.68v.68h-.68v.67h1.36v-.68h.68v-1.35h-.68Z"/>
  <path d="M245.09,7.34h-.7v-2.03h.7v-.68h.68v-.68h4.08v1.36h-1.35v.67h.67v1.36h-.7v.69h-.67v.67h-.68v.68h-.67v.67h2.69v.68h.72v.68h-.01v.68h.01v.67h-.7v.67h-.7s-3.39.01-3.39.01h0s-.7-.01-.7-.01v-.67h-.68v-2.03h.7v-1.35h.68v-.68h.68v-.67h-.68v-.69ZM245.09,11.42v.67h3.39v-.67h-3.39ZM245.77,5.98v.69h.7v.67h.64v-.67h.7v-.69h-.7v-.67h-.64v.67h-.7ZM247.14,8.02h-.01s.01.01.01.01h0Z"/>
  <path d="M251.92,7.34h-.7v-2.03h.7v-.68h.68v-.68h4.08v1.36h-1.35v.67h.67v1.36h-.7v.69h-.67v.67h-.68v.68h-.67v.67h2.69v.68h.72v.68h-.01v.68h.01v.67h-.7v.67h-.7s-3.39.01-3.39.01h0s-.7-.01-.7-.01v-.67h-.68v-2.03h.7v-1.35h.68v-.68h.68v-.67h-.68v-.69ZM251.92,11.42v.67h3.39v-.67h-3.39ZM252.61,5.98v.69h.7v.67h.64v-.67h.7v-.69h-.7v-.67h-.64v.67h-.7ZM253.97,8.02h-.01s.01.01.01.01h0Z"/>
  <path d="M257.38,1.9h1.37v1.36h-1.37v-1.36ZM257.38,3.93h1.37v6.81h-1.37V3.93Z"/>
  <path d="M265.27,8.71v1.36h-.68v1.36h-1.37v-1.36h.68v-1.36h.68v-1.36h.68v-2.05h.68v-1.36h.68v-1.38h.68v-1.35h1.36v1.35h-.68v1.38h-.68v1.36h-.68v2.05h-.68v1.36h-.68Z"/>
  <path d="M274.5,1.9h4.09v.68h.67v.68h.68v2.03h-.68v.68h-.67v.68h-.68v.68h-.68v.68h-.68v.67h-.68v.68h4.08v1.36h-6.8v-1.36h.67v-.68h.68v-.68h.68v-.67h.68v-.68h.68v-.68h.68v-.68h.68v-.68h.67v-.67h-.67v-.68h-2.74v.68h-.68v1.35h-1.34v-2.03h.67v-.68h.68v-.68Z"/>
  <path d="M281.31,3.26v-.68h.68v-.68h4.76v.68h.68v.68h.68v6.12h-.68v.68h-.68v.68h-4.76v-.68h-.68v-.68h-.68V3.26h.68ZM282.68,3.26v.68h-.68v3.41h.68v-.68h.68v-.68h.67v-.68h.68v-.68h.68v-.68h.68v-.68h-3.4ZM286.76,5.29h-.68v.68h-.68v.68h-.68v.68h-.68v.68h-.67v.68h-.68v.67h3.4v-.68h.68v-3.4Z"/>
  <path d="M290.16,1.9h4.09v.68h.67v.68h.68v2.03h-.68v.68h-.67v.68h-.68v.68h-.68v.68h-.68v.67h-.68v.68h4.08v1.36h-6.8v-1.36h.67v-.68h.68v-.68h.68v-.67h.68v-.68h.68v-.68h.68v-.68h.68v-.68h.67v-.67h-.67v-.68h-2.74v.68h-.68v1.35h-1.34v-2.03h.67v-.68h.68v-.68Z"/>
  <path d="M297.65,5.29h4.08v.68h.68v.68h.68v2.72h-.68v.68h-.68v.68h-4.08v-.68h-.68v-.68h-.68v-1.36h1.37v.68h.68v.68h2.72v-.68h.68v-1.35h-.68v-.68h-2.72v.68h-2.05V3.27h.68v-1.38h5.45v1.36h-4.08v.68h-.68v1.35Z"/>
</svg>