<?xml version="1.0" encoding="UTF-8"?>
<svg id="Livello_1" data-name="Livello 1" xmlns="http://www.w3.org/2000/svg" viewBox="0 0 45 45" width="45px" height="45px">
  <path class="cls-1" d="M23.375,17.919921875l3.6171875,3.6171875c-.3773460388-1.8291378021-1.8073654175-3.2620887756-3.6171875-3.6171875Z"/>
  <path class="cls-1" d="M31.126953125,25.671875l6.048828125,6.048828125c3.2797050476-2.3846187592,5.9756698608-5.5454235077,7.82421875-9.220703125-4.1799507141-8.3105716705-12.6862602234-14-22.5-14-2.5813064575,0-5.0705566406.3975000381-7.416015625,1.12890625l4.154296875,4.154296875c1.014837265-.3926362991,2.111284256-.6171875,3.26171875-.6171875,5.0716972351,0,9.18359375,4.1793289185,9.18359375,9.333984375,0,1.1154575348-.2035121918,2.1802787781-.556640625,3.171875Z"/>
  <path class="cls-1" d="M18.0078125,23.462890625c.3773460388,1.8291378021,1.8073654175,3.2620887756,3.6171875,3.6171875l-3.6171875-3.6171875Z"/>
  <path class="cls-1" d="M7.82421875,13.279296875c-3.2797040939,2.3846187592-5.9756711721,5.5454235077-7.82421875,9.220703125,4.1799516678,8.3105716705,12.6862630844,14,22.5,14,2.5813064575,0,5.0705566406-.3974990845,7.416015625-1.12890625l-4.154296875-4.154296875c-1.014837265.3926353455-2.111284256.6171875-3.26171875.6171875-5.0716972351,0-9.18359375-4.1793289185-9.18359375-9.333984375,0-1.1154575348.2035121918-2.1802787781.556640625-3.171875l-6.048828125-6.048828125Z"/>
  <rect class="cls-2" x="20.2501145654" y=".0011482181" width="4.4997700875" height="44.9977027821" transform="translate(-9.3198049915 22.4999996092) rotate(-45)"/>
</svg>