<?xml version="1.0" encoding="UTF-8" standalone="no"?>
<svg
   id="Livello_1"
   data-name="Livello 1"
   viewBox="0 0 75 10"
   width="75px"
   height="10px">
  <path
     class="fill-primary"
     d="M 0,0.0304878 H 1.5243902 V 9.9999997 H 0 Z"
     id="path136"
     style="stroke-width:3.04878" />
  <path
     class="fill-primary"
     d="M 2.3170731,0.0304878 H 3.8414633 V 0.7926829 H 4.6036584 V 2.3170731 H 5.3658535 V 3.0792682 H 6.1280486 V 4.6036584 H 6.8902437 V 5.3658535 H 7.6524388 V 6.8902437 H 8.4146339 V 6.1280486 c 0,0 0,-6.1280486 0,-6.1280486 H 9.939024 V 9.9695119 H 8.4146339 V 9.2073168 H 7.6524388 V 8.4451217 H 6.8902437 V 7.6829266 H 6.1280486 V 6.1585364 H 5.3658535 V 5.3963413 H 4.6036584 V 3.8719511 H 3.8414633 V 9.9999997 H 2.3170731 Z"
     id="path138"
     style="stroke-width:3.04878" />
  <path
     class="fill-primary"
     d="M 11.493902,3.8719511 H 10.731707 V 1.5853658 h 0.762195 V 0.8231707 h 0.762195 V 0.06097561 h 4.603658 V 0.8231707 h 0.762196 v 0.7621951 h 0.762195 V 3.109756 H 16.859755 V 2.3475609 H 16.09756 V 1.5853658 H 13.018292 V 2.3475609 H 12.256097 V 3.109756 h 0.762195 v 0.7621951 h 3.841463 v 0.7621951 h 0.762196 v 0.7621951 h 0.762195 V 8.4451217 H 17.621951 V 9.2073168 H 16.859755 V 9.9695119 H 12.256097 V 9.2073168 H 11.493902 V 8.4451217 H 10.731707 V 6.9207315 h 1.52439 v 0.7621951 h 0.762195 V 8.4451217 H 16.09756 V 7.6829266 h 0.762195 V 6.1585364 H 16.09756 V 5.3963413 H 12.256097 V 4.6341462 h -0.762195 z"
     id="path140"
     style="stroke-width:3.04878" />
  <path
     class="fill-primary"
     d="M 19.146341,0.0304878 H 26.79878 V 1.554878 H 23.75 V 9.9695119 H 22.225609 V 1.554878 h -3.04878 V 0.0304878 Z"
     id="path142"
     style="stroke-width:3.04878" />
  <path
     class="fill-primary"
     d="m 29.085365,8.4451217 v 1.5243902 h -1.52439 V 7.6524388 H 28.32317 V 6.1280486 h 0.762195 V 4.6036584 H 29.84756 V 2.3170731 h 0.762195 V 0.7926829 H 31.37195 V 0.0304878 h 1.524391 v 0.7621951 h 0.762195 v 1.5243902 h 0.762195 v 2.2865853 h 0.762195 v 1.5243902 h 0.762195 v 1.5243902 h 0.762195 v 2.3170731 h -1.52439 V 8.4451217 H 34.420731 V 7.6829266 h -4.603659 v 0.7621951 h -0.762195 z m 1.52439,-3.8109755 v 1.5243902 h 3.048781 V 4.6341462 H 32.896341 V 2.3475609 H 31.37195 v 2.2865853 z"
     id="path144"
     style="stroke-width:3.04878" />
  <path
     class="fill-primary"
     d="M 39.054877,9.2073168 H 38.292682 V 8.4451217 H 37.530487 V 1.554878 h 0.762195 V 0.7926829 h 0.762195 V 0.0304878 h 5.335366 v 0.7621951 h 0.762195 V 1.554878 h 0.762195 v 2.2865853 h -1.52439 V 2.3170731 H 43.628048 V 1.554878 h -3.841464 v 0.7621951 h -0.762195 v 5.3353657 h 0.762195 V 8.4146339 H 42.07317 V 7.6524388 h 0.762195 V 6.8902437 H 43.59756 V 6.1280486 H 42.07317 V 4.6036584 h 3.810975 v 5.3658535 h -1.52439 V 8.4451217 H 43.59756 V 9.2073168 H 42.835365 V 9.9695119 H 38.993901 V 9.2073168 Z"
     id="path146"
     style="stroke-width:3.04878" />
  <path
     class="fill-primary"
     d="m 46.707316,0.0304878 h 6.128048 v 0.7621951 h 0.762195 V 1.554878 h 0.762196 v 3.0487804 h -0.762196 v 0.7621951 h -0.762195 v 0.7621951 h 0.762195 v 0.7621951 h 0.762196 V 9.939024 H 52.835364 V 7.621951 H 52.073169 V 6.8597559 H 51.310974 V 6.0975608 h -3.04878 v 3.8109754 h -1.52439 V 0.0304878 Z m 1.52439,1.5243902 v 3.0487804 h 3.810975 V 3.8414633 h 0.762196 V 2.3170731 H 52.042681 V 1.554878 Z"
     id="path148"
     style="stroke-width:3.04878" />
  <path
     class="fill-primary"
     d="M 56.646339,8.4451217 V 9.9695119 H 55.12195 V 7.6524388 h 0.762195 V 6.1280486 h 0.762194 V 4.6036584 h 0.762195 V 2.3170731 h 0.762195 V 0.7926829 h 0.762195 V 0.0304878 h 1.52439 v 0.7621951 h 0.762195 v 1.5243902 h 0.762196 V 4.6036584 H 62.7439 v 1.5243902 h 0.762195 V 7.6524388 H 64.26829 V 9.9695119 H 62.7439 V 8.4451217 H 61.981705 V 7.6829266 h -4.603659 v 0.7621951 h -0.762195 z m 1.52439,-3.8109755 v 1.5243902 h 3.04878 V 4.6341462 H 60.457314 V 2.3475609 h -1.52439 v 2.2865853 z"
     id="path150"
     style="stroke-width:3.04878" />
  <path
     class="fill-primary"
     d="m 65.091461,0.0304878 h 1.52439 v 0.7621951 h 0.762195 v 1.5243902 h 0.762195 v 1.5243902 h 0.762195 v 1.5243902 h 1.52439 V 3.8414633 h 0.762195 V 2.3170731 h 0.762195 V 0.7926829 h 0.762196 V 0.0304878 h 1.52439 v 9.9695119 h -1.52439 V 3.8719511 h -0.762196 v 1.5243902 h -0.762195 v 1.5243902 h -0.762195 v 1.5243902 h -1.52439 V 6.9207315 H 68.140241 V 5.3963413 H 67.378046 V 3.8719511 h -0.762195 v 6.1280486 h -1.52439 z"
     id="path152"
     style="stroke-width:3.04878" />
</svg>
