<?xml version="1.0" encoding="UTF-8"?>
<svg id="Livello_1" data-name="Livello 1" xmlns="http://www.w3.org/2000/svg" viewBox="0 0 440.787109375 54.7758789062">
  <path class="fill-primary" d="M0,0h14.7109375c.6259765625,0,1.134765625.1953125,1.5263671875.5869140625.390625.390625.5869140625.8994140625.5869140625,1.525390625v2.11328125h8.451171875v-2.11328125c0-.6259765625.1953125-1.134765625.5869140625-1.525390625.390625-.3916015625.8994140625-.5869140625,1.525390625-.5869140625h14.6337890625v8.451171875h-16.74609375v46.3247070312h-8.451171875V8.451171875H0V0Z"/>
  <path class="fill-primary" d="M50.4716796875,4.2255859375v-2.11328125c0-.6259765625.1953125-1.134765625.5869140625-1.525390625.390625-.3916015625.8994140625-.5869140625,1.525390625-.5869140625h25.197265625c.6259765625,0,1.134765625.1953125,1.5263671875.5869140625.390625.390625.5869140625.8994140625.5869140625,1.525390625v2.11328125h2.1123046875c.6259765625,0,1.134765625.1953125,1.5263671875.5869140625.390625.390625.5869140625.8994140625.5869140625,1.525390625v2.11328125h2.1123046875c.6259765625,0,1.134765625.1953125,1.5263671875.5869140625.390625.390625.5869140625.8994140625.5869140625,1.525390625v12.5986328125c0,.6259765625-.1962890625,1.134765625-.5869140625,1.5263671875-.3916015625.390625-.900390625.5869140625-1.5263671875.5869140625h-2.1123046875v2.1123046875c0,.6259765625-.1962890625,1.134765625-.5869140625,1.5263671875-.3916015625.390625-.900390625.5869140625-1.5263671875.5869140625h-2.1123046875v4.2255859375h2.1123046875c.6259765625,0,1.134765625.1953125,1.5263671875.5869140625.390625.390625.5869140625.8994140625.5869140625,1.525390625v2.1127929688h2.1123046875c.6259765625,0,1.134765625.1953125,1.5263671875.5869140625.390625.3916015625.5869140625.8994140625.5869140625,1.525390625v14.7119140625h-8.451171875v-12.6767578125h-2.11328125c-.6259765625,0-1.134765625-.1953125-1.525390625-.5869140625-.3916015625-.3916015625-.5869140625-.900390625-.5869140625-1.5263671875v-2.0341796875h-2.11328125c-.6259765625,0-1.134765625-.1953125-1.525390625-.5869140625-.3916015625-.3916015625-.5869140625-.900390625-.5869140625-1.5258789062v-2.1123046875h-16.74609375v21.0493164062h-8.451171875v-18.9370117188c0-.6259765625.1953125-1.134765625.5869140625-1.525390625.390625-.3916015625.8994140625-.5869140625,1.525390625-.5869140625h2.11328125v-8.451171875h-2.11328125c-.6259765625,0-1.134765625-.1962890625-1.525390625-.5869140625-.3916015625-.3916015625-.5869140625-.900390625-.5869140625-1.5263671875V6.337890625c0-.6259765625.1953125-1.134765625.5869140625-1.525390625.390625-.3916015625.8994140625-.5869140625,1.525390625-.5869140625h2.11328125ZM54.697265625,8.451171875v16.82421875h20.9716796875v-2.11328125c0-.6259765625.1953125-1.134765625.5869140625-1.525390625.390625-.3916015625.8994140625-.5869140625,1.525390625-.5869140625h2.11328125v-8.373046875h-2.11328125c-.6259765625,0-1.134765625-.1962890625-1.525390625-.5869140625-.3916015625-.3916015625-.5869140625-.900390625-.5869140625-1.5263671875v-2.1123046875h-20.9716796875Z"/>
  <path class="fill-primary" d="M96.796875,35.8388671875c0-.6259765625.1953125-1.134765625.5869140625-1.525390625.390625-.3916015625.8994140625-.5869140625,1.525390625-.5869140625h2.11328125v-6.3388671875c0-.6259765625.1953125-1.134765625.5869140625-1.525390625.390625-.3916015625.8994140625-.5869140625,1.525390625-.5869140625h2.11328125v-10.486328125c0-.6259765625.1953125-1.134765625.5869140625-1.525390625.390625-.3916015625.8994140625-.5869140625,1.525390625-.5869140625h2.11328125v-6.3388671875c0-.6259765625.1953125-1.134765625.5869140625-1.525390625.390625-.3916015625.8994140625-.5869140625,1.525390625-.5869140625h2.11328125v-2.11328125c0-.6259765625.1953125-1.134765625.5869140625-1.525390625.390625-.3916015625.8994140625-.5869140625,1.525390625-.5869140625h4.2255859375c.6259765625,0,1.134765625.1953125,1.5263671875.5869140625.3916015625.390625.5869140625.8994140625.5869140625,1.525390625v2.11328125h2.0341796875c.6259765625,0,1.134765625.1953125,1.5263671875.5869140625.3916015625.390625.5869140625.8994140625.5869140625,1.525390625v6.3388671875h2.1123046875c.6259765625,0,1.134765625.1953125,1.5263671875.5869140625.3916015625.390625.5869140625.8994140625.5869140625,1.525390625v10.486328125h2.1123046875c.6259765625,0,1.134765625.1953125,1.5263671875.5869140625.3916015625.390625.5869140625.8994140625.5869140625,1.525390625v6.3388671875h2.1123046875c.626953125,0,1.134765625.1953125,1.5263671875.5869140625.3916015625.390625.5869140625.8994140625.5869140625,1.525390625v6.2602539062h2.11328125c.6259765625,0,1.1337890625.1953125,1.525390625.5869140625.3916015625.390625.5869140625.8994140625.5869140625,1.525390625v10.564453125h-8.451171875v-8.451171875h-2.11328125c-.6259765625,0-1.1337890625-.1953125-1.525390625-.5869140625s-.5869140625-.900390625-.5869140625-1.5263671875v-6.259765625h-4.2255859375v2.1123046875c0,.6259765625-.1953125,1.134765625-.5869140625,1.5263671875s-.900390625.5869140625-1.5263671875.5869140625h-12.5986328125c-.6259765625,0-1.134765625-.1953125-1.525390625-.5869140625-.3916015625-.3916015625-.5869140625-.900390625-.5869140625-1.5263671875v-2.1123046875h-4.2255859375v6.259765625c0,.6259765625-.1962890625,1.134765625-.5869140625,1.5263671875-.3916015625.3916015625-.900390625.5869140625-1.5263671875.5869140625h-2.1123046875v8.451171875h-8.451171875v-10.564453125c0-.6259765625.1953125-1.134765625.5869140625-1.525390625.390625-.3916015625.8994140625-.5869140625,1.525390625-.5869140625h2.11328125v-6.2602539062ZM109.4736328125,25.275390625v8.451171875h16.82421875v-8.451171875h-2.11328125c-.6259765625,0-1.134765625-.1962890625-1.525390625-.5869140625-.3916015625-.3916015625-.5869140625-.900390625-.5869140625-1.5263671875v-10.4853515625h-8.373046875v10.4853515625c0,.6259765625-.1962890625,1.134765625-.5869140625,1.5263671875-.3916015625.390625-.900390625.5869140625-1.5263671875.5869140625h-2.1123046875Z"/>
  <path class="fill-primary" d="M147.42578125,14.7890625c0-.6259765625.1953125-1.134765625.5869140625-1.525390625.390625-.3916015625.8994140625-.5869140625,1.525390625-.5869140625h2.0341796875v-6.3388671875c0-.6259765625.1962890625-1.134765625.5869140625-1.525390625.3916015625-.3916015625.900390625-.5869140625,1.5263671875-.5869140625h2.11328125v-2.11328125c0-.6259765625.1953125-1.134765625.5859375-1.525390625.3916015625-.3916015625.900390625-.5869140625,1.5263671875-.5869140625h21.1279296875c.6259765625,0,1.134765625.1953125,1.5263671875.5869140625.3916015625.390625.5869140625.8994140625.5869140625,1.525390625v2.11328125h2.1123046875c.6259765625,0,1.134765625.1953125,1.5263671875.5869140625.3916015625.390625.5869140625.8994140625.5869140625,1.525390625v6.3388671875h2.1123046875c.6259765625,0,1.134765625.1953125,1.5263671875.5869140625.3916015625.390625.5869140625.8994140625.5869140625,1.525390625v6.2607421875h-8.451171875v-4.2255859375h-2.11328125c-.6259765625,0-1.134765625-.1962890625-1.525390625-.5869140625-.3916015625-.3916015625-.5869140625-.900390625-.5869140625-1.5263671875v-6.259765625h-16.90234375v6.259765625c0,.6259765625-.1962890625,1.134765625-.5869140625,1.5263671875-.3916015625.390625-.900390625.5869140625-1.5263671875.5869140625h-2.1123046875v21.0493164062h2.1123046875c.6259765625,0,1.134765625.1953125,1.5263671875.5869140625.390625.390625.5869140625.8994140625.5869140625,1.525390625v6.3388671875h16.90234375v-6.2607421875c0-.6259765625.1953125-1.1337890625.5869140625-1.525390625.390625-.3916015625.8994140625-.5869140625,1.525390625-.5869140625h2.11328125v-4.2250976562h8.451171875v6.2592773438c0,.6259765625-.1953125,1.134765625-.5869140625,1.5263671875s-.900390625.5869140625-1.5263671875.5869140625h-2.1123046875v6.337890625c0,.6259765625-.1953125,1.134765625-.5869140625,1.5263671875s-.900390625.5869140625-1.5263671875.5869140625h-2.1123046875v2.1123046875c0,.626953125-.1953125,1.134765625-.5869140625,1.5263671875s-.900390625.5869140625-1.5263671875.5869140625h-21.0498046875c-.6259765625,0-1.134765625-.1953125-1.525390625-.5869140625-.3916015625-.3916015625-.5869140625-.8994140625-.5869140625-1.5263671875v-2.1123046875h-2.19140625c-.6259765625,0-1.134765625-.1953125-1.5263671875-.5869140625-.390625-.3916015625-.5869140625-.900390625-.5869140625-1.5263671875v-6.337890625h-2.0341796875c-.6259765625,0-1.134765625-.1953125-1.525390625-.5869140625-.3916015625-.3916015625-.5869140625-.900390625-.5869140625-1.5263671875V14.7890625Z"/>
  <path class="fill-primary" d="M198.0537109375,4.2255859375v-2.11328125c0-.6259765625.1953125-1.134765625.5869140625-1.525390625.390625-.3916015625.8994140625-.5869140625,1.525390625-.5869140625h31.6142578125v8.451171875h-29.5009765625v12.5986328125h25.275390625v8.451171875h-25.275390625v16.8237304688h29.5009765625v8.451171875h-31.6142578125c-.6259765625,0-1.134765625-.1953125-1.525390625-.5869140625-.3916015625-.3916015625-.5869140625-.8994140625-.5869140625-1.5263671875v-2.1123046875h-2.11328125c-.6259765625,0-1.134765625-.1953125-1.525390625-.5869140625-.3916015625-.3916015625-.5869140625-.900390625-.5869140625-1.5263671875v-16.8237304688c0-.6259765625.1953125-1.134765625.5869140625-1.525390625.390625-.3916015625.8994140625-.5869140625,1.525390625-.5869140625h2.11328125v-8.451171875h-2.11328125c-.6259765625,0-1.134765625-.1962890625-1.525390625-.5869140625-.3916015625-.3916015625-.5869140625-.900390625-.5869140625-1.5263671875V6.337890625c0-.6259765625.1953125-1.134765625.5869140625-1.525390625.390625-.3916015625.8994140625-.5869140625,1.525390625-.5869140625h2.11328125Z"/>
  <path class="fill-primary" d="M259.48046875,0h8.451171875v46.3247070312h25.275390625v8.451171875h-27.388671875c-.6259765625,0-1.134765625-.1953125-1.525390625-.5869140625-.3916015625-.3916015625-.5869140625-.8994140625-.5869140625-1.5263671875v-2.1123046875h-2.11328125c-.6259765625,0-1.134765625-.1953125-1.525390625-.5869140625-.3916015625-.3916015625-.5869140625-.900390625-.5869140625-1.5263671875V0Z"/>
  <path class="fill-primary" d="M297.431640625,0h8.451171875v54.7758789062h-8.451171875V0Z"/>
  <path class="fill-primary" d="M310.107421875,0h8.451171875v4.2255859375h2.0341796875c.6259765625,0,1.134765625.1953125,1.5263671875.5869140625.390625.390625.5869140625.8994140625.5869140625,1.525390625v6.3388671875h2.1123046875c.6259765625,0,1.134765625.1953125,1.5263671875.5869140625.390625.390625.5869140625.8994140625.5869140625,1.525390625v2.03515625h2.1123046875c.6259765625,0,1.134765625.1953125,1.5263671875.5869140625.390625.390625.5869140625.8994140625.5869140625,1.525390625v6.3388671875h2.1123046875c.6259765625,0,1.134765625.1953125,1.5263671875.5869140625.390625.390625.5869140625.8994140625.5869140625,1.525390625v2.11328125h2.1123046875c.6259765625,0,1.134765625.1953125,1.5263671875.5869140625.390625.390625.5869140625.8994140625.5869140625,1.525390625v6.3383789062h4.1474609375V0h8.451171875v37.8735351562h.078125v2.1123046875c0,.6259765625-.1953125,1.134765625-.5869140625,1.5263671875s-.900390625.5869140625-1.5263671875.5869140625h-2.1123046875v4.2255859375h2.0341796875c.6259765625,0,1.134765625.1953125,1.5263671875.5869140625.390625.3916015625.5869140625.8994140625.5869140625,1.525390625v6.3388671875h-8.451171875v-4.2255859375h-2.03515625c-.6259765625,0-1.134765625-.1953125-1.525390625-.5869140625-.3916015625-.3916015625-.5869140625-.900390625-.5869140625-1.5263671875v-2.1123046875h-2.11328125c-.6259765625,0-1.134765625-.1953125-1.525390625-.5869140625-.3916015625-.3916015625-.5869140625-.900390625-.5869140625-1.5263671875v-2.0341796875h-2.11328125c-.6259765625,0-1.134765625-.1953125-1.525390625-.5869140625-.3916015625-.3916015625-.5869140625-.900390625-.5869140625-1.5263671875v-6.3374023438h-2.11328125c-.6259765625,0-1.134765625-.1953125-1.525390625-.5869140625-.3916015625-.3916015625-.5869140625-.900390625-.5869140625-1.5263671875v-2.1123046875h-2.11328125c-.6259765625,0-1.134765625-.1962890625-1.525390625-.5869140625-.3916015625-.3916015625-.5869140625-.900390625-.5869140625-1.5263671875v-6.337890625h-4.1474609375v33.7260742188h-8.451171875V14.7890625c0-.6259765625.1953125-1.134765625.5869140625-1.525390625.390625-.3916015625.8994140625-.5869140625,1.525390625-.5869140625h2.11328125v-4.2255859375h-2.11328125c-.6259765625,0-1.134765625-.1962890625-1.525390625-.5869140625-.3916015625-.3916015625-.5869140625-.900390625-.5869140625-1.5263671875V0Z"/>
  <path class="fill-primary" d="M360.736328125,4.2255859375v-2.11328125c0-.6259765625.1953125-1.134765625.5869140625-1.525390625.390625-.3916015625.8994140625-.5869140625,1.525390625-.5869140625h31.6142578125v8.451171875h-29.5009765625v12.5986328125h25.275390625v8.451171875h-25.275390625v16.8237304688h29.5009765625v8.451171875h-31.6142578125c-.6259765625,0-1.134765625-.1953125-1.525390625-.5869140625-.3916015625-.3916015625-.5869140625-.8994140625-.5869140625-1.5263671875v-2.1123046875h-2.11328125c-.6259765625,0-1.134765625-.1953125-1.525390625-.5869140625-.3916015625-.3916015625-.5869140625-.900390625-.5869140625-1.5263671875v-16.8237304688c0-.6259765625.1953125-1.134765625.5869140625-1.525390625.390625-.3916015625.8994140625-.5869140625,1.525390625-.5869140625h2.11328125v-8.451171875h-2.11328125c-.6259765625,0-1.134765625-.1962890625-1.525390625-.5869140625-.3916015625-.3916015625-.5869140625-.900390625-.5869140625-1.5263671875V6.337890625c0-.6259765625.1953125-1.134765625.5869140625-1.525390625.390625-.3916015625.8994140625-.5869140625,1.525390625-.5869140625h2.11328125Z"/>
  <path class="fill-primary" d="M402.9130859375,4.2255859375v-2.11328125c0-.6259765625.1953125-1.134765625.5869140625-1.525390625.390625-.3916015625.8994140625-.5869140625,1.525390625-.5869140625h25.197265625c.6259765625,0,1.134765625.1953125,1.5263671875.5869140625.390625.390625.5869140625.8994140625.5869140625,1.525390625v2.11328125h2.1123046875c.6259765625,0,1.134765625.1953125,1.5263671875.5869140625.390625.390625.5869140625.8994140625.5869140625,1.525390625v2.11328125h2.1123046875c.6259765625,0,1.134765625.1953125,1.5263671875.5869140625.390625.390625.5869140625.8994140625.5869140625,1.525390625v12.5986328125c0,.6259765625-.1962890625,1.134765625-.5869140625,1.5263671875-.3916015625.390625-.900390625.5869140625-1.5263671875.5869140625h-2.1123046875v2.1123046875c0,.6259765625-.1962890625,1.134765625-.5869140625,1.5263671875-.3916015625.390625-.900390625.5869140625-1.5263671875.5869140625h-2.1123046875v4.2255859375h2.1123046875c.6259765625,0,1.134765625.1953125,1.5263671875.5869140625.390625.390625.5869140625.8994140625.5869140625,1.525390625v2.1127929688h2.1123046875c.6259765625,0,1.134765625.1953125,1.5263671875.5869140625.390625.3916015625.5869140625.8994140625.5869140625,1.525390625v14.7119140625h-8.451171875v-12.6767578125h-2.11328125c-.6259765625,0-1.134765625-.1953125-1.525390625-.5869140625-.3916015625-.3916015625-.5869140625-.900390625-.5869140625-1.5263671875v-2.0341796875h-2.11328125c-.6259765625,0-1.134765625-.1953125-1.525390625-.5869140625-.3916015625-.3916015625-.5869140625-.900390625-.5869140625-1.5258789062v-2.1123046875h-16.74609375v21.0493164062h-8.451171875v-18.9370117188c0-.6259765625.1953125-1.134765625.5869140625-1.525390625.390625-.3916015625.8994140625-.5869140625,1.525390625-.5869140625h2.11328125v-8.451171875h-2.11328125c-.6259765625,0-1.134765625-.1962890625-1.525390625-.5869140625-.3916015625-.3916015625-.5869140625-.900390625-.5869140625-1.5263671875V6.337890625c0-.6259765625.1953125-1.134765625.5869140625-1.525390625.390625-.3916015625.8994140625-.5869140625,1.525390625-.5869140625h2.11328125ZM407.138671875,8.451171875v16.82421875h20.9716796875v-2.11328125c0-.6259765625.1953125-1.134765625.5869140625-1.525390625.390625-.3916015625.8994140625-.5869140625,1.525390625-.5869140625h2.11328125v-8.373046875h-2.11328125c-.6259765625,0-1.134765625-.1962890625-1.525390625-.5869140625-.3916015625-.3916015625-.5869140625-.900390625-.5869140625-1.5263671875v-2.1123046875h-20.9716796875Z"/>
</svg>