<?xml version="1.0" encoding="UTF-8"?>
<svg id="Livello_1" data-name="Livello 1" xmlns="http://www.w3.org/2000/svg" viewBox="0 0 7.19 66.03">
  <g>
    <path d="M.06,66.03v-5.43h1.09v2.16h5.98v1.09H1.15v2.17H.06Z"/>
    <path d="M.06,60.05v-4.35h.55v-.55h.55v-.55h2.17v.55h.55v.55h.55v-.55h.54v-.55h2.17v1.09h-1.64v.55h-.54v.54h-.54v2.16h2.72v1.09H.06ZM1.15,58.96h2.17v-2.71h-.55v-.55h-1.08v.55h-.55v2.71Z"/>
    <path d="M6.04,52.98h1.09v1.09h-1.64v-.55h-1.08v-.55h-1.09v-.55h-1.63v-.55H.61v-.55H.06v-1.09h.55v-.54h1.09v-.55h1.63v-.55h1.09v-.55h1.08v-.55h1.64v1.09h-1.09v.55h-.54v3.27h.54v.55ZM3.32,51.89h1.09v-2.17h-1.09v.55h-1.63v1.08h1.63v.55Z"/>
    <path d="M5.5,46.45v.54H1.7v-.54H.61v-.55H.06v-3.28h.55v-.55h1.09v-.55h1.08v1.09h-.55v.55h-1.08v2.18h1.08v.55h2.72v-.55h1.09v-2.18h-1.08v-.55h-.54v-1.09h1.08v.55h1.09v.55h.55v3.27h-.55v.56h-1.09Z"/>
    <path d="M.06,40.99v-4.9h1.09v3.81h1.63v-3.27h1.09v3.27h2.17v-3.81h1.09v4.9H.06Z"/>
    <path d="M.06,23.41v-1.09h5.98v-3.27h1.09v4.36H.06Z"/>
    <path d="M.06,18.51v-1.09h7.08v1.09H.06Z"/>
    <path d="M.06,16.87v-1.09h.55v-.54h1.09v-.55h.54v-.55h1.09v-.55h.55v-.55h1.09v-.55h-.54s-4.36.01-4.36.01v-1.09h7.08v1.09h-.55v.54h-.55v.55h-.54v.55h-1.09v.55h-.55v.55h-1.09v.54h4.36v1.09H.06Z"/>
    <path d="M.06,10.89v-4.9h1.09v3.81h1.63v-3.27h1.09v3.27h2.17v-3.81h1.09v4.9H.06Z"/>
    <path d="M.06,5.44V1.09h.55v-.55h.55v-.55h2.17v.55h.55v.55h.55v-.55h.54v-.55h2.17v1.09h-1.64v.55h-.54v.54h-.54v2.16h2.72v1.09H.06ZM1.15,4.35h2.17V1.64h-.55v-.55h-1.08v.55h-.55v2.71Z"/>
  </g>
  <path d="M3.59,25.93c.21,0,.39.07.52.2s.2.31.2.52v2.17h-1.44v-2.89h.72ZM7.19,28.82v1.44h-2.88v-1.44h2.88ZM2.87,29.54c0,.21-.07.39-.2.52-.13.13-.31.2-.52.2H0v-1.44h2.87v.72ZM2.87,30.98c0-.21.07-.39.2-.52.13-.13.31-.2.52-.2h.72v2.88h-1.44v-2.16Z"/>
</svg>