<?xml version="1.0" encoding="UTF-8" standalone="no"?>
<svg
   viewBox="0 0 72 66"
   width="72px"
   height="660px">
    <path
       d="M 0.06,66.03 V 60.6 h 1.09 v 2.16 h 5.98 v 1.09 H 1.15 v 2.17 H 0.06 Z"
       id="path6376" />
    <path
       d="M 0.06,60.05 V 55.7 H 0.61 V 55.15 H 1.16 V 54.6 h 2.17 v 0.55 H 3.88 V 55.7 H 4.43 V 55.15 H 4.97 V 54.6 h 2.17 v 1.09 H 5.5 v 0.55 H 4.96 v 0.54 H 4.42 v 2.16 h 2.72 v 1.09 H 0.06 Z M 1.15,58.96 H 3.32 V 56.25 H 2.77 V 55.7 H 1.69 v 0.55 H 1.14 v 2.71 z"
       id="path6378" />
    <path
       d="m 6.04,52.98 h 1.09 v 1.09 H 5.49 V 53.52 H 4.41 V 52.97 H 3.32 V 52.42 H 1.69 V 51.87 H 0.61 V 51.32 H 0.06 V 50.23 H 0.61 V 49.69 H 1.7 V 49.14 H 3.33 V 48.59 H 4.42 V 48.04 H 5.5 v -0.55 h 1.64 v 1.09 H 6.05 v 0.55 H 5.51 v 3.27 h 0.54 v 0.55 z M 3.32,51.89 H 4.41 V 49.72 H 3.32 v 0.55 H 1.69 v 1.08 h 1.63 v 0.55 z"
       id="path6380" />
    <path
       d="m 5.5,46.45 v 0.54 H 1.7 V 46.45 H 0.61 V 45.9 H 0.06 V 42.62 H 0.61 V 42.07 H 1.7 v -0.55 h 1.08 v 1.09 H 2.23 v 0.55 H 1.15 v 2.18 h 1.08 v 0.55 H 4.95 V 45.34 H 6.04 V 43.16 H 4.96 V 42.61 H 4.42 V 41.52 H 5.5 v 0.55 h 1.09 v 0.55 h 0.55 v 3.27 H 6.59 v 0.56 z"
       id="path6382" />
    <path
       d="m 0.06,40.99 v -4.9 h 1.09 v 3.81 h 1.63 v -3.27 h 1.09 v 3.27 h 2.17 v -3.81 h 1.09 v 4.9 z"
       id="path6384" />
    <path
       d="m 0.06,23.41 v -1.09 h 5.98 v -3.27 h 1.09 v 4.36 z"
       id="path6386" />
    <path
       d="m 0.06,18.51 v -1.09 h 7.08 v 1.09 z"
       id="path6388" />
    <path
       d="M 0.06,16.87 V 15.78 H 0.61 V 15.24 H 1.7 V 14.69 H 2.24 V 14.14 H 3.33 V 13.59 H 3.88 V 13.04 H 4.97 V 12.49 H 4.43 c 0,0 -4.36,0.01 -4.36,0.01 V 11.41 H 7.15 V 12.5 H 6.6 v 0.54 H 6.05 v 0.55 H 5.51 v 0.55 H 4.42 v 0.55 H 3.87 v 0.55 H 2.78 v 0.54 h 4.36 v 1.09 z"
       id="path6390" />
    <path
       d="M 0.06,10.89 V 5.99 H 1.15 V 9.8 H 2.78 V 6.53 H 3.87 V 9.8 H 6.04 V 5.99 h 1.09 v 4.9 z"
       id="path6392" />
    <path
       d="M 0.06,5.44 V 1.09 H 0.61 V 0.54 H 1.16 V -0.01 H 3.33 V 0.54 H 3.88 V 1.09 H 4.43 V 0.54 H 4.97 V -0.01 H 7.14 V 1.08 H 5.5 V 1.63 H 4.96 V 2.17 H 4.42 V 4.33 H 7.14 V 5.42 H 0.06 Z M 1.15,4.35 H 3.32 V 1.64 H 2.77 V 1.09 H 1.69 V 1.64 H 1.14 v 2.71 z"
       id="path6394" />
</svg>
