<?xml version="1.0" encoding="UTF-8"?>
<svg id="Livello_1" data-name="Livello 1" xmlns="http://www.w3.org/2000/svg" viewBox="0 0 108.9674641662 108.9674641662">
  <defs>
    <style>
      .cls-1 {
        fill: #E4FF3C;
      }

      .cls-2 {
        fill: #645BC2;
      }
    </style>
  </defs>
  <circle class="cls-2" cx="54.4837320831" cy="54.4837320831" r="54.4837320831"/>
  <path class="cls-1" d="M39.0306580934,46.7547032827c2.2806219984,0,4.1333181772.7123851796,5.5580885363,2.1371555387,1.4247703591,1.4235335793,2.1371555387,3.276229758,2.1371555387,5.5556149767v7.6940072951H15.9873680528v-15.3867778105h23.0432900407ZM54.4186726837,46.7547032827c-2.2806219984,0-4.1308446176-.7123851796-5.5556149767-2.1371555387-1.4247703591-1.4247703591-2.1371555387-3.2774665379-2.1371555387-5.5568517565v-23.0082685354h15.3855410306v30.7022758305h-7.6927705153ZM62.111443199,62.1414810931v30.7735556209h-15.3855410306v-30.7735556209h15.3855410306ZM92.9800961135,54.447473798c0,2.2793852186-.7123851796,4.1320813974-2.1371555387,5.5568517565s-3.2774665379,2.1371555387-5.5556149766,2.1371555387h-23.1758823991v-15.3867778105h30.8686529144v7.6927705153Z"/>
</svg>