<?xml version="1.0" encoding="UTF-8" standalone="no"?>
<svg
   id="Livello_1"
   version="1.1"
   viewBox="0 0 250 200">
  <path
     d="m 14,10 h 51.065761 c 24.78625,0 42.125209,17.329447 42.125209,43.057313 0,25.727865 -17.329446,43.608958 -42.125209,43.608958 H 38.044371 V 142.32967 H 14 Z m 46.585977,65.789142 c 13.981503,0 22.180175,-8.950064 22.180175,-22.741342 0,-13.79127 -8.198672,-22.360886 -21.80924,-22.360886 H 38.034867 V 75.789142 Z M 128.43905,10 h 24.04437 v 56.0972 h 60.577 V 10 h 24.04437 V 142.32967 H 213.06042 V 86.793626 h -60.577 V 142.32967 H 128.43905 Z M 14,182.85699 21.979918,171.17721 h 3.985199 v 10.94742 h 2.396834 v 2.78678 h -2.396834 v 4.77463 h -3.309902 v -4.77463 H 14 v -2.06393 z m 8.655215,-0.73236 v -5.73527 c 0,-0.91308 0.133155,-1.93078 0.133155,-1.93078 h -0.05706 c 0,0 -0.418491,0.98916 -0.913077,1.693 l -4.270534,5.91598 v 0.0475 h 5.107525 z m 8.807396,2.84385 c 0,0 1.540817,1.85469 3.937642,1.85469 1.797624,0 3.490622,-1.19841 3.490622,-3.15773 0,-1.95931 -1.616912,-3.20528 -3.728402,-3.20528 -1.645442,0 -2.872393,0.77992 -2.872393,0.77992 l -1.854683,-0.6753 0.86552,-9.38757 h 9.720473 v 2.89141 h -6.829062 l -0.285336,3.05311 c -0.05706,0.49457 -0.133155,0.856 -0.133155,0.856 h 0.04752 c 0,0 0.856008,-0.4185 1.978334,-0.4185 4.089823,0 6.515187,2.73924 6.515187,6.07768 0,3.65231 -2.815324,6.36301 -6.676881,6.36301 -3.861556,0 -5.915976,-2.50145 -5.915976,-2.50145 l 1.721528,-2.52999 z m 12.079255,-10.00581 c 0,-2.24464 1.873709,-4.11836 4.251517,-4.11836 2.377799,0 4.251517,1.87372 4.251517,4.11836 0,2.24465 -1.902248,4.08983 -4.251517,4.08983 -2.349278,0 -4.251517,-1.79762 -4.251517,-4.08983 z m 5.992071,0 c 0,-0.9416 -0.779922,-1.72153 -1.750067,-1.72153 -0.970146,0 -1.721537,0.77993 -1.721537,1.72153 0,0.94162 0.760904,1.72154 1.721537,1.72154 0.960632,0 1.750067,-0.75139 1.750067,-1.72154 z m 12.488232,13.08744 c 0,-6.67687 8.655215,-7.74212 8.655215,-11.41346 0,-1.61691 -1.255481,-2.57754 -2.815324,-2.57754 -2.159045,0 -3.338441,2.18758 -3.338441,2.18758 l -2.50145,-1.66447 c 0,0 1.692999,-3.69986 6.125227,-3.69986 3.262354,0 6.02061,1.97834 6.02061,5.47846 0,5.94452 -8.293793,6.96222 -8.369879,10.45284 h 8.655215 v 2.89141 H 62.17435 c -0.07605,-0.5992 -0.152181,-1.12233 -0.152181,-1.64544 z m 15.817169,-3.08163 c 0,0 1.540818,1.85469 3.937643,1.85469 1.797623,0 3.490621,-1.19841 3.490621,-3.15773 0,-1.95931 -1.616903,-3.20528 -3.728401,-3.20528 -1.645443,0 -2.872385,0.77992 -2.872385,0.77992 l -1.854692,-0.6753 0.86552,-9.38757 h 9.720473 v 2.89141 h -6.829062 l -0.285336,3.05311 c -0.05706,0.49457 -0.133155,0.856 -0.133155,0.856 h 0.04752 c 0,0 0.856008,-0.4185 1.978334,-0.4185 4.089823,0 6.515187,2.73924 6.515187,6.07768 0,3.65231 -2.815315,6.36301 -6.676881,6.36301 -3.861556,0 -5.915976,-2.50145 -5.915976,-2.50145 l 1.721528,-2.52999 z m 12.621397,-14.12417 h 2.501449 v 5.44994 h -2.501449 z m 12.488235,0.32339 h 3.35746 l 7.00978,10.69061 c 0.70382,1.06525 1.54081,2.86288 1.54081,2.86288 h 0.0571 c 0,0 -0.18072,-1.76909 -0.18072,-2.86288 V 171.1677 h 3.33844 v 18.50884 h -3.33844 l -7.00977,-10.66209 c -0.70383,-1.06526 -1.54082,-2.86287 -1.54082,-2.86287 h -0.0475 c 0,0 0.18072,1.76908 0.18072,2.86287 v 10.66209 H 102.9585 V 171.1677 Z m 25.10012,7.59946 h 3.3099 v 3.30991 h -3.3099 z m 13.57252,8.18917 h 4.01373 v -10.27212 c 0,-0.62774 0.0285,-1.25548 0.0285,-1.25548 h -0.0571 c 0,0 -0.20924,0.44702 -0.80845,1.04623 l -1.48375,1.40766 -1.97833,-2.08296 4.64148,-4.46076 h 2.94848 v 15.61743 h 4.01374 v 2.89141 h -11.31836 z m 12.51677,0 h 4.01374 v -10.27212 c 0,-0.62774 0.0285,-1.25548 0.0285,-1.25548 h -0.0571 c 0,0 -0.20924,0.44702 -0.80846,1.04623 l -1.48374,1.40766 -1.97834,-2.08296 4.64148,-4.46076 h 2.94848 v 15.61743 h 4.01374 v 2.89141 h -11.31836 z m 12.02218,-11.84148 c 0,-2.24465 1.87371,-4.11836 4.25152,-4.11836 2.37781,0 4.25152,1.87371 4.25152,4.11836 0,2.24466 -1.90224,4.08983 -4.25152,4.08983 -2.34927,0 -4.25152,-1.79762 -4.25152,-4.08983 z m 6.00159,0 c 0,-0.9416 -0.77992,-1.72153 -1.75007,-1.72153 -0.97014,0 -1.72153,0.77993 -1.72153,1.72153 0,0.94162 0.7609,1.72153 1.72153,1.72153 0.96063,0 1.75007,-0.75138 1.75007,-1.72153 z m 14.20026,9.85363 c 0,0 1.54081,1.85469 3.93765,1.85469 1.79761,0 3.49061,-1.19841 3.49061,-3.15773 0,-1.95931 -1.6169,-3.20528 -3.7284,-3.20528 -1.64544,0 -2.86287,0.77992 -2.86287,0.77992 l -1.8547,-0.6753 0.85601,-9.38757 h 9.72047 v 2.89141 h -6.82905 l -0.28534,3.05311 c -0.0475,0.49457 -0.13316,0.856 -0.13316,0.856 h 0.0475 c 0,0 0.86552,-0.4185 1.97834,-0.4185 4.08983,0 6.51518,2.73924 6.51518,6.07768 0,3.65231 -2.81531,6.36301 -6.67687,6.36301 -3.86156,0 -5.91598,-2.50145 -5.91598,-2.50145 l 1.72152,-2.52999 z m 13.79127,-0.0285 c 0,0 1.75006,1.87371 4.19445,1.87371 1.93078,0 3.33844,-1.16988 3.33844,-2.76777 0,-1.95931 -1.79762,-2.86288 -3.96618,-2.86288 h -1.27451 l -0.76089,-1.72153 3.386,-4.01374 c 0.73236,-0.856 1.33156,-1.40766 1.33156,-1.40766 v -0.0475 c 0,0 -0.55164,0.0761 -1.64544,0.0761 h -5.52602 v -2.89141 h 11.31836 v 2.11149 l -4.53686,5.24068 c 2.55852,0.36143 5.05998,2.18758 5.05998,5.39287 0,3.20528 -2.39683,6.07767 -6.51519,6.07767 -4.11836,0 -6.12523,-2.47292 -6.12523,-2.47292 l 1.72153,-2.57754 z m 12.9638,-14.09564 h 2.50146 v 5.44994 h -2.50146 z m 12.47872,0.32339 h 11.08058 v 2.89141 h -7.7136 v 4.85073 h 6.22986 v 2.89141 h -6.22986 v 4.97437 h 8.13209 v 2.89141 H 225.5962 v -18.50885 z"
     style="fill-opacity:1;stroke-width:0.95112"/>
</svg>
