<?xml version="1.0" encoding="UTF-8"?>
<svg id="Livello_1" xmlns="http://www.w3.org/2000/svg" version="1.1" viewBox="0 0 425.2 425.2">
  <!-- Generator: Adobe Illustrator 29.2.1, SVG Export Plug-In . SVG Version: 2.1.0 Build 116)  -->
  <defs>
    <style>
      .st0 {
        fill: #12284c;
      }
    </style>
  </defs>
  <path class="st0" d="M96.32,109.83h53.69c26.06,0,44.29,18.22,44.29,45.27s-18.22,45.85-44.29,45.85h-28.41v48.01h-25.28V109.83ZM145.3,179c14.7,0,23.32-9.41,23.32-23.91s-8.62-23.51-22.93-23.51h-24.1v47.42h23.71ZM216.64,109.83h25.28v58.98h63.69v-58.98h25.28v139.13h-25.28v-58.39h-63.69v58.39h-25.28V109.83ZM96.32,291.57l8.39-12.28h4.19v11.51h2.52v2.93h-2.52v5.02h-3.48v-5.02h-9.1v-2.17ZM105.42,290.8v-6.03c0-.96.14-2.03.14-2.03h-.06s-.44,1.04-.96,1.78l-4.49,6.22v.05h5.37ZM114.68,293.79s1.62,1.95,4.14,1.95c1.89,0,3.67-1.26,3.67-3.32s-1.7-3.37-3.92-3.37c-1.73,0-3.02.82-3.02.82l-1.95-.71.91-9.87h10.22v3.04h-7.18l-.3,3.21c-.06.52-.14.9-.14.9h.05s.9-.44,2.08-.44c4.3,0,6.85,2.88,6.85,6.39,0,3.84-2.96,6.69-7.02,6.69s-6.22-2.63-6.22-2.63l1.81-2.66ZM127.38,283.27c0-2.36,1.97-4.33,4.47-4.33s4.47,1.97,4.47,4.33-2,4.3-4.47,4.3-4.47-1.89-4.47-4.3ZM133.68,283.27c0-.99-.82-1.81-1.84-1.81s-1.81.82-1.81,1.81.8,1.81,1.81,1.81,1.84-.79,1.84-1.81ZM146.81,297.03c0-7.02,9.1-8.14,9.1-12,0-1.7-1.32-2.71-2.96-2.71-2.27,0-3.51,2.3-3.51,2.3l-2.63-1.75s1.78-3.89,6.44-3.89c3.43,0,6.33,2.08,6.33,5.76,0,6.25-8.72,7.32-8.8,10.99h9.1v3.04h-12.91c-.08-.63-.16-1.18-.16-1.73ZM163.44,293.79s1.62,1.95,4.14,1.95c1.89,0,3.67-1.26,3.67-3.32s-1.7-3.37-3.92-3.37c-1.73,0-3.02.82-3.02.82l-1.95-.71.91-9.87h10.22v3.04h-7.18l-.3,3.21c-.06.52-.14.9-.14.9h.05s.9-.44,2.08-.44c4.3,0,6.85,2.88,6.85,6.39,0,3.84-2.96,6.69-7.02,6.69s-6.22-2.63-6.22-2.63l1.81-2.66ZM176.71,278.94h2.63v5.73h-2.63v-5.73ZM189.84,279.28h3.53l7.37,11.24c.74,1.12,1.62,3.01,1.62,3.01h.06s-.19-1.86-.19-3.01v-11.24h3.51v19.46h-3.51l-7.37-11.21c-.74-1.12-1.62-3.01-1.62-3.01h-.05s.19,1.86.19,3.01v11.21h-3.53v-19.46ZM216.23,287.27h3.48v3.48h-3.48v-3.48ZM230.5,295.88h4.22v-10.8c0-.66.03-1.32.03-1.32h-.06s-.22.47-.85,1.1l-1.56,1.48-2.08-2.19,4.88-4.69h3.1v16.42h4.22v3.04h-11.9v-3.04ZM243.66,295.88h4.22v-10.8c0-.66.03-1.32.03-1.32h-.06s-.22.47-.85,1.1l-1.56,1.48-2.08-2.19,4.88-4.69h3.1v16.42h4.22v3.04h-11.9v-3.04ZM256.3,283.43c0-2.36,1.97-4.33,4.47-4.33s4.47,1.97,4.47,4.33-2,4.3-4.47,4.3-4.47-1.89-4.47-4.3ZM262.61,283.43c0-.99-.82-1.81-1.84-1.81s-1.81.82-1.81,1.81.8,1.81,1.81,1.81,1.84-.79,1.84-1.81ZM277.54,293.79s1.62,1.95,4.14,1.95c1.89,0,3.67-1.26,3.67-3.32s-1.7-3.37-3.92-3.37c-1.73,0-3.01.82-3.01.82l-1.95-.71.9-9.87h10.22v3.04h-7.18l-.3,3.21c-.05.52-.14.9-.14.9h.05s.91-.44,2.08-.44c4.3,0,6.85,2.88,6.85,6.39,0,3.84-2.96,6.69-7.02,6.69s-6.22-2.63-6.22-2.63l1.81-2.66ZM292.04,293.76s1.84,1.97,4.41,1.97c2.03,0,3.51-1.23,3.51-2.91,0-2.06-1.89-3.01-4.17-3.01h-1.34l-.8-1.81,3.56-4.22c.77-.9,1.4-1.48,1.4-1.48v-.05s-.58.08-1.73.08h-5.81v-3.04h11.9v2.22l-4.77,5.51c2.69.38,5.32,2.3,5.32,5.67s-2.52,6.39-6.85,6.39-6.44-2.6-6.44-2.6l1.81-2.71ZM305.67,278.94h2.63v5.73h-2.63v-5.73ZM318.79,279.28h11.65v3.04h-8.11v5.1h6.55v3.04h-6.55v5.23h8.55v3.04h-12.09v-19.46Z"/>
</svg>