<?xml version="1.0" encoding="UTF-8"?>
<svg id="Livello_1" data-name="Livello 1" xmlns="http://www.w3.org/2000/svg" viewBox="0 0 1244 165.65" width="1244px">
  <defs>
    <style>
      .cls-1 {
        fill: #5c599f;
      }

      .cls-2 {
        fill: #dadb3f;
      }
    </style>
  </defs>
  <circle class="cls-1 logo-animation" cx="679.53" cy="82.83" r="82.83"/>
  <path class="cls-2 logo-animation" d="M746.77,82.4c0,3.98-1.24,7.22-3.73,9.71-2.49,2.49-5.73,3.73-9.7,3.73h-40.48v-26.88h53.92v13.44ZM692.85,149.59h-26.87v-53.75h26.87v53.75ZM679.41,68.96c-3.98,0-7.22-1.24-9.71-3.73-2.49-2.49-3.73-5.73-3.73-9.71V15.33h26.87v53.63h-13.44ZM652.53,68.96c3.98,0,7.22,1.24,9.71,3.73,2.49,2.49,3.73,5.72,3.73,9.71v13.44h-53.69v-26.88h40.25Z"/>
  <g>
    <path class="cls-2" d="M0,15.81h35.8c1.52,0,2.76.48,3.71,1.43.95.95,1.43,2.19,1.43,3.71v5.14h20.57v-5.14c0-1.52.48-2.76,1.43-3.71.95-.95,2.19-1.43,3.71-1.43h35.61v20.57h-40.75v112.73h-20.57V36.38H0V15.81Z"/>
    <path class="cls-2" d="M122.82,26.1v-5.14c0-1.52.48-2.76,1.43-3.71.95-.95,2.19-1.43,3.71-1.43h61.32c1.52,0,2.76.48,3.71,1.43.95.95,1.43,2.19,1.43,3.71v5.14h5.14c1.52,0,2.76.48,3.71,1.43.95.95,1.43,2.19,1.43,3.71v5.14h5.14c1.52,0,2.76.48,3.71,1.43s1.43,2.19,1.43,3.71v30.66c0,1.52-.48,2.76-1.43,3.71s-2.19,1.43-3.71,1.43h-5.14v5.14c0,1.52-.48,2.76-1.43,3.71-.95.95-2.19,1.43-3.71,1.43h-5.14v10.28h5.14c1.52,0,2.76.48,3.71,1.43.95.95,1.43,2.19,1.43,3.71v5.14h5.14c1.52,0,2.76.48,3.71,1.43s1.43,2.19,1.43,3.71v35.8h-20.57v-30.85h-5.14c-1.52,0-2.76-.48-3.71-1.43s-1.43-2.19-1.43-3.71v-4.95h-5.14c-1.52,0-2.76-.48-3.71-1.43s-1.43-2.19-1.43-3.71v-5.14h-40.75v51.22h-20.57v-46.08c0-1.52.48-2.76,1.43-3.71s2.19-1.43,3.71-1.43h5.14v-20.57h-5.14c-1.52,0-2.76-.48-3.71-1.43s-1.43-2.19-1.43-3.71V31.24c0-1.52.48-2.76,1.43-3.71s2.19-1.43,3.71-1.43h5.14ZM133.1,36.38v40.94h51.03v-5.14c0-1.52.48-2.76,1.43-3.71s2.19-1.43,3.71-1.43h5.14v-20.38h-5.14c-1.52,0-2.76-.48-3.71-1.43s-1.43-2.19-1.43-3.71v-5.14h-51.03Z"/>
    <path class="cls-2" d="M235.55,103.03c0-1.52.48-2.76,1.43-3.71s2.19-1.43,3.71-1.43h5.14v-15.42c0-1.52.48-2.76,1.43-3.71.95-.95,2.19-1.43,3.71-1.43h5.14v-25.52c0-1.52.48-2.76,1.43-3.71s2.19-1.43,3.71-1.43h5.14v-15.42c0-1.52.48-2.76,1.43-3.71s2.19-1.43,3.71-1.43h5.14v-5.14c0-1.52.48-2.76,1.43-3.71.95-.95,2.19-1.43,3.71-1.43h10.28c1.52,0,2.76.48,3.71,1.43.95.95,1.43,2.19,1.43,3.71v5.14h4.95c1.52,0,2.76.48,3.71,1.43s1.43,2.19,1.43,3.71v15.42h5.14c1.52,0,2.76.48,3.71,1.43s1.43,2.19,1.43,3.71v25.52h5.14c1.52,0,2.76.48,3.71,1.43.95.95,1.43,2.19,1.43,3.71v15.42h5.14c1.52,0,2.76.48,3.71,1.43.95.95,1.43,2.19,1.43,3.71v15.23h5.14c1.52,0,2.76.48,3.71,1.43s1.43,2.19,1.43,3.71v25.71h-20.57v-20.57h-5.14c-1.52,0-2.76-.48-3.71-1.43s-1.43-2.19-1.43-3.71v-15.23h-10.28v5.14c0,1.52-.48,2.76-1.43,3.71s-2.19,1.43-3.71,1.43h-30.66c-1.52,0-2.76-.48-3.71-1.43s-1.43-2.19-1.43-3.71v-5.14h-10.28v15.23c0,1.52-.48,2.76-1.43,3.71s-2.19,1.43-3.71,1.43h-5.14v20.57h-20.57v-25.71c0-1.52.48-2.76,1.43-3.71s2.19-1.43,3.71-1.43h5.14v-15.23ZM266.4,77.32v20.57h40.94v-20.57h-5.14c-1.52,0-2.76-.48-3.71-1.43s-1.43-2.19-1.43-3.71v-25.52h-20.38v25.52c0,1.52-.48,2.76-1.43,3.71s-2.19,1.43-3.71,1.43h-5.14Z"/>
    <path class="cls-2" d="M358.75,51.8c0-1.52.48-2.76,1.43-3.71.95-.95,2.19-1.43,3.71-1.43h4.95v-15.42c0-1.52.48-2.76,1.43-3.71s2.19-1.43,3.71-1.43h5.14v-5.14c0-1.52.48-2.76,1.43-3.71.95-.95,2.19-1.43,3.71-1.43h51.41c1.52,0,2.76.48,3.71,1.43.95.95,1.43,2.19,1.43,3.71v5.14h5.14c1.52,0,2.76.48,3.71,1.43s1.43,2.19,1.43,3.71v15.42h5.14c1.52,0,2.76.48,3.71,1.43s1.43,2.19,1.43,3.71v15.23h-20.57v-10.28h-5.14c-1.52,0-2.76-.48-3.71-1.43s-1.43-2.19-1.43-3.71v-15.23h-41.13v15.23c0,1.52-.48,2.76-1.43,3.71s-2.19,1.43-3.71,1.43h-5.14v51.22h5.14c1.52,0,2.76.48,3.71,1.43s1.43,2.19,1.43,3.71v15.42h41.13v-15.23c0-1.52.48-2.76,1.43-3.71s2.19-1.43,3.71-1.43h5.14v-10.28h20.57v15.23c0,1.52-.48,2.76-1.43,3.71s-2.19,1.43-3.71,1.43h-5.14v15.42c0,1.52-.48,2.76-1.43,3.71s-2.19,1.43-3.71,1.43h-5.14v5.14c0,1.52-.48,2.76-1.43,3.71s-2.19,1.43-3.71,1.43h-51.22c-1.52,0-2.76-.48-3.71-1.43s-1.43-2.19-1.43-3.71v-5.14h-5.33c-1.52,0-2.76-.48-3.71-1.43s-1.43-2.19-1.43-3.71v-15.42h-4.95c-1.52,0-2.76-.48-3.71-1.43-.95-.95-1.43-2.19-1.43-3.71v-61.32Z"/>
    <path class="cls-2" d="M481.95,26.1v-5.14c0-1.52.48-2.76,1.43-3.71.95-.95,2.19-1.43,3.71-1.43h76.93v20.57h-71.79v30.66h61.51v20.57h-61.51v40.94h71.79v20.57h-76.93c-1.52,0-2.76-.48-3.71-1.43s-1.43-2.19-1.43-3.71v-5.14h-5.14c-1.52,0-2.76-.48-3.71-1.43s-1.43-2.19-1.43-3.71v-40.94c0-1.52.48-2.76,1.43-3.71s2.19-1.43,3.71-1.43h5.14v-20.57h-5.14c-1.52,0-2.76-.48-3.71-1.43s-1.43-2.19-1.43-3.71v-30.66c0-1.52.48-2.76,1.43-3.71s2.19-1.43,3.71-1.43h5.14Z"/>
    <path class="cls-2" d="M802.8,15.81h20.57v112.73h61.51v20.57h-66.65c-1.52,0-2.76-.48-3.71-1.43s-1.43-2.19-1.43-3.71v-5.14h-5.14c-1.52,0-2.76-.48-3.71-1.43-.95-.95-1.43-2.19-1.43-3.71V15.81Z"/>
    <path class="cls-2" d="M895.15,15.81h20.57v133.3h-20.57V15.81Z"/>
    <path class="cls-2" d="M926,15.81h20.57v10.28h4.95c1.52,0,2.76.48,3.71,1.43.95.95,1.43,2.19,1.43,3.71v15.42h5.14c1.52,0,2.76.48,3.71,1.43s1.43,2.19,1.43,3.71v4.95h5.14c1.52,0,2.76.48,3.71,1.43s1.43,2.19,1.43,3.71v15.42h5.14c1.52,0,2.76.48,3.71,1.43s1.43,2.19,1.43,3.71v5.14h5.14c1.52,0,2.76.48,3.71,1.43s1.43,2.19,1.43,3.71v15.42h10.09V15.81h20.57v92.17h.19v5.14c0,1.52-.48,2.76-1.43,3.71s-2.19,1.43-3.71,1.43h-5.14v10.28h4.95c1.52,0,2.76.48,3.71,1.43s1.43,2.19,1.43,3.71v15.42h-20.57v-10.28h-4.95c-1.52,0-2.76-.48-3.71-1.43s-1.43-2.19-1.43-3.71v-5.14h-5.14c-1.52,0-2.76-.48-3.71-1.43s-1.43-2.19-1.43-3.71v-4.95h-5.14c-1.52,0-2.76-.48-3.71-1.43-.95-.95-1.43-2.19-1.43-3.71v-15.42h-5.14c-1.52,0-2.76-.48-3.71-1.43-.95-.95-1.43-2.19-1.43-3.71v-5.14h-5.14c-1.52,0-2.76-.48-3.71-1.43s-1.43-2.19-1.43-3.71v-15.42h-10.09v82.07h-20.57V51.8c0-1.52.48-2.76,1.43-3.71.95-.95,2.19-1.43,3.71-1.43h5.14v-10.28h-5.14c-1.52,0-2.76-.48-3.71-1.43-.95-.95-1.43-2.19-1.43-3.71v-15.42Z"/>
    <path class="cls-2" d="M1049.2,26.1v-5.14c0-1.52.48-2.76,1.43-3.71.95-.95,2.19-1.43,3.71-1.43h76.93v20.57h-71.79v30.66h61.51v20.57h-61.51v40.94h71.79v20.57h-76.93c-1.52,0-2.76-.48-3.71-1.43s-1.43-2.19-1.43-3.71v-5.14h-5.14c-1.52,0-2.76-.48-3.71-1.43s-1.43-2.19-1.43-3.71v-40.94c0-1.52.48-2.76,1.43-3.71s2.19-1.43,3.71-1.43h5.14v-20.57h-5.14c-1.52,0-2.76-.48-3.71-1.43s-1.43-2.19-1.43-3.71v-30.66c0-1.52.48-2.76,1.43-3.71s2.19-1.43,3.71-1.43h5.14Z"/>
    <path class="cls-2" d="M1151.84,26.1v-5.14c0-1.52.48-2.76,1.43-3.71.95-.95,2.19-1.43,3.71-1.43h61.32c1.52,0,2.76.48,3.71,1.43.95.95,1.43,2.19,1.43,3.71v5.14h5.14c1.52,0,2.76.48,3.71,1.43.95.95,1.43,2.19,1.43,3.71v5.14h5.14c1.52,0,2.76.48,3.71,1.43s1.43,2.19,1.43,3.71v30.66c0,1.52-.48,2.76-1.43,3.71s-2.19,1.43-3.71,1.43h-5.14v5.14c0,1.52-.48,2.76-1.43,3.71-.95.95-2.19,1.43-3.71,1.43h-5.14v10.28h5.14c1.52,0,2.76.48,3.71,1.43.95.95,1.43,2.19,1.43,3.71v5.14h5.14c1.52,0,2.76.48,3.71,1.43s1.43,2.19,1.43,3.71v35.8h-20.57v-30.85h-5.14c-1.52,0-2.76-.48-3.71-1.43s-1.43-2.19-1.43-3.71v-4.95h-5.14c-1.52,0-2.76-.48-3.71-1.43s-1.43-2.19-1.43-3.71v-5.14h-40.75v51.22h-20.57v-46.08c0-1.52.48-2.76,1.43-3.71s2.19-1.43,3.71-1.43h5.14v-20.57h-5.14c-1.52,0-2.76-.48-3.71-1.43s-1.43-2.19-1.43-3.71V31.24c0-1.52.48-2.76,1.43-3.71s2.19-1.43,3.71-1.43h5.14ZM1162.12,36.38v40.94h51.03v-5.14c0-1.52.48-2.76,1.43-3.71s2.19-1.43,3.71-1.43h5.14v-20.38h-5.14c-1.52,0-2.76-.48-3.71-1.43s-1.43-2.19-1.43-3.71v-5.14h-51.03Z"/>
  </g>
</svg>