<?xml version="1.0" encoding="UTF-8" standalone="no"?>
<svg
   width="35px"
   height="45px">
  <rect
     class="main-mode-color"
     style="fill-opacity:1;stroke-width:2.13481;stroke-linecap:round;stroke-linejoin:round;stroke-miterlimit:33.2;paint-order:markers fill stroke"
     width="33"
     height="43"
     x="1"
     y="1" />
  <path
     class="secondary-mode-color"
     style="fill:none;fill-opacity:1;stroke-width:0.838;stroke-linecap:round;stroke-linejoin:round;stroke-miterlimit:33.2;stroke-dasharray:none;stroke-opacity:1;paint-order:markers fill stroke"
     d="m 10.419,18.086019 c 0.886198,-0.540365 1.772271,-1.080654 2.626112,-0.993948 0.853841,0.08671 1.675061,0.799872 2.571774,0.87525 0.896714,0.07538 1.869212,-0.48651 2.787911,-0.551158 0.918699,-0.06465 1.783143,0.367573 2.86359,0.367384 1.080449,-1.89e-4 2.377112,-0.43241 3.673523,-0.864547"
     id="path369" />
  <path
     class="secondary-mode-color"
     style="fill:none;fill-opacity:1;stroke-width:0.838;stroke-linecap:round;stroke-linejoin:round;stroke-miterlimit:33.2;stroke-dasharray:none;stroke-opacity:1;paint-order:markers fill stroke"
     d="m 10.419,23.086019 c 0.886198,-0.540365 1.772271,-1.080654 2.626112,-0.993948 0.853841,0.08671 1.675061,0.799873 2.571774,0.87525 0.896714,0.07538 1.869212,-0.48651 2.787911,-0.551158 0.918699,-0.06465 1.783143,0.367573 2.86359,0.367384 1.080449,-1.89e-4 2.377112,-0.43241 3.673523,-0.864547"
     id="path369-7" />
  <path
     class="secondary-mode-color"
     style="fill:none;fill-opacity:1;stroke-width:0.838;stroke-linecap:round;stroke-linejoin:round;stroke-miterlimit:33.2;stroke-dasharray:none;stroke-opacity:1;paint-order:markers fill stroke"
     d="m 10.419,28.086019 c 0.886198,-0.540365 1.772271,-1.080654 2.626112,-0.993948 0.853841,0.08671 1.675061,0.799873 2.571774,0.87525 0.896714,0.07538 1.869212,-0.48651 2.787911,-0.551158 0.918699,-0.06465 1.783143,0.367573 2.86359,0.367384 1.080449,-1.89e-4 2.377112,-0.43241 3.673523,-0.864547"/>
</svg>
