<?xml version="1.0" encoding="UTF-8" standalone="no"?>
<svg
   width="35px"
   height="45px"
   version="1.1"
   id="svg37302"
   sodipodi:docname="mode2.svg"
   inkscape:version="1.2.2 (b0a84865, 2022-12-01)"
   xmlns:inkscape="http://www.inkscape.org/namespaces/inkscape"
   xmlns:sodipodi="http://sodipodi.sourceforge.net/DTD/sodipodi-0.dtd"
   xmlns="http://www.w3.org/2000/svg"
   xmlns:svg="http://www.w3.org/2000/svg">
  <defs
     id="defs37306">
    <inkscape:path-effect
       effect="bspline"
       id="path-effect43525-1"
       is_visible="true"
       lpeversion="1"
       weight="33.333333"
       steps="2"
       helper_size="0"
       apply_no_weight="true"
       apply_with_weight="true"
       only_selected="false" />
    <inkscape:path-effect
       effect="bspline"
       id="path-effect43529-8"
       is_visible="true"
       lpeversion="1"
       weight="33.333333"
       steps="2"
       helper_size="0"
       apply_no_weight="true"
       apply_with_weight="true"
       only_selected="false" />
  </defs>
  <sodipodi:namedview
     id="namedview37304"
     pagecolor="#ffffff"
     bordercolor="#000000"
     borderopacity="0.25"
     inkscape:showpageshadow="2"
     inkscape:pageopacity="0.0"
     inkscape:pagecheckerboard="0"
     inkscape:deskcolor="#d1d1d1"
     showgrid="false"
     inkscape:zoom="5.2444444"
     inkscape:cx="13.442797"
     inkscape:cy="24.692797"
     inkscape:window-width="1468"
     inkscape:window-height="707"
     inkscape:window-x="0"
     inkscape:window-y="25"
     inkscape:window-maximized="0"
     inkscape:current-layer="svg37302" />
  <rect
     style="fill:#000000;fill-opacity:1;stroke-width:2.13481;stroke-linecap:round;stroke-linejoin:round;stroke-miterlimit:33.2;paint-order:markers fill stroke"
     id="rect37425-8"
     width="33"
     height="43"
     x="1"
     y="1" />
  <path
     style="fill:none;stroke:#fffafa;stroke-width:0.838;stroke-linecap:round;stroke-linejoin:round;stroke-miterlimit:33.2;stroke-dasharray:none;stroke-opacity:1;paint-order:markers fill stroke"
     d="m 10.018829,30.140165 c 1.399026,0.481577 4.162752,-0.895296 6.346599,-0.671196 2.183845,0.224099 3.787456,2.048419 5.629672,1.514617 1.842217,-0.533801 3.923499,-3.425177 4.077383,-5.180635 0.153883,-1.755458 -1.620326,-2.375038 -1.79127,-3.648732 -0.170943,-1.273693 1.262071,-3.201277 0.170551,-4.973918 -1.091519,-1.772641 -4.708175,-3.390435 -7.369897,-3.252858 -2.661722,0.137577 -4.367692,2.03074 -4.452731,3.975877 -0.08504,1.945137 1.450333,3.941563 1.040857,5.128785 -0.409475,1.187222 -2.763714,1.565853 -3.9240124,2.92585 -1.160297,1.359994 -1.126178,3.700631 0.2728484,4.18221 z"
     id="path40717-0" />
  <path
     style="fill:none;fill-opacity:1;stroke:#fffafa;stroke-width:0.8;stroke-linecap:round;stroke-linejoin:round;stroke-miterlimit:33.2;stroke-dasharray:none;stroke-opacity:1;paint-order:markers fill stroke"
     d="m 5.1110186,37.179963 c 1.4860142,-0.906107 2.9718088,-1.812079 4.4035607,-1.666687 1.4317517,0.145391 2.8088027,1.341251 4.3124437,1.46765 1.503642,0.126399 3.13436,-0.815794 4.674869,-0.924201 1.540508,-0.108406 2.990035,0.616357 4.80177,0.616041 1.811735,-3.17e-4 3.986025,-0.72508 6.159896,-1.449703"
     id="path43523-77"
     inkscape:path-effect="#path-effect43525-1"
     inkscape:original-d="m 5.1110186,37.179963 c 1.486567,-0.9052 2.972362,-1.811172 4.457384,-2.717918 1.3778784,1.19668 2.7549284,2.39254 4.1312344,3.587651 1.631556,-0.941457 3.262274,-1.88365 4.892251,-2.826633 1.450358,0.725564 2.899885,1.450328 4.348668,2.174333 2.17515,-0.724019 4.34944,-1.448783 6.523002,-2.174333" />
  <path
     style="fill:none;fill-opacity:1;stroke:#fffafa;stroke-width:0.8;stroke-linecap:round;stroke-linejoin:round;stroke-miterlimit:33.2;stroke-dasharray:none;stroke-opacity:1;paint-order:markers fill stroke"
     d="M 4.4168346,9.1276872 C 5.4291158,8.3738608 6.4413221,7.6200903 7.3891283,7.6526516 c 0.9478063,0.032561 1.8307772,0.8509244 2.8643777,0.9475663 1.033601,0.096642 2.218073,-0.5278981 3.133539,-0.5814877 0.915466,-0.05359 1.561543,0.4632713 2.455167,0.4737855 0.893625,0.010514 2.035027,-0.4848107 3.176232,-0.9800505"
     id="path43527-6"
     inkscape:path-effect="#path-effect43529-8"
     inkscape:original-d="m 4.4168346,9.1276872 c 1.012665,-0.753311 2.024871,-1.507082 3.036618,-2.261311 0.883465,0.818855 1.766436,1.637218 2.6489654,2.455138 1.184978,-0.624106 2.36945,-1.248646 3.553488,-1.873658 0.646561,0.51734 1.292637,1.034201 1.938266,1.550613 1.141906,-0.494885 2.283307,-0.99021 3.424272,-1.486004" />
</svg>
