<?xml version="1.0" encoding="UTF-8" standalone="no"?>
<svg
   width="35px"
   height="45px">
  <rect class="main-mode-color"
     style="fill-opacity:1;stroke-width:2.13481;stroke-linecap:round;stroke-linejoin:round;stroke-miterlimit:33.2;paint-order:markers fill stroke"
     width="33"
     height="43"
     x="1"
     y="1" />
  <path class="secondary-mode-color"
     style="fill:none;fill-opacity:1;stroke-width:0.8;stroke-linecap:round;stroke-linejoin:round;stroke-miterlimit:33.2;stroke-dasharray:none;stroke-opacity:1;paint-order:markers fill stroke"
     d="M 2.9000002,9.4758015 C 3.688025,8.8889751 4.4760027,8.3021839 5.2138431,8.3275305 c 0.7378404,0.025347 1.425204,0.6624157 2.2298328,0.73765 0.8046288,0.075234 1.7266997,-0.41095 2.439364,-0.4526678 0.7126641,-0.041718 1.2156201,0.360648 1.9112761,0.3688296 0.695657,0.00818 1.584206,-0.3774156 2.472594,-0.7629428"/>
  <path class="secondary-mode-color"
     style="fill:none;fill-opacity:1;stroke-width:0.8;stroke-linecap:round;stroke-linejoin:round;stroke-miterlimit:33.2;stroke-dasharray:none;stroke-opacity:1;paint-order:markers fill stroke"
     d="m 2.9103002,12.62765 c 0.7880248,-0.586826 1.5760029,-1.173618 2.3138397,-1.148273 0.7378367,0.02534 1.4252036,0.662421 2.2298337,0.737652 0.80463,0.07523 1.7267017,-0.410952 2.4393659,-0.452669 0.7126645,-0.04172 1.2156145,0.360644 1.9112735,0.368828 0.69566,0.0082 1.584209,-0.377413 2.472597,-0.762941"/>
  <path class="secondary-mode-color"
     style="fill:none;fill-opacity:1;stroke-width:0.8;stroke-linecap:round;stroke-linejoin:round;stroke-miterlimit:33.2;stroke-dasharray:none;stroke-opacity:1;paint-order:markers fill stroke"
     d="m 2.9103102,15.91382 c 0.7880237,-0.586828 1.5760006,-1.173621 2.3138373,-1.148273 0.7378367,0.02535 1.4252048,0.662422 2.2298312,0.737655 0.8046264,0.07523 1.7267065,-0.410955 2.4393708,-0.452672 0.7126645,-0.04172 1.2156145,0.360644 1.9112735,0.368828 0.695659,0.0082 1.584208,-0.377414 2.472597,-0.762941"/>
  <path class="secondary-mode-color secondary-mode-color-fill secondary-mode-color-fill"
     style="fill-opacity:1;stroke-width:1.08417;stroke-linecap:round;stroke-linejoin:round;stroke-miterlimit:33.2;stroke-dasharray:none;stroke-opacity:1;paint-order:markers fill stroke"
     d="M 29.97321,41.518208 C 29.58847,39.318003 28.1539,37.120944 28.1539,37.120944 l 1.81931,-3.078097 -8.93119,-5.716446 9.09658,-3.297965 -2.81165,-4.837001 -3.96942,-3.737673 5.12714,-1.31918 1.65393,-3.297953 -1.32313,-5.2767235 -3.47323,-3.517819 h 6.61567 V 41.95793 Z"/>
</svg>
