<?xml version="1.0" encoding="UTF-8" standalone="no"?>
<svg
   width="35px"
   height="45px">
   <rect class="main-mode-color"
     style="fill-opacity:1;stroke-width:2.13481;stroke-linecap:round;stroke-linejoin:round;stroke-miterlimit:33.2;paint-order:markers fill stroke"
     id="rect37425-8"
     width="33"
     height="43"
     x="1"
     y="1" />
   <path class="secondary-mode-color"
     style="fill:none;stroke-width:0.838;stroke-linecap:round;stroke-linejoin:round;stroke-miterlimit:33.2;stroke-dasharray:none;stroke-opacity:1;paint-order:markers fill stroke"
     d="m 10.018829,30.140165 c 1.399026,0.481577 4.162752,-0.895296 6.346599,-0.671196 2.183845,0.224099 3.787456,2.048419 5.629672,1.514617 1.842217,-0.533801 3.923499,-3.425177 4.077383,-5.180635 0.153883,-1.755458 -1.620326,-2.375038 -1.79127,-3.648732 -0.170943,-1.273693 1.262071,-3.201277 0.170551,-4.973918 -1.091519,-1.772641 -4.708175,-3.390435 -7.369897,-3.252858 -2.661722,0.137577 -4.367692,2.03074 -4.452731,3.975877 -0.08504,1.945137 1.450333,3.941563 1.040857,5.128785 -0.409475,1.187222 -2.763714,1.565853 -3.9240124,2.92585 -1.160297,1.359994 -1.126178,3.700631 0.2728484,4.18221 z"/>
   <path class="secondary-mode-color"
     style="fill:none;fill-opacity:1;stroke-width:0.8;stroke-linecap:round;stroke-linejoin:round;stroke-miterlimit:33.2;stroke-dasharray:none;stroke-opacity:1;paint-order:markers fill stroke"
     d="m 5.1110186,37.179963 c 1.4860142,-0.906107 2.9718088,-1.812079 4.4035607,-1.666687 1.4317517,0.145391 2.8088027,1.341251 4.3124437,1.46765 1.503642,0.126399 3.13436,-0.815794 4.674869,-0.924201 1.540508,-0.108406 2.990035,0.616357 4.80177,0.616041 1.811735,-3.17e-4 3.986025,-0.72508 6.159896,-1.449703"/>
   <path class="secondary-mode-color"
     style="fill:none;fill-opacity:1;stroke-width:0.8;stroke-linecap:round;stroke-linejoin:round;stroke-miterlimit:33.2;stroke-dasharray:none;stroke-opacity:1;paint-order:markers fill stroke"
     d="M 4.4168346,9.1276872 C 5.4291158,8.3738608 6.4413221,7.6200903 7.3891283,7.6526516 c 0.9478063,0.032561 1.8307772,0.8509244 2.8643777,0.9475663 1.033601,0.096642 2.218073,-0.5278981 3.133539,-0.5814877 0.915466,-0.05359 1.561543,0.4632713 2.455167,0.4737855 0.893625,0.010514 2.035027,-0.4848107 3.176232,-0.9800505"/>
</svg>
