<?xml version="1.0" encoding="UTF-8" standalone="no"?>
<svg
   width="35px"
   height="45px">
  <rect
     class="main-mode-color"
     style="fill-opacity:1;stroke-width:2.13481;stroke-linecap:round;stroke-linejoin:round;stroke-miterlimit:33.2;paint-order:markers fill stroke"
     width="33"
     height="43"
     x="1"
     y="1"
     id="rect3718" />
  <path
     class="secondary-mode-color"
     style="fill:none;fill-opacity:1;stroke-width:0.8;stroke-linecap:round;stroke-linejoin:round;stroke-miterlimit:33.2;stroke-dasharray:none;stroke-opacity:1;paint-order:markers fill stroke"
     d="m 10.720339,27.762985 c 1.012278,-0.753824 2.024487,-1.507596 2.972293,-1.475036 0.947805,0.03256 1.830775,0.850923 2.864376,0.947566 1.033602,0.09664 2.218072,-0.527897 3.133539,-0.581487 0.915466,-0.05359 1.561544,0.463275 2.455167,0.473786 0.893624,0.01051 2.035024,-0.484813 3.176225,-0.980051"
     id="path3720" />
  <path
     class="secondary-mode-color"
     style="fill:none;fill-opacity:1;stroke-width:0.8;stroke-linecap:round;stroke-linejoin:round;stroke-miterlimit:33.2;stroke-dasharray:none;stroke-opacity:1;paint-order:markers fill stroke;stroke:#000000"
     d="m 50.01323,13.315991 c 1.012278,-0.753824 2.024487,-1.507596 2.972293,-1.475036 0.947805,0.03256 1.830775,0.850924 2.864376,0.947566 1.033602,0.09664 2.218072,-0.527897 3.133539,-0.581486 0.915466,-0.05359 1.561544,0.463274 2.455167,0.473785 0.893624,0.01051 2.035024,-0.484813 3.176225,-0.980051"
     id="path3722" />
  <path
     class="secondary-mode-color"
     style="fill:none;fill-opacity:1;stroke-width:0.8;stroke-linecap:round;stroke-linejoin:round;stroke-miterlimit:33.2;stroke-dasharray:none;stroke-opacity:1;paint-order:markers fill stroke;stroke:#000000"
     d="m 50.01324,17.537306 c 1.012278,-0.753823 2.024488,-1.507595 2.972293,-1.475035 0.947806,0.03256 1.830775,0.850923 2.864376,0.947565 1.033601,0.09664 2.218072,-0.527896 3.133539,-0.581486 0.915466,-0.05359 1.561544,0.463274 2.455167,0.473785 0.893623,0.01051 2.035023,-0.484813 3.176225,-0.980051"
     id="path3724" />
  <path
     class="secondary-mode-color secondary-mode-color-fill"
     style="fill-opacity:1;stroke-width:0.942875;stroke-linecap:round;stroke-linejoin:round;stroke-miterlimit:33.2;stroke-dasharray:none;stroke-opacity:1;paint-order:markers fill stroke"
     d="m 3.2997581,40.018158 c 1.642818,-0.38972 3.28329,-1.842869 3.28329,-1.842869 l 2.298307,1.842869 4.2682759,-9.04681 2.462476,9.214344 3.611613,-2.848071 2.7908,-4.020803 0.98498,5.193539 2.46247,1.675335 3.93995,-1.340268 2.62663,-3.518205 V 42.02856 H 2.9714291 Z"
     id="path3726" />
  <path
     class="secondary-mode-color"
     style="fill:none;stroke-width:0.838;stroke-linecap:round;stroke-linejoin:round;stroke-miterlimit:33.2;stroke-dasharray:none;stroke-opacity:1;paint-order:markers fill stroke"
     d="m 10.518759,21.640095 c 1.399026,0.481577 4.162752,-0.895296 6.346599,-0.671196 2.183845,0.224099 3.787456,2.048419 5.629672,1.514617 1.842217,-0.533801 3.923499,-3.425177 4.077383,-5.180635 0.153883,-1.755458 -1.620326,-2.375038 -1.79127,-3.648732 C 24.6102,12.380456 26.043214,10.452872 24.951694,8.680231 23.860175,6.9075902 20.243519,5.2897962 17.581797,5.4273732 14.920075,5.5649502 13.214105,7.458113 13.129066,9.40325 c -0.08504,1.945137 1.450333,3.941563 1.040857,5.128785 -0.409475,1.187222 -2.763714,1.565853 -3.924012,2.92585 -1.160297,1.359994 -1.126178,3.700631 0.272848,4.18221 z"
     id="path5304" />
</svg>
