<?xml version="1.0" encoding="UTF-8" standalone="no"?>
<svg
   width="63.390968px"
   height="27.700636px"
   viewBox="0 0 63.390968 27.700636">
     <g transform="translate(125.79647,-154.41796)"><path
       id="rect4-1"
       style="fill:#000105;fill-opacity:1;stroke-width:8.37055;stroke-linejoin:bevel"
       d="m -125.79646,154.41796 v 4.22869 h 1.91048 c 4.36786,0 5.50267,-0.0559 5.38159,-0.26562 -0.0844,-0.14614 -0.72198,-1.15045 -1.41646,-2.2319 l -1.11156,-1.73117 z m 24.60264,0.003 1.49758,2.23242 1.497066,2.2319 h 5.535063 c 4.367842,0 5.502149,-0.0559 5.381067,-0.26561 -0.08439,-0.14614 -0.721457,-1.15098 -1.415935,-2.23243 l -1.262972,-1.96628 h -5.615678 z m -11.22981,0.0129 c -4.45496,-0.0103 -5.56361,0.0421 -5.39915,0.25322 0.11382,0.14615 1.28085,1.58086 2.59364,3.18843 l 2.38693,2.92282 h 5.5206 c 4.60599,0 5.49241,-0.0483 5.35057,-0.29042 -0.0935,-0.1596 -1.2223,-1.58852 -2.50837,-3.17551 l -2.33836,-2.88562 z m 43.34826,0.0367 1.497066,2.23191 1.497583,2.2319 h 3.675228 v -4.46381 h -1.054199 z m -11.229806,0.0129 c -4.45497,-0.0103 -5.563613,0.0416 -5.399153,0.2527 0.113818,0.14615 1.280852,1.58086 2.59364,3.18844 l 2.386934,2.92282 h 5.520593 c 4.606002,0 5.492418,-0.0478 5.350578,-0.28991 -0.09349,-0.1596 -1.222306,-1.58852 -2.508374,-3.17552 l -2.338358,-2.88561 z m -37.871594,7.37888 c -1.04026,-4e-5 -2.08969,0.009 -2.89698,0.0269 -1.61457,0.0362 -0.35273,0.066 2.80397,0.0661 3.15668,2e-4 4.47735,-0.0293 2.93522,-0.0656 -0.77107,-0.0182 -1.80193,-0.0274 -2.84221,-0.0274 z m -7.22384,0.18604 1.49758,2.2319 1.49758,2.23191 h 5.52938 5.52989 l -0.25528,-0.47801 c -0.14029,-0.26306 -0.77977,-1.26737 -1.4211,-2.23191 l -1.16582,-1.75389 h -5.60638 z m 38.445194,0.0522 c -1.040274,-4e-5 -2.089696,0.009 -2.896981,0.0274 -1.614563,0.0362 -0.352731,0.0655 2.803964,0.0656 3.156691,2e-4 4.477863,-0.0293 2.935738,-0.0656 -0.771066,-0.0181 -1.802447,-0.0273 -2.842721,-0.0274 z m -7.223848,0.18604 1.497583,2.23242 1.497583,2.2319 h 5.529895 5.529378 l -0.255282,-0.47852 c -0.14028,-0.26306 -0.779774,-1.26737 -1.421101,-2.23191 l -1.165821,-1.75389 h -5.605859 z m -14.029116,2.97552 0.96118,1.43299 c 0.52858,0.78793 0.96118,1.5781 0.96118,1.75597 0,0.17786 -0.4326,0.96804 -0.96118,1.75596 l -0.96118,1.43247 h 5.60896 5.608441 l 1.069702,-1.62005 1.069702,-1.61954 -0.987536,-1.56787 -0.987537,-1.56786 -5.690612,-5.2e-4 z m 32.118451,0.0496 0.961181,1.43247 c 0.52858,0.78793 0.961182,1.57758 0.961182,1.75545 0,0.17786 -0.432602,0.96857 -0.961182,1.75648 l -0.961181,1.43248 h 5.60896 5.608443 l 1.069702,-1.61954 1.069702,-1.61954 -0.987536,-1.56787 -0.987537,-1.56786 -5.691125,-10e-4 z m -40.840921,4.38992 v 5.1e-4 l -5.59035,0.002 -1.42834,2.23036 -1.42782,2.23035 h 5.58416 5.58415 l 1.26452,-1.94975 c 0.69539,-1.07217 1.34104,-2.07645 1.43454,-2.2319 0.13971,-0.23231 -0.8261,-0.28212 -5.42086,-0.28112 z m 31.221353,0.23874 v 5.2e-4 l -5.590357,0.002 -1.427819,2.23035 -1.428337,2.22984 h 5.584155 5.584672 l 1.264006,-1.94923 c 0.695389,-1.07217 1.341038,-2.07698 1.434538,-2.23243 0.139713,-0.23231 -0.826106,-0.2816 -5.420858,-0.2806 z m -27.504263,5.73815 -2.70009,3.29489 -2.57763,3.14503 h 11.17813 l 2.57711,-3.14503 2.70061,-3.29489 h -5.58881 z m 32.118452,0.0486 -2.700611,3.29489 -2.537313,3.09645 h 11.178129 l 2.537313,-3.09645 2.700611,-3.29489 h -5.589323 z m -44.701152,1.83865 v 4.46381 h 4.4509 l 1.37821,-2.13062 c 0.75808,-1.17199 1.37872,-2.17683 1.37872,-2.23243 0,-0.0556 -2.48024,-0.10076 -5.51129,-0.10076 z m 27.407117,0.23822 -1.397331,2.13321 c -0.751276,1.1466 -1.338716,2.08642 -1.366326,2.18126 h 11.125937 l 1.281576,-1.98127 c 0.758103,-1.17199 1.37821,-2.17631 1.37821,-2.23191 0,-0.0556 -2.479733,-0.10129 -5.510775,-0.10129 z m 32.118453,0.0491 -1.397331,2.13268 c -0.734327,1.12074 -1.28253,2.00106 -1.335319,2.13269 h 6.598047 v -4.26537 z"/></g>
</svg>
