<?xml version="1.0" encoding="UTF-8" standalone="no"?>
<svg
   width="56.332478px"
   height="27.700626px"
   viewBox="0 0 56.332478 27.700626">
   <g transform="translate(114.15995,-111.76941)">
    <path
       id="rect4-1-8"
       style="fill:#000105;fill-opacity:1;stroke-width:7.89077;stroke-linejoin:bevel"
       d="m -114.15996,111.76941 v 3.21427 l 9.85367,10.35286 -9.85367,10.35285 v 3.78065 h 0.12713 l 13.51545,-14.19965 -1.341,-1.27641 -11.63547,-12.22457 z m 3.66386,0 12.892239,13.54542 -13.472559,14.15521 h 3.72535 l 13.536125,-14.22135 -1.341004,-1.27641 -11.614791,-12.20287 z m 7.51944,0 12.970784,13.62759 -13.394014,14.07304 h 3.725354 l 13.457576,-14.13919 -1.341003,-1.27641 -11.693343,-12.28503 z m 6.811987,0 12.911357,13.56558 -13.453443,14.13505 h 3.725354 l 13.517005,-14.2012 -1.341004,-1.27641 -11.633915,-12.22302 z m 6.959782,0 13.080855,13.74386 -13.283427,13.95677 h 3.725354 l 13.346989,-14.02292 -1.341003,-1.2764 -11.803414,-12.40131 z m 6.723104,0 13.060185,13.72215 -13.304098,13.97848 h 3.724837 l 13.368177,-14.04462 -1.341004,-1.27641 -11.782743,-12.3796 z m 7.519438,0 13.138732,13.80432 -13.225549,13.89631 h 3.724837 l 13.289628,-13.96246 -1.341003,-1.2764 -11.861291,-12.46177 z m 6.811987,0 10.322884,10.84636 v -3.91449 l -6.59753,-6.93187 z m 6.255432,0 4.067452,4.27364 v -3.91449 l -0.342098,-0.35915 z m -52.26503,6.56083 v 3.91449 l 2.96933,3.11971 -2.96933,3.11971 v 3.91449 l 6.75825,-7.10034 -1.34101,-1.27641 z m 0,7.0249 v 0.0114 l 0.006,-0.006 z m 56.332482,3.05253 -10.528556,11.06237 h 3.725354 l 6.803202,-7.14788 z m 0,6.34948 -4.485514,4.71289 h 3.725354 l 0.76016,-0.7984 z"/>
  </g>
</svg>
