<?xml version="1.0" encoding="UTF-8" standalone="no"?>
<svg
   width="45px"
   height="45px"
   xmlns="http://www.w3.org/2000/svg">
  <path
     id="rect467-5-7"
     style="fill:#000000;fill-opacity:1;stroke:none;stroke-width:9.49973;stroke-linecap:round;stroke-linejoin:round;stroke-miterlimit:33.2;stroke-dasharray:none;paint-order:markers fill stroke"
     d="m 2.5,7.5 v 30 h 4 v -11 a 8,9.5 0 0 0 1.2519531,-0.117188 8,9.5 0 0 0 1.2207031,-0.347656 8,9.5 0 0 0 1.1601568,-0.570312 8,9.5 0 0 0 1.070313,-0.779297 8,9.5 0 0 0 0.953125,-0.96875 8,9.5 0 0 0 0.816406,-1.132813 8,9.5 0 0 0 0.65625,-1.271484 8,9.5 0 0 0 0.480469,-1.376953 8,9.5 0 0 0 0.292969,-1.449219 A 8,9.5 0 0 0 14.500005,17 8,9.5 0 0 0 14.402345,15.513672 8,9.5 0 0 0 14.109376,14.064453 8,9.5 0 0 0 13.628907,12.6875 8,9.5 0 0 0 12.972657,11.416016 8,9.5 0 0 0 12.156251,10.283203 8,9.5 0 0 0 11.203126,9.3144529 8,9.5 0 0 0 10.132813,8.5351562 8,9.5 0 0 0 8.9726562,7.9648438 8,9.5 0 0 0 7.7519531,7.6171875 8,9.5 0 0 0 6.5,7.5 Z m 13.300781,0 v 30 h 4 v -11 a 8,9.5 0 0 0 0.429688,-0.01953 l 4.00586,11.005858 h 4.255859 L 23.984376,25.097656 a 8,9.5 0 0 0 0.519531,-0.412109 8,9.5 0 0 0 0.953125,-0.96875 8,9.5 0 0 0 0.816407,-1.132813 8,9.5 0 0 0 0.65625,-1.271484 8,9.5 0 0 0 0.480468,-1.376953 8,9.5 0 0 0 0.292969,-1.449219 A 8,9.5 0 0 0 27.800786,17 8,9.5 0 0 0 27.703126,15.513672 8,9.5 0 0 0 27.410157,14.064453 8,9.5 0 0 0 26.929688,12.6875 8,9.5 0 0 0 26.273438,11.416016 8,9.5 0 0 0 25.457032,10.283203 8,9.5 0 0 0 24.503907,9.3144529 8,9.5 0 0 0 23.433595,8.5351562 8,9.5 0 0 0 22.273438,7.9648438 8,9.5 0 0 0 21.052734,7.6171875 8,9.5 0 0 0 19.800782,7.5 H 19.500001 Z M 35.75,7.5 a 6.75,15 0 0 0 -6.749999,15 6.75,15 0 0 0 6.749999,15 6.75,15 0 0 0 6.75,-15 6.75,15 0 0 0 -6.75,-15 z M 6.5,11.511719 a 4.6315787,5.4999999 0 0 1 0.5996094,0.05664 4.6315787,5.4999999 0 0 1 0.7070312,0.201171 4.6315787,5.4999999 0 0 1 0.6699219,0.330079 4.6315787,5.4999999 0 0 1 0.6210937,0.451171 4.6315787,5.4999999 0 0 1 0.5507813,0.560547 4.6315787,5.4999999 0 0 1 0.4726565,0.65625 4.6315787,5.4999999 0 0 1 0.38086,0.736328 4.6315787,5.4999999 0 0 1 0.277343,0.796875 4.6315787,5.4999999 0 0 1 0.169922,0.837891 4.6315787,5.4999999 0 0 1 0.05664,0.861328 4.6315787,5.4999999 0 0 1 -0.05664,0.861328 4.6315787,5.4999999 0 0 1 -0.169922,0.837891 4.6315787,5.4999999 0 0 1 -0.277343,0.796875 4.6315787,5.4999999 0 0 1 -0.38086,0.736328 4.6315787,5.4999999 0 0 1 -0.4726565,0.65625 A 4.6315787,5.4999999 0 0 1 9.0976562,21.449218 4.6315787,5.4999999 0 0 1 8.4765625,21.90039 4.6315787,5.4999999 0 0 1 7.8066406,22.230468 4.6315787,5.4999999 0 0 1 7.0996094,22.43164 4.6315787,5.4999999 0 0 1 6.5,22.48828 Z m 13.300782,0 a 4.6315787,5.4999999 0 0 1 0.597657,0.05664 4.6315787,5.4999999 0 0 1 0.707031,0.201171 4.6315787,5.4999999 0 0 1 0.671875,0.330079 4.6315787,5.4999999 0 0 1 0.61914,0.451171 4.6315787,5.4999999 0 0 1 0.552735,0.560547 4.6315787,5.4999999 0 0 1 0.472656,0.65625 4.6315787,5.4999999 0 0 1 0.378906,0.736328 4.6315787,5.4999999 0 0 1 0.279297,0.796875 4.6315787,5.4999999 0 0 1 0.169922,0.837891 4.6315787,5.4999999 0 0 1 0.05664,0.861328 4.6315787,5.4999999 0 0 1 -0.05664,0.861328 4.6315787,5.4999999 0 0 1 -0.169922,0.837891 4.6315787,5.4999999 0 0 1 -0.279297,0.796875 4.6315787,5.4999999 0 0 1 -0.378906,0.736328 4.6315787,5.4999999 0 0 1 -0.472656,0.65625 4.6315787,5.4999999 0 0 1 -0.552735,0.560547 4.6315787,5.4999999 0 0 1 -0.61914,0.451172 4.6315787,5.4999999 0 0 1 -0.671875,0.330078 4.6315787,5.4999999 0 0 1 -0.707031,0.201172 4.6315787,5.4999999 0 0 1 -0.597657,0.05664 z M 35.75,14.5 a 3.5,8 0 0 1 3.5,8 3.5,8 0 0 1 -3.5,8 3.5,8 0 0 1 -3.5,-8 3.5,8 0 0 1 3.5,-8 z" />
</svg>
