<?xml version="1.0" encoding="UTF-8" standalone="no"?>
<svg
   width="45px"
   height="45px">
  <path
     id="path2091-2-7"
     style="fill-opacity:1;stroke-width:0.838;stroke-linecap:round;stroke-linejoin:round;stroke-miterlimit:33.2;paint-order:markers fill stroke"
     d="M 22.5 2 A 20.5 20.5 0 0 0 19.582031 2.2089844 A 20.5 20.5 0 0 0 16.724609 2.8300781 A 20.5 20.5 0 0 0 13.984375 3.8535156 A 20.5 20.5 0 0 0 11.416016 5.2539062 A 20.5 20.5 0 0 0 9.0761719 7.0078125 A 20.5 20.5 0 0 0 7.0078125 9.0761719 A 20.5 20.5 0 0 0 5.2539062 11.416016 A 20.5 20.5 0 0 0 3.8535156 13.984375 A 20.5 20.5 0 0 0 2.8300781 16.724609 A 20.5 20.5 0 0 0 2.2089844 19.582031 A 20.5 20.5 0 0 0 2 22.5 L 6 22.5 A 16.5 16.5 0 0 1 6.203125 19.917969 A 16.5 16.5 0 0 1 6.8066406 17.400391 A 16.5 16.5 0 0 1 7.7988281 15.009766 A 16.5 16.5 0 0 1 9.1503906 12.800781 A 16.5 16.5 0 0 1 10.832031 10.832031 A 16.5 16.5 0 0 1 12.800781 9.1503906 A 16.5 16.5 0 0 1 15.009766 7.7988281 A 16.5 16.5 0 0 1 17.400391 6.8066406 A 16.5 16.5 0 0 1 19.917969 6.203125 A 16.5 16.5 0 0 1 22.5 6 A 16.5 16.5 0 0 1 25.082031 6.203125 A 16.5 16.5 0 0 1 27.599609 6.8066406 A 16.5 16.5 0 0 1 29.990234 7.7988281 A 16.5 16.5 0 0 1 32.199219 9.1503906 A 16.5 16.5 0 0 1 34.167969 10.832031 A 16.5 16.5 0 0 1 34.488281 11.199219 L 31.060547 13.087891 L 41.333984 19.294922 L 41.572266 7.2949219 L 38.097656 9.2089844 A 20.5 20.5 0 0 0 37.992188 9.0761719 A 20.5 20.5 0 0 0 35.923828 7.0078125 A 20.5 20.5 0 0 0 33.583984 5.2539062 A 20.5 20.5 0 0 0 31.015625 3.8535156 A 20.5 20.5 0 0 0 28.275391 2.8300781 A 20.5 20.5 0 0 0 25.417969 2.2089844 A 20.5 20.5 0 0 0 22.5 2 z " />
  <path
     id="path2091-2-7-8"
     style="fill-opacity:1;stroke-width:0.838;stroke-linecap:round;stroke-linejoin:round;stroke-miterlimit:33.2;paint-order:markers fill stroke"
     d="M 37.572266 22.5 A 16.5 16.5 0 0 1 37.369141 25.082031 A 16.5 16.5 0 0 1 36.765625 27.599609 A 16.5 16.5 0 0 1 35.773438 29.990234 A 16.5 16.5 0 0 1 34.421875 32.199219 A 16.5 16.5 0 0 1 32.740234 34.167969 A 16.5 16.5 0 0 1 30.771484 35.849609 A 16.5 16.5 0 0 1 28.5625 37.201172 A 16.5 16.5 0 0 1 26.171875 38.193359 A 16.5 16.5 0 0 1 23.654297 38.796875 A 16.5 16.5 0 0 1 21.072266 39 A 16.5 16.5 0 0 1 18.490234 38.796875 A 16.5 16.5 0 0 1 15.972656 38.193359 A 16.5 16.5 0 0 1 13.582031 37.201172 A 16.5 16.5 0 0 1 11.373047 35.849609 A 16.5 16.5 0 0 1 9.4042969 34.167969 A 16.5 16.5 0 0 1 9.0839844 33.800781 L 12.511719 31.912109 L 2.2402344 25.705078 L 2 37.705078 L 5.4746094 35.791016 A 20.5 20.5 0 0 0 5.5800781 35.923828 A 20.5 20.5 0 0 0 7.6484375 37.992188 A 20.5 20.5 0 0 0 9.9882812 39.746094 A 20.5 20.5 0 0 0 12.556641 41.146484 A 20.5 20.5 0 0 0 15.296875 42.169922 A 20.5 20.5 0 0 0 18.154297 42.791016 A 20.5 20.5 0 0 0 21.072266 43 A 20.5 20.5 0 0 0 23.990234 42.791016 A 20.5 20.5 0 0 0 26.847656 42.169922 A 20.5 20.5 0 0 0 29.587891 41.146484 A 20.5 20.5 0 0 0 32.15625 39.746094 A 20.5 20.5 0 0 0 34.496094 37.992188 A 20.5 20.5 0 0 0 36.564453 35.923828 A 20.5 20.5 0 0 0 38.318359 33.583984 A 20.5 20.5 0 0 0 39.71875 31.015625 A 20.5 20.5 0 0 0 40.742188 28.275391 A 20.5 20.5 0 0 0 41.363281 25.417969 A 20.5 20.5 0 0 0 41.572266 22.5 L 37.572266 22.5 z " />
</svg>
