<?xml version="1.0" encoding="UTF-8"?>
<svg id="Livello_1" data-name="Livello 1" xmlns="http://www.w3.org/2000/svg" viewBox="0 0 16.3733251239 16.3733119928">
  <defs>
    <style>
      .cls-1 {
        fill: #d2d627;
      }

      .cls-2 {
        fill: #5c5aa0;
      }
    </style>
  </defs>
  <rect class="cls-1" x=".0000109425" y="-.0000021885" width="16.3733032388" height="16.3733163699" transform="translate(16.3733229354 -.0000021885) rotate(90.0000306333)"/>
  <path class="cls-2" d="M3.7118546388,7.7374063373c.0000001074-.1330711881.0415200995-.2412304198.1247675756-.3242700955.0830398768-.0832472753.1911992622-.1247670595.324270557-.1247669521l1.3475285095.0000010876.0000003626-.4492450094c.0000001074-.1330711881.0415200995-.2412304198.1247675756-.3242700955.0830398767-.0832472753.1911992622-.1247670595.324270557-.1247669521l1.3309205476.0000010742.0000003626-.4492450094c.0000001074-.1330711881.0415200995-.2412304198.1247675756-.3242700955.0830398767-.0832472753.1911992622-.1247670595.324270557-.1247669521l1.3475285095.0000010876.0000003492-.4326370608c.0000001074-.1330711881.0415200995-.2412304198.1247675756-.3242700955.0830398767-.0832472753.1911992622-.1247670595.324270557-.1247669521l1.3475285095.0000010876.0000003626-.4492450094c.0000001074-.1330711881.0415200995-.2412304198.1247675756-.3242700955.0830398767-.0832472753.1911992622-.1247670595.324270557-.1247669521l1.3309205476.0000010742-.0000014501,1.7965648389-1.7799583178-.0000014367-.000000349.4324294614c-.0000001074.1330711881-.0415200995.2412304198-.1247675757.3244776949-.0832474761.0830396758-.1914068617.1247670593-.3244781565.1247669519l-1.34732091-.0000010875-.0000003624.44903741c-.0000001074.1330711881-.041727699.2412304196-.1247675757.3244776949-.0832474761.0830396758-.1914068617.1247670593-.3244781565.1247669519l-1.34732091-.0000010875-.0000014501,1.7965648389,1.34732091.0000010875c.1330712948.0000001074.2412306132.0415200662.3244779551.1247674757.0830397425.08303981.1247671595.1911991089.1247670521.3242702969l-.0000003626.4492450094,1.34732091.0000010875c.1330712948.0000001074.2412306132.0415200662.3244779551.1247674757s.1247671595.1911991089.1247670521.3242702969l-.0000003492.4326370608,1.7799583178.0000014367-.0000014501,1.7965648389-1.3309205476-.0000010742c-.1330712948-.0000001074-.2412306132-.0415200662-.3242703556-.1247674755-.0832473419-.0832474095-.1247671594-.1914067082-.1247670519-.3244778963l.0000003624-.44903741-1.3475285095-.0000010876c-.1330712948-.0000001074-.2412306132-.0415200662-.3242703556-.1247674755-.0832473419-.0832474095-.1247671594-.1914067082-.1247670519-.3244778963l.000000349-.4324294614-1.3475285095-.0000010876c-.1330712948-.0000001074-.2412306132-.0415200662-.3242703556-.1247674755-.0832473419-.0832474095-.1247671594-.1914067082-.124767052-.3244778963l.0000003624-.44903741-1.3309205476-.0000010742c-.1330712948-.0000001074-.2412306132-.0415200662-.3242703556-.1247674755-.0832473419-.0832474095-.1247671594-.1914067082-.124767052-.3244778963l.0000003624-.44903741-1.3475285095-.0000010876c-.1330712948-.0000001074-.2412306132-.0415200662-.3242703556-.1247674755-.0832473419-.0832474095-.1247671594-.1914067082-.124767052-.3244778963l.000000725-.8982824194Z"/>
</svg>