<?xml version="1.0" encoding="UTF-8"?>
<svg id="Livello_1" data-name="Livello 1" xmlns="http://www.w3.org/2000/svg" viewBox="0 0 49.13 77.99" width="49.13px" height="77.99px">
  <defs>
    <style>
      .stories-fill-none {
        fill: none;
        stroke-miterlimit: 10;
        stroke-width: 2px;
      }
    </style>
  </defs>
  <g>
    <path class="fill-primary" d="M7.44,42.52h-.67v-1.37h1.35v.68h.68v.68h2.05v-.68h-.68v-.67h-1.37v-.68h-1.36v-.68h-.68v-1.37h.68v-.68h.68v-.67h2.73v.67h.68v.68h.67v1.35h-1.35v-.68h-.68v-.68h-2.05v.7h.68v.68h1.37v.68h1.36v.68h.67v1.35h-.67v.68h-.68v.68h-2.73v-.68h-.68v-.68Z"/>
    <path class="fill-primary" d="M14.25,39.12h-1.36v-1.36h.68v-.67h.68v-1.37h1.37v1.37h-.68v.67h2.73v1.36h-2.05v3.4h.68v-.68h1.36v1.36h-.68v.68h-2.05v-.68h-.68v-4.08Z"/>
    <path class="fill-primary" d="M19.02,42.52h-.68v-4.08h.68v-.68h.68v-.67h2.73v.67h.68v.68h.68v4.08h-.68v.68h-.68v.68h-2.73v-.68h-.68v-.68ZM19.71,41.84h.68v.68h1.36v-.68h.68v-2.73h-.68v-.68h-1.36v.68h-.68v2.73Z"/>
    <path class="fill-primary" d="M27.89,37.76h.67v1.35h-1.34v-.68h-.7v.68h-.68v4.78h-1.36v-6.8h1.36v.67h.68v-.67h1.37v.67Z"/>
    <path class="fill-primary" d="M29.25,35.04h1.36v1.36h-1.36v-1.36ZM29.25,37.07h1.36v6.81h-1.36v-6.81Z"/>
    <path class="fill-primary" d="M31.97,42.52h-.68v-4.08h.68v-.68h.67v-.67h2.73v.67h.68v.68h.68v2.73h-4.08v.67h.67v.68h1.36v-.68h2.05v.68h-.68v.68h-.68v.68h-2.73v-.68h-.67v-.68ZM35.37,39.8v-.7h-.68v-.68h-1.36v.68h-.67v.7h2.72Z"/>
    <path class="fill-primary" d="M38.1,42.52h-.67v-1.37h1.35v.68h.68v.68h2.05v-.68h-.68v-.67h-1.37v-.68h-1.36v-.68h-.68v-1.37h.68v-.68h.68v-.67h2.73v.67h.68v.68h.67v1.35h-1.35v-.68h-.68v-.68h-2.05v.7h.68v.68h1.37v.68h1.36v.68h.67v1.35h-.67v.68h-.68v.68h-2.73v-.68h-.68v-.68Z"/>
  </g>
  <rect class="stories-fill-none" x="1" y="1" width="47.13" height="75.99"/>
</svg>