<?xml version="1.0" encoding="UTF-8"?>
<svg id="Livello_1" data-name="Livello 1" xmlns="http://www.w3.org/2000/svg" viewBox="0 0 45 45" width="45px" height="45px">
  <defs>
    <style>
      .cls-1 {
        fill-rule: evenodd;
      }
    </style>
  </defs>
  <path class="cls-1" d="M45,22.5c-4.1799545288-8.3105792999-12.686252594-14-22.5-14S4.1799559593,14.1894207001,0,22.5c4.1799559593,8.3105812073,12.686252594,14,22.5,14s18.3200454712-5.6894207001,22.5-14ZM22.5,31.8333320618c5.0717010498,0,9.1831283569-4.1786708832,9.1831283569-9.3333320618,0-5.1546592712-4.1114273071-9.3333301544-9.1831283569-9.3333301544s-9.1831293106,4.1786708832-9.1831293106,9.3333301544,4.1114263535,9.3333320618,9.1831293106,9.3333320618ZM22.5,27.1666717529c2.5358524323,0,4.5915641785-2.08934021,4.5915641785-4.6666698456s-2.0557117462-4.6666698456-4.5915641785-4.6666698456c-2.5358505249,0-4.5915641785,2.08934021-4.5915641785,4.6666698456s2.0557136536,4.6666698456,4.5915641785,4.6666698456Z"/>
</svg>