<?xml version="1.0" encoding="UTF-8"?>
<svg id="Livello_1" data-name="Livello 1" xmlns="http://www.w3.org/2000/svg" viewBox="0 0 8.3173828125 8.9990234375">
  <defs>
    <style>
      .cls-1 {
        fill: #d2d627;
      }
    </style>
  </defs>
  <path class="cls-1" d="M0,0h1.388671875v.6943359375h.6943359375v.6943359375h.6943359375v1.375h.6943359375v.6943359375h1.375v-.6943359375h.6943359375v-1.375h.6943359375v-.6943359375h.6943359375v-.6943359375h1.3876953125v1.388671875h-.693359375v.6943359375h-.6943359375v1.375h-.6943359375v.6943359375h-.6943359375v.6943359375h.6943359375v.6943359375h.6943359375v1.375h.6943359375v.6943359375h.693359375v1.388671875h-1.3876953125v-.6943359375h-.6943359375v-.6943359375h-.6943359375v-1.375h-.6943359375v-.6943359375h-1.375v.6943359375h-.6943359375v1.375h-.6943359375v.6943359375h-.6943359375v.6943359375H0v-1.388671875h.6943359375v-.6943359375h.6943359375v-1.375h.6943359375v-.6943359375h.6943359375v-.6943359375h-.6943359375v-.6943359375h-.6943359375v-1.375h-.6943359375v-.6943359375h-.6943359375V0Z"/>
</svg>