<?xml version="1.0" encoding="UTF-8"?>
<svg id="Livello_1" data-name="Livello 1" xmlns="http://www.w3.org/2000/svg" viewBox="0 0 68.2556635681 16.1292205799">
  <defs>
    <style>
      .cls-1 {
        fill: #d2d627;
      }

      .cls-2 {
        fill: none;
        stroke: #d2d627;
        stroke-miterlimit: 10;
        stroke-width: .492669146px;
      }
    </style>
  </defs>
  <rect class="cls-2" x=".246334573" y=".246334573" width="67.7629944221" height="15.6365514339" rx="6.2816059514" ry="6.2816059514"/>
  <g>
    <path class="cls-1" d="M23.8687985809,4.1402938837h5.4379882812v1.2109375h-4.2270507812v1.8056640625h3.6215820312v1.2109375h-3.6215820312v2.41015625h4.2270507812v1.2109375h-5.4379882812v-7.8486328125Z"/>
    <path class="cls-1" d="M29.9122556122,4.1402938837h4.2270507812v.60546875h.5942382812v.60546875h.60546875v.60546875h.60546875v4.2158203125h-.60546875v.60546875h-.60546875v.60546875h-.5942382812v.60546875h-4.2270507812v-7.8486328125ZM31.1119626434,5.3512313837v5.4267578125h2.421875v-.60546875h.60546875v-.60546875h.60546875v-3.0043945313h-.60546875v-.6059570312h-.60546875v-.60546875h-2.421875Z"/>
    <path class="cls-1" d="M36.5499509247,4.1402938837h1.2109375v7.8486328125h-1.2109375v-7.8486328125Z"/>
    <path class="cls-1" d="M38.3663571747,4.1402938837h6.0205078125v1.2109375h-2.3994140625v6.6376953125h-1.2109375v-6.6376953125h-2.41015625v-1.2109375Z"/>
  </g>
</svg>