<?xml version="1.0" encoding="UTF-8"?>
<svg id="Livello_1" data-name="Livello 1" xmlns="http://www.w3.org/2000/svg" viewBox="0 0 68.2556635681 16.1292205799">
  <defs>
    <style>
      .cls-1 {
        fill: #d2d627;
      }

      .cls-2 {
        fill: none;
        stroke: #d2d627;
        stroke-miterlimit: 10;
        stroke-width: .492669146px;
      }
    </style>
  </defs>
  <rect class="cls-2" x=".246334573" y=".246334573" width="67.7629944221" height="15.6365514339" rx="6.2816059514" ry="6.2816059514"/>
  <g>
    <path class="cls-1" d="M20.5326169403,4.1398056025h1.2109375v.60546875h.60546875v1.2109375h.60546875v1.201171875h.60546875v1.2109375h1.2109375v-1.2109375h.60546875v-1.201171875h.60546875v-1.2109375h.60546875v-.60546875h1.2109375v7.849609375h-1.2109375v-4.83203125h-.60546875v1.2109375h-.60546875v1.2109375h-.60546875v1.1875h-1.2109375v-1.1875h-.60546875v-1.2109375h-.60546875v-1.2109375h-.60546875v4.83203125h-1.2109375v-7.849609375Z"/>
    <path class="cls-1" d="M29.0091794403,9.5792587275h-.60546875v-3.02734375h.60546875v-1.201171875h.60546875v-.60546875h.60546875v-.60546875h3.0166015625v.60546875h.59375v.60546875h.60546875v1.201171875h.60546875v3.02734375h-.60546875v1.19921875h-.60546875v.60546875h-.59375v.60546875h-3.0166015625v-.60546875h-.60546875v-.60546875h-.60546875v-1.19921875ZM30.2201169403,5.9562118525v1.189453125h-.60546875v1.8388671875h.60546875v1.1884765625h.60546875v.60546875h1.8056640625v-.60546875h.60546875v-1.1884765625h.60546875v-1.8388671875h-.60546875v-1.189453125h-.60546875v-.60546875h-1.8056640625v.60546875h-.60546875Z"/>
    <path class="cls-1" d="M35.6478513153,4.1398056025h4.2265625v.60546875h.5947265625v.60546875h.60546875v.60546875h.60546875v4.216796875h-.60546875v.60546875h-.60546875v.60546875h-.5947265625v.60546875h-4.2265625v-7.849609375ZM36.8470700653,5.3507431025v5.427734375h2.421875v-.60546875h.60546875v-.60546875h.60546875v-3.0048828125h-.60546875v-.6064453125h-.60546875v-.60546875h-2.421875Z"/>
    <path class="cls-1" d="M42.2855466278,4.1398056025h5.4375v1.2109375h-4.2265625v1.806640625h3.62109375v1.2109375h-3.62109375v2.41015625h4.2265625v1.2109375h-5.4375v-7.849609375Z"/>
  </g>
</svg>