<?xml version="1.0" encoding="UTF-8"?>
<svg id="Livello_1" data-name="Livello 1" xmlns="http://www.w3.org/2000/svg" viewBox="0 0 68.2556635681 16.1292205799">
  <defs>
    <style>
      .cls-1 {
        fill: #d2d627;
      }

      .cls-2 {
        fill: none;
        stroke: #d2d627;
        stroke-miterlimit: 10;
        stroke-width: .492669146px;
      }
    </style>
  </defs>
  <rect class="cls-2" x=".246334573" y=".246334573" width="67.7629944221" height="15.6365514339" rx="6.2816059514" ry="6.2816059514"/>
  <g>
    <path class="cls-1" d="M18.4300778778,7.1573837275h-.60546875v-1.806640625h.60546875v-.60546875h.5947265625v-.60546875h3.6328125v.60546875h.59375v.60546875h.60546875v1.2119140625h-1.2109375v-.6064453125h-.59375v-.60546875h-2.421875v.60546875h-.60546875v.595703125h.60546875v.60546875h3.02734375v.60546875h.59375v.60546875h.60546875v2.41015625h-.60546875v.60546875h-.59375v.60546875h-3.6328125v-.60546875h-.5947265625v-.60546875h-.60546875v-1.19921875h1.2001953125v.59375h.60546875v.60546875h2.421875v-.60546875h.60546875v-1.19921875h-.5947265625v-.60546875h-3.0380859375v-.60546875h-.5947265625v-.60546875Z"/>
    <path class="cls-1" d="M24.4623044403,4.1398056025h1.1884765625v3.623046875h3.02734375v-3.623046875h1.2109375v7.849609375h-1.2109375v-3.015625h-3.02734375v3.015625h-1.1884765625v-7.849609375Z"/>
    <path class="cls-1" d="M31.7064450653,10.7784774775v1.2109375h-1.2109375v-1.81640625h.60546875v-1.19921875h.60546875v-1.2109375h.60546875v-1.806640625h.60546875v-1.2109375h.60546875v-.60546875h1.2109375v.60546875h.59375v1.2109375h.60546875v1.806640625h.60546875v1.2109375h.60546875v1.19921875h.60546875v1.81640625h-1.2109375v-1.2109375h-.60546875v-.59375h-3.62109375v.59375h-.60546875ZM32.9173825653,7.7628524775v1.2109375h2.41015625v-1.2109375h-.60546875v-1.806640625h-1.19921875v1.806640625h-.60546875Z"/>
    <path class="cls-1" d="M38.3548825653,4.1398056025h4.8212890625v.60546875h.60546875v.60546875h.60546875v2.412109375h-.60546875v.60546875h-.60546875v.60546875h.60546875v.60546875h.60546875v2.41015625h-1.2109375v-1.81640625h-.60546875v-.59375h-.60546875v-.60546875h-2.3994140625v3.015625h-1.2109375v-7.849609375ZM39.5658200653,5.3507431025v2.412109375h3.0048828125v-.60546875h.60546875v-1.201171875h-.60546875v-.60546875h-3.0048828125Z"/>
    <path class="cls-1" d="M44.9925778778,4.1398056025h5.4384765625v1.2109375h-4.2275390625v1.806640625h3.6220703125v1.2109375h-3.6220703125v2.41015625h4.2275390625v1.2109375h-5.4384765625v-7.849609375Z"/>
  </g>
</svg>