<?xml version="1.0" encoding="UTF-8" standalone="no"?>
<svg
   id="Livello_1"
   data-name="Livello 1"
   viewBox="0 0 109.5336138811 109.5336138812"
   version="1.1"
   sodipodi:docname="logo.svg"
   inkscape:export-filename="favicon.ico.png"
   inkscape:export-xdpi="96"
   inkscape:export-ydpi="96"
   inkscape:version="1.2.2 (b0a84865, 2022-12-01)"
   xmlns:inkscape="http://www.inkscape.org/namespaces/inkscape"
   xmlns:sodipodi="http://sodipodi.sourceforge.net/DTD/sodipodi-0.dtd"
   xmlns="http://www.w3.org/2000/svg"
   xmlns:svg="http://www.w3.org/2000/svg">
  <sodipodi:namedview
     id="namedview141"
     pagecolor="#ffffff"
     bordercolor="#000000"
     borderopacity="0.25"
     inkscape:showpageshadow="2"
     inkscape:pageopacity="0.0"
     inkscape:pagecheckerboard="0"
     inkscape:deskcolor="#d1d1d1"
     showgrid="false"
     inkscape:zoom="1.5104942"
     inkscape:cx="11.916629"
     inkscape:cy="56.60399"
     inkscape:window-width="1409"
     inkscape:window-height="773"
     inkscape:window-x="0"
     inkscape:window-y="25"
     inkscape:window-maximized="0"
     inkscape:current-layer="Livello_1" />
  <defs
     id="defs134">
    <style
       id="style132">
      .cls-1 {
        fill: #d2d627;
      }

      .cls-2 {
        fill: #5c5aa0;
      }
    </style>
  </defs>
  <rect
     class="cls-2"
     width="109.53362"
     height="109.53362"
     rx="12"
     ry="0"
     id="rect136"
     inkscape:export-filename="logo.png"
     inkscape:export-xdpi="96"
     inkscape:export-ydpi="96"
     x="0"
     y="0" />
  <path
     class="cls-1"
     d="M39.2937415553,47.0277792188c2.2835724028,0,4.1386653851.7133067809,5.5652789469,2.1399203427,1.4266135618,1.425375182,2.1399203427,3.2804681643,2.1399203427,5.5628021872v7.7039609098h-30.7783000675v-15.4066834397h23.0731007778ZM54.7016633749,47.0277792188c-2.2835724028,0-4.1361886254-.7133067809-5.5628021872-2.1399203427s-2.1399203427-3.2817065441-2.1399203427-5.5640405671v-23.0380339658h15.4054450599v30.7419948756h-7.70272253ZM62.4043859048,62.4344626585v30.8133668795h-15.4054450599v-30.8133668795h15.4054450599ZM93.3129731037,54.7305017487c0,2.2823340229-.7133067809,4.1374270052-2.1399203427,5.5640405671s-3.2817065441,2.1399203427-5.5628021872,2.1399203427h-23.2058646689v-15.4066834397h30.9085871989v7.70272253Z"
     id="path138" />
</svg>
