<?xml version="1.0" encoding="UTF-8" standalone="no"?>
<svg
   width="40px"
   height="40px"
   version="1.1"
   id="svg134"
   sodipodi:docname="unitMeasure copy.svg"
   inkscape:version="1.2.2 (b0a84865, 2022-12-01)"
   xmlns:inkscape="http://www.inkscape.org/namespaces/inkscape"
   xmlns:sodipodi="http://sodipodi.sourceforge.net/DTD/sodipodi-0.dtd"
   xmlns="http://www.w3.org/2000/svg"
   xmlns:svg="http://www.w3.org/2000/svg">
  <defs
     id="defs138" />
  <sodipodi:namedview
     id="namedview136"
     pagecolor="#ffffff"
     bordercolor="#000000"
     borderopacity="0.25"
     inkscape:showpageshadow="2"
     inkscape:pageopacity="0.0"
     inkscape:pagecheckerboard="0"
     inkscape:deskcolor="#d1d1d1"
     showgrid="false"
     inkscape:zoom="5.2444444"
     inkscape:cx="10.582627"
     inkscape:cy="12.584746"
     inkscape:window-width="1537"
     inkscape:window-height="800"
     inkscape:window-x="0"
     inkscape:window-y="25"
     inkscape:window-maximized="0"
     inkscape:current-layer="svg134" />
  <circle
     style="fill:#ffffff;fill-opacity:1;stroke-width:3.77953;stroke-linecap:round;stroke-linejoin:round;stroke-miterlimit:0.5"
     id="path4027"
     cx="20"
     cy="20"
     inkscape:export-filename="finishPattern.png"
     inkscape:export-xdpi="96"
     inkscape:export-ydpi="96"
     r="20" />
  <path
     id="rect467"
     style="fill:#060000;fill-opacity:1;stroke-width:3.50631;stroke-linecap:round;stroke-linejoin:round;stroke-miterlimit:0.5"
     d="M 20,1.5 A 18.5,18.5 0 0 0 16.3,1.9209473 V 8.9 h 7.4 V 1.8757813 A 18.5,18.5 0 0 0 20,1.5 Z m 3.7,7.4 v 7.4 h 7.4 V 8.9 Z m 7.4,0 h 3.698193 A 18.5,18.5 0 0 0 31.1,5.2018067 Z m 0,7.4 v 7.4 h 6.979053 A 18.5,18.5 0 0 0 38.5,20 18.5,18.5 0 0 0 38.124218,16.3 Z m 0,7.4 h -7.4 v 7.4 h 7.4 z m 0,7.4 v 3.640381 A 18.5,18.5 0 0 0 34.740381,31.1 Z m -7.4,0 h -7.4 v 6.979053 A 18.5,18.5 0 0 0 20,38.5 18.5,18.5 0 0 0 23.7,38.079053 Z m -7.4,0 V 23.7 H 8.9 v 7.4 z m -7.4,0 H 5.2596191 A 18.5,18.5 0 0 0 8.9,34.740381 Z m 0,-7.4 V 16.3 H 1.9209471 A 18.5,18.5 0 0 0 1.5,20 18.5,18.5 0 0 0 1.9209471,23.7 Z m 0,-7.4 h 7.4 V 8.9 H 8.9 Z m 0,-7.4 V 5.2596192 A 18.5,18.5 0 0 0 5.2596191,8.9 Z m 7.4,7.4 v 7.4 h 7.4 v -7.4 z" />
  <path
     id="path5551"
     style="fill:#000000;fill-opacity:1;stroke-width:3.77953;stroke-linecap:round;stroke-linejoin:round;stroke-miterlimit:0.5"
     d="M 20,0 A 20,20 0 0 0 0,20 20,20 0 0 0 20,40 20,20 0 0 0 40,20 20,20 0 0 0 20,0 Z m 0,5 a 15,15 0 0 1 0.841797,0.023438 15,15 0 0 1 0.837891,0.070312 15,15 0 0 1 0.832031,0.119141 15,15 0 0 1 0.826172,0.164062 15,15 0 0 1 0.814453,0.208985 15,15 0 0 1 0.802734,0.255859 15,15 0 0 1 0.785156,0.300781 15,15 0 0 1 0.767578,0.34375 15,15 0 0 1 0.748047,0.384766 15,15 0 0 1 0.72461,0.427734 15,15 0 0 1 0.699219,0.466797 15,15 0 0 1 0.671874,0.507813 15,15 0 0 1 0.644532,0.541015 15,15 0 0 1 0.611328,0.578125 15,15 0 0 1 0.578125,0.611328 15,15 0 0 1 0.541015,0.644532 15,15 0 0 1 0.507813,0.671874 15,15 0 0 1 0.466797,0.699219 15,15 0 0 1 0.427734,0.72461 15,15 0 0 1 0.384766,0.748047 15,15 0 0 1 0.34375,0.767578 15,15 0 0 1 0.300781,0.785156 15,15 0 0 1 0.255859,0.802734 15,15 0 0 1 0.208985,0.814453 15,15 0 0 1 0.164062,0.826172 15,15 0 0 1 0.119141,0.832031 15,15 0 0 1 0.07031,0.837891 A 15,15 0 0 1 35,20 a 15,15 0 0 1 -0.185547,2.345703 15,15 0 0 1 -0.548828,2.289063 15,15 0 0 1 -0.900391,2.175781 15,15 0 0 1 -1.230468,2.005859 15,15 0 0 1 -1.527344,1.791016 15,15 0 0 1 -1.791016,1.527344 15,15 0 0 1 -2.005859,1.230468 15,15 0 0 1 -2.175781,0.900391 15,15 0 0 1 -2.289063,0.548828 A 15,15 0 0 1 20,35 15,15 0 0 1 17.654297,34.814453 15,15 0 0 1 15.365234,34.265625 15,15 0 0 1 13.189453,33.365234 15,15 0 0 1 11.183594,32.134766 15,15 0 0 1 9.392578,30.607422 15,15 0 0 1 7.865235,28.816406 15,15 0 0 1 6.634766,26.810547 15,15 0 0 1 5.734375,24.634766 15,15 0 0 1 5.185547,22.345703 15,15 0 0 1 5,20 15,15 0 0 1 5.185547,17.654297 15,15 0 0 1 5.734375,15.365234 15,15 0 0 1 6.634766,13.189453 15,15 0 0 1 7.865235,11.183594 15,15 0 0 1 9.392578,9.392578 15,15 0 0 1 11.183594,7.865234 15,15 0 0 1 13.189453,6.634766 15,15 0 0 1 15.365234,5.734375 15,15 0 0 1 17.654297,5.185547 15,15 0 0 1 20,5 Z" />
</svg>
