<?xml version="1.0" encoding="UTF-8" standalone="no"?>
<svg viewBox="0 0 297.71 375">
   <g>
      <g>
         <path d="M294.87,159.28l2.84-3.6-25.52-19.92-2.81,3.59c-20.15,25.77-51.56,32.73-73.76,28.19-13.19-2.72-22.67-10.38-26.69-21.58-3.93-10.93-1.91-23.54,5.35-34.45,11.55,8.3,26.55,13.13,41.91,13.38.51.01,1.01.02,1.51.02,15.66,0,29.45-4.91,38.01-13.59,6.74-6.83,10.12-15.73,9.79-25.75-.32-9.79-4.5-18.15-12.1-24.19-10.28-8.17-26.38-11.32-41.99-8.23-11.43,2.2-22.49,6.4-32.35,12.25-.51-7.68,3.43-17.38,12.47-23.59,7.63-5.24,17.74-8.34,29.24-8.96,11.91-.64,24.74,1.42,37.1,5.97l4.26,1.57,11.22-30.15-4.33-1.56C252.11,2.57,235.78-.3,220.48.16c-18.01.54-33.98,5.71-47.48,15.36-12.16,8.67-20.77,20.98-24.26,34.67-3.18,12.5-1.97,25.47,3.4,36.88-4.85,5.87-8.78,12.14-11.76,18.76-10.75-15.9-30.58-22.95-51.39-30.34l-12.67-4.49-.17-.06c-9.79-3.48-30.16-10.73-30.16-22.24,0-6.68,4.51-12.51,12.07-15.59,6.44-2.62,14.34-2.98,22.25-1.02,9.24,2.29,18.17,7.66,25.84,15.52l2.87,2.94,24.9-19.71-2.9-3.58c-9.98-12.33-23.72-20.94-39.74-24.92-14.68-3.64-30.15-3.04-43.56,1.71C26.48,11.58,13.8,28.27,13.8,48.71c0,14.25,5.15,25.55,15.75,34.55,9.75,8.28,22.92,13.62,35.71,18.16l12.81,4.52c21.86,7.62,37.33,14.32,37.33,31.07,0,10.12-4.35,18.07-12.92,23.65-7.65,4.98-18.38,7.79-30.21,7.92-10.55,0-20.96-2.26-28.58-6.2-5.24-2.71-11.49-7.39-11.49-14.32,0-5.54,2.32-9.34,7.08-11.64,9.87-4.75,26.89-1.42,37.94,7.42l4.17,3.33,15.82-27.78-2.94-2.44c-9.4-7.79-21.11-12.8-33.87-14.48-12.3-1.62-24.65.11-34.78,4.87-7.79,3.66-13.97,8.87-18.39,15.48-4.8,7.19-7.24,15.68-7.24,25.24,0,12.4,4.74,23.61,13.7,32.44,11.95,11.78,31.29,19.04,52.58,19.95-17.15,15.75-32.52,38.35-43.2,63.87-13.37,31.81-19.99,68.4-18.65,103.04l.17,4.38h38.87l-.2-4.75c-1.29-30.74,4.62-63.46,16.63-92.09,7.28-17.08,18.03-34.42,28.76-46.37,14.64-16.32,29.14-23.43,43.05-21.16,9.44,1.59,13.75,10.41,17,19.99-16.14,12.92-31.77,28.13-44.23,43.07-10.92,12.98-20.12,27.17-25.92,39.97-7.36,16.24-9.3,29.93-5.77,40.68,3.62,11.02,12.68,18.36,26.94,21.8,21.81,5.18,42.04-2.18,58.49-21.28,16.39-19.03,24.57-43.89,28-57.06,4.51-18.01,6.02-37.49,4.31-55.17,15.97-11.4,41.62-24.34,52.94-19.73,2.89,1.16,3.68,2.74,4.03,3.99,2.92,10.17-13.93,33.26-22.97,45.67-1.71,2.34-3.32,4.55-4.65,6.45-1.12,1.59-2.39,3.36-3.73,5.23-6.39,8.89-15.14,21.07-21.49,33.51-7.92,15.5-10.37,27.89-7.51,37.87,2.46,8.56,8.76,14.96,18.72,19.04,5.89,2.42,12.09,3.62,18.39,3.62,9.85,0,19.98-2.93,29.66-8.72,15.17-9.07,28.05-24.41,36.26-43.2l2.25-5.16-35.43-7.3-1.67,2.73c-.89,1.45-1.76,2.88-2.61,4.27-12.78,21.01-18.05,28.02-27.03,24.26h-.02c-.23-.11-.24-.12-.31-.36-.31-1.09-.63-5.79,8.06-20.28,5.62-9.37,12.67-18.96,17.33-25.3,1.2-1.64,2.24-3.05,3.03-4.15l.04-.06c18.77-27.17,38.18-55.26,31.94-77.59-2.79-9.99-10.55-17.89-23.06-23.49-1.2-.53-2.42-1.01-3.66-1.45,13.73-7.21,25.95-17.38,35.84-29.93ZM191.57,199.96c-3.85,1.87-7.55,3.79-11.06,5.66-1.95-3.62-4.39-7.35-7.44-10.92,5.05,2.13,10.49,3.76,16.27,4.86.74.14,1.48.27,2.22.39ZM150.1,178.8c-3.26-1.18-6.8-2.12-10.64-2.77-1.86-.33-3.72-.59-5.58-.78,2.68-3.01,5-6.23,6.96-9.64,2.5,4.82,5.61,9.24,9.26,13.2ZM151.13,272.38c-.65,5.26-1.61,10.55-2.84,15.68-4.24,17.08-17.35,45.74-29.98,52.92-2.61,1.48-4.92,1.89-7.09,1.23-1.45-.43-1.93-1.15-2.22-2.1-2.05-6.9,6.76-26.73,27.59-51.28l.05-.06c5.18-6.33,9.92-11.7,14.48-16.39ZM200.06,89.41c4.6-2.31,10.81-4.28,16.92-5.22h0c8.59-1.34,14.38-.28,16.12,1.27.32.28.47.52.45,1.09v.16c0,3.92-8.69,5.98-17.27,5.98-5.57,0-11-1.1-16.22-3.28Z" />
      </g>
   </g>
</svg>