<?xml version="1.0" encoding="UTF-8" standalone="no"?>
<svg
   version="1.1"
   viewBox="0 0 800 800">
  <g
     id="g861"
     transform="matrix(0.65073133,0,0,0.65073133,-9.7609702,34.319756)">
    <text
       class="cls-2"
       id="text138"
       x="8.6400003"
       y="566.0116"><tspan
         x="8.6400003"
         y="566.0116"
         id="tspan136"
         style="font-style:normal;font-variant:normal;font-weight:bold;font-stretch:normal;font-size:120px">settimana europea</tspan></text>
    <text
       class="cls-1"
       id="text142"
       x="12.744"
       y="629.19672"
       style="font-size:48px;stroke-width:0.58"><tspan
         x="12.744"
         y="629.19672"
         xml:space="preserve"
         id="tspan140"
         style="font-size:48px;stroke-width:0.58"><tspan
   style="font-style:normal;font-variant:normal;font-weight:bold;font-stretch:normal"
   id="tspan1634">della</tspan> </tspan></text>
    <text
       class="cls-2"
       id="text146"
       x="172.18858"
       y="676.95953"
       style="font-size:120px"><tspan
         x="172.18858"
         y="676.95953"
         id="tspan144"
         style="font-style:normal;font-variant:normal;font-weight:bold;font-stretch:normal;font-size:120px">mobilità verona</tspan></text>
    <path
       class="cls-3"
       d="m 1044.43,318.9219 -4.23,9.52 c -1.35,3.03 -2.65,6 -3.93,8.91 l -0.1,0.22 c -9.57,21.72 -21.47,48.74 -29.45,51.35 -0.33,0.11 -1.1,0.36 -3.03,-0.54 -0.43,-2.23 -0.8,-10.68 8.79,-34.63 8.99,-22.46 22.45,-47.75 30.49,-62.87 l 0.08,-0.14 c 1.83,-3.45 3.42,-6.42 4.62,-8.75 l 0.08,-0.15 c 19.97,-39.91 40.6199,-81.18 48.2299,-118.42 4.64,-22.74 4.03,-41.8 -1.89,-58.27 -5.94,-16.540002 -17.42,-30.160002 -34.1399,-40.490002 -11.46,-6.99 -24.18,-10.53 -37.81,-10.53 -11.58,0 -24.11,2.6 -37.25,7.72 -19.15,7.47 -37.78,19.57 -52.99,30.48 -4.91,-11.22 -10.83,-21.11 -17.65,-29.49 -12.82,-15.74 -28.58,-25.89 -46.78,-30.15 -22.59,-5.52 -44.96,-2.82 -66.46,8.02 -18.44,9.29 -36.21,24.62 -52.83,45.57 C 711.91,131.9819 690.37,191.9819 680.76,223.6719 c -10.91,35.82 -18.89,74.03 -23.74,113.62 -18.08,21.46 -41.29,37.28 -67.24,45.84 -23.33,7.69 -48.17,9.3 -69.91,4.55 -24.45,-5.39 -42.4,-20.47 -50.55,-42.46 -4.54,-12.26 -5.71,-26.09 -3.37,-39.98 1.8,-10.7 5.72,-21.42 11.46,-31.37 9.9,7.18 21.01,13.09 33.12,17.61 15.8,5.9 32.96,9.17 49.59,9.47 32.65,0.7 60.86,-9.23 79.41,-27.97 15.12,-15.26 22.73,-35.45 22.01,-58.37 -0.69,-22.54 -10.1,-41.57 -27.21,-55.01 -10.79,-8.48 -24.49,-14.42 -39.61,-17.19 -14.43,-2.64 -29.93,-2.37 -44.79,0.77 -21.35,4.4 -42.26,12.55 -61.09,23.79 0.17,-4.69 1.05,-9.58 2.6,-14.39 3.83,-11.88 11.44,-22.47 21.42,-29.8 14.75,-10.83 34.34,-17.24 56.66,-18.53 23.29,-1.35 48.41,2.99 72.63,12.52 l 11.62,4.58 23.94,-68.850002 -10.81,-4.18 c -34.2,-13.24 -67.27,-19.44 -98.3,-18.45 -36.68,1.17 -69.22,12.43 -96.7,33.48 -24.72,18.86 -42.23,45.610002 -49.3,75.320002 -6.33,26.61 -4.01,54.46 6.49,78.93 -7.03,9.22 -13.13,18.98 -18.22,29.13 -22.9,-27.66 -58.77,-41.3 -96.54,-55.66 l -25.62,-9.71 c -10.61,-4.04 -26.63,-10.13 -39.25,-18.55 -13,-8.67 -19.32,-17.48 -19.32,-26.94 0,-14.18 9.15,-26.18 24.46,-32.11 12.19,-4.72 26.99,-5.03 41.66,-0.86 17.37,4.93 34.25,15.98 48.79,31.94 l 7.79,8.55 53.56,-45.38 -6.85,-9.050002 c -19.72,-26.07 -46.83,-44.6 -78.39,-53.58 -28.93,-8.23 -59.83,-7.74 -87,1.38 -46.4,15.57 -74.11,52.62 -74.11,99.110002 0,30.98 10.52,55.61 32.17,75.29 19.04,17.31 44.35,28.66 69.19,38.22 -24.61,-4.44 -50.12,-2.04 -72.27,7.92 -16.91,7.6 -30.96,19.36 -40.64,34.01 -10.61,16.07 -16,35.21 -16,56.86 0,28.29 10.58,53.66 30.6,73.37 13.89,13.67 31.68,24.23 52.87,31.38 19.72,6.65 41.84,9.99 63.98,9.64 30.65,-0.46 60.07,-8.1 85.08,-22.07 19.67,-10.99 36,-25.81 47.8,-43.26 7.37,12.2 16.59,23.03 27.53,32.31 18.13,15.38 40.17,25.78 65.5,30.93 13.52,2.72 27.28,4.1 40.88,4.1 36.73,0 72.77,-10.03 104.97,-29.12 0.04,2.72 0.1,5.43 0.18,8.1 l 0.33,11.66 h 70.03 l -0.38,-12.36 c -2,-65.83 7.15,-135.86 25.76,-197.14 11.25,-36.44 27.83,-73.37 44.35,-98.8 10.38,-15.97 20.8,-27.8 30.99,-35.18 10.2,-7.39 20.07,-10.08 29.28,-7.99 11.77,2.74 18.27,21.59 22.95,40.67 -24.96,27.66 -49.17,60.23 -68.4,92.06 -18.13,29.76 -33.02,62.04 -41.91,90.91 -11.39,36.96 -12.93,67.25 -4.59,90.03 7.17,19.6 21.26,33.01 41.89,39.89 20.4,6.69 39.94,4.64 58.09,-6.08 20.9,-12.35 39.32,-36.07 54.73,-70.5 11.78,-26.31 21.76,-59.32 28.11,-92.98 6.95,-38.34 9.3,-79.98 6.65,-117.64 9.57,-9.27 24.12,-21.55 38.79,-30.57 16.12,-9.91 28.88,-13.63 35.02,-10.17 6.68,3.7 6.66,17.08 -0.06,37.65 -7.3,22.35 -20.97,48.24 -30.97,67.17 -2.51,4.75 -5.11,9.66 -7.21,13.81 -1.73,3.39 -3.69,7.17 -5.78,11.17 -13.89,26.71 -32.92,63.29 -41.83,98.88 -5.66,22.64 -6.32,42.13 -1.94,57.95 4.56,16.49 14.51,29.16 29.56,37.66 17.66,10 37.21,11.28 56.53,3.69 34.17,-13.43 64.8799,-54.03 82.1599,-108.62 l 3.73,-11.78 -63.3599,-18.03 z m -167.42,-60.72 c -0.72,5.44 -1.54,10.84 -2.47,16.17 -2.92,16.25 -9.62,42.65 -19.64,67.99 -14.12,35.71 -24.79,43.7 -27.72,45.29 -1.6,0.87 -2.09,0.67 -2.51,0.49 -0.04,-0.02 -0.06,-0.03 -0.07,-0.03 -0.06,-0.07 -0.34,-0.41 -0.64,-1.34 -4.36,-13.35 8.98,-56.79 42.29,-111.01 l 0.09,-0.15 c 3.69,-6.22 7.24,-12.02 10.68,-17.43 z m -343.4,-35.53 c 8.36,-3.91 18.63,-7.09 28.68,-8.75 h 0.07 c 16.75,-2.79 26.69,-0.42 29.28,1.85 0.28,0.24 0.32,0.28 0.3,0.94 v 0.39 c 0,1.09 0,4 -7.54,6.9 -8.19,3.15 -18.59,3.62 -24.06,3.62 -9.11,0 -18.06,-1.66 -26.73,-4.95 z m -170.65,101.91 c 0,20.97 -8.34,37.41 -24.79,48.86 -14.76,10.27 -35.52,16.07 -58.47,16.35 -20.49,-0.01 -40.7,-4.69 -55.44,-12.84 -9.89,-5.47 -21.68,-14.9 -21.68,-28.77 0,-11.68 4.44,-19.16 13.98,-23.55 5.37,-2.47 11.82,-3.64 18.76,-3.64 17.27,0 37.63,7.23 52.17,19.68 l 11.36,9.73 34.01,-63.89 -7.07,-6.27 c -5.4,-4.79 -11.21,-9.09 -17.32,-12.87 33.48,13.69 54.47,27.74 54.47,57.23 z"
       id="path816" />
    <text
       xml:space="preserve"
       style="font-style:normal;font-variant:normal;font-weight:normal;font-stretch:normal;font-size:48px;line-height:1;fill-opacity:1;stroke-width:4;stroke-linecap:round;stroke-linejoin:round;stroke-miterlimit:33.2;paint-order:markers fill stroke"
       x="312.74399"
       y="734.11017"
       id="text1739"><tspan
         id="tspan1737"
         x="312.74399"
         y="734.11017"
         style="font-weight:bold">dal 16 al 22 settembre</tspan></text>
  </g>
</svg>
