<?xml version="1.0" encoding="UTF-8" standalone="no"?>
<svg width="45px" height="45px">
  <path style="fill:none;stroke:#000000;stroke-width:4.04727;stroke-linecap:round;stroke-linejoin:round;stroke-miterlimit:33.2;stroke-dasharray:none;stroke-opacity:1;paint-order:markers fill stroke" d="m 4.9111716,40.994406 c 3.3384058,1.149158 9.9333064,-2.136386 15.1444784,-1.601632 5.211171,0.534754 9.037764,4.888011 13.433727,3.614234 4.395964,-1.273777 9.362395,-8.17328 9.729596,-12.362216 C 43.586174,26.455856 39.352494,24.97739 38.944582,21.938056 38.53667,18.898723 41.95618,14.299054 39.351557,10.069114 36.746934,5.8391742 28.11674,1.9787371 21.765244,2.3070285 15.413749,2.63532 11.342903,7.1528521 11.139978,11.794408 c -0.202926,4.641556 3.460836,9.405499 2.483731,12.238491 -0.977105,2.832991 -6.5948739,3.736497 -9.363617,6.981767 -2.7687431,3.245269 -2.6873262,8.830581 0.6510796,9.97974 z" inkscape:original-d="M 1.6541652,45.429362 C 8.2503477,42.14511 14.845249,38.859567 21.438873,35.572729 25.266901,39.927457 29.093495,44.280714 32.918886,48.632768 37.886798,41.73428 42.853228,34.834776 47.818479,27.933842 43.585911,26.456609 39.352231,24.978144 35.117187,23.498355 38.538114,18.899796 41.957624,14.300127 45.375923,9.6990722 36.746666,5.8397737 28.116472,1.9793369 19.484826,-1.8824696 15.415098,2.6365359 11.344253,7.1540683 7.2720447,11.670399 c 3.6651893,4.765425 7.3289503,9.529369 10.9915033,14.292117 -5.61671,0.904832 -11.2344782,1.80834 -16.8536384,2.710573 0.082702,5.586828 0.1641182,11.17214 0.2442556,16.756273 z" />
</svg>
