<?xml version="1.0" encoding="UTF-8" standalone="no"?>
<svg width="20px" height="20px">
   <path style="stroke-width:2.17139;stroke-linecap:round;stroke-linejoin:round;stroke-miterlimit:0.5" d="m 15.9937,4.5 c -0.367146,0 -0.733669,0.1400452 -1.014999,0.4213703 L 7.8777014,12.022371 4.9532868,9.0992884 c -0.5626248,-0.5626277 -1.4686896,-0.5626277 -2.031316,9e-7 -0.5626277,0.562627 -0.5626277,1.4686917 0,2.0313197 l 3.7260719,3.724748 c 0.02239,0.02241 0.04546,0.04304 0.068895,0.06365 0.0414,0.05543 0.086088,0.108585 0.1364845,0.15901 0.5626502,0.562647 1.4686672,0.562647 2.0313159,-4e-6 L 17.010031,6.9527228 c 0.562643,-0.5626473 0.562643,-1.468671 0,-2.0313182 C 16.72871,4.6400542 16.360851,4.5000097 15.993714,4.5000097 Z"/>
</svg>
