<?xml version="1.0" encoding="UTF-8" standalone="no"?>
<svg viewBox="0 0 600 600">
    <path d="m 207.7339,300.29516 c 0,0 -1.18061,0.3966 -2.55492,0.77477 0.36894,0.23981 0.73789,0.48885 1.0976,0.72866 0.0277,0.0184 0.0554,0.0369 0.0738,0.0554 0.68254,0.46117 1.34663,0.91313 1.98306,1.35586 0.009,-1.32819 0.0831,-2.5088 0.2767,-3.21902 -0.23981,0.0922 -0.54419,0.20292 -0.88545,0.30438 0,0 0,0 0,0 z" />
    <path d="m 202.87309,326.89586 0.81167,-0.17525 c 0.13836,-1.2544 0.25827,-2.48113 0.34128,-3.56029 -0.8209,-0.29515 -1.46655,-0.54419 -1.47577,-0.58108 -0.0369,-0.10147 0.14757,-1.18062 0.14757,-1.18062 0,0 0.25827,0.0645 0.62721,0.18448 -0.32283,-0.12913 -0.53497,-0.2306 -0.56264,-0.27672 -0.13836,-0.20291 0.71944,-1.3374 1.42042,-2.18597 0.36894,-3.16367 2.96999,-8.55023 2.80396,-8.70703 -0.0461,-0.0461 -0.76555,-0.36894 -1.86315,-0.85779 v 0 c -0.43351,-0.19369 -0.93158,-0.40584 -1.46655,-0.63642 0,0 -0.009,0 -0.0184,0 -0.44273,-0.1937 -0.91312,-0.39662 -1.40197,-0.59953 l -7.07446,2.0015 7.71088,16.59316 z" />
    <path d="m 201.01916,328.09492 c 0.0554,0.32282 0.0831,0.64565 0.12913,0.96847 0.25825,-0.48885 0.59031,-0.93158 0.99614,-1.30052 l -0.14757,-0.30438 -1.06993,0.23059 c 0.0277,0.13835 0.0738,0.2767 0.10145,0.41506 z" />
    <path d="m 187.7557,344.19001 c 4.07681,-0.74712 7.38806,-3.27437 9.26966,-6.63174 l -8.68858,1.72481 c -0.1199,0.0738 -0.24904,0.12913 -0.39661,0.1568 -0.11991,0.0184 -0.23981,0.009 -0.35972,0 h -0.0461 c 0,0 0,0 0,0 -0.4335,-0.0831 -0.78399,-0.42428 -0.87623,-0.87624 -0.0645,-0.33205 0.0461,-0.65487 0.24903,-0.89468 l -1.05148,-3.00688 c -0.0738,0.0184 -0.13835,0.0461 -0.20292,0.0554 -1.7617,0.32283 -3.45883,-0.84856 -3.78165,-2.61027 -0.32283,-1.76169 0.84856,-3.45882 2.61026,-3.78165 0.42429,-0.0738 0.84857,-0.0645 1.2544,0.0184 l 4.35352,-9.93377 c -2.21365,-0.84856 -4.66712,-1.13449 -7.16669,-0.67331 -7.27738,1.32819 -12.1013,8.32886 -10.77311,15.6339 0,0 0,0 0,0 0,0 0,0 0,0 1.33742,7.30506 8.31964,12.14741 15.59702,10.81923 z" />
    <path d="m 198.51958,328.54687 c -0.0184,-0.1199 -0.0554,-0.23059 -0.083,-0.34127 l -10.33037,2.18598 c 0.0554,0.1568 0.11068,0.32282 0.14757,0.49807 l 10.45951,-0.55341 c -0.0277,-0.59031 -0.0831,-1.18983 -0.1937,-1.78937 z" />
    <path d="m 186.39984,328.54687 c 0.67332,0.30438 1.21751,0.83934 1.55878,1.51266 l 10.40416,-2.20442 c -0.99614,-4.20595 -3.87389,-7.51719 -7.57254,-9.17743 l -4.38118,9.87841 z" />
    <path d="m 197.22829,337.14321 c 0.79322,-1.52188 1.29129,-3.20979 1.44809,-4.97148 -3.3297,-0.0738 -7.4803,-0.16603 -10.40416,-0.23059 -0.11068,0.77477 -0.48885,1.48499 -1.06993,1.99228 0.41506,0.46118 1.07916,1.16217 1.07916,1.16217 l 0.083,2.32433 c 0.2398,0.1568 0.41505,0.41506 0.47039,0.71943 0.0461,0.24904 -0.009,0.47963 -0.1199,0.69178 z" />
    <path d="m 187.55279,337.26312 c 0.0645,-0.009 0.12912,0 0.20291,0 -0.009,-0.71021 0,-2.02918 0,-2.02918 l -0.88546,-1.01459 c -0.20292,0.12913 -0.42428,0.23982 -0.65487,0.32282 l 1.00536,2.8593 c 0.11069,-0.0645 0.22137,-0.11067 0.3505,-0.13835 z" />
    <path d="m 214.61467,302.63794 2.6656,-0.81168 -0.34127,-0.75633 0.30437,-0.12913 -0.66409,-1.45732 c -0.39661,-0.10146 -0.79322,-0.21214 -1.19906,-0.32283 -0.22137,1.07916 -0.48885,2.27822 -0.76555,3.48651 z" />
    <path d="m 234.53753,335.649 c 7.28659,-1.32819 12.10128,-8.32886 10.77309,-15.64314 -1.33741,-7.30504 -8.31963,-12.15663 -15.60624,-10.82843 -1.66946,0.30438 -3.20979,0.92235 -4.57488,1.76169 2.15831,3.25591 5.22053,7.89535 6.72397,10.23814 0.0184,0 0.0277,-0.009 0.0461,-0.009 0.71944,-0.12913 1.4112,0.34128 1.54033,1.06072 0.12913,0.71943 -0.34127,1.4112 -1.0607,1.54033 -0.71944,0.12913 -1.41121,-0.34127 -1.54034,-1.06071 -0.0368,-0.21214 -0.0184,-0.41506 0.0369,-0.60875 -1.66946,-2.20443 -4.94382,-6.7332 -7.3235,-10.026 -3.58795,3.00688 -5.51567,7.80312 -4.61177,12.74694 1.33742,7.30505 8.31964,12.15664 15.60624,10.82844 z" />
    <path d="m 200.83469,327.32936 0.98692,-0.21214 -7.71089,-15.94751 -2.29666,5.18363 c 4.41808,1.98306 7.84924,5.9492 9.02063,10.97602 z" />
    <path d="m 202.62405,335.24316 c -0.65486,-0.46117 -1.18061,-1.08837 -1.54033,-1.82626 -0.16602,1.07915 -0.44273,2.13064 -0.81167,3.13601 l 1.74325,-0.3505 c 0.34128,-0.54419 0.61798,-0.95925 0.61798,-0.95925 0,0 0,0 0,0 z" />
    <path d="m 214.06126,304.96226 c -0.17525,0.72866 -0.3505,1.43888 -0.51653,2.10297 0.75634,0.65488 1.19907,1.1345 1.18061,1.38354 -0.0184,0.4704 -1.16215,4.04914 -2.63792,8.46721 l 6.74241,-11.58478 -0.68255,-1.52187 -4.09525,1.16216 z" />
    <path d="m 299.97857,190.91313 c -110.02766,0 -199.22857,89.2009 -199.22857,199.22858 0,83.49153 51.3567,154.974 124.20426,184.60003 0.24903,0.0738 0.49807,0.1568 0.7471,0.25826 -0.77477,-5.10062 1.72481,-10.55173 6.09677,-13.30958 4.37196,-2.74862 10.36726,-2.64716 14.62855,0.25826 -3.26514,-7.06523 0.96846,-16.12275 8.00603,-19.46168 7.02834,-3.33893 15.73537,-1.62334 22.06272,2.90542 l 2.11219,0.1568 c 1.7986,-4.13215 6.90844,-5.11907 11.28963,-3.70787 0.22135,-0.58108 0.45195,-1.16217 0.69176,-1.73402 0.69176,-1.61412 1.48499,-3.44039 0.79323,-5.06373 -0.32284,-0.7471 -0.92236,-1.34664 -1.22674,-2.11219 -0.44273,-1.12528 -0.12913,-2.3889 0.20292,-3.55107 0.98692,-3.42194 2.13064,-6.80697 3.44038,-10.11822 0.95925,-2.43502 1.87238,-5.55258 -0.0184,-7.3604 -0.50729,-0.47962 -1.19906,-0.85778 -1.35586,-1.54033 -0.10146,-0.46117 0.0922,-0.9408 0.28593,-1.37431 1.78015,-4.06758 3.56029,-8.12594 5.34044,-12.19353 0.86701,-1.97383 1.7248,-4.31662 0.68254,-6.19821 1.69713,-3.51417 3.3297,-7.04679 4.96226,-10.58864 0.28593,-0.6272 0.58109,-1.25439 0.86701,-1.88159 1.69714,-3.67098 3.38505,-7.33272 5.08218,-11.0037 1.2175,0.14758 1.90928,1.42965 2.40735,2.55493 2.98842,6.80697 5.96762,13.61394 8.95606,20.42093 0.0368,-0.0922 0.0738,-0.17525 0.1199,-0.26749 l -0.0831,0.35972 c 0,0 -0.0277,-0.0645 -0.0461,-0.10146 -0.77478,1.84471 1.30051,3.71709 2.352,5.57102 3.0161,5.29432 3.57873,7.00068 4.61177,10.80999 0.35972,1.31898 0.71944,2.69328 0.49807,4.04914 -0.22136,1.35586 -1.20828,2.68406 -2.57337,2.84085 2.41658,5.95842 4.39964,12.09207 5.9123,18.33641 0.0738,0.30438 0.13835,0.63643 0.17524,0.95925 6.24434,-2.85929 12.5717,-5.51567 18.99128,-7.9138 -1.94616,-10.53329 -3.05298,-22.09962 -3.3297,-30.41003 -0.22136,-6.6594 0.11069,-13.32802 0.64566,-19.9782 1.86315,-23.04041 6.76085,-47.13231 22.08116,-64.45413 13.10666,17.93057 16.08587,41.14623 17.83834,63.28274 0.46117,5.78316 0.85779,11.57555 0.72866,17.37716 -0.17525,7.58175 -1.0146,15.91061 -2.65638,24.17491 6.91766,-1.31896 13.86299,-2.29666 20.83599,-2.98842 -5.03606,-17.25726 -7.75701,-41.85645 -8.29197,-57.74862 -0.30438,-9.11286 0.14758,-18.24418 0.88546,-27.33859 2.55492,-31.5353 9.26044,-64.50947 30.21634,-88.21399 17.93979,24.54385 22.0166,56.30975 24.41472,86.61832 0.6272,7.91379 1.18061,15.84605 0.99614,23.7783 -0.45196,19.37867 -4.02147,42.32684 -12.11974,61.54871 5.04528,0.0831 10.109,0.25826 15.17273,0.5073 25.59534,-33.50914 40.80497,-75.37481 40.80497,-120.80077 0,-110.02767 -89.20091,-199.22858 -199.22858,-199.22858 z M 234.9987,338.14859 c -8.66091,1.57722 -16.9621,-4.18749 -18.54855,-12.87607 -1.08838,-5.93997 1.25441,-11.71391 5.61714,-15.2742 -0.784,-1.08838 -1.27285,-1.78014 -1.27285,-1.78014 l -9.78618,14.72078 c 0.66409,0.81167 1.18983,1.46654 1.18061,1.53111 0,0.0461 -0.77477,-0.16603 -1.86315,-0.5073 l -1.20829,1.81704 c -0.21214,0.6272 -0.42428,1.24517 -0.6272,1.85393 0.8209,0.69176 1.42965,1.65102 1.64179,2.79473 0.47963,2.61949 -1.2544,5.1283 -3.87389,5.60792 -0.22136,0.0369 -0.45195,0.0461 -0.67332,0.0554 0,0 0,0.0184 0,0.0184 0,0 3.81855,5.77395 3.35738,5.68172 -0.13836,-0.0277 -0.90391,-0.29516 -1.90005,-0.6641 -0.0738,0.36894 -0.26749,1.0976 -0.35972,1.07915 -0.11069,-0.0277 -4.78703,-1.66946 -4.81469,-1.77092 -0.0369,-0.10146 0.14757,-1.18062 0.14757,-1.18062 0,0 0.23059,0.0645 0.56263,0.16603 -1.01458,-0.40583 -1.75247,-0.72866 -1.80781,-0.82089 -0.0922,-0.15681 0.46119,-1.12527 0.98692,-1.98306 l -1.63256,0.32282 c -1.97384,4.90692 -6.32736,8.7347 -11.89837,9.74928 -8.66092,1.57723 -16.9621,-4.18749 -18.54856,-12.87607 -1.58645,-8.68858 4.1506,-17.01744 12.81151,-18.59466 3.0161,-0.55341 5.98608,-0.1937 8.64246,0.84856 l 2.55492,-5.82928 -3.06221,-6.31813 c -0.78401,-0.2767 -1.66947,-0.6272 -2.54571,-1.0607 -0.0738,-0.0184 -0.12913,-0.0277 -0.14757,-0.0369 -0.0554,-0.0184 -0.21215,-0.0922 -0.38739,-0.17525 -1.07916,-0.16603 -3.82777,-0.80245 -3.82777,-0.80245 -0.23981,-0.68254 0.37817,-0.90391 1.27285,-0.98692 -0.84857,-0.77477 -1.45732,-1.66024 -1.59568,-2.65638 -0.49807,-3.68942 3.80011,-8.65168 3.80011,-8.65168 0,0 3.48649,-5.15597 10.28425,-9.46336 0,0 0,0 0,0 0,0 4.29817,-3.97535 13.6324,-5.2482 0,0 0,0 0,0 0.32282,-0.0554 0.63642,-0.11069 0.96847,-0.1568 1.32819,-0.16602 1.1345,-1.29129 0.96847,-1.80782 -0.40583,-0.30437 -0.71021,-0.6272 -0.96847,-0.95002 0,0 0,0 -0.009,0.009 -0.97769,-1.02381 -1.43888,-2.95153 0.0645,-4.41808 0,0 0,0 0.009,0 1.02381,-1.29129 2.81317,-2.25054 4.80547,-2.43501 4.43652,-0.39662 8.93761,2.64715 9.08519,3.23746 0.0277,0.11069 -0.43351,0.3505 -1.18984,0.65488 0.11069,0.34126 0.34127,1.08837 0.36894,1.25439 0,0.0461 -0.0369,0.13836 -0.0922,0.24904 0.43351,0.56264 1.77093,1.47577 1.88161,1.79859 0.11991,0.36894 -1.02382,0.69176 -1.18984,0.784 -0.28593,0.42429 0.11068,1.48499 0.0645,1.65102 -0.0461,0.16602 -0.73788,-0.12913 -1.04226,0.44273 -0.30438,0.57186 0.93158,0.0277 0.95924,0.21214 0.0184,0.17525 -0.59952,0.76556 -0.73788,0.80244 -0.13835,0.037 -0.5903,1.13451 -1.0976,1.07916 -0.37816,-0.0368 -1.15294,-0.1199 -1.568,-0.14758 -0.14758,0.0369 -0.35972,0.0738 -0.57186,0.10146 0,0 0,0 0,0.0184 -0.55341,0.10145 -3.19135,0.61798 -3.91078,1.64178 -0.22137,0.3136 -0.34128,0.94081 -0.45196,1.68792 -0.0184,0.1199 -0.0922,0.67332 -0.0922,0.67332 v 0 c -0.22137,1.57722 -0.51653,3.49571 -1.6049,4.56565 -0.37816,0.36894 -1.02381,0.784 -1.83549,1.20828 -0.85779,1.53111 -1.69713,3.60641 -1.51266,5.64481 0,0 3.91079,3.15446 6.71474,4.1506 l 1.42043,-0.52574 c 0.0368,-0.0554 0.083,-0.10146 0.13836,-0.14758 0.14757,-0.11991 2.75783,-1.50344 4.11369,-1.30974 0,0 0,0 0,0 0.701,-0.34128 1.73403,-0.92236 1.9185,-1.42965 0.28593,-0.78401 -0.0277,-1.54033 0.23059,-1.66946 0.24903,-0.11991 2.15831,-0.0461 2.25055,0.21213 0.0922,0.25826 -0.3874,1.55878 -0.37817,1.6049 0.009,0.0461 0.81167,2.78551 1.37431,3.87389 0.56263,1.09761 1.52188,1.08838 1.46655,1.20829 -0.0554,0.1199 -1.40199,0.30437 -2.27822,-0.59031 -0.87625,-0.88546 -1.0146,-3.48651 -1.0146,-3.48651 0,0 -0.87623,1.75248 -1.43887,2.14909 0.3505,0.64566 0.56264,1.36509 0.52574,2.00152 -0.0184,0.47962 -0.43351,1.11604 -0.99614,1.78936 0.40584,0.60876 0.74711,1.21751 0.701,1.41121 -0.0922,0.41505 -2.8962,1.29129 -3.31126,1.34663 -0.0738,0.009 -0.13835,-0.0554 -0.20292,-0.14758 -0.55341,0.42429 -0.99615,0.71022 -1.17139,0.75633 -0.65487,0.17525 -1.2544,-0.65486 -1.17139,-0.86701 0.0369,-0.0922 0.90391,-0.61798 1.84471,-1.35586 -0.0554,-0.21214 -0.10146,-0.37817 -0.12913,-0.41505 -0.0369,-0.0461 -2.01073,-0.56265 -4.60255,-1.24519 l 0.17525,0.40584 0.32282,-0.13835 3.88312,7.15747 c 0,0 0.36894,0.55341 0.95924,1.44809 1.65102,-1.02381 3.50495,-1.77091 5.52491,-2.13985 8.6609,-1.57723 16.9621,4.18748 18.54855,12.87606 1.58645,8.68858 -4.1506,17.01744 -12.81151,18.59467 z" />
    <path d="m 225.21252,298.96696 c 0,0 0.10146,0.0831 0.16602,0.14758 0.11991,-0.29515 0.17525,-0.58109 0.12913,-0.85779 -0.33204,-1.99229 -1.9185,-1.52189 -2.68405,-1.31897 -0.48885,0.12913 -0.8209,0.4704 -1.18061,0.6272 1.85393,0.61798 3.24668,1.21751 3.56951,1.40198 z" />
    <path d="m 199.64485,307.21281 c -0.16602,-0.0645 -0.32282,-0.13835 -0.48885,-0.20291 -0.0369,-0.009 -0.0645,-0.0277 -0.10146,-0.0369 -0.26748,-0.11069 -0.53496,-0.22137 -0.79322,-0.33205 -0.0369,-0.0184 -0.0738,-0.0277 -0.11068,-0.0461 -0.27671,-0.11068 -0.54419,-0.22136 -0.81168,-0.33205 -0.0554,-0.0184 -0.10145,-0.0461 -0.15679,-0.0645 -0.23982,-0.10147 -0.47041,-0.1937 -0.70099,-0.28594 -0.0369,-0.009 -0.0645,-0.0277 -0.10146,-0.0369 -0.24904,-0.10147 -0.48885,-0.1937 -0.71944,-0.28594 -0.0554,-0.0184 -0.11069,-0.0461 -0.16602,-0.0645 -0.21215,-0.0831 -0.40584,-0.1568 -0.59953,-0.23059 -0.0277,-0.009 -0.0554,-0.0184 -0.0738,-0.0277 -0.21215,-0.083 -0.40584,-0.1568 -0.59031,-0.22137 -0.0461,-0.0184 -0.083,-0.0277 -0.12913,-0.0461 -0.17525,-0.0645 -0.34127,-0.12913 -0.49807,-0.17525 0,0 -0.009,0 -0.0184,0 -0.1568,-0.0554 -0.28593,-0.0922 -0.41506,-0.13835 -0.0277,-0.009 -0.0554,-0.0184 -0.0922,-0.0277 -0.1199,-0.0369 -0.22136,-0.0645 -0.30437,-0.0831 -0.0922,-0.0184 -0.20292,-0.0461 -0.3136,-0.0738 l 2.00151,4.3074 5.18363,-1.58646 z" />
    <path d="m 195.29134,294.7518 c 0,0 0.0738,0.0461 0.11068,0.0738 2.06608,-0.23059 6.87154,-0.71022 10.1459,-0.6641 0.10146,-1.32818 0.44273,-2.76706 0.44273,-2.76706 0,0 0.13835,-0.67332 0.35049,-1.66946 -1.03303,0.24903 -2.0015,0.42428 -2.80395,0.47962 0,0 0,0 0,0 0.0369,0 -0.47041,0.13835 -0.70099,0.0277 0,0 0,0 0,0 -0.0184,0 -0.0369,0 -0.0554,0 -3.2928,-0.0645 -7.48952,4.52877 -7.48952,4.52877 z" />
    <g  transform="matrix(0.92235449,0,0,0.92235449,-248.82236,-49.821396)">
        <path d="m 402.72,259.44 -1.43,-0.1 0.38,-12.08 c 6.66,0 10.55,-3.65 11.69,-10.93 0.25,-1.77 0.38,-4.28 0.38,-7.51 0,-4.5 -0.32,-9.44 -0.95,-14.83 -0.44,-3.23 -0.73,-6.97 -0.86,-11.22 0,-6.21 1.28,-11.14 3.85,-14.79 2.57,-3.64 6.26,-5.47 11.08,-5.47 2.79,0 5.83,0.67 9.13,2 l -4.66,14.26 c -2.28,-0.95 -3.96,-1.43 -5.04,-1.43 l 0.1,-0.19 c -0.38,0 -0.7,0.62 -0.95,1.85 -0.25,1.24 -0.38,2.71 -0.38,4.42 0,2.35 0.13,5.07 0.38,8.18 0.38,6.02 0.57,10.81 0.57,14.36 0,6.34 -0.62,11.93 -1.85,16.78 -1.24,4.85 -3.9,8.84 -7.99,11.98 -4.09,3.14 -8.57,4.71 -13.45,4.71 z" />
        <path d="m 457.01,238.52 c -2.92,0 -5.71,-0.92 -8.37,-2.76 -2.85,-2.22 -5.06,-5.18 -6.61,-8.89 -1.55,-3.71 -2.61,-7.69 -3.19,-11.93 -0.57,-4.25 -0.86,-8.18 -0.86,-11.79 0,-6.97 0.82,-13.85 2.47,-20.63 l 14.17,3.52 c -1.84,7.35 -2.76,13.88 -2.76,19.59 0,6.02 0.63,10.87 1.9,14.55 1.27,3.68 2.38,5.52 3.33,5.52 1.14,0 2.11,-0.48 2.9,-1.43 0.79,-0.95 1.47,-2.06 2.04,-3.33 0.57,-1.27 1.01,-2.44 1.33,-3.52 1.52,-5.96 2.28,-12.08 2.28,-18.35 0,-4.25 -0.32,-8.59 -0.95,-13.03 l 10.93,-1.9 c 1.08,5.51 1.62,11.69 1.62,18.54 0,15.78 -3.58,26.66 -10.74,32.61 -2.92,2.16 -6.09,3.23 -9.51,3.23 z" />
        <path d="m 508.55,242.13 c -0.19,-2.28 -0.29,-4.5 -0.29,-6.66 0,-3.36 0.13,-6.56 0.38,-9.6 0.25,-3.04 0.38,-5.9 0.38,-8.56 0,-3.04 -0.3,-6.12 -0.9,-9.22 -0.6,-3.1 -1.71,-5.74 -3.33,-7.89 -1.62,-2.15 -3.91,-3.39 -6.89,-3.71 -0.89,13.82 -1.43,27.64 -1.62,41.46 l -11.12,-0.09 c -0.82,-13.88 -1.24,-27.8 -1.24,-41.74 l 0.19,-14.07 14.83,1.33 -0.09,1.9 c 4.12,0.25 7.83,1.59 11.12,3.99 3.04,2.28 5.4,5.09 7.08,8.41 1.68,3.33 2.85,6.94 3.52,10.84 0.67,3.9 1,7.75 1,11.55 l -0.19,11.79 c 0,2.92 0.16,5.74 0.48,8.46 z" />
        <path d="m 519.29,259.44 -1.43,-0.1 0.38,-12.08 c 6.66,0 10.55,-3.65 11.69,-10.93 0.25,-1.77 0.38,-4.28 0.38,-7.51 0,-4.5 -0.32,-9.44 -0.95,-14.83 -0.44,-3.23 -0.73,-6.97 -0.86,-11.22 0,-6.21 1.28,-11.14 3.85,-14.79 2.57,-3.64 6.26,-5.47 11.08,-5.47 2.79,0 5.83,0.67 9.13,2 l -4.66,14.26 c -2.28,-0.95 -3.96,-1.43 -5.04,-1.43 l 0.09,-0.19 c -0.38,0 -0.7,0.62 -0.95,1.85 -0.25,1.24 -0.38,2.71 -0.38,4.42 0,2.35 0.13,5.07 0.38,8.18 0.38,6.02 0.57,10.81 0.57,14.36 0,6.34 -0.62,11.93 -1.85,16.78 -1.23,4.85 -3.9,8.84 -7.99,11.98 -4.09,3.14 -8.57,4.71 -13.45,4.71 z" />
        <path d="m 576.81,238.52 c -2.09,0 -4.09,-0.25 -5.99,-0.76 -5.71,-1.96 -10.03,-5.81 -12.98,-11.55 -2.95,-5.74 -4.42,-11.74 -4.42,-18.02 0,-4.5 0.7,-8.52 2.09,-12.08 1.39,-3.55 3.53,-6.35 6.42,-8.41 2.88,-2.06 6.54,-3.09 10.98,-3.09 5.26,0.38 9.21,2.08 11.84,5.09 2.63,3.01 3.95,6.48 3.95,10.41 0,4.31 -1.66,8.5 -4.99,12.55 -3.33,4.06 -8.42,6.81 -15.26,8.27 1.2,2.22 2.55,3.8 4.04,4.75 1.49,0.95 2.84,1.43 4.04,1.43 2.09,0 3.55,-0.89 4.37,-2.66 l 10.65,3.33 c -1.01,3.23 -2.9,5.8 -5.66,7.7 -2.76,1.9 -5.79,2.92 -9.08,3.04 z m -11.22,-30.9 c 2.6,-0.44 4.64,-1.12 6.13,-2.04 1.49,-0.92 2.52,-1.9 3.09,-2.95 0.57,-1.05 0.86,-1.95 0.86,-2.71 0,-1.71 -1.21,-2.57 -3.61,-2.57 -0.89,0 -1.81,0.29 -2.76,0.86 -0.95,0.57 -1.78,1.6 -2.47,3.09 -0.7,1.49 -1.11,3.6 -1.24,6.32 z" />
        <path d="m 618.27,239.75 c -3.99,0 -7.23,-1.08 -9.7,-3.23 -4.56,-3.93 -7.42,-10.62 -8.56,-20.06 -0.51,-4.25 -0.76,-9.25 -0.76,-15.02 l -6.65,0.29 -0.38,-11.12 7.42,-0.29 c 0.19,-3.04 0.44,-6.12 0.76,-9.22 l 15.31,2.47 c -0.38,2.03 -0.67,4.09 -0.86,6.18 l 12.65,-0.48 0.48,11.22 -14.26,0.48 c -0.25,2.66 -0.38,5.9 -0.38,9.7 0,8.43 1.2,13.88 3.61,16.35 0.51,0.38 1.05,0.57 1.62,0.57 0.7,-0.06 1.31,-0.68 1.85,-1.85 0.54,-1.17 0.81,-2.96 0.81,-5.37 l 11.12,-0.1 v 1.62 c 0,3.11 -0.52,6.02 -1.57,8.75 -1.05,2.73 -2.6,4.93 -4.66,6.61 -2.06,1.68 -4.67,2.52 -7.84,2.52 z" />
        <path d="m 672.84,241.18 h -11.22 l -2.95,-58.19 h 13.88 v 2.66 c 1.33,-0.76 3.11,-1.14 5.33,-1.14 2.79,0 5.67,1.11 8.65,3.33 2.98,2.22 5.45,5.99 7.42,11.31 l -10.55,3.61 c -0.83,-2.41 -1.76,-4.2 -2.8,-5.37 -1.05,-1.17 -1.95,-1.76 -2.71,-1.76 -0.63,0 -1.47,0.57 -2.52,1.71 -1.05,1.14 -1.98,2.98 -2.81,5.51 l 0.29,38.32 z" />
        <path d="m 702.6,195.16 c -1.84,0 -3.42,-0.67 -4.75,-2 -1.33,-1.33 -2,-2.92 -2,-4.75 0,-1.83 0.67,-3.41 2,-4.71 1.33,-1.3 2.91,-1.95 4.75,-1.95 1.84,0 3.41,0.65 4.71,1.95 1.3,1.3 1.95,2.87 1.95,4.71 0,1.84 -0.65,3.42 -1.95,4.75 -1.3,1.33 -2.87,2 -4.71,2 z m 6.66,45.35 h -11.12 l -2.28,-40.89 h 13.41 v 40.89 z" />
        <path d="m 737.78,241.65 -0.57,-4.09 c -5.58,-1.2 -10.49,-3.17 -14.74,-5.9 -6.08,-3.87 -9.13,-9.22 -9.13,-16.07 0,-3.23 0.92,-6.21 2.76,-8.94 3.04,-4.5 8.81,-6.94 17.3,-7.32 -0.19,-4.37 -0.29,-9.76 -0.29,-16.16 l 14.36,0.95 c -0.38,5.9 -0.57,11.85 -0.57,17.88 0,13.57 0.67,26.34 2,38.32 z m -2.19,-16.07 c -0.57,-5.07 -1.05,-10.11 -1.43,-15.12 -3.11,0.06 -5.32,0.41 -6.66,1.05 -2.03,0.89 -3.04,2.19 -3.04,3.9 0,0.89 0.22,1.9 0.67,3.04 1.01,2.79 4.5,5.17 10.46,7.13 z" />
        <path d="m 774.96,238.52 c -2.09,0 -4.09,-0.25 -5.99,-0.76 -5.71,-1.96 -10.03,-5.81 -12.98,-11.55 -2.95,-5.74 -4.42,-11.74 -4.42,-18.02 0,-4.5 0.7,-8.52 2.09,-12.08 1.39,-3.55 3.53,-6.35 6.42,-8.41 2.88,-2.06 6.54,-3.09 10.98,-3.09 5.26,0.38 9.21,2.08 11.84,5.09 2.63,3.01 3.95,6.48 3.95,10.41 0,4.31 -1.66,8.5 -4.99,12.55 -3.33,4.06 -8.42,6.81 -15.26,8.27 1.2,2.22 2.55,3.8 4.04,4.75 1.49,0.95 2.84,1.43 4.04,1.43 2.09,0 3.55,-0.89 4.37,-2.66 l 10.65,3.33 c -1.01,3.23 -2.9,5.8 -5.66,7.7 -2.76,1.9 -5.79,2.92 -9.08,3.04 z m -11.22,-30.9 c 2.6,-0.44 4.64,-1.12 6.13,-2.04 1.49,-0.92 2.52,-1.9 3.09,-2.95 0.57,-1.05 0.86,-1.95 0.86,-2.71 0,-1.71 -1.21,-2.57 -3.61,-2.57 -0.89,0 -1.81,0.29 -2.76,0.86 -0.95,0.57 -1.78,1.6 -2.47,3.09 -0.7,1.49 -1.11,3.6 -1.24,6.32 z" />
    </g>
    <g  transform="matrix(0.92235449,0,0,0.92235449,-248.82236,-49.821396)">
        <path d="m 506.62,84.31 v 87.11 c 0,0.85 -0.3,1.57 -0.89,2.17 -0.59,0.59 -1.31,0.89 -2.16,0.89 h -19.16 c -0.85,0 -1.56,-0.3 -2.16,-0.89 -0.59,-0.59 -0.89,-1.32 -0.89,-2.17 v -41.07 c 0,-0.85 -0.39,-1.32 -1.15,-1.4 -0.77,-0.08 -1.41,0.21 -1.92,0.89 l -21.48,34.56 c -0.42,0.68 -1.11,1.02 -2.04,1.02 -0.93,0 -1.66,-0.34 -2.17,-1.02 l -21.47,-34.56 c -0.43,-0.68 -1.02,-0.98 -1.79,-0.89 -0.77,0.09 -1.15,0.55 -1.15,1.4 v 41.07 c 0,0.85 -0.3,1.57 -0.89,2.17 -0.59,0.59 -1.31,0.89 -2.16,0.89 h -19.16 c -0.85,0 -1.57,-0.3 -2.16,-0.89 -0.59,-0.59 -0.89,-1.32 -0.89,-2.17 V 84.31 c 0,-0.85 0.3,-1.57 0.89,-2.17 0.59,-0.59 1.31,-0.89 2.16,-0.89 h 17.77 c 0.84,0 1.73,0.25 2.66,0.77 0.93,0.51 1.61,1.11 2.03,1.78 l 24.55,35.97 c 0.51,0.68 1.11,1.02 1.79,1.02 0.68,0 1.24,-0.34 1.66,-1.02 L 480.99,83.8 c 0.51,-0.68 1.23,-1.27 2.16,-1.78 0.93,-0.51 1.82,-0.77 2.67,-0.77 h 17.77 c 0.85,0 1.56,0.3 2.16,0.89 0.59,0.59 0.89,1.32 0.89,2.17" />
        <path d="m 514.66,84.31 c 0,-0.85 0.3,-1.57 0.89,-2.17 0.59,-0.59 1.31,-0.89 2.16,-0.89 h 19.16 c 0.84,0 1.56,0.3 2.16,0.89 0.59,0.59 0.89,1.32 0.89,2.17 v 51.65 c 0,3.32 0.53,6.06 1.6,8.23 1.07,2.17 2.39,3.87 3.97,5.1 1.58,1.23 3.27,2.1 5.06,2.61 1.79,0.51 3.42,0.77 4.87,0.77 1.45,0 3.07,-0.26 4.87,-0.77 1.79,-0.51 3.46,-1.38 4.99,-2.61 1.54,-1.23 2.84,-2.93 3.91,-5.1 1.07,-2.17 1.6,-4.91 1.6,-8.23 V 84.31 c 0,-0.85 0.29,-1.57 0.89,-2.17 0.59,-0.59 1.31,-0.89 2.16,-0.89 H 593 c 0.84,0 1.56,0.3 2.16,0.89 0.59,0.59 0.89,1.32 0.89,2.17 v 51.65 c 0,6.04 -0.96,11.52 -2.87,16.45 -1.91,4.93 -4.65,9.14 -8.21,12.63 -3.57,3.49 -7.85,6.19 -12.86,8.1 -5.01,1.92 -10.57,2.87 -16.68,2.87 -6.11,0 -11.67,-0.96 -16.68,-2.87 -5.01,-1.91 -9.3,-4.61 -12.86,-8.1 -3.57,-3.48 -6.33,-7.69 -8.28,-12.63 -1.95,-4.93 -2.93,-10.41 -2.93,-16.45 V 84.31 Z" />
        <path d="m 631.34,124.23 h 13.45 c 1.01,0 2.07,-0.19 3.17,-0.57 1.1,-0.38 2.11,-0.97 3.04,-1.78 0.93,-0.81 1.69,-1.81 2.28,-3 0.59,-1.19 0.89,-2.59 0.89,-4.21 0,-0.85 -0.15,-1.85 -0.45,-3 -0.3,-1.15 -0.8,-2.25 -1.52,-3.32 -0.72,-1.06 -1.69,-1.95 -2.92,-2.68 -1.23,-0.72 -2.73,-1.08 -4.5,-1.08 h -13.45 c -0.84,0 -1.56,0.3 -2.16,0.89 -0.59,0.59 -0.89,1.32 -0.89,2.17 v 13.52 c 0,0.85 0.3,1.57 0.89,2.17 0.59,0.6 1.31,0.89 2.16,0.89 m -6.12,50.25 h -19.1 c -0.85,0 -1.58,-0.3 -2.18,-0.89 -0.6,-0.59 -0.9,-1.32 -0.9,-2.17 V 84.18 c 0,-0.85 0.3,-1.57 0.89,-2.17 0.59,-0.59 1.32,-0.89 2.17,-0.89 h 39.66 c 4.93,0 9.48,0.83 13.65,2.49 4.17,1.66 7.72,3.97 10.65,6.95 2.93,2.98 5.23,6.5 6.89,10.59 1.66,4.08 2.49,8.59 2.49,13.52 0,2.72 -0.32,5.42 -0.95,8.1 -0.64,2.68 -1.55,5.21 -2.74,7.59 -1.19,2.38 -2.59,4.53 -4.21,6.44 -1.62,1.91 -3.45,3.51 -5.48,4.78 -0.68,0.51 -1.13,1.13 -1.34,1.85 -0.21,0.72 -0.06,1.43 0.45,2.1 3.23,4.25 6.63,8.63 10.2,13.14 3.57,4.51 6.76,8.63 9.57,12.37 0.51,0.68 0.64,1.42 0.38,2.23 -0.26,0.81 -0.81,1.21 -1.66,1.21 h -23.72 c -0.85,0 -1.77,-0.23 -2.74,-0.7 -0.98,-0.47 -1.72,-1.04 -2.23,-1.72 -2.71,-3.57 -5.39,-7.18 -8.06,-10.84 -2.67,-3.66 -5.31,-7.35 -7.93,-11.1 -0.51,-0.68 -1.23,-1.26 -2.16,-1.72 -0.93,-0.47 -1.82,-0.7 -2.66,-0.7 h -2.79 c -0.85,0 -1.57,0.3 -2.16,0.89 -0.59,0.59 -0.89,1.32 -0.89,2.17 v 20.66 c 0,0.85 -0.3,1.57 -0.9,2.17 -0.6,0.6 -1.33,0.89 -2.18,0.89" />
        <path d="m 731.73,139.54 h 11.35 c 0.85,0 1.47,-0.28 1.85,-0.83 0.38,-0.55 0.36,-1.21 -0.06,-1.98 -0.85,-2.12 -1.87,-4.61 -3.06,-7.46 -1.19,-2.85 -2.3,-5.5 -3.31,-7.97 -0.34,-0.77 -0.72,-1.15 -1.15,-1.15 -0.43,0 -0.81,0.38 -1.15,1.15 l -6.38,15.43 c -0.34,0.77 -0.34,1.42 0,1.98 0.34,0.56 0.98,0.83 1.91,0.83 M 724.2,84.06 c 0.34,-0.77 0.91,-1.42 1.72,-1.98 0.81,-0.55 1.68,-0.83 2.61,-0.83 h 17.86 c 0.85,0 1.68,0.28 2.49,0.83 0.81,0.55 1.38,1.21 1.72,1.98 l 37.24,86.73 c 0.34,0.77 0.28,1.57 -0.19,2.42 -0.47,0.85 -1.38,1.28 -2.74,1.28 H 763.1 c -0.94,0 -1.81,-0.28 -2.61,-0.83 -0.81,-0.55 -1.43,-1.21 -1.85,-1.98 l -3.44,-7.65 c -0.43,-0.77 -1.04,-1.43 -1.85,-1.98 -0.81,-0.55 -1.64,-0.83 -2.49,-0.83 h -26.91 c -0.94,0 -1.81,0.28 -2.61,0.83 -0.81,0.55 -1.38,1.21 -1.72,1.98 l -3.57,7.65 c -0.34,0.77 -0.91,1.43 -1.72,1.98 -0.81,0.55 -1.64,0.83 -2.49,0.83 H 689.9 c -0.42,0 -0.87,-0.08 -1.34,-0.25 -0.47,-0.17 -0.85,-0.42 -1.15,-0.77 -0.3,-0.34 -0.49,-0.77 -0.57,-1.28 -0.08,-0.51 0.04,-1.11 0.38,-1.79 l 36.99,-86.34 z" />
    </g>
</svg>