<?xml version="1.0" encoding="UTF-8" standalone="no"?>
<svg
   id="Layer_1"
   viewBox="0 0 800 263">
  <defs
     id="defs134">
    <style
       id="style132">.cls-1{fill:#f39200;}.cls-1,.cls-2{stroke-width:0px;}.cls-2{fill:#fff;}</style>
  </defs>
  <path
     class="cls-1"
     d="m 340.1911,75.01344 c 0,0 -0.80557,0.268522 -1.73645,0.528094 0.25062,0.170064 0.50125,0.331177 0.74292,0.501242 0.0179,0.0089 0.0358,0.02685 0.0537,0.0358 0.46544,0.313276 0.92193,0.617601 1.35156,0.921927 0,-0.912977 0.0537,-1.709593 0.18797,-2.192934 -0.16111,0.06266 -0.36698,0.134262 -0.5997,0.205868 0,0 0,0 0,0 z"
     id="path136"
     style="fill:#f15bb5;fill-opacity:1" />
  <path
     class="cls-1"
     d="m 336.87932,93.165558 0.55495,-0.11636 c 0.0895,-0.850321 0.17901,-1.691692 0.23272,-2.425653 -0.55495,-0.205867 -1.00249,-0.375931 -1.01144,-0.402784 -0.0269,-0.07161 0.0985,-0.805567 0.0985,-0.805567 0,0 0.17007,0.04475 0.42964,0.12531 -0.22377,-0.08951 -0.35803,-0.161113 -0.38489,-0.187965 -0.0985,-0.143212 0.4923,-0.912977 0.96669,-1.494775 0.25062,-2.157131 2.02286,-5.826938 1.91546,-5.943297 -0.0269,-0.02685 -0.51915,-0.250621 -1.27101,-0.581799 v 0 c -0.29538,-0.134261 -0.6355,-0.277473 -1.00248,-0.438587 0,0 0,0 -0.009,0 -0.30432,-0.134261 -0.62655,-0.268522 -0.95773,-0.411734 l -4.82445,1.360514 z"
     id="path138"
     style="fill:#f15bb5;fill-opacity:1" />
  <path
     class="cls-1"
     d="m 335.60832,93.980076 c 0.0358,0.223768 0.0627,0.438586 0.0895,0.653404 0.17902,-0.331177 0.40279,-0.635503 0.68026,-0.886124 l -0.0985,-0.205867 -0.73396,0.152163 c 0.0179,0.09846 0.0448,0.187965 0.0627,0.286424 z"
     id="path140"
     style="fill:#f15bb5;fill-opacity:1" />
  <path
     class="cls-1"
     d="m 326.55911,104.96264 c 2.78368,-0.51019 5.03927,-2.22873 6.32818,-4.52907 l -5.9254,1.17254 c -0.0805,0.0537 -0.17006,0.0895 -0.26852,0.10741 -0.0806,0.0179 -0.17006,0 -0.25062,0 h -0.0358 c 0,0 0,0 0,0 -0.29538,-0.0626 -0.53705,-0.28642 -0.59075,-0.5997 -0.0448,-0.23272 0.0358,-0.44754 0.17006,-0.60865 l -0.71606,-2.04972 c -0.0447,0.009 -0.0895,0.0358 -0.14321,0.04475 -1.20835,0.223768 -2.35405,-0.581799 -2.57782,-1.781199 -0.22377,-1.208351 0.5818,-2.354047 1.7812,-2.577816 0.29538,-0.0537 0.5818,-0.04475 0.85032,0.009 l 2.97165,-6.775717 c -1.51267,-0.581798 -3.18646,-0.769764 -4.88711,-0.465439 -4.96766,0.904026 -8.25259,5.683726 -7.34856,10.669293 0,0 0,0 0,0 0,0 0,0 0,0 0.91297,4.985558 5.67477,8.288388 10.64244,7.384358 z"
     id="path142"
     style="fill:#f15bb5;fill-opacity:1" />
  <path
     class="cls-1"
     d="m 333.90767,94.293352 c -0.0179,-0.08056 -0.0358,-0.152163 -0.0537,-0.23272 l -7.04424,1.494775 c 0.0358,0.107409 0.0716,0.223769 0.0985,0.340129 l 7.13374,-0.375932 c -0.0179,-0.402783 -0.0537,-0.814518 -0.13426,-1.217301 z"
     id="path144"
     style="fill:#f15bb5;fill-opacity:1" />
  <path
     class="cls-1"
     d="m 325.63718,94.293352 c 0.45649,0.205867 0.83242,0.572848 1.06514,1.029336 l 7.09794,-1.503726 c -0.68025,-2.864239 -2.64047,-5.128779 -5.16458,-6.265524 l -2.98955,6.739914 z"
     id="path146"
     style="fill:#f15bb5;fill-opacity:1" />
  <path
     class="cls-1"
     d="m 333.0305,100.16504 c 0.53704,-1.038284 0.87717,-2.192931 0.98458,-3.392331 -2.27349,-0.0537 -5.10192,-0.11636 -7.09794,-0.152163 -0.0716,0.528095 -0.33118,1.011435 -0.73396,1.360514 0.28642,0.313276 0.73396,0.796617 0.73396,0.796617 l 0.0626,1.584283 c 0.16112,0.10741 0.28643,0.27747 0.32223,0.49229 0.0268,0.17006 0,0.33118 -0.0806,0.46544 z"
     id="path148"
     style="fill:#f15bb5;fill-opacity:1" />
  <path
     class="cls-1"
     d="m 326.42485,100.23665 c 0.0448,0 0.0895,0 0.13426,0 0,-0.483342 0,-1.387367 0,-1.387367 l -0.5997,-0.698159 c -0.13426,0.08951 -0.28643,0.161114 -0.44754,0.223769 l 0.68026,1.951267 c 0.0716,-0.0447 0.15216,-0.0806 0.23272,-0.0985 z"
     id="path150"
     style="fill:#f15bb5;fill-opacity:1" />
  <path
     class="cls-1"
     d="m 344.88129,76.615624 1.817,-0.554947 -0.23272,-0.519143 0.20587,-0.08951 -0.45649,-0.993533 c -0.26852,-0.07161 -0.54599,-0.143212 -0.81452,-0.214818 -0.15216,0.742912 -0.33117,1.54848 -0.51914,2.371949 z"
     id="path152"
     style="fill:#f15bb5;fill-opacity:1" />
  <path
     class="cls-1"
     d="m 358.47748,99.135707 c 4.96766,-0.904026 8.26154,-5.683726 7.34856,-10.669292 -0.91297,-4.985567 -5.67477,-8.297344 -10.64244,-7.384368 -1.13674,0.205867 -2.18398,0.626552 -3.12381,1.1994 1.46792,2.219786 3.5624,5.388351 4.58278,6.981584 0.009,0 0.0179,0 0.0269,0 0.49229,-0.08951 0.95773,0.23272 1.04723,0.725011 0.0895,0.492291 -0.23272,0.95773 -0.72501,1.047237 -0.49229,0.08951 -0.95773,-0.232719 -1.04723,-0.72501 -0.0269,-0.143212 -0.009,-0.286424 0.0269,-0.411735 -1.13675,-1.503725 -3.37443,-4.591734 -4.99452,-6.838372 -2.4525,2.049722 -3.75931,5.325696 -3.14171,8.700128 0.91297,4.985567 5.67477,8.29734 10.64244,7.384368 z"
     id="path154"
     style="fill:#f15bb5;fill-opacity:1" />
  <path
     class="cls-1"
     d="m 335.483,93.460932 0.68026,-0.143212 -5.26304,-10.875159 -1.56638,3.535545 c 3.0164,1.351563 5.35255,4.05469 6.15812,7.491777 z"
     id="path156"
     style="fill:#f15bb5;fill-opacity:1" />
  <path
     class="cls-1"
     d="m 336.70926,98.858234 c -0.44754,-0.313277 -0.80557,-0.742913 -1.05619,-1.244154 -0.11636,0.733961 -0.30433,1.450021 -0.55495,2.139228 l 1.19045,-0.232719 c 0.23272,-0.366981 0.42069,-0.653405 0.42069,-0.653405 0,0 0,0 0,0 z"
     id="path158"
     style="fill:#f15bb5;fill-opacity:1" />
  <path
     class="cls-1"
     d="m 344.51431,78.208857 c -0.11636,0.501242 -0.24167,0.984582 -0.34908,1.43212 0.51914,0.447537 0.81452,0.778715 0.80557,0.939828 -0.0179,0.322227 -0.79662,2.756831 -1.7991,5.782184 l 4.60068,-7.903511 -0.46544,-1.038287 z"
     id="path160"
     style="fill:#f15bb5;fill-opacity:1" />
  <path
     class="cls-1"
     d="m 403.12381,0.4 c -75.06098,0 -135.91711,60.847188 -135.91711,135.91712 0,56.95361 35.04218,105.72624 84.73673,125.93703 0.17007,0.0537 0.34013,0.10741 0.51019,0.17006 -0.52809,-3.48184 1.17255,-7.1964 4.15315,-9.07606 2.9806,-1.87965 7.07109,-1.7991 9.98009,0.17902 -2.22874,-4.8155 0.66235,-11.00047 5.45995,-13.28291 4.7976,-2.28244 10.73195,-1.1099 15.05516,1.98706 l 1.44107,0.10741 c 1.22625,-2.81948 4.7081,-3.49974 7.69765,-2.53306 0.15216,-0.39383 0.30432,-0.79662 0.47439,-1.1815 0.47438,-1.10094 1.01143,-2.34509 0.54599,-3.45499 -0.21482,-0.51019 -0.6355,-0.92192 -0.83242,-1.44107 -0.30432,-0.76976 -0.0895,-1.62903 0.14321,-2.42565 0.67131,-2.33615 1.45002,-4.64544 2.3451,-6.90103 0.6534,-1.65589 1.27996,-3.78616 -0.009,-5.02137 -0.34013,-0.33118 -0.82347,-0.59075 -0.92193,-1.04724 -0.0716,-0.31327 0.0627,-0.6355 0.19692,-0.93982 1.2173,-2.77474 2.4346,-5.54947 3.64295,-8.31525 0.59075,-1.35156 1.17255,-2.9448 0.46544,-4.2337 1.15465,-2.3988 2.27349,-4.80656 3.38338,-7.22326 0.19692,-0.42963 0.39384,-0.85927 0.59075,-1.27995 1.15465,-2.49726 2.3093,-5.00347 3.46394,-7.50073 0.83242,0.10741 1.30681,0.97563 1.63799,1.74539 2.04077,4.64544 4.07259,9.29088 6.11336,13.93632 0.0268,-0.0627 0.0537,-0.11636 0.0806,-0.17902 l -0.0537,0.25063 c 0,0 -0.0179,-0.0448 -0.0268,-0.0627 -0.52809,1.26206 0.88613,2.54201 1.60219,3.79512 2.05867,3.60715 2.44355,4.77075 3.15066,7.37541 0.24167,0.90403 0.49229,1.84386 0.34013,2.76579 -0.15216,0.92192 -0.82347,1.82595 -1.75435,1.94231 1.64694,4.06364 2.9985,8.25259 4.03679,12.51314 0.0537,0.20587 0.0985,0.42964 0.11636,0.65341 4.26055,-1.95126 8.57482,-3.75932 12.96068,-5.3973 -1.33366,-7.18745 -2.07657,-15.07306 -2.27349,-20.73889 -0.15216,-4.54698 0.0716,-9.09396 0.43859,-13.62304 1.27101,-15.71751 4.61858,-32.16003 15.06411,-43.96607 8.9418,12.23567 10.97362,28.06955 12.17302,43.17841 0.31327,3.94728 0.59075,7.89456 0.49229,11.85079 -0.11636,5.17353 -0.68921,10.85726 -1.80805,16.48728 4.71704,-0.90403 9.45199,-1.56638 14.21379,-2.04077 -3.42814,-11.77024 -5.2899,-28.56184 -5.65688,-39.39225 -0.20587,-6.22077 0.0985,-12.45049 0.60865,-18.65336 1.73645,-21.5176 6.31923,-44.01083 20.61358,-60.17588 12.23567,16.74685 15.01935,38.41661 16.65734,59.09284 0.42964,5.3973 0.80557,10.81251 0.68026,16.22771 -0.30433,13.22026 -2.73893,28.87511 -8.2705,41.98796 3.44604,0.0537 6.89208,0.17007 10.34707,0.34013 17.46291,-22.86021 27.83683,-51.42205 27.83683,-82.40954 0,-75.060979 -60.84719,-135.91711775 -135.91712,-135.91711775 z m -44.33306,100.4453 c -5.90749,1.07409 -11.57331,-2.855289 -12.65635,-8.780685 -0.74292,-4.054689 0.85927,-7.993018 3.83092,-10.418671 -0.5281,-0.742912 -0.86823,-1.208351 -0.86823,-1.208351 l -6.67726,10.04274 c 0.45649,0.554946 0.80557,1.002484 0.80557,1.047238 0,0.0358 -0.52809,-0.11636 -1.271,-0.340129 l -0.82347,1.235203 c -0.14321,0.429636 -0.28643,0.850322 -0.42964,1.262056 0.5639,0.47439 0.97563,1.127794 1.11884,1.906509 0.32223,1.781199 -0.85927,3.499743 -2.64047,3.82197 -0.15216,0.02685 -0.30432,0.02685 -0.45648,0.0358 0,0 0,0.0179 0,0.0179 0,0 2.60466,3.93833 2.29139,3.87568 -0.0895,-0.0179 -0.6176,-0.20587 -1.29786,-0.45649 -0.0537,0.25062 -0.18797,0.75186 -0.24167,0.73396 -0.0806,-0.0179 -3.26702,-1.13674 -3.28493,-1.20835 -0.0269,-0.0716 0.0985,-0.80557 0.0985,-0.80557 0,0 0.15216,0.0448 0.38488,0.10741 -0.6892,-0.27747 -1.19045,-0.50124 -1.22625,-0.55494 -0.0627,-0.10741 0.31328,-0.76977 0.67131,-1.351571 l -1.11885,0.223771 c -1.35156,3.34758 -4.31426,5.9612 -8.11832,6.65041 -5.9075,1.07409 -11.57332,-2.85529 -12.65636,-8.780691 -1.08304,-5.925395 2.82843,-11.60912 8.73593,-12.692161 2.05867,-0.375931 4.08154,-0.134261 5.89854,0.581799 l 1.7454,-3.974133 -2.08553,-4.31426 c -0.53704,-0.187966 -1.13674,-0.429636 -1.73644,-0.725011 -0.0537,-0.009 -0.0895,-0.0179 -0.0985,-0.02685 -0.0358,-0.0179 -0.14321,-0.06266 -0.26852,-0.11636 -0.73396,-0.11636 -2.61362,-0.545996 -2.61362,-0.545996 -0.17007,-0.465439 0.25957,-0.617601 0.86822,-0.680257 -0.5818,-0.528094 -0.99353,-1.136745 -1.08304,-1.808051 -0.34013,-2.51516 2.58677,-5.898543 2.58677,-5.898543 0,0 2.3809,-3.517644 7.01738,-6.45349 0,0 0,0 0,0 0,0 2.93585,-2.712076 9.29983,-3.580299 0,0 0,0 0,0 0.22377,-0.0358 0.43859,-0.07161 0.66236,-0.107409 0.90402,-0.11636 0.76976,-0.877173 0.66235,-1.235203 -0.27747,-0.205868 -0.48334,-0.429636 -0.66235,-0.653405 0,0 0,0 0,0 -0.66236,-0.698158 -0.98459,-2.013918 0.0448,-3.016402 0,0 0,0 0,0 0.69816,-0.877174 1.92441,-1.539529 3.27597,-1.655889 3.02536,-0.268522 6.09546,1.808052 6.20287,2.210835 0.0179,0.08056 -0.29537,0.24167 -0.81452,0.447538 0.0716,0.232719 0.23272,0.742912 0.25063,0.859271 0,0.02685 -0.0269,0.08951 -0.0627,0.170065 0.29537,0.384882 1.20835,1.011434 1.27996,1.226252 0.0806,0.250621 -0.69816,0.465439 -0.81452,0.537045 -0.19692,0.295375 0.0716,1.011435 0.0448,1.127794 -0.0358,0.11636 -0.50124,-0.08951 -0.71606,0.304326 -0.21481,0.393833 0.63551,0.0179 0.65341,0.143212 0.0179,0.12531 -0.41174,0.519143 -0.50124,0.545996 -0.0985,0.02685 -0.40279,0.769764 -0.75187,0.733961 -0.25957,-0.02685 -0.78766,-0.08056 -1.07409,-0.09846 -0.0985,0.02685 -0.24167,0.0537 -0.39383,0.06265 0,0 0,0 0,0.009 -0.37593,0.07161 -2.17503,0.420685 -2.66732,1.118843 -0.15217,0.214818 -0.23272,0.635503 -0.31328,1.154647 -0.009,0.08056 -0.0626,0.456488 -0.0626,0.456488 v 0 c -0.15217,1.07409 -0.34908,2.380899 -1.092,3.11486 -0.25957,0.250621 -0.69815,0.537045 -1.2531,0.823469 -0.5818,1.047238 -1.1636,2.461456 -1.03829,3.848822 0,0 2.66733,2.14818 4.58279,2.828437 l 0.96668,-0.35803 c 0,0 0.0537,-0.07161 0.0895,-0.09846 0.0985,-0.08056 1.87966,-1.029337 2.81054,-0.895075 0,0 0,0 0,0 0.48334,-0.23272 1.1815,-0.626553 1.30681,-0.975632 0.19692,-0.528094 -0.0179,-1.056188 0.15216,-1.136745 0.17007,-0.08056 1.47687,-0.02685 1.53953,0.143212 0.0627,0.179015 -0.25957,1.065139 -0.25957,1.091991 0,0.02685 0.55494,1.897559 0.93983,2.649422 0.38488,0.751863 1.03828,0.742912 1.00248,0.823469 -0.0358,0.08056 -0.95773,0.205867 -1.55743,-0.402784 -0.5997,-0.608651 -0.68921,-2.380899 -0.68921,-2.380899 0,0 -0.59075,1.19045 -0.98458,1.467923 0.23272,0.438586 0.38488,0.930878 0.35803,1.360513 -0.0179,0.322227 -0.29537,0.760814 -0.68026,1.217302 0.27748,0.411735 0.5102,0.83242 0.48334,0.95773 -0.0627,0.277474 -1.96916,0.877174 -2.25558,0.921927 -0.0448,0 -0.0985,-0.0358 -0.14322,-0.09846 -0.37593,0.286424 -0.68025,0.483341 -0.79661,0.519144 -0.44754,0.12531 -0.85928,-0.447538 -0.80557,-0.59075 0.0269,-0.06265 0.6176,-0.420685 1.2531,-0.921927 -0.0358,-0.143212 -0.0716,-0.259572 -0.0895,-0.286424 -0.0269,-0.0358 -1.36947,-0.384882 -3.14172,-0.850321 l 0.11636,0.277473 0.21482,-0.09846 2.64942,4.878158 c 0,0 0.25062,0.375931 0.65341,0.984582 1.12779,-0.698158 2.38985,-1.208351 3.76826,-1.458972 5.9075,-1.074089 11.57332,2.855289 12.65636,8.780685 1.08304,5.925395 -2.82844,11.60912 -8.73593,12.692158 z"
     id="path162"
     style="fill:#f15bb5;fill-opacity:1" />
  <path
     class="cls-1"
     d="m 352.1135,74.118365 c 0,0 0.0716,0.0537 0.11636,0.09846 0.0806,-0.196917 0.11635,-0.393833 0.0895,-0.590749 -0.22377,-1.360514 -1.30681,-1.038287 -1.8349,-0.895075 -0.33118,0.08951 -0.5639,0.322227 -0.80557,0.429636 1.26206,0.420685 2.21979,0.832419 2.43461,0.95773 z"
     id="path164"
     style="fill:#f15bb5;fill-opacity:1" />
  <path
     class="cls-1"
     d="m 334.67744,79.739435 c -0.10741,-0.04475 -0.22377,-0.08951 -0.33118,-0.143212 -0.0268,-0.009 -0.0447,-0.0179 -0.0716,-0.02685 -0.17901,-0.07161 -0.36698,-0.152163 -0.54599,-0.223769 -0.0268,-0.009 -0.0448,-0.0179 -0.0716,-0.02685 -0.18796,-0.08056 -0.37593,-0.152163 -0.55494,-0.223769 -0.0358,-0.0179 -0.0716,-0.02685 -0.10741,-0.04475 -0.16112,-0.06266 -0.32223,-0.134261 -0.48334,-0.196916 -0.0269,-0.009 -0.0448,-0.0179 -0.0716,-0.02685 -0.17006,-0.07161 -0.33118,-0.134261 -0.49229,-0.196916 -0.0358,-0.0179 -0.0716,-0.02685 -0.11636,-0.04475 -0.14321,-0.0537 -0.27747,-0.107409 -0.41174,-0.161113 -0.0179,0 -0.0358,-0.0179 -0.0537,-0.0179 -0.14321,-0.0537 -0.27747,-0.107409 -0.40278,-0.152162 -0.0269,-0.009 -0.0627,-0.0179 -0.0895,-0.0358 -0.11636,-0.04475 -0.23272,-0.08951 -0.34013,-0.11636 0,0 0,0 -0.009,0 -0.10741,-0.0358 -0.19692,-0.06265 -0.27747,-0.08951 -0.0179,0 -0.0448,-0.0089 -0.0627,-0.0179 -0.0806,-0.02685 -0.15216,-0.04475 -0.20587,-0.0537 -0.0627,-0.0179 -0.13426,-0.0358 -0.21481,-0.0537 l 1.36946,2.944796 3.53555,-1.08304 z"
     id="path166"
     style="fill:#f15bb5;fill-opacity:1" />
  <path
     class="cls-1"
     d="m 331.70579,71.236224 c 0,0 0.0537,0.0358 0.0806,0.04475 1.40526,-0.152162 4.69019,-0.48334 6.91892,-0.456488 0.0716,-0.904025 0.30433,-1.888608 0.30433,-1.888608 0,0 0.0985,-0.456488 0.24167,-1.136745 -0.70711,0.170064 -1.36946,0.286424 -1.91546,0.331178 0,0 0,0 0,0 0.0269,0 -0.32223,0.09846 -0.47439,0.0179 0,0 0,0 0,0 -0.009,0 -0.0269,0 -0.0358,0 -2.24664,-0.04475 -5.11088,3.088009 -5.11088,3.088009 z"
     id="path168"
     style="fill:#f15bb5;fill-opacity:1" />
  <g
     id="taca"
     style="fill:#f15bb5;fill-opacity:1"
     transform="matrix(0.89507485,0,0,0.89507485,-129.7769,-259.92357)">
    <path
       class="cls-2"
       d="m 787.46,428.73 v 3.95 h -4.76 v 13.89 h -4.96 v -13.89 h -4.71 v -3.95 z"
       id="path170"
       style="fill:#f15bb5;fill-opacity:1" />
    <path
       class="cls-2"
       d="m 805.66,443.66 h -6.33 l -0.96,2.91 h -5.21 l 6.5,-17.84 h 5.72 l 6.48,17.84 h -5.24 z m -1.24,-3.8 -1.92,-5.77 -1.9,5.77 z"
       id="path172"
       style="fill:#f15bb5;fill-opacity:1" />
    <path
       class="cls-2"
       d="m 819.03,432.92 c 0.73,-1.38 1.78,-2.45 3.13,-3.21 1.35,-0.77 2.9,-1.15 4.66,-1.15 2.23,0 4.1,0.59 5.62,1.78 1.52,1.19 2.5,2.81 2.94,4.85 h -5.34 c -0.32,-0.67 -0.76,-1.19 -1.33,-1.54 -0.57,-0.35 -1.22,-0.53 -1.96,-0.53 -1.15,0 -2.06,0.41 -2.75,1.23 -0.69,0.82 -1.02,1.91 -1.02,3.28 0,1.37 0.34,2.48 1.02,3.3 0.68,0.82 1.6,1.23 2.75,1.23 0.74,0 1.4,-0.18 1.96,-0.53 0.57,-0.35 1.01,-0.87 1.33,-1.54 h 5.34 c -0.44,2.04 -1.42,3.66 -2.94,4.85 -1.52,1.19 -3.39,1.78 -5.62,1.78 -1.76,0 -3.31,-0.38 -4.66,-1.15 -1.35,-0.77 -2.39,-1.84 -3.13,-3.21 -0.73,-1.38 -1.1,-2.95 -1.1,-4.72 0,-1.77 0.37,-3.32 1.1,-4.69 z"
       id="path174"
       style="fill:#f15bb5;fill-opacity:1" />
    <path
       class="cls-2"
       d="m 854.07,443.66 h -6.33 l -0.96,2.91 h -5.21 l 6.5,-17.84 h 5.72 l 6.48,17.84 h -5.24 z m -1.24,-3.8 -1.92,-5.77 -1.9,5.77 z"
       id="path176"
       style="fill:#f15bb5;fill-opacity:1" />
    <path
       class="cls-2"
       d="m 891.7,442.78 h 5.54 v 3.8 h -10.5 v -17.84 h 4.96 v 14.05 z"
       id="path178"
       style="fill:#f15bb5;fill-opacity:1" />
    <path
       class="cls-2"
       d="m 915.52,443.66 h -6.33 l -0.96,2.91 h -5.21 l 6.5,-17.84 h 5.72 l 6.48,17.84 h -5.24 z m -1.24,-3.8 -1.92,-5.77 -1.9,5.77 z"
       id="path180"
       style="fill:#f15bb5;fill-opacity:1" />
    <path
       class="cls-2"
       d="m 953.15,442.78 h 5.54 v 3.8 h -10.5 v -17.84 h 4.96 v 14.05 z"
       id="path182"
       style="fill:#f15bb5;fill-opacity:1" />
    <path
       class="cls-2"
       d="m 970.54,428.73 v 10.35 c 0,0.96 0.22,1.7 0.67,2.23 0.45,0.52 1.13,0.78 2.04,0.78 0.91,0 1.6,-0.27 2.06,-0.8 0.46,-0.53 0.7,-1.27 0.7,-2.21 v -10.35 h 4.96 v 10.35 c 0,1.64 -0.35,3.03 -1.04,4.19 -0.69,1.16 -1.63,2.02 -2.82,2.61 -1.19,0.58 -2.51,0.87 -3.96,0.87 -1.45,0 -2.75,-0.29 -3.88,-0.87 -1.13,-0.58 -2.03,-1.45 -2.68,-2.59 -0.65,-1.15 -0.97,-2.55 -0.97,-4.2 v -10.35 h 4.93 z"
       id="path184"
       style="fill:#f15bb5;fill-opacity:1" />
    <path
       class="cls-2"
       d="m 989.25,432.92 c 0.73,-1.38 1.78,-2.45 3.13,-3.21 1.35,-0.77 2.9,-1.15 4.66,-1.15 2.23,0 4.1,0.59 5.62,1.78 1.52,1.19 2.5,2.81 2.94,4.85 h -5.34 c -0.32,-0.67 -0.76,-1.19 -1.33,-1.54 -0.57,-0.35 -1.22,-0.53 -1.96,-0.53 -1.15,0 -2.06,0.41 -2.75,1.23 -0.68,0.82 -1.02,1.91 -1.02,3.28 0,1.37 0.34,2.48 1.02,3.3 0.68,0.82 1.6,1.23 2.75,1.23 0.74,0 1.4,-0.18 1.96,-0.53 0.57,-0.35 1.01,-0.87 1.33,-1.54 h 5.34 c -0.44,2.04 -1.42,3.66 -2.94,4.85 -1.52,1.19 -3.39,1.78 -5.62,1.78 -1.75,0 -3.31,-0.38 -4.66,-1.15 -1.35,-0.77 -2.39,-1.84 -3.13,-3.21 -0.74,-1.37 -1.1,-2.95 -1.1,-4.72 0,-1.77 0.37,-3.32 1.1,-4.69 z"
       id="path186"
       style="fill:#f15bb5;fill-opacity:1" />
    <path
       class="cls-2"
       d="m 1017.96,432.7 v 2.91 h 5.69 v 3.77 h -5.69 v 3.21 h 6.45 v 3.97 H 1013 v -17.84 h 11.41 v 3.97 h -6.45 z"
       id="path188"
       style="fill:#f15bb5;fill-opacity:1" />
    <path
       class="cls-2"
       d="m 1033.77,446.05 c -0.53,-0.48 -0.8,-1.09 -0.8,-1.84 0,-0.75 0.27,-1.36 0.8,-1.85 0.53,-0.49 1.24,-0.73 2.11,-0.73 0.87,0 1.56,0.25 2.09,0.73 0.53,0.49 0.8,1.11 0.8,1.85 0,0.74 -0.27,1.33 -0.8,1.82 -0.53,0.49 -1.23,0.73 -2.09,0.73 -0.86,0 -1.58,-0.24 -2.11,-0.72 z m 4.8,-18.23 -0.58,12.07 h -4.23 l -0.58,-12.07 z"
       id="path190"
       style="fill:#f15bb5;fill-opacity:1" />
  </g>
  <g
     id="sunset"
     style="fill:#f15bb5;fill-opacity:1"
     transform="matrix(0.89507485,0,0,0.89507485,-129.7769,-259.92357)">
    <path
       class="cls-2"
       d="m 145.99,499.94 -1,-0.07 0.27,-8.49 c 4.68,0 7.42,-2.56 8.22,-7.69 0.18,-1.25 0.27,-3.01 0.27,-5.28 0,-3.16 -0.22,-6.64 -0.67,-10.43 -0.31,-2.27 -0.51,-4.9 -0.6,-7.89 0,-4.37 0.9,-7.83 2.71,-10.39 1.8,-2.56 4.4,-3.84 7.79,-3.84 1.96,0 4.1,0.47 6.42,1.4 l -3.28,10.03 c -1.6,-0.67 -2.79,-1 -3.54,-1 l 0.07,-0.13 c -0.27,0 -0.49,0.43 -0.67,1.3 -0.18,0.87 -0.27,1.9 -0.27,3.11 0,1.65 0.09,3.57 0.27,5.75 0.27,4.23 0.4,7.6 0.4,10.09 0,4.46 -0.43,8.39 -1.3,11.8 -0.87,3.41 -2.74,6.22 -5.61,8.42 -2.87,2.21 -6.03,3.31 -9.46,3.31 z"
       id="path193"
       style="fill:#f15bb5;fill-opacity:1" />
    <path
       class="cls-2"
       d="m 184.15,485.23 c -2.05,0 -4.01,-0.65 -5.88,-1.94 -2.01,-1.56 -3.55,-3.64 -4.65,-6.25 -1.09,-2.61 -1.84,-5.4 -2.24,-8.39 -0.4,-2.98 -0.6,-5.75 -0.6,-8.29 0,-4.9 0.58,-9.74 1.74,-14.5 l 9.96,2.47 c -1.29,5.17 -1.94,9.76 -1.94,13.77 0,4.23 0.44,7.64 1.34,10.23 0.89,2.59 1.67,3.88 2.34,3.88 0.8,0 1.48,-0.33 2.04,-1 0.56,-0.67 1.04,-1.45 1.44,-2.34 0.4,-0.89 0.71,-1.71 0.94,-2.47 1.07,-4.19 1.6,-8.49 1.6,-12.9 0,-2.99 -0.22,-6.04 -0.67,-9.16 l 7.69,-1.34 c 0.76,3.88 1.14,8.22 1.14,13.03 0,11.1 -2.52,18.74 -7.55,22.93 -2.05,1.52 -4.28,2.27 -6.68,2.27 z"
       id="path195"
       style="fill:#f15bb5;fill-opacity:1" />
    <path
       class="cls-2"
       d="m 220.38,487.77 c -0.13,-1.6 -0.2,-3.16 -0.2,-4.68 0,-2.36 0.09,-4.61 0.27,-6.75 0.18,-2.14 0.27,-4.14 0.27,-6.02 0,-2.14 -0.21,-4.3 -0.64,-6.48 -0.42,-2.18 -1.2,-4.03 -2.34,-5.55 -1.14,-1.51 -2.75,-2.38 -4.85,-2.61 -0.62,9.72 -1,19.43 -1.14,29.14 l -7.82,-0.07 c -0.58,-9.76 -0.87,-19.54 -0.87,-29.34 l 0.13,-9.89 10.43,0.94 -0.07,1.34 c 2.9,0.18 5.5,1.11 7.82,2.81 2.14,1.6 3.8,3.58 4.98,5.92 1.18,2.34 2.01,4.88 2.47,7.62 0.46,2.74 0.7,5.45 0.7,8.12 l -0.13,8.29 c 0,2.05 0.11,4.03 0.33,5.95 l -9.36,1.27 z"
       id="path197"
       style="fill:#f15bb5;fill-opacity:1" />
    <path
       class="cls-2"
       d="m 227.93,499.94 -1,-0.07 0.27,-8.49 c 4.68,0 7.42,-2.56 8.22,-7.69 0.18,-1.25 0.27,-3.01 0.27,-5.28 0,-3.16 -0.22,-6.64 -0.67,-10.43 -0.31,-2.27 -0.51,-4.9 -0.6,-7.89 0,-4.37 0.9,-7.83 2.71,-10.39 1.8,-2.56 4.4,-3.84 7.79,-3.84 1.96,0 4.1,0.47 6.42,1.4 l -3.28,10.03 c -1.6,-0.67 -2.79,-1 -3.54,-1 l 0.07,-0.13 c -0.27,0 -0.49,0.43 -0.67,1.3 -0.18,0.87 -0.27,1.9 -0.27,3.11 0,1.65 0.09,3.57 0.27,5.75 0.27,4.23 0.4,7.6 0.4,10.09 0,4.46 -0.43,8.39 -1.3,11.8 -0.87,3.41 -2.74,6.22 -5.62,8.42 -2.87,2.21 -6.03,3.31 -9.46,3.31 z"
       id="path199"
       style="fill:#f15bb5;fill-opacity:1" />
    <path
       class="cls-2"
       d="m 268.37,485.23 c -1.47,0 -2.87,-0.18 -4.21,-0.53 -4.01,-1.38 -7.05,-4.09 -9.12,-8.12 -2.07,-4.03 -3.11,-8.26 -3.11,-12.67 0,-3.16 0.49,-5.99 1.47,-8.49 0.98,-2.49 2.48,-4.47 4.51,-5.92 2.03,-1.45 4.6,-2.17 7.72,-2.17 3.7,0.27 6.47,1.46 8.32,3.58 1.85,2.12 2.77,4.56 2.77,7.32 0,3.03 -1.17,5.97 -3.51,8.82 -2.34,2.85 -5.92,4.79 -10.73,5.82 0.85,1.56 1.79,2.67 2.84,3.34 1.05,0.67 1.99,1 2.84,1 1.47,0 2.49,-0.62 3.07,-1.87 l 7.49,2.34 c -0.71,2.27 -2.04,4.08 -3.98,5.41 -1.94,1.34 -4.07,2.05 -6.38,2.14 z m -7.89,-21.72 c 1.83,-0.31 3.26,-0.79 4.31,-1.44 1.05,-0.65 1.77,-1.34 2.17,-2.07 0.4,-0.73 0.6,-1.37 0.6,-1.91 0,-1.2 -0.85,-1.8 -2.54,-1.8 -0.62,0 -1.27,0.2 -1.94,0.6 -0.67,0.4 -1.25,1.13 -1.74,2.17 -0.49,1.05 -0.78,2.53 -0.87,4.44 z"
       id="path201"
       style="fill:#f15bb5;fill-opacity:1" />
    <path
       class="cls-2"
       d="m 297.52,486.1 c -2.81,0 -5.08,-0.76 -6.82,-2.27 -3.21,-2.76 -5.21,-7.46 -6.02,-14.1 -0.36,-2.99 -0.53,-6.51 -0.53,-10.56 l -4.68,0.2 -0.27,-7.82 5.21,-0.2 c 0.13,-2.14 0.31,-4.3 0.53,-6.48 l 10.76,1.74 c -0.27,1.43 -0.47,2.87 -0.6,4.35 l 8.89,-0.33 0.33,7.89 -10.03,0.33 c -0.18,1.87 -0.27,4.14 -0.27,6.82 0,5.93 0.85,9.76 2.54,11.5 0.36,0.27 0.74,0.4 1.14,0.4 0.49,-0.04 0.92,-0.48 1.3,-1.3 0.38,-0.82 0.57,-2.08 0.57,-3.78 l 7.82,-0.07 v 1.14 c 0,2.18 -0.37,4.23 -1.1,6.15 -0.74,1.92 -1.83,3.47 -3.28,4.65 -1.45,1.18 -3.29,1.77 -5.51,1.77 z"
       id="path203"
       style="fill:#f15bb5;fill-opacity:1" />
    <path
       class="cls-2"
       d="m 335.88,487.1 h -7.89 l -2.07,-40.91 h 9.76 v 1.87 c 0.94,-0.53 2.18,-0.8 3.74,-0.8 1.96,0 3.99,0.78 6.08,2.34 2.09,1.56 3.83,4.21 5.21,7.95 l -7.42,2.54 c -0.58,-1.69 -1.24,-2.95 -1.97,-3.78 -0.74,-0.82 -1.37,-1.24 -1.91,-1.24 -0.45,0 -1.04,0.4 -1.77,1.2 -0.73,0.8 -1.39,2.09 -1.97,3.88 l 0.2,26.94 z"
       id="path205"
       style="fill:#f15bb5;fill-opacity:1" />
    <path
       class="cls-2"
       d="m 356.8,454.75 c -1.29,0 -2.41,-0.47 -3.34,-1.4 -0.94,-0.94 -1.4,-2.05 -1.4,-3.34 0,-1.29 0.47,-2.39 1.4,-3.31 0.94,-0.91 2.05,-1.37 3.34,-1.37 1.29,0 2.39,0.46 3.31,1.37 0.91,0.91 1.37,2.02 1.37,3.31 0,1.29 -0.46,2.41 -1.37,3.34 -0.91,0.94 -2.02,1.4 -3.31,1.4 z m 4.68,31.88 h -7.82 l -1.6,-28.74 h 9.42 z"
       id="path207"
       style="fill:#f15bb5;fill-opacity:1" />
    <path
       class="cls-2"
       d="m 381.54,487.44 -0.4,-2.87 c -3.92,-0.85 -7.38,-2.23 -10.36,-4.14 -4.28,-2.72 -6.42,-6.48 -6.42,-11.3 0,-2.27 0.65,-4.37 1.94,-6.28 2.14,-3.16 6.19,-4.88 12.17,-5.15 -0.13,-3.07 -0.2,-6.86 -0.2,-11.36 l 10.09,0.67 c -0.27,4.14 -0.4,8.33 -0.4,12.57 0,9.54 0.47,18.52 1.4,26.94 l -7.82,0.94 z M 380,476.14 c -0.4,-3.56 -0.74,-7.11 -1,-10.63 -2.18,0.04 -3.74,0.29 -4.68,0.74 -1.43,0.62 -2.14,1.54 -2.14,2.74 0,0.62 0.16,1.34 0.47,2.14 0.71,1.96 3.16,3.63 7.35,5.01 z"
       id="path209"
       style="fill:#f15bb5;fill-opacity:1" />
    <path
       class="cls-2"
       d="m 407.67,485.23 c -1.47,0 -2.87,-0.18 -4.21,-0.53 -4.01,-1.38 -7.05,-4.09 -9.12,-8.12 -2.07,-4.03 -3.11,-8.26 -3.11,-12.67 0,-3.16 0.49,-5.99 1.47,-8.49 0.98,-2.49 2.48,-4.47 4.51,-5.92 2.03,-1.45 4.6,-2.17 7.72,-2.17 3.7,0.27 6.47,1.46 8.32,3.58 1.85,2.12 2.77,4.56 2.77,7.32 0,3.03 -1.17,5.97 -3.51,8.82 -2.34,2.85 -5.92,4.79 -10.73,5.82 0.85,1.56 1.79,2.67 2.84,3.34 1.05,0.67 1.99,1 2.84,1 1.47,0 2.49,-0.62 3.07,-1.87 l 7.49,2.34 c -0.71,2.27 -2.04,4.08 -3.98,5.41 -1.94,1.34 -4.07,2.05 -6.38,2.14 z m -7.89,-21.72 c 1.83,-0.31 3.26,-0.79 4.31,-1.44 1.05,-0.65 1.77,-1.34 2.17,-2.07 0.4,-0.73 0.6,-1.37 0.6,-1.91 0,-1.2 -0.85,-1.8 -2.54,-1.8 -0.62,0 -1.27,0.2 -1.94,0.6 -0.67,0.4 -1.25,1.13 -1.74,2.17 -0.49,1.05 -0.78,2.53 -0.87,4.44 z"
       id="path211"
       style="fill:#f15bb5;fill-opacity:1" />
  </g>
  <g
     id="MURA"
     style="fill:#f15bb5;fill-opacity:1"
     transform="matrix(0.89507485,0,0,0.89507485,-129.7769,-259.92357)">
    <path
       class="cls-2"
       d="m 219.03,376.82 v 61.24 c 0,0.6 -0.21,1.11 -0.62,1.53 -0.42,0.42 -0.92,0.63 -1.52,0.63 h -13.47 c -0.59,0 -1.1,-0.21 -1.52,-0.63 -0.42,-0.42 -0.62,-0.93 -0.62,-1.53 v -28.87 c 0,-0.6 -0.27,-0.92 -0.81,-0.99 -0.54,-0.06 -0.99,0.15 -1.35,0.63 l -15.1,24.3 c -0.3,0.48 -0.78,0.72 -1.44,0.72 -0.66,0 -1.17,-0.24 -1.53,-0.72 l -15.1,-24.3 c -0.3,-0.48 -0.72,-0.69 -1.26,-0.63 -0.54,0.06 -0.81,0.39 -0.81,0.99 v 28.87 c 0,0.6 -0.21,1.11 -0.62,1.53 -0.42,0.42 -0.92,0.63 -1.52,0.63 h -13.47 c -0.59,0 -1.1,-0.21 -1.52,-0.63 -0.42,-0.42 -0.62,-0.93 -0.62,-1.53 v -61.24 c 0,-0.6 0.21,-1.11 0.62,-1.52 0.42,-0.42 0.92,-0.63 1.52,-0.63 h 12.49 c 0.59,0 1.22,0.18 1.87,0.54 0.66,0.36 1.13,0.78 1.43,1.25 l 17.26,25.28 c 0.36,0.48 0.78,0.72 1.26,0.72 0.48,0 0.87,-0.24 1.17,-0.72 l 17.26,-25.28 c 0.36,-0.48 0.86,-0.9 1.52,-1.25 0.66,-0.36 1.28,-0.54 1.88,-0.54 h 12.49 c 0.59,0 1.1,0.21 1.52,0.63 0.42,0.42 0.62,0.93 0.62,1.52"
       id="path214"
       style="fill:#f15bb5;fill-opacity:1" />
    <path
       class="cls-2"
       d="m 224.68,376.82 c 0,-0.6 0.21,-1.11 0.62,-1.52 0.41,-0.42 0.92,-0.63 1.52,-0.63 h 13.47 c 0.59,0 1.1,0.21 1.52,0.63 0.42,0.42 0.62,0.93 0.62,1.52 v 36.31 c 0,2.33 0.37,4.26 1.13,5.78 0.75,1.52 1.68,2.72 2.79,3.59 1.11,0.87 2.3,1.48 3.56,1.84 1.26,0.36 2.4,0.54 3.42,0.54 1.02,0 2.16,-0.18 3.42,-0.54 1.26,-0.36 2.43,-0.97 3.51,-1.84 1.08,-0.87 1.99,-2.06 2.75,-3.59 0.75,-1.53 1.13,-3.45 1.13,-5.78 v -36.31 c 0,-0.6 0.21,-1.11 0.62,-1.52 0.42,-0.42 0.92,-0.63 1.52,-0.63 h 13.47 c 0.59,0 1.1,0.21 1.52,0.63 0.41,0.42 0.62,0.93 0.62,1.52 v 36.31 c 0,4.25 -0.67,8.1 -2.02,11.57 -1.34,3.47 -3.27,6.43 -5.77,8.88 -2.51,2.45 -5.52,4.35 -9.04,5.69 -3.52,1.35 -7.43,2.02 -11.73,2.02 -4.3,0 -8.21,-0.67 -11.73,-2.02 -3.52,-1.34 -6.54,-3.24 -9.04,-5.69 -2.51,-2.45 -4.45,-5.41 -5.82,-8.88 -1.37,-3.46 -2.06,-7.32 -2.06,-11.57 z"
       id="path216"
       style="fill:#f15bb5;fill-opacity:1" />
    <path
       class="cls-2"
       d="m 306.71,404.89 h 9.46 c 0.71,0 1.46,-0.13 2.23,-0.4 0.77,-0.27 1.49,-0.69 2.14,-1.25 0.65,-0.57 1.19,-1.27 1.61,-2.11 0.42,-0.84 0.63,-1.82 0.63,-2.96 0,-0.6 -0.1,-1.3 -0.31,-2.11 -0.21,-0.81 -0.57,-1.58 -1.07,-2.33 -0.51,-0.75 -1.19,-1.37 -2.05,-1.88 -0.86,-0.51 -1.92,-0.76 -3.17,-0.76 h -9.46 c -0.59,0 -1.1,0.21 -1.52,0.63 -0.42,0.42 -0.62,0.93 -0.62,1.52 v 9.5 c 0,0.6 0.21,1.11 0.62,1.52 0.42,0.42 0.92,0.63 1.52,0.63 m -4.3,35.33 h -13.43 c -0.6,0 -1.11,-0.21 -1.53,-0.63 -0.42,-0.42 -0.63,-0.93 -0.63,-1.52 v -61.33 c 0,-0.6 0.21,-1.11 0.63,-1.53 0.42,-0.42 0.92,-0.63 1.53,-0.63 h 27.88 c 3.47,0 6.66,0.58 9.59,1.75 2.93,1.16 5.42,2.79 7.49,4.89 2.06,2.09 3.68,4.57 4.84,7.44 1.17,2.87 1.75,6.04 1.75,9.5 0,1.91 -0.22,3.81 -0.67,5.69 -0.45,1.88 -1.09,3.66 -1.93,5.34 -0.84,1.67 -1.82,3.18 -2.96,4.53 -1.14,1.34 -2.42,2.47 -3.86,3.36 -0.48,0.36 -0.79,0.79 -0.94,1.3 -0.15,0.51 -0.04,1 0.31,1.48 2.27,2.99 4.66,6.07 7.17,9.24 2.51,3.17 4.75,6.07 6.73,8.7 0.36,0.48 0.45,1 0.27,1.57 -0.18,0.57 -0.57,0.85 -1.17,0.85 h -16.68 c -0.6,0 -1.24,-0.16 -1.93,-0.49 -0.69,-0.33 -1.21,-0.73 -1.57,-1.21 -1.9,-2.51 -3.79,-5.05 -5.67,-7.62 -1.88,-2.57 -3.73,-5.17 -5.58,-7.8 -0.36,-0.48 -0.86,-0.88 -1.52,-1.21 -0.65,-0.33 -1.28,-0.49 -1.87,-0.49 h -1.96 c -0.59,0 -1.1,0.21 -1.52,0.63 -0.42,0.42 -0.62,0.93 -0.62,1.52 v 14.53 c 0,0.6 -0.21,1.11 -0.63,1.52 -0.42,0.42 -0.93,0.63 -1.53,0.63"
       id="path218"
       style="fill:#f15bb5;fill-opacity:1" />
    <path
       class="cls-2"
       d="m 377.28,415.65 h 7.98 c 0.6,0 1.03,-0.19 1.3,-0.58 0.27,-0.39 0.25,-0.85 -0.04,-1.39 -0.6,-1.49 -1.32,-3.24 -2.15,-5.25 -0.84,-2 -1.61,-3.87 -2.33,-5.6 -0.24,-0.54 -0.51,-0.81 -0.81,-0.81 -0.3,0 -0.57,0.27 -0.81,0.81 l -4.48,10.85 c -0.24,0.54 -0.24,1 0,1.39 0.24,0.39 0.69,0.58 1.34,0.58 m -5.29,-39 c 0.24,-0.54 0.64,-1 1.21,-1.39 0.57,-0.39 1.18,-0.58 1.84,-0.58 h 12.55 c 0.6,0 1.18,0.2 1.75,0.58 0.57,0.39 0.97,0.85 1.21,1.39 l 26.18,60.97 c 0.24,0.54 0.19,1.11 -0.13,1.7 -0.33,0.6 -0.97,0.9 -1.93,0.9 h -15.33 c -0.66,0 -1.27,-0.19 -1.84,-0.58 -0.57,-0.39 -1,-0.85 -1.3,-1.39 l -2.42,-5.38 c -0.3,-0.54 -0.73,-1 -1.3,-1.39 -0.57,-0.39 -1.15,-0.58 -1.75,-0.58 h -18.92 c -0.66,0 -1.27,0.19 -1.84,0.58 -0.57,0.39 -0.97,0.85 -1.21,1.39 l -2.51,5.38 c -0.24,0.54 -0.64,1 -1.21,1.39 -0.57,0.39 -1.15,0.58 -1.75,0.58 h -15.42 c -0.3,0 -0.61,-0.06 -0.94,-0.18 -0.33,-0.12 -0.6,-0.3 -0.81,-0.54 -0.21,-0.24 -0.34,-0.54 -0.4,-0.9 -0.06,-0.36 0.03,-0.78 0.27,-1.26 l 26,-60.7 z"
       id="path220"
       style="fill:#f15bb5;fill-opacity:1" />
  </g>
</svg>