<?xml version="1.0" encoding="UTF-8" standalone="no"?>
<svg width="45px" height="45px" style="transform: scale(0.5)">
  <path d="M 6.3748091,0 C 5.5438099,0 4.8748995,1.6722742 4.8748995,3.7497735 V 27.181303 A 6.3750048,6.3750048 0 0 0 0,33.374733 6.3750048,6.3750048 0 0 0 4.8748995,39.568545 v 1.681291 c 0,2.0775 0.6689104,3.75016 1.4999096,3.75016 0.8310004,0 1.5002978,-1.67266 1.5002978,-3.75016 V 39.568545 A 6.3750048,6.3750048 0 0 0 12.750006,33.374733 6.3750048,6.3750048 0 0 0 7.8751069,27.179368 V 3.7497735 C 7.8751069,1.6722742 7.2058095,0 6.3748091,0 Z M 22.499807,0 c -0.831001,0 -1.49991,1.6722742 -1.49991,3.7497735 v 3.1815911 a 6.3750048,6.3750048 0 0 0 -4.874901,6.1934254 6.3750048,6.3750048 0 0 0 4.874901,6.193425 v 21.931621 c 0,2.0775 0.668909,3.75016 1.49991,3.75016 0.830999,0 1.500296,-1.67266 1.500296,-3.75016 V 19.318215 a 6.3750048,6.3750048 0 0 0 4.8749,-6.193425 6.3750048,6.3750048 0 0 0 -4.8749,-6.1953626 V 3.7497735 C 24.000103,1.6722742 23.330806,0 22.499807,0 Z m 16.124995,0 c -0.831,0 -1.499909,1.6722742 -1.499909,3.7497735 V 16.306381 a 6.3750048,6.3750048 0 0 0 -4.874899,6.193424 6.3750048,6.3750048 0 0 0 4.874899,6.193425 v 12.556606 c 0,2.0775 0.668909,3.75016 1.499909,3.75016 0.830999,0 1.500297,-1.67266 1.500297,-3.75016 V 28.69323 A 6.3750048,6.3750048 0 0 0 45,22.499805 6.3750048,6.3750048 0 0 0 40.125099,16.304056 V 3.7497735 C 40.125099,1.6722742 39.455801,0 38.624802,0 Z" />
</svg>
