<?xml version="1.0" encoding="UTF-8" standalone="no"?>
<svg
   width="210mm"
   height="297mm"
   viewBox="0 0 210 297"><path
       id="path246"
       style="fill:#000000;stroke-width:1;stroke-linejoin:round;stroke-miterlimit:1;paint-order:markers fill stroke"
       d="M 34.999931 15.000118 A 4 4 0 0 0 31.000175 18.999874 A 4 4 0 0 0 31.089058 19.830831 L 18.001485 26.356531 A 4 4 0 0 0 15.000118 25.000024 A 4 4 0 0 0 10.999845 28.99978 A 4 4 0 0 0 15.000118 33.000053 A 4 4 0 0 0 18.019572 31.619259 L 31.09526 38.138241 A 4 4 0 0 0 31.000175 39.000203 A 4 4 0 0 0 34.999931 42.999959 A 4 4 0 0 0 39.000203 39.000203 A 4 4 0 0 0 34.999931 34.999931 A 4 4 0 0 0 31.990812 36.36884 L 18.90789 29.84624 A 4 4 0 0 0 18.999874 28.99978 A 4 4 0 0 0 18.902205 28.122831 L 31.970142 21.60695 A 4 4 0 0 0 34.999931 23.000146 A 4 4 0 0 0 39.000203 18.999874 A 4 4 0 0 0 34.999931 15.000118 z " /></svg>
