<?xml version="1.0" encoding="UTF-8" standalone="no"?>
<svg width="45px" height="45px">
  <path d="m 38.571072,0 a 6.4284878,6.4284878 0 0 0 -6.428096,6.4280952 6.4284878,6.4284878 0 0 0 0.142841,1.3354492 L 11.252491,18.25114 A 6.4284878,6.4284878 0 0 0 6.4289274,16.071068 6.4284878,6.4284878 0 0 0 0,22.499164 6.4284878,6.4284878 0 0 0 6.4289274,28.928091 6.4284878,6.4284878 0 0 0 11.281558,26.708986 l 21.014226,10.4768 A 6.4284878,6.4284878 0 0 0 32.142979,38.571064 6.4284878,6.4284878 0 0 0 38.571075,44.99916 6.4284878,6.4284878 0 0 0 45,38.571064 6.4284878,6.4284878 0 0 0 38.571075,32.142139 6.4284878,6.4284878 0 0 0 33.735053,34.342143 L 12.709201,23.859529 A 6.4284878,6.4284878 0 0 0 12.857024,22.499164 6.4284878,6.4284878 0 0 0 12.700057,21.0898 L 33.701826,10.617984 A 6.4284878,6.4284878 0 0 0 38.571067,12.85702 6.4284878,6.4284878 0 0 0 44.999992,6.4280952 6.4284878,6.4284878 0 0 0 38.571067,0" style="stroke-width:1.60712"/>
</svg>
