<?xml version="1.0" encoding="UTF-8" standalone="no"?>
<svg
   width="40px"
   height="45px">
  <path
     d="m 4,0 v 1.6464844 h 11.449219 c 0.100788,0 0.199962,0.00567 0.294922,0.015625 0.09496,0.00996 0.186241,0.024043 0.273437,0.042969 0.0872,0.018926 0.168595,0.041456 0.246094,0.068359 0.0775,0.026903 0.150929,0.057906 0.216797,0.091797 0.06587,0.033891 0.125432,0.07144 0.177734,0.1113281 0.0523,0.039888 0.09601,0.082059 0.132813,0.1269531 0.0368,0.044895 0.06657,0.091714 0.08594,0.140625 0.01937,0.048911 0.0293,0.1004065 0.0293,0.1523438 0,0.051937 -0.0099,0.1034327 -0.0293,0.1523437 -0.01937,0.048911 -0.04913,0.095731 -0.08594,0.140625 -0.0368,0.044895 -0.08051,0.087066 -0.132813,0.1269531 -0.0523,0.039888 -0.111867,0.077438 -0.177734,0.1113282 -0.06587,0.033891 -0.139298,0.064893 -0.216797,0.091797 -0.0775,0.026903 -0.158898,0.049434 -0.246094,0.068359 -0.0872,0.018926 -0.178478,0.033011 -0.273437,0.042969 -0.09496,0.00996 -0.194134,0.015625 -0.294922,0.015625 H 4 v 1.2421875 h 5.474609 c 0.100789,0 0.196007,0.012608 0.283204,0.035156 0.0872,0.022548 0.166554,0.055302 0.232421,0.095703 0.06587,0.040402 0.119448,0.089017 0.15625,0.1425782 0.0184,0.02678 0.03133,0.054794 0.04102,0.083984 0.0097,0.02919 0.01563,0.058831 0.01563,0.089844 0,0.031013 -0.0059,0.060654 -0.01563,0.089844 -0.0097,0.02919 -0.02261,0.057204 -0.04102,0.083984 -0.0368,0.053561 -0.09038,0.1021765 -0.15625,0.1425782 -0.06587,0.040402 -0.145225,0.073155 -0.232421,0.095703 -0.0872,0.022548 -0.182415,0.035156 -0.283204,0.035156 H 4 V 6.777343 h 5.474609 c 0.100789,-1e-7 0.196007,0.012608 0.283204,0.035156 0.0872,0.022548 0.166554,0.055301 0.232421,0.095703 0.06587,0.040402 0.119448,0.089017 0.15625,0.1425781 0.0184,0.026781 0.03133,0.054794 0.04102,0.083984 0.0097,0.02919 0.01563,0.058831 0.01563,0.089844 0,0.031013 -0.0059,0.060654 -0.01563,0.089844 -0.0097,0.02919 -0.02261,0.057204 -0.04102,0.083984 -0.0368,0.053561 -0.09038,0.1021765 -0.15625,0.1425781 -0.06587,0.040402 -0.145225,0.073155 -0.232421,0.095703 -0.0872,0.022548 -0.182415,0.035156 -0.283204,0.035156 H 4 v 1.4941406 h 5.474609 c 0.100789,0 0.196007,0.012608 0.283204,0.035156 0.0872,0.022548 0.166554,0.055301 0.232421,0.095703 0.06587,0.040402 0.119448,0.089017 0.15625,0.1425781 0.0184,0.026781 0.03133,0.054794 0.04102,0.083984 0.0097,0.02919 0.01563,0.058831 0.01563,0.089844 0,0.031013 -0.0059,0.060654 -0.01563,0.089844 -0.0097,0.02919 -0.02261,0.057204 -0.04102,0.083984 -0.0368,0.053561 -0.09038,0.1021764 -0.15625,0.1425781 -0.06587,0.040402 -0.145225,0.073156 -0.232421,0.095704 -0.0872,0.02255 -0.182415,0.03516 -0.283204,0.03516 H 4 v 1.494141 h 5.474609 c 0.100789,-1e-6 0.196007,0.01261 0.283204,0.03516 0.0872,0.02255 0.166554,0.0553 0.232421,0.0957 0.06587,0.0404 0.119448,0.08902 0.15625,0.142578 0.0184,0.02678 0.03133,0.05479 0.04102,0.08398 0.0097,0.02919 0.01563,0.05883 0.01563,0.08984 0,0.03101 -0.0059,0.06065 -0.01563,0.08984 -0.0097,0.02919 -0.02261,0.0572 -0.04102,0.08398 -0.0368,0.05356 -0.09038,0.102177 -0.15625,0.142578 -0.06587,0.0404 -0.145225,0.07315 -0.232421,0.0957 -0.0872,0.02255 -0.182415,0.03516 -0.283204,0.03516 H 4 v 1.140625 h 11.449219 c 0.100788,0 0.199962,0.0057 0.294922,0.01563 0.09496,0.01 0.186241,0.02404 0.273437,0.04297 0.0872,0.01892 0.168595,0.04146 0.246094,0.06836 0.0775,0.0269 0.150929,0.05791 0.216797,0.0918 0.06587,0.03389 0.125432,0.07144 0.177734,0.111328 0.0523,0.03989 0.09601,0.08206 0.132813,0.126953 0.0368,0.0449 0.06657,0.09171 0.08594,0.140625 0.01937,0.04891 0.0293,0.100406 0.0293,0.152344 0,0.05194 -0.0099,0.103433 -0.0293,0.152344 -0.01937,0.04891 -0.04913,0.09573 -0.08594,0.140624 -0.0368,0.0449 -0.08051,0.08707 -0.132813,0.126954 -0.0523,0.03989 -0.111867,0.07744 -0.177734,0.111328 -0.06587,0.03389 -0.139298,0.06489 -0.216797,0.0918 -0.0775,0.0269 -0.158898,0.04943 -0.246094,0.06836 -0.0872,0.01893 -0.178478,0.03301 -0.273437,0.04297 -0.09496,0.01 -0.194134,0.01563 -0.294922,0.01563 H 4 v 1.240234 h 5.474609 c 0.100789,0 0.196008,0.01243 0.283204,0.03516 0.0872,0.02273 0.166554,0.05506 0.232421,0.0957 0.06587,0.04064 0.119448,0.08883 0.15625,0.142578 0.0184,0.02687 0.03133,0.05669 0.04102,0.08594 0.0097,0.02924 0.01563,0.05883 0.01563,0.08984 0,0.03101 -0.0059,0.06065 -0.01563,0.08984 -0.0097,0.02919 -0.02261,0.0572 -0.04102,0.08398 -0.0368,0.05356 -0.09038,0.102177 -0.15625,0.142578 -0.06587,0.0404 -0.145225,0.07315 -0.232421,0.0957 -0.0872,0.02255 -0.182415,0.03516 -0.283204,0.03516 H 4 v 1.492188 h 5.5 c 0.100788,0 0.196007,0.01243 0.283203,0.03516 0.0872,0.02273 0.166555,0.05506 0.232422,0.0957 0.06587,0.04065 0.119448,0.08883 0.15625,0.142579 0.0184,0.02687 0.03133,0.05669 0.04102,0.08594 0.0097,0.02924 0.01563,0.05883 0.01563,0.08984 0,0.03101 -0.0059,0.06065 -0.01563,0.08984 -0.0097,0.02919 -0.02261,0.0572 -0.04102,0.08398 -0.0368,0.05356 -0.09038,0.102176 -0.15625,0.142578 -0.06587,0.0404 -0.145226,0.07315 -0.232422,0.0957 -0.0872,0.02255 -0.182415,0.03516 -0.283203,0.03516 H 4 v 1.492188 h 5.474609 c 0.100789,0 0.196008,0.01243 0.283204,0.03516 0.0872,0.02273 0.166554,0.05506 0.232421,0.0957 0.06587,0.04065 0.119448,0.08883 0.15625,0.142578 0.0184,0.02687 0.03133,0.05669 0.04102,0.08594 0.0097,0.02924 0.01563,0.05883 0.01563,0.08984 0,0.03101 -0.0059,0.06065 -0.01563,0.08984 -0.0097,0.02919 -0.02261,0.0572 -0.04102,0.08398 -0.0368,0.05356 -0.09038,0.102176 -0.15625,0.142578 -0.06587,0.0404 -0.145225,0.07315 -0.232421,0.0957 -0.0872,0.02255 -0.182415,0.03516 -0.283204,0.03516 H 4 v 1.492188 h 5.474609 c 0.100789,0 0.196008,0.01261 0.283204,0.03516 0.0872,0.02255 0.166554,0.0553 0.232421,0.0957 0.06587,0.0404 0.119448,0.08902 0.15625,0.142578 0.0184,0.02678 0.03133,0.05479 0.04102,0.08398 0.0097,0.02919 0.01563,0.05883 0.01563,0.08984 0,0.03101 -0.0059,0.0606 -0.01563,0.08984 -0.0097,0.02924 -0.02261,0.05907 -0.04102,0.08594 -0.0368,0.05374 -0.09038,0.101932 -0.15625,0.142578 -0.06587,0.04065 -0.145225,0.07297 -0.232421,0.0957 -0.0872,0.02273 -0.182415,0.03516 -0.283204,0.03516 H 4 v 1.140625 h 11.449219 c 0.100788,0 0.199962,0.0057 0.294922,0.01563 0.09496,0.01 0.186241,0.02404 0.273437,0.04297 0.0872,0.01893 0.168595,0.04146 0.246094,0.06836 0.0775,0.0269 0.150929,0.05791 0.216797,0.0918 0.06587,0.03389 0.125432,0.07144 0.177734,0.111328 0.0523,0.03989 0.09601,0.08206 0.132813,0.126953 0.0368,0.0449 0.06657,0.09171 0.08594,0.140625 0.01937,0.04891 0.0293,0.100407 0.0293,0.152344 0,0.05194 -0.0099,0.103433 -0.0293,0.152344 -0.01937,0.04891 -0.04913,0.09573 -0.08594,0.140625 -0.0368,0.04489 -0.08051,0.08706 -0.132813,0.126953 -0.0523,0.03989 -0.111867,0.07744 -0.177734,0.111328 -0.06587,0.03389 -0.139298,0.06489 -0.216797,0.0918 -0.0775,0.0269 -0.158898,0.04943 -0.246094,0.06836 -0.0872,0.01893 -0.178478,0.03301 -0.273437,0.04297 -0.09496,0.01 -0.194134,0.01563 -0.294922,0.01563 H 4 v 1.240235 h 5.474609 c 0.100789,0 0.196008,0.01261 0.283204,0.03516 0.0872,0.02255 0.166554,0.0553 0.232421,0.0957 0.06587,0.0404 0.119448,0.08902 0.15625,0.142578 0.0184,0.02678 0.03133,0.05479 0.04102,0.08398 0.0097,0.02919 0.01563,0.05883 0.01563,0.08984 0,0.03101 -0.0059,0.0606 -0.01563,0.08984 -0.0097,0.02924 -0.02261,0.05907 -0.04102,0.08594 -0.0368,0.05374 -0.09038,0.101933 -0.15625,0.142578 -0.06587,0.04065 -0.145225,0.07297 -0.232421,0.0957 -0.0872,0.02273 -0.182415,0.03516 -0.283204,0.03516 H 4 v 1.492187 h 5.5 c 0.100788,0 0.196007,0.01261 0.283203,0.03516 0.0872,0.02255 0.166555,0.0553 0.232422,0.0957 0.06587,0.0404 0.119448,0.08902 0.15625,0.142578 0.0184,0.02678 0.03133,0.05479 0.04102,0.08398 0.0097,0.02919 0.01563,0.05883 0.01563,0.08984 0,0.03101 -0.0059,0.06065 -0.01563,0.08984 -0.0097,0.02919 -0.02261,0.0572 -0.04102,0.08398 -0.0368,0.05356 -0.09038,0.102177 -0.15625,0.142578 -0.06587,0.0404 -0.145226,0.07315 -0.232422,0.0957 -0.0872,0.02255 -0.182415,0.03516 -0.283203,0.03516 H 4 v 1.49414 h 5.474609 c 0.100789,0 0.196008,0.01261 0.283204,0.03516 0.0872,0.02255 0.166554,0.0553 0.232421,0.0957 0.06587,0.0404 0.119448,0.08902 0.15625,0.142578 0.0184,0.02678 0.03133,0.05479 0.04102,0.08398 0.0097,0.02919 0.01563,0.05883 0.01563,0.08984 0,0.03101 -0.0059,0.06065 -0.01563,0.08984 -0.0097,0.02919 -0.02261,0.0572 -0.04102,0.08398 -0.0368,0.05356 -0.09038,0.102177 -0.15625,0.142578 -0.06587,0.0404 -0.145225,0.07316 -0.232421,0.0957 -0.0872,0.02255 -0.182415,0.03516 -0.283204,0.03516 H 4 v 1.494141 h 5.474609 c 0.100789,0 0.196008,0.01261 0.283204,0.03516 0.0872,0.02255 0.166554,0.0553 0.232421,0.0957 0.06587,0.0404 0.119448,0.08902 0.15625,0.142579 0.0184,0.02678 0.03133,0.05479 0.04102,0.08398 0.0097,0.02919 0.01563,0.05883 0.01563,0.08984 0,0.03101 -0.0059,0.06065 -0.01563,0.08984 -0.0097,0.02919 -0.02261,0.0572 -0.04102,0.08399 -0.0368,0.05356 -0.09038,0.102177 -0.15625,0.142578 -0.06587,0.0404 -0.145225,0.07315 -0.232421,0.0957 -0.0872,0.02255 -0.182415,0.03516 -0.283204,0.03516 H 4 v 1.140625 h 11.449219 c 0.100788,0 0.199962,0.0057 0.294922,0.01563 0.09496,0.01 0.186241,0.02404 0.273437,0.04297 0.0872,0.01893 0.168595,0.04146 0.246094,0.06836 0.0775,0.0269 0.150929,0.05791 0.216797,0.0918 0.06587,0.03389 0.125432,0.07144 0.177734,0.111329 0.0523,0.03989 0.09601,0.08206 0.132813,0.126953 0.0368,0.04489 0.06657,0.09171 0.08594,0.140625 0.01937,0.04891 0.0293,0.100406 0.0293,0.152343 0,0.05194 -0.0099,0.103433 -0.0293,0.152344 -0.01937,0.04891 -0.04913,0.09573 -0.08594,0.140625 -0.0368,0.0449 -0.08051,0.08707 -0.132813,0.126953 -0.0523,0.03989 -0.111867,0.07744 -0.177734,0.111328 -0.06587,0.03389 -0.139298,0.06489 -0.216797,0.0918 -0.0775,0.0269 -0.158898,0.04943 -0.246094,0.06836 -0.0872,0.01892 -0.178478,0.03301 -0.273437,0.04297 -0.09496,0.01 -0.194134,0.01563 -0.294922,0.01563 H 4 v 1.242188 h 5.474609 c 0.100789,0 0.196008,0.01261 0.283204,0.03516 0.0872,0.02255 0.166554,0.0553 0.232421,0.0957 0.06587,0.0404 0.119448,0.08902 0.15625,0.142578 0.0184,0.02678 0.03133,0.0548 0.04102,0.08399 0.0097,0.02919 0.01563,0.05883 0.01563,0.08984 0,0.03101 -0.0059,0.06065 -0.01563,0.08984 -0.0097,0.02919 -0.02261,0.0572 -0.04102,0.08399 -0.0368,0.05356 -0.09038,0.102176 -0.15625,0.142578 -0.06587,0.0404 -0.145225,0.07315 -0.232421,0.0957 -0.0872,0.02255 -0.182415,0.03516 -0.283204,0.03516 H 4 v 1.492188 h 5.5 c 0.100788,0 0.196007,0.01243 0.283203,0.03516 0.0872,0.02273 0.166555,0.05506 0.232422,0.0957 0.06587,0.04065 0.119448,0.08883 0.15625,0.142578 0.0184,0.02687 0.03133,0.05669 0.04102,0.08594 0.0097,0.02924 0.01563,0.05883 0.01563,0.08984 0,0.03101 -0.0059,0.06065 -0.01563,0.08984 -0.0097,0.02919 -0.02261,0.0572 -0.04102,0.08398 -0.0368,0.05356 -0.09038,0.102177 -0.15625,0.142579 -0.06587,0.0404 -0.145226,0.07315 -0.232422,0.0957 -0.0872,0.02255 -0.182415,0.03516 -0.283203,0.03516 H 4 v 1.5 h 32 v -3.28125 H 24.486328 c -0.100788,0 -0.199963,-0.0057 -0.294922,-0.01563 -0.09496,-0.01 -0.186241,-0.02404 -0.273437,-0.04297 -0.0872,-0.01892 -0.168595,-0.04146 -0.246094,-0.06836 -0.0775,-0.0269 -0.15093,-0.05791 -0.216797,-0.0918 -0.06587,-0.03389 -0.125433,-0.07144 -0.177734,-0.111328 -0.0523,-0.03989 -0.09601,-0.08206 -0.132813,-0.126953 -0.0368,-0.0449 -0.06657,-0.09171 -0.08594,-0.140625 -0.01937,-0.04891 -0.0293,-0.100406 -0.0293,-0.152344 0,-0.05194 0.0099,-0.103433 0.0293,-0.152344 0.01937,-0.04891 0.04913,-0.09573 0.08594,-0.140625 0.0368,-0.04489 0.08051,-0.08706 0.132813,-0.126953 0.0523,-0.03989 0.111867,-0.07744 0.177734,-0.111328 0.06587,-0.03389 0.139298,-0.06489 0.216797,-0.0918 0.0775,-0.0269 0.158898,-0.04943 0.246094,-0.06836 0.0872,-0.01893 0.178478,-0.03301 0.273437,-0.04297 0.09496,-0.01 0.194134,-0.01563 0.294922,-0.01563 H 36 v -5.986328 h -5.474609 c -0.100789,0 -0.196007,-0.01261 -0.283203,-0.03516 -0.0872,-0.02255 -0.166555,-0.0553 -0.232422,-0.0957 -0.06587,-0.0404 -0.119448,-0.08902 -0.15625,-0.142578 -0.0184,-0.02678 -0.03133,-0.05479 -0.04102,-0.08398 -0.0097,-0.02919 -0.01563,-0.05883 -0.01563,-0.08984 0,-0.03101 0.0059,-0.06065 0.01563,-0.08984 0.0097,-0.02919 0.02261,-0.0572 0.04102,-0.08398 0.0368,-0.05356 0.09038,-0.102176 0.15625,-0.142578 0.06587,-0.0404 0.145225,-0.07316 0.232422,-0.0957 0.0872,-0.02255 0.182414,-0.03516 0.283203,-0.03516 H 36 V 26.3984 h -5.474609 c -0.100789,0 -0.196007,-0.01261 -0.283203,-0.03516 -0.0872,-0.02255 -0.166555,-0.0553 -0.232422,-0.0957 -0.06587,-0.0404 -0.119448,-0.08902 -0.15625,-0.142578 -0.0184,-0.02678 -0.03133,-0.05479 -0.04102,-0.08398 -0.0097,-0.02919 -0.01563,-0.05883 -0.01563,-0.08984 0,-0.03101 0.0059,-0.0606 0.01563,-0.08984 0.0097,-0.02924 0.02261,-0.05907 0.04102,-0.08594 0.0368,-0.05374 0.09038,-0.101933 0.15625,-0.142579 0.06587,-0.04065 0.145225,-0.07297 0.232422,-0.0957 0.0872,-0.02273 0.182414,-0.03516 0.283203,-0.03516 H 36 v -6.9375 h -5.474609 c -0.100789,0 -0.196007,-0.01261 -0.283203,-0.03516 -0.0872,-0.02255 -0.166555,-0.0553 -0.232422,-0.0957 -0.06587,-0.0404 -0.119448,-0.08902 -0.15625,-0.142578 -0.0184,-0.02678 -0.03133,-0.05479 -0.04102,-0.08398 -0.0097,-0.02919 -0.01563,-0.05883 -0.01563,-0.08984 0,-0.03101 0.0059,-0.0606 0.01563,-0.08984 0.0097,-0.02924 0.02261,-0.05907 0.04102,-0.08594 0.0368,-0.05374 0.09038,-0.101932 0.15625,-0.142578 0.06587,-0.04065 0.145225,-0.07297 0.232422,-0.0957 0.0872,-0.02273 0.182414,-0.03516 0.283203,-0.03516 H 36 v -6.937478 h -5.474609 c -0.100789,0 -0.196007,-0.01242 -0.283203,-0.03516 -0.0872,-0.02273 -0.166555,-0.05506 -0.232422,-0.0957 -0.06587,-0.04064 -0.119448,-0.08883 -0.15625,-0.142578 -0.0184,-0.02687 -0.03133,-0.05669 -0.04102,-0.08594 -0.0097,-0.02924 -0.01563,-0.05883 -0.01563,-0.08984 0,-0.03101 0.0059,-0.06065 0.01563,-0.08984 0.0097,-0.02919 0.02261,-0.0572 0.04102,-0.08398 0.0368,-0.05356 0.09038,-0.102177 0.15625,-0.1425782 0.06587,-0.040402 0.145225,-0.073155 0.232422,-0.095703 0.0872,-0.022548 0.182414,-0.035156 0.283203,-0.035156 H 36 v -6.6875 H 24.550781 c -0.100788,0 -0.199963,-0.00567 -0.294922,-0.015625 -0.09496,-0.00996 -0.186241,-0.024043 -0.273437,-0.042969 -0.0872,-0.018926 -0.168595,-0.041456 -0.246094,-0.068359 -0.0775,-0.026903 -0.150929,-0.057906 -0.216797,-0.091797 -0.06587,-0.033891 -0.125432,-0.071441 -0.177734,-0.1113282 -0.0523,-0.039888 -0.09601,-0.082059 -0.132813,-0.1269531 -0.0368,-0.044894 -0.06657,-0.091714 -0.08594,-0.140625 -0.01937,-0.048911 -0.0293,-0.1004063 -0.0293,-0.1523437 0,-0.051937 0.0099,-0.1034328 0.0293,-0.1523438 0.01937,-0.048911 0.04913,-0.09573 0.08594,-0.140625 0.0368,-0.044894 0.08051,-0.087065 0.132813,-0.1269531 0.0523,-0.039888 0.111867,-0.077438 0.177734,-0.1113281 0.06587,-0.033891 0.139298,-0.064893 0.216797,-0.091797 0.0775,-0.026903 0.158898,-0.049434 0.246094,-0.068359 0.0872,-0.018926 0.178478,-0.033011 0.273437,-0.042969 0.09496,-0.00996 0.194134,-0.015625 0.294922,-0.015625 H 36 V 4.4e-7 Z"/>
</svg>
