<?xml version="1.0" encoding="UTF-8" standalone="no"?>
<svg width="45px" height="45px">
  <path style="stroke-width:3.78054" d="M 45,22.5 C 40.820044,14.18942 32.313748,8.5 22.5,8.5 12.686253,8.5 4.1799559,14.18942 0,22.5 c 4.1799559,8.31058 12.686253,14 22.5,14 9.813748,0 18.320044,-5.68942 22.5,-14 z m -22.5,9.33333 c 5.071702,0 9.183129,-4.17867 9.183129,-9.33333 0,-5.15466 -4.111427,-9.33333 -9.183129,-9.33333 -5.071702,0 -9.183129,4.17867 -9.183129,9.33333 0,5.15466 4.111427,9.33333 9.183129,9.33333 z m 0,-4.66666 c 2.535852,0 4.591564,-2.08934 4.591564,-4.66667 0,-2.57733 -2.055712,-4.66667 -4.591564,-4.66667 -2.535851,0 -4.591565,2.08934 -4.591565,4.66667 0,2.57733 2.055714,4.66667 4.591565,4.66667 z"/>
</svg>
